<?xml version="1.0" encoding="UTF-8" standalone="no"?>
<svg width="187px" height="182px" viewBox="0 0 187 182" version="1.1" xmlns="http://www.w3.org/2000/svg" xmlns:xlink="http://www.w3.org/1999/xlink" xmlns:sketch="http://www.bohemiancoding.com/sketch/ns">
    <!-- Generator: Sketch 3.5.2 (25235) - http://www.bohemiancoding.com/sketch -->
    <title>ELPA-Logo+Wordmark</title>
    <desc>Created with Sketch.</desc>
    <defs>
        <path id="path-1" d="M47.2872376,106.646121 L73.1541934,106.646121 L73.1541934,94.4408469 C73.2492431,94.3880416 73.3442928,94.3342009 73.4393425,94.2803602 C73.7771823,94.6675991 74.093326,95.075546 74.4559613,95.4389708 C76.9076243,97.899077 79.3799503,100.340546 81.8171492,102.816183 C82.1115967,103.115413 82.4029448,103.584449 82.4070773,103.9779 C82.4504696,107.786095 82.4329061,111.595325 82.4277403,115.404555 C82.4267072,115.564006 82.3760829,115.722422 82.3368232,115.949174 L81.3357017,115.949174 C73.4031823,115.95021 65.470663,115.940891 57.5391768,115.964705 C56.8562652,115.966776 56.3758508,115.776263 55.8964696,115.28859 C53.1141989,112.460918 50.3009337,109.664307 47.2872376,106.646121"></path>
        <path id="path-3" d="M0,0.13409699 L172.865294,0.13409699 L172.865294,45 L0,45 L0,0.13409699 Z"></path>
        <path id="path-5" d="M0,0.13409699 L172.865294,0.13409699 L172.865294,45 L0,45"></path>
    </defs>
    <g id="v1" stroke="none" stroke-width="1" fill="none" fill-rule="evenodd" sketch:type="MSPage">
        <g id="v1-bio" sketch:type="MSArtboardGroup" transform="translate(-122.000000, -50.000000)">
            <g id="ELPA-Logo+Wordmark" sketch:type="MSLayerGroup" transform="translate(122.000000, 50.000000)">
                <g id="ELPA">
                    <path d="M113.310532,68.4172513 L113.310532,115.864375 C113.032615,115.897508 112.812554,115.946172 112.592493,115.946172 C108.659294,115.950313 104.725062,115.958596 100.791864,115.933747 C100.43956,115.931676 99.9911729,115.802251 99.7504492,115.565145 C96.8989575,112.755074 94.0784602,109.913942 91.2517641,107.077986 C91.168079,106.994119 91.1143552,106.880225 90.9562834,106.646225 L104.027687,106.646225 L104.027687,59.339915 C105.514388,59.2684726 106.888477,59.2167027 108.259466,59.1349062 C115.176399,58.7217823 119.331725,54.7955522 121.618085,48.5313929 C122.625405,45.7699858 123.011803,42.8884726 123.016969,39.9614018 C123.029366,32.2756407 123.036598,24.5898796 122.999405,16.905154 C122.981841,13.1932513 122.079902,9.71224248 119.981576,6.5977646 C119.927852,6.51803894 119.895825,6.4238177 119.863797,6.33166726 C119.856565,6.31303009 119.896858,6.27886195 119.968145,6.17428673 C121.674908,7.8868354 123.38167,9.57660531 125.062604,11.2922602 C126.311681,12.5668354 127.617582,13.8010301 128.741648,15.1812159 C131.195377,18.197331 132.22646,21.7953398 132.272952,25.6004283 C132.375234,33.8142425 132.412427,42.0332336 132.263654,50.2460124 C132.174803,55.1672602 130.818278,59.7737469 127.552493,63.6378531 C124.968587,66.6953841 121.607753,68.161508 117.684886,68.4037912 C116.27567,68.4907646 114.857156,68.4172513 113.310532,68.4172513" id="Fill-1" fill="#7CACDE" sketch:type="MSShapeGroup"></path>
                    <path d="M186.972002,115.949692 L181.444654,115.949692 C179.262643,115.949692 177.080631,115.968329 174.89862,115.93209 C174.513256,115.924842 174.025609,115.791276 173.766289,115.533462 C170.947858,112.735816 168.165587,109.901931 165.375051,107.075294 C165.292399,106.991427 165.238676,106.876497 165.077504,106.63525 L177.699488,106.63525 C174.808736,71.2018513 171.928317,35.8833823 169.035499,0.413745133 C169.318582,0.639461947 169.523145,0.774063717 169.693615,0.942833628 C172.384969,3.63486903 175.08562,6.31758584 177.743913,9.04171858 C178.072455,9.37822301 178.305946,9.93216106 178.347272,10.4063735 C178.95683,17.3280106 179.53746,24.252754 180.102593,31.1785327 C180.597471,37.2470018 181.054123,43.3196124 181.549002,49.3880814 C182.111035,56.2817628 182.706129,63.1723381 183.269195,70.0649841 C183.762007,76.1003204 184.221759,82.1397982 184.713538,88.1751345 C185.210482,94.2767363 185.735322,100.376267 186.236399,106.476834 C186.49262,109.599595 186.72198,112.725462 186.972002,115.949692" id="Fill-3" fill="#7CACDE" sketch:type="MSShapeGroup"></path>
                    <path d="M70.0857403,94.0571283 L60.9372044,94.0571283 L60.9372044,0.378438053 C61.2481823,0.659030973 61.4651436,0.837119469 61.6624751,1.03488053 C64.2835746,3.65754425 66.9170718,6.26674779 69.5009779,8.92461504 C69.8450166,9.27975664 70.1084696,9.8865 70.1084696,10.3772788 C70.1373978,37.9468274 70.1342983,65.5174115 70.132232,93.0869602 C70.132232,93.3810133 70.1053702,93.6750664 70.0857403,94.0571283" id="Fill-5" fill="#7CACDE" sketch:type="MSShapeGroup"></path>
                    <path d="M13.2588166,59.333185 L24.9964243,59.333185 L24.9964243,46.920831 C25.3321978,47.1952115 25.5098994,47.3184239 25.6617724,47.4685566 C28.3634575,50.1460965 31.068242,52.8205301 33.7533967,55.5146363 C34.0127171,55.7755566 34.3174961,56.1555478 34.3205956,56.483769 C34.3588221,60.487654 34.3453912,64.4925743 34.3453912,68.6300257 L22.4807061,68.6300257 L22.4807061,94.0293796 L13.2588166,94.0293796 L13.2588166,59.333185 Z" id="Fill-7" fill="#7CACDE" sketch:type="MSShapeGroup"></path>
                    <path d="M22.4767801,46.8 L13.2838188,46.8 L13.2838188,12.7923451 L24.9801006,12.7923451 L24.9801006,0.297159292 C25.3148409,0.553938053 25.5194044,0.677150442 25.6836751,0.840743363 C28.4018906,3.54830973 31.1221724,6.25380531 33.820758,8.98207965 C34.0728464,9.23678761 34.3218354,9.63852212 34.3249348,9.97399115 C34.3569624,13.8815841 34.3414652,17.789177 34.3352663,21.6967699 C34.3342331,21.787885 34.2856751,21.8800354 34.2329845,22.0612301 L22.4767801,22.0612301 L22.4767801,46.8 Z" id="Fill-9" fill="#7CACDE" sketch:type="MSShapeGroup"></path>
                    <path d="M140.132324,106.629037 L152.813197,106.629037 C153.535369,98.2040018 154.253407,89.8214177 154.978678,81.3673912 C155.240065,81.3301168 155.486987,81.2638513 155.73391,81.2628159 C157.881827,81.2545327 160.028711,81.2638513 162.176628,81.2534973 C162.687004,81.2514265 163.030009,81.2876655 163.073402,81.9699929 C163.301728,85.5017363 163.756313,89.0272673 163.798672,92.5579752 C163.836899,95.7884177 163.494927,99.0271434 163.238706,102.255515 C162.87917,106.770887 162.442148,111.280046 162.030954,115.887568 C161.758203,115.908276 161.47512,115.946586 161.191004,115.946586 C157.457203,115.950727 153.723402,115.959011 149.989601,115.934161 C149.634197,115.93209 149.179612,115.818196 148.940954,115.582126 C146.066733,112.750312 143.22454,109.885365 140.376148,107.02663 C140.312092,106.9614 140.276965,106.867179 140.132324,106.629037" id="Fill-11" fill="#7CACDE" sketch:type="MSShapeGroup"></path>
                    <g id="Group-15">
                        <path d="M0,0.297159292 L186.972105,0.297159292 L186.972105,115.964602 L0,115.964602" id="Clip-14" sketch:type="MSShapeGroup"></path>
                        <mask id="mask-2" sketch:name="Mask" fill="white">
                            <use xlink:href="#path-1"></use>
                        </mask>
                        <use id="Mask" fill="#7CACDE" sketch:type="MSShapeGroup" xlink:href="#path-1"></use>
                    </g>
                    <path d="M34.2928039,115.949692 L33.2875497,115.949692 C25.5523619,115.949692 17.817174,115.960046 10.0830193,115.924842 C9.59433978,115.921736 8.98788122,115.681524 8.63970994,115.340878 C5.96282044,112.730639 3.33655525,110.06863 0.697892265,107.420081 C0.499527624,107.22025 0.323892265,106.99971 0.000516574586,106.633179 L24.9996271,106.633179 L24.9996271,94.2146124 C25.5895552,94.7364531 26.0358757,95.0957363 26.4408702,95.4964354 C28.9090635,97.9410106 31.3782901,100.385586 33.8185884,102.858117 C34.0872072,103.129391 34.321732,103.578754 34.3248315,103.948391 C34.3609917,107.757621 34.3475608,111.566851 34.3444613,115.377117 C34.3444613,115.534497 34.3165663,115.692913 34.2928039,115.949692" id="Fill-16" fill="#7CACDE" sketch:type="MSShapeGroup"></path>
                    <path d="M104.101454,46.4786124 L104.101454,12.9607009 C107.290785,12.5548248 109.426304,14.164869 109.690791,17.2762407 C109.858161,19.2497097 109.888122,21.2376743 109.89742,23.2194265 C109.923249,28.7463823 109.927382,34.2733381 109.889155,39.7992584 C109.881923,40.8781434 109.761045,41.9849841 109.494492,43.0286655 C108.869437,45.4804885 106.739083,46.8057982 104.101454,46.4786124" id="Fill-18" fill="#7CACDE" sketch:type="MSShapeGroup"></path>
                    <path d="M161.96225,69.0816664 L156.076399,69.0816664 C157.094051,57.4479319 158.106537,45.8773566 159.119023,34.3067814 C159.164482,34.3088522 159.210973,34.3119584 159.257465,34.3150646 C160.156305,45.8773566 161.056178,57.4396487 161.96225,69.0816664" id="Fill-20" fill="#7CACDE" sketch:type="MSShapeGroup"></path>
                </g>
                <g id="Group-3" transform="translate(8.000000, 137.000000)">
                    <mask id="mask-4" sketch:name="Clip 2" fill="white">
                        <use xlink:href="#path-3"></use>
                    </mask>
                    <g id="Clip-2"></g>
                    <path d="M12.8192099,3.29928261 L12.0067707,3.29928261 C11.5559495,1.67040301 10.2886344,1.25291137 8.82669427,1.21769398 C7.1289816,1.17705853 5.42946684,1.20821237 3.67739132,1.20821237 L3.67739132,8.25439967 C4.93794861,8.25439967 6.16126285,8.32137291 7.36986007,8.21722575 C7.7777316,8.18200836 8.30123681,7.79431605 8.49811441,7.42227592 C8.7588158,6.92953344 9.03017951,6.84254348 9.53581406,6.96625585 L9.53581406,10.6494833 L8.70340174,10.6494833 C8.49946597,9.49679097 7.77818212,9.12595485 6.6497776,9.24229264 C5.83253281,9.32657358 4.99846858,9.23371405 4.17506667,9.27931605 C3.98509705,9.28970067 3.65051024,9.54224247 3.64945903,9.68521906 C3.6330901,11.9388311 3.66012135,14.1927441 3.67934358,16.4466572 C3.67949375,16.4669749 3.70712569,16.4869916 3.82230885,16.6442659 C6.09143212,16.5682625 8.46432535,16.5708211 10.8213002,16.3768244 C12.0593314,16.2749348 13.090874,15.6422258 13.4020337,14.2335301 C13.4470858,14.0300518 13.8468479,13.905286 14.0823201,13.7440987 C14.1480962,13.8035468 14.213722,13.862995 14.2793479,13.9225936 C14.1984043,15.1327776 14.1174608,16.3429615 14.0345649,17.5844498 L0.00444513889,17.5844498 L0.00444513889,16.7685803 C1.21334271,16.4749515 1.48650851,15.574801 1.48020122,14.4409214 C1.45902674,10.6291656 1.47674722,6.8171087 1.46953889,3.00520234 C1.46698594,1.7054699 1.16453628,1.30483445 -6.00694444e-05,0.995553512 L-6.00694444e-05,0.13408194 L12.8192099,0.13408194 L12.8192099,3.29928261 Z" id="Fill-1" fill="#7CACDE" sketch:type="MSShapeGroup" mask="url(#mask-4)"></path>
                </g>
                <path d="M11.5920026,165.268293 C11.5920026,167.675266 11.581941,169.928276 11.6134774,172.180684 C11.61573,172.338259 11.9235859,172.623159 12.0925312,172.625717 C13.2155295,172.641972 14.3422821,172.639714 15.4624271,172.564764 C18.654217,172.351353 19.4789705,169.814196 18.943151,167.47555 C18.7483759,166.625366 18.2567075,166.087323 17.4390122,165.763142 C15.5538828,165.0156 13.6068819,165.383426 11.5920026,165.268293 L11.5920026,165.268293 Z M8.00585677,181.667256 L8.00585677,180.85846 C9.26536285,180.605015 9.46284115,179.662122 9.45758507,178.544647 C9.43986458,174.759681 9.45338021,170.974413 9.44947569,167.189296 C9.44812413,165.930349 9.1518316,165.50744 8.00480556,165.106955 L8.00480556,164.326754 C10.8585547,164.326754 13.6786649,164.316972 16.4987752,164.335935 C16.9926962,164.339246 17.490822,164.437222 17.9781354,164.5355 C20.1445399,164.972406 21.5725408,166.516554 21.5865069,168.609881 C21.599572,170.569564 20.9212378,172.382657 18.4328611,173.154731 C17.6121623,173.409229 16.7301927,173.532791 15.8692474,173.574781 C14.4783394,173.642356 13.0815747,173.592992 11.6263924,173.592992 C11.6263924,175.592557 11.5838932,177.514313 11.6466658,179.432758 C11.672796,180.234781 12.2320425,180.727824 13.0552943,180.834229 L13.0552943,181.667256 L8.00585677,181.667256 Z" id="Fill-4" opacity="0.9" fill="#7CACDE" sketch:type="MSShapeGroup"></path>
                <path d="M125.066292,175.868773 L132.6858,175.868773 C131.443414,173.102853 130.240524,170.424977 128.94002,167.529475 C127.597768,170.419107 126.352228,173.100294 125.066292,175.868773 M124.158793,181.678137 L120.509123,181.678137 C120.313898,181.148672 120.511526,180.92608 120.948682,180.607167 C121.527901,180.184709 122.074083,179.585863 122.381488,178.941565 C124.285239,174.951164 126.11991,170.927652 127.97095,166.912117 C128.123977,166.58011 128.340527,166.247803 127.757403,166.017084 C127.414557,165.881482 127.50421,165.247569 127.844954,165.038522 C128.245767,164.792753 128.66325,164.570311 129.043039,164.295495 C129.51924,163.950846 129.81388,164.000662 130.065721,164.567301 C131.606803,168.035612 133.166356,171.495946 134.722155,174.957786 C135.367,176.392819 135.962589,177.854341 136.692733,179.244525 C136.998486,179.826967 137.613597,180.240395 138.051654,180.761281 C138.23907,180.984174 138.33368,181.285629 138.531008,181.669107 L133.584289,181.669107 C133.449734,181.207217 133.448382,180.877318 133.990208,180.597836 C134.211714,180.483605 134.37255,179.888522 134.282446,179.599408 C134.023997,178.769993 133.640454,177.976849 133.262767,177.190328 C133.192937,177.045094 132.921573,176.917468 132.742416,176.916264 C130.166788,176.898806 127.591011,176.897151 125.015683,176.918973 C124.820608,176.920629 124.536329,177.082117 124.449228,177.250227 C124.082655,177.958338 123.776,178.697452 123.445618,179.424525 C123.211798,179.939241 123.352511,180.303605 123.804984,180.650512 C124.06178,180.847368 124.19123,181.210829 124.378046,181.499191 C124.304912,181.558789 124.231777,181.618538 124.158793,181.678137" id="Fill-6" opacity="0.9" fill="#7CACDE" sketch:type="MSShapeGroup"></path>
                <path d="M82.9621765,137.201386 L88.0906053,137.201386 C88.1092268,137.459196 88.1264968,137.697891 88.1481218,137.993928 C86.8839603,138.267841 86.6447338,139.166788 86.6525428,140.302925 C86.6810758,144.41448 86.6638058,148.526487 86.6638058,152.638343 L86.6638058,153.572958 L88.6911496,153.572958 C89.7168353,153.572958 90.7425211,153.57356 91.7682069,153.572808 C93.5585766,153.571754 94.7887989,152.690115 95.3771791,150.988995 C95.4339447,150.824798 95.4991201,150.663309 95.5609916,150.499413 L96.3994109,150.499413 L96.3994109,152.542323 L96.3994109,154.554831 L83.1009369,154.554831 C82.9524152,154.080751 83.0001704,153.758978 83.5723319,153.550533 C84.3141895,153.280232 84.4603084,152.587022 84.4654143,151.880115 C84.4765272,150.350868 84.4696192,148.821319 84.4697694,147.291921 C84.4699195,144.960199 84.462561,142.628477 84.4730732,140.296905 C84.4775784,139.319095 84.3709551,138.445433 83.2601209,138.049463 C83.0953805,137.990768 83.0713527,137.534898 82.9621765,137.201386" id="Fill-8" opacity="0.9" fill="#7CACDE" sketch:type="MSShapeGroup"></path>
                <path d="M123.229894,148.036333 C123.209921,147.753089 123.204815,147.502804 123.172978,147.255982 C123.034968,146.191784 122.454698,145.623038 121.495238,145.600463 C120.476611,145.576533 119.843779,146.106751 119.709974,147.205564 C119.635789,147.814945 119.626778,148.450062 119.709374,149.056885 C119.855643,150.133273 120.459341,150.582219 121.565369,150.562804 C122.555314,150.545497 122.977302,150.148022 123.142943,149.047403 C123.194753,148.703055 123.203914,148.352236 123.229894,148.036333 M124.453659,145.77655 C124.733732,145.136166 125.159324,144.81063 125.817085,144.841935 C126.628172,144.880614 127.191323,145.612052 126.871904,146.347855 C126.761527,146.602503 126.31506,146.846316 126.017416,146.852035 C125.570049,146.860614 125.51854,146.451851 125.606842,146.066717 C125.637627,145.932771 125.676372,145.80063 125.730585,145.594443 C125.064565,145.675263 124.936166,146.022169 125.033178,146.532821 C125.126136,147.021651 125.275709,147.509276 125.293129,148.001266 C125.355451,149.757319 124.235306,151.092721 122.490739,151.295597 C121.779667,151.378373 121.047871,151.265346 120.327038,151.289276 C120.084357,151.297253 119.765839,151.385747 119.622874,151.556115 C119.307359,151.932069 119.081498,152.383574 118.775144,152.874661 C119.633236,152.666216 120.404828,152.449493 121.188734,152.29553 C122.373454,152.062855 123.528439,152.21742 124.618849,152.73349 C125.783746,153.284627 126.44466,154.210513 126.423486,155.519577 C126.402912,156.795831 125.72653,157.748657 124.595122,158.222135 C122.792288,158.97645 120.940948,158.971935 119.174455,158.050865 C118.423737,157.65941 117.906089,157.0115 118.078639,156.104577 C118.14081,155.778139 118.461581,155.340028 118.749464,155.259811 C119.089157,155.165145 119.643898,155.287804 119.874114,155.533574 C120.054923,155.726818 120.012875,156.326567 119.84423,156.611617 C119.476605,157.232587 119.730999,157.483925 120.268921,157.6564 C121.580237,158.076751 122.875784,158.064109 124.115317,157.413339 C124.781487,157.063724 125.177495,156.524928 125.122231,155.718691 C125.070271,154.961818 124.615846,154.53951 123.960338,154.312554 C122.187539,153.698507 120.420746,153.933741 118.664015,154.406166 C118.284226,154.508206 117.913147,154.642754 117.549877,154.75864 C117.08539,154.264694 117.10281,153.815145 117.476292,153.275597 C118.014214,152.498406 118.472093,151.66538 118.994998,150.805714 C117.791807,150.005346 117.33558,148.909694 117.576758,147.503707 C117.726331,146.631249 118.132401,145.931868 118.889876,145.508206 C120.75263,144.466132 122.596912,144.544995 124.453659,145.77655" id="Fill-10" opacity="0.9" fill="#7CACDE" sketch:type="MSShapeGroup"></path>
                <path d="M99.064647,181.675639 L94.6174057,181.675639 C94.8214917,181.326776 94.9045377,180.974602 95.1101253,180.874217 C95.6441427,180.613548 95.8296071,180.195756 95.8335116,179.667194 C95.8465767,177.938381 95.862345,176.209117 95.8329109,174.480756 C95.8135385,173.346124 94.9943415,172.752545 93.9117399,173.020589 C92.6145403,173.341609 91.8160672,174.369084 91.8160672,175.717278 C91.8160672,176.870722 91.8030021,178.024619 91.8210229,179.177913 C91.8321358,179.894151 91.9157825,180.575923 92.7177095,180.92313 C92.8786957,180.992963 92.9165394,181.348448 93.0498936,181.66405 L88.7541774,181.66405 C88.9494031,181.326324 89.0310976,180.969334 89.234733,180.874217 C89.7812148,180.618967 89.9540646,180.178749 89.9606722,179.664485 C89.9853007,177.783967 90.0046731,175.902395 89.9533137,174.023231 C89.9443033,173.691224 89.6014569,173.358465 89.3853571,173.04497 C89.2063502,172.785505 88.9870967,172.553883 88.7855637,172.30992 C88.839476,172.248967 88.8933884,172.188164 88.9471505,172.127361 L91.776121,172.127361 C91.804654,172.473064 91.8304839,172.787913 91.8650238,173.208114 C92.1521557,172.998164 92.3620984,172.842395 92.5744439,172.690087 C93.7843927,171.822746 95.1341531,171.692712 96.492924,172.13895 C96.8974917,172.271692 97.3513163,172.815605 97.4387174,173.241977 C97.6324413,174.187278 97.6279361,175.176676 97.6678823,176.149518 C97.7183406,177.374753 97.6862035,178.605555 97.7914752,179.825221 C97.8219604,180.178749 98.1946913,180.506542 98.4234057,180.837344 C98.584542,181.070622 98.7671531,181.288849 99.064647,181.675639" id="Fill-12" opacity="0.9" fill="#7CACDE" sketch:type="MSShapeGroup"></path>
                <path d="M75.2903773,154.589266 L71.3755015,154.589266 L71.3755015,153.888982 C72.1801317,153.68746 72.4280683,153.12639 72.42086,152.363346 C72.4052419,150.709784 72.4384303,149.05547 72.4059928,147.40251 C72.3824155,146.204667 71.484978,145.607627 70.3558227,145.979517 C69.0242332,146.418079 68.3889989,147.293396 68.3889989,148.690052 C68.3889989,149.843497 68.3729303,150.997393 68.3954563,152.150537 C68.408972,152.840888 68.5109398,153.493764 69.2801291,153.826674 C69.4459207,153.898463 69.491123,154.250186 69.6351395,154.568346 L65.3461812,154.568346 C65.5239867,154.244015 65.5981725,153.881005 65.7965518,153.789801 C66.3772732,153.522962 66.5330032,153.052644 66.5390102,152.51144 C66.5600345,150.656055 66.5839121,148.799166 66.5244433,146.945587 C66.5133305,146.597627 66.1318895,146.256139 65.905728,145.922477 C65.7391855,145.677159 65.5471135,145.449299 65.2356534,145.043095 L68.3466499,145.043095 C68.3738313,145.375855 68.3996612,145.690855 68.4331499,146.100069 C68.6735779,145.936022 68.8534859,145.827209 69.0180761,145.698681 C70.219465,144.759851 71.5695258,144.646975 72.9916699,144.995687 C73.5741933,145.138513 73.9933279,145.521691 74.0389806,146.131674 C74.1397471,147.477008 74.1841985,148.826707 74.2444181,150.174751 C74.2836135,151.049467 74.2550805,151.932008 74.3698131,152.795888 C74.4145648,153.133162 74.7616161,153.434617 74.9843235,153.742543 C75.1516169,153.974015 75.3403852,154.189834 75.5196924,154.412577 C75.4432541,154.471423 75.3668157,154.53042 75.2903773,154.589266" id="Fill-14" opacity="0.9" fill="#7CACDE" sketch:type="MSShapeGroup"></path>
                <path d="M130.789153,145.042584 C130.789153,147.116647 130.788102,149.141497 130.790204,151.166346 C130.790504,151.541848 130.787651,151.918704 130.814382,152.292851 C130.895175,153.422517 131.699205,153.964022 132.783308,153.631263 C134.152291,153.210911 134.777914,152.371714 134.777914,150.955343 C134.777914,149.702266 134.761245,148.448888 134.784522,147.196263 C134.796536,146.555426 134.596204,146.098654 134.002718,145.789523 C133.810195,145.689289 133.726549,145.379406 133.516155,145.042283 L136.645924,145.042283 L136.645924,145.834072 C136.645924,147.914156 136.649077,149.994239 136.644122,152.074172 C136.642319,152.796731 136.652681,153.480761 137.500411,153.808403 C137.661097,153.87041 137.700593,154.247717 137.832595,154.568286 L134.839035,154.568286 C134.801942,154.237634 134.764549,153.904423 134.715742,153.469172 C133.734057,154.354875 132.690951,154.841597 131.417629,154.785761 C129.925805,154.720142 129.06561,153.993069 129.000735,152.498737 C128.923696,150.72342 128.931956,148.944038 128.9267,147.166313 C128.924747,146.510276 128.783734,145.997968 128.093687,145.734891 C127.926844,145.671229 127.855211,145.356229 127.673801,145.042584 L130.789153,145.042584 Z" id="Fill-16" opacity="0.9" fill="#7CACDE" sketch:type="MSShapeGroup"></path>
                <path d="M105.812548,176.664114 C103.974423,176.494649 102.499718,177.320452 102.108366,178.606187 C101.820483,179.55194 102.28512,180.443662 103.222954,180.746321 C104.120392,181.035736 105.17386,180.566773 105.381099,179.665268 C105.602005,178.704013 105.669583,177.707241 105.812548,176.664114 M109.129583,180.719381 C109.045636,181.474147 108.5391,181.697492 108.029411,181.835652 C107.140233,182.076605 106.564167,181.731054 105.911813,180.634348 C105.654265,180.826689 105.402274,181.019181 105.146078,181.205803 C104.012417,182.031906 102.776789,182.076304 101.522839,181.588528 C100.531693,181.202943 100.076667,180.377441 100.068407,179.340635 C100.059097,178.164916 100.430026,177.106438 101.59282,176.647258 C102.553781,176.267692 103.594033,176.085886 104.604401,175.83801 C104.938988,175.755987 105.289944,175.741087 105.793026,175.674114 C105.643002,174.924916 105.571369,174.206271 105.344607,173.540753 C105.129559,172.909548 104.554844,172.662575 103.897985,172.692826 C103.258545,172.722324 102.849623,173.064866 102.607693,173.662659 C102.486353,173.962157 102.317858,174.385368 102.080584,174.458361 C101.790298,174.547759 101.268895,174.433528 101.10025,174.213194 C100.934008,173.99587 100.940015,173.377308 101.121575,173.212358 C101.657394,172.725334 102.27596,172.151472 102.939276,172.02806 C103.808631,171.866421 104.787013,171.970117 105.654115,172.201739 C106.684907,172.477157 107.347773,173.266689 107.39688,174.398913 C107.469414,176.073545 107.491339,177.750284 107.539845,179.42597 C107.570781,180.496639 108.0201,180.891706 109.129583,180.719381" id="Fill-18" opacity="0.9" fill="#7CACDE" sketch:type="MSShapeGroup"></path>
                <path d="M112.901208,149.57896 C111.299156,149.419729 109.937532,150.069144 109.372278,151.162237 C108.873251,152.127254 109.242228,153.185582 110.220309,153.594495 C111.180669,153.996033 112.291203,153.527823 112.523371,152.505615 C112.740072,151.551284 112.78212,150.55707 112.901208,149.57896 M116.282217,153.653492 C116.150815,154.374696 115.667556,154.62799 115.142549,154.746886 C114.127225,154.976702 113.480428,154.449495 113.048679,153.510515 C112.84249,153.67712 112.673545,153.811067 112.507453,153.948324 C111.355922,154.899194 110.059022,155.018843 108.709412,154.523241 C107.754608,154.172421 107.269097,153.423375 107.227199,152.387923 C107.17644,151.139211 107.507723,150.046569 108.734641,149.550666 C109.669021,149.173207 110.685847,148.996368 111.672037,148.754963 C112.008426,148.672639 112.363136,148.665716 112.893699,148.602204 C112.761396,147.87212 112.691566,147.164763 112.495139,146.494729 C112.302616,145.83809 111.737363,145.59187 111.085008,145.603458 C110.418688,145.615348 109.973423,145.929746 109.752067,146.596318 C109.652953,146.894462 109.448567,147.304278 109.209791,147.372003 C108.912146,147.456435 108.3532,147.342505 108.228256,147.127137 C108.071625,146.856836 108.094451,146.223977 108.297035,146.051803 C108.866944,145.567639 109.527258,145.091452 110.230671,144.893692 C110.868458,144.714445 111.628787,144.813324 112.301565,144.952689 C113.772365,145.257455 114.527138,146.178224 114.590361,147.684294 C114.646976,149.034896 114.627003,150.388809 114.643522,151.741217 C114.646526,151.99105 114.64142,152.243742 114.67626,152.490114 C114.821628,153.516385 115.147054,153.77314 116.282217,153.653492" id="Fill-20" opacity="0.9" fill="#7CACDE" sketch:type="MSShapeGroup"></path>
                <path d="M29.2633369,149.484324 C27.7299141,149.573421 26.5064497,149.824007 25.7790088,151.081749 C25.4160391,151.709341 25.3912605,152.37787 25.8063404,152.993421 C26.205652,153.585495 26.8081485,153.804174 27.5025513,153.706197 C28.2331459,153.603104 28.7809793,153.216465 28.9059237,152.458538 C29.0622544,151.51113 29.1392935,150.550328 29.2633369,149.484324 M32.6159628,153.68287 C32.4968751,154.405579 31.9970973,154.635997 31.4669845,154.751883 C30.4435513,154.975528 29.8200305,154.410244 29.3855782,153.492635 C28.4825843,154.345378 27.5172683,154.870478 26.2666225,154.788605 C24.875264,154.697552 23.8117345,153.958739 23.6032935,152.808605 C23.3298273,151.298923 23.9182076,149.964425 25.2547527,149.487635 C26.4857258,149.048622 27.7863794,148.805863 29.2083734,148.437134 C29.1223239,147.906013 29.0660088,147.240495 28.8976641,146.604926 C28.7161043,145.918789 28.1777319,145.605144 27.4837796,145.602736 C26.7824688,145.600328 26.3232379,145.926013 26.0934723,146.623438 C25.9970609,146.916615 25.7736025,147.31695 25.5354272,147.376247 C25.2374827,147.450294 24.6843933,147.319207 24.5698109,147.102485 C24.42204,146.823154 24.4571806,146.205495 24.6650209,146.025495 C25.2130044,145.551565 25.8584506,145.041214 26.5364845,144.906816 C27.3357084,144.748338 28.256573,144.818321 29.0407796,145.061381 C30.2639437,145.440344 30.8901676,146.232134 30.9464827,147.713823 C30.9967909,149.039742 30.9819237,150.368221 30.9957397,151.695495 C30.9978421,151.895963 30.985678,152.097485 31.0024975,152.296599 C31.0987588,153.441314 31.4288404,153.742619 32.6159628,153.68287" id="Fill-22" opacity="0.9" fill="#7CACDE" sketch:type="MSShapeGroup"></path>
                <path d="M31.7903833,176.651065 C31.8767332,177.548356 31.8668217,178.237654 32.0242036,178.886166 C32.2385014,179.770062 32.602372,180.612721 33.5778998,180.941717 C35.1296437,181.464861 36.5223538,180.720931 36.8931325,179.072035 C37.2425865,177.517654 37.2347774,175.934978 36.7865092,174.389176 C36.4721958,173.305413 35.6088477,172.69543 34.4978634,172.691065 C33.3942375,172.686851 32.47953,173.285848 32.1838382,174.356366 C31.9600795,175.166216 31.8937028,176.019861 31.7903833,176.651065 M34.468129,181.867303 C31.6721967,181.86655 29.7546299,179.794744 29.7639406,176.784861 C29.7728009,173.898841 31.7058356,171.916885 34.5061229,171.922604 C37.2946967,171.928172 39.2080587,173.922018 39.2088095,176.822938 C39.2095604,179.82063 37.2853859,181.868206 34.468129,181.867303" id="Fill-24" opacity="0.9" fill="#7CACDE" sketch:type="MSShapeGroup"></path>
                <path d="M80.2771023,176.641403 C80.3658549,177.581587 80.3499365,178.297523 80.5175303,178.967406 C80.7313775,179.821955 81.1143202,180.625182 82.0554582,180.94545 C83.607052,181.473259 85.0155303,180.691554 85.3765477,178.98652 C85.7001718,177.458477 85.7024244,175.901085 85.2550572,174.38147 C84.9485529,173.340149 84.1012734,172.720684 83.0339895,172.691035 C81.9318654,172.660483 80.9749591,173.249697 80.6816701,174.295383 C80.4486006,175.126303 80.3816232,176.004179 80.2771023,176.641403 M78.251861,176.854513 C78.1158037,172.877958 81.9655043,170.816236 85.2709756,172.477473 C86.8847412,173.288527 87.585151,174.756069 87.6728523,176.527022 C87.7962951,179.019028 86.5360381,181.097607 84.2645121,181.708343 C81.0200112,182.580651 78.263124,180.346754 78.251861,176.854513" id="Fill-26" opacity="0.9" fill="#7CACDE" sketch:type="MSShapeGroup"></path>
                <path d="M156.414793,149.559214 C156.503996,150.497742 156.487627,151.21413 156.656722,151.883411 C156.872522,152.736906 157.255314,153.539532 158.199606,153.85709 C159.752251,154.379181 161.159528,153.595368 161.516791,151.890033 C161.836811,150.361839 161.841166,148.804298 161.391096,147.285134 C161.083841,146.247876 160.231755,145.62796 159.165523,145.600719 C158.062498,145.572575 157.111448,146.161639 156.817859,147.211237 C156.58539,148.042458 156.519163,148.920485 156.414793,149.559214 M159.097194,144.831355 C161.884416,144.833161 163.794624,146.808344 163.82556,149.7201 C163.857097,152.677007 161.890723,154.776355 159.089084,154.777107 C156.283391,154.77801 154.390152,152.734799 154.389702,149.705351 C154.389401,146.790435 156.283391,144.829398 159.097194,144.831355" id="Fill-28" opacity="0.9" fill="#7CACDE" sketch:type="MSShapeGroup"></path>
                <path d="M43.5353864,172.076928 L46.0905904,172.076928 L46.0905904,172.864202 C45.3906312,172.864202 44.7211572,172.877747 44.0525843,172.858935 C43.660481,172.848099 43.4464836,172.942764 43.4550435,173.396527 C43.4940886,175.450122 43.5104576,177.504018 43.5371885,179.557764 C43.5475504,180.359035 43.9114211,180.881426 44.7430826,181.015523 L44.7430826,181.670958 L40.4904662,181.670958 C40.3417944,181.213584 40.453073,180.994604 40.8887266,180.776075 C41.2076954,180.616092 41.5727674,180.167446 41.5846312,179.83544 C41.6625713,177.65738 41.6588169,175.475858 41.6472536,173.295691 C41.6465027,173.15136 41.383849,172.953751 41.2027397,172.880156 C41.0100669,172.801744 40.7694888,172.841326 40.5131424,172.827329 L40.5131424,172.117263 C40.8906789,172.09559 41.2308221,172.076025 41.7460678,172.046376 C41.7460678,170.832881 41.6846468,169.636092 41.7613855,168.448182 C41.8592987,166.932931 42.4847718,165.643132 43.7543395,164.744336 C44.4410834,164.258216 45.1973577,164.0436 46.0051416,164.457781 C46.5687431,164.746744 46.7785357,165.394202 46.4415461,165.848266 C46.0667128,166.3535 45.6059801,166.292547 45.1321824,165.963701 C44.1303742,165.268232 43.6022136,165.495791 43.5525062,166.76151 C43.4841772,168.505222 43.5353864,170.25345 43.5353864,172.076928" id="Fill-30" opacity="0.9" fill="#7CACDE" sketch:type="MSShapeGroup"></path>
                <path d="M168.081225,145.765052 C168.081225,148.120102 168.04248,150.370554 168.116966,152.617242 C168.130482,153.021941 168.52709,153.568263 168.897268,153.766172 C169.331871,153.998547 169.336827,154.201122 169.245371,154.588965 L164.870213,154.588965 C165.094722,154.225202 165.189932,153.857978 165.40423,153.764065 C166.008679,153.499333 166.221926,153.022694 166.228083,152.453196 C166.25151,150.274985 166.237544,148.096172 166.237544,145.832176 C165.861659,145.798764 165.502894,145.767008 165.094122,145.730888 C165.081657,145.510855 165.069643,145.298948 165.055077,145.040838 C165.458293,145.010587 165.81946,144.983497 166.261571,144.950386 C166.261571,143.895972 166.221625,142.872861 166.271032,141.854115 C166.344467,140.335855 166.739724,138.900219 168.001483,137.939717 C168.522435,137.543145 169.23561,137.368714 169.888114,137.19353 C170.122385,137.13062 170.466432,137.314082 170.70611,137.469099 C171.218352,137.800202 171.25169,138.348931 170.979726,138.791858 C170.678628,139.282343 170.188011,139.157276 169.717066,138.914517 C169.375722,138.738279 168.840653,138.442995 168.653687,138.574533 C168.347783,138.7896 168.110209,139.304015 168.096843,139.700737 C168.038576,141.425487 168.071914,143.153396 168.071914,144.956707 L170.662559,144.956707 C170.693495,145.235436 170.716622,145.444634 170.752213,145.765052 L168.081225,145.765052 Z" id="Fill-32" opacity="0.9" fill="#7CACDE" sketch:type="MSShapeGroup"></path>
                <path d="M109.996385,180.966415 C110.982275,180.818472 111.103014,180.039324 111.106919,179.270411 C111.128243,175.033338 111.126892,170.796114 111.105417,166.559191 C111.102263,165.942736 111.036938,165.301298 110.262493,165.040779 C110.100756,164.986448 110.046693,164.610194 109.901776,164.291582 L112.944143,164.291582 L112.944143,165.097368 C112.944143,169.735679 112.943842,174.37399 112.944443,179.012301 C112.944593,179.797167 112.909753,180.58399 113.844283,180.962201 C113.977187,181.01593 113.985447,181.379542 114.071196,181.666097 L109.996385,181.666097 L109.996385,180.966415 Z" id="Fill-34" opacity="0.9" fill="#7CACDE" sketch:type="MSShapeGroup"></path>
                <path d="M54.6369405,148.254485 C54.6486541,147.279987 54.5139484,146.448013 53.6923485,145.892813 C53.035339,145.448833 52.3640629,145.497595 51.7399414,145.950455 C50.9683494,146.510472 50.6918798,147.286308 50.8091654,148.254485 L54.6369405,148.254485 Z M56.646714,149.064184 L50.6866237,149.064184 C50.5607782,150.373247 50.6226497,151.604351 51.3021853,152.713398 C51.8617322,153.626492 53.0413459,154.028181 54.1530812,153.609184 C54.9535065,153.307278 55.6764423,152.798582 56.5321315,152.328114 C56.8308268,152.467027 56.8592096,152.698348 56.5288277,153.089953 C54.5930898,155.384201 50.9908754,155.369903 49.2291888,152.975271 C48.855707,152.467779 48.7029805,151.731224 48.6296957,151.079853 C48.3936228,148.977344 48.6909666,146.992528 50.492299,145.599184 C51.8171306,144.574418 53.349352,144.485923 54.786964,145.26808 C56.1910872,146.031876 56.5831905,147.439217 56.646714,149.064184 L56.646714,149.064184 Z" id="Fill-36" opacity="0.9" fill="#7CACDE" sketch:type="MSShapeGroup"></path>
                <path d="M52.698019,175.336704 C52.8192091,174.402992 52.6477109,173.601269 51.897894,173.035533 C51.3119166,172.59351 50.6630164,172.558744 50.0045051,172.945985 C49.0915997,173.482824 48.9077872,174.340082 48.8588306,175.336704 L52.698019,175.336704 Z M54.6603376,176.159497 L48.808072,176.159497 C48.8037169,177.799062 48.5577326,179.528778 50.1653411,180.468209 C51.822657,181.436838 53.2147664,180.500567 54.4819313,179.334781 C54.57594,179.394229 54.6813619,179.447958 54.770565,179.521403 C54.8444504,179.582055 54.8992638,179.665885 54.9696952,179.747908 C54.9252438,179.82662 54.900315,179.897507 54.8540615,179.948828 C52.7037256,182.332172 50.0833463,182.593744 47.8325442,180.547523 C47.3405754,180.100383 46.9559808,179.360366 46.8439513,178.700266 C46.490743,176.61958 46.6152369,174.595032 48.2644435,172.986771 C49.4191284,171.860717 51.3150702,171.553844 52.7863211,172.250818 C53.9887612,172.820467 54.8063063,174.468911 54.6603376,176.159497 L54.6603376,176.159497 Z" id="Fill-38" opacity="0.9" fill="#7CACDE" sketch:type="MSShapeGroup"></path>
                <path d="M103.891632,148.24103 C104.047663,146.705462 103.337191,145.654358 102.158779,145.599876 C100.933212,145.543438 100.039679,146.683187 100.125579,148.24103 L103.891632,148.24103 Z M105.882484,149.053438 L100.111012,149.053438 C99.7403832,150.917702 100.244666,152.823806 101.338981,153.386532 C103.088204,154.286231 104.440817,153.389241 105.724051,152.221799 C105.883385,152.362819 106.027251,152.490144 106.178776,152.624391 C106.139281,152.711532 106.123663,152.787686 106.079211,152.838254 C103.959511,155.250495 101.271704,155.509207 99.0037817,153.425963 C98.530885,152.991615 98.1695673,152.274324 98.058589,151.634843 C97.7071827,149.610144 97.8062973,147.626381 99.3512834,146.022635 C100.551771,144.776482 102.432245,144.436498 103.971975,145.150177 C105.17847,145.709291 105.986404,147.304759 105.882484,149.053438 L105.882484,149.053438 Z" id="Fill-40" opacity="0.9" fill="#7CACDE" sketch:type="MSShapeGroup"></path>
                <path d="M144.993789,148.237042 C145.160482,147.195269 144.833704,146.335604 144.134646,145.890119 C143.466223,145.464199 142.818074,145.517627 142.176082,145.950771 C141.466361,146.429517 141.111651,147.326657 141.286754,148.237042 L144.993789,148.237042 Z M146.9926,149.056072 L141.194097,149.056072 C140.854554,150.886774 141.400736,152.868881 142.428974,153.385554 C144.192613,154.272008 145.53892,153.397293 146.805033,152.258747 C147.346709,152.497744 147.271773,152.772711 146.927124,153.15348 C144.934771,155.354416 141.691171,155.353664 139.749276,153.111791 C139.046013,152.299985 139.052321,151.265135 139.023637,150.265052 C138.975582,148.579885 139.348163,147.038597 140.634249,145.837594 C141.787433,144.760754 143.675415,144.478263 145.108822,145.163798 C146.313665,145.740069 147.135565,147.389266 146.9926,149.056072 L146.9926,149.056072 Z" id="Fill-42" opacity="0.9" fill="#7CACDE" sketch:type="MSShapeGroup"></path>
                <g id="Group-46" transform="translate(8.000000, 137.000000)">
                    <mask id="mask-6" sketch:name="Clip 45" fill="white">
                        <use xlink:href="#path-5"></use>
                    </mask>
                    <g id="Clip-45"></g>
                    <path d="M169.289841,34.7678428 C169.989049,34.9899833 170.717391,35.1501171 171.375001,35.460903 C171.693219,35.6114047 171.95302,36.0115886 172.104845,36.3580435 C172.288958,36.7783946 172.321245,37.3057525 171.73692,37.4658863 C171.232787,37.6040468 170.76004,37.5232274 170.52577,36.902107 C170.054224,35.6524916 169.157087,35.3392977 168.04355,35.9917224 C167.075531,36.5589632 167.048349,37.8245318 168.044301,38.3541472 C168.606251,38.6530435 169.259205,38.7794649 169.869811,38.9870067 C170.339554,39.146689 170.829571,39.2660368 171.272132,39.4823077 C173.210874,40.4306187 173.433731,42.9283445 171.645464,44.1313043 C170.140724,45.1435786 168.497074,45.1443311 166.872496,44.3939298 C166.239364,44.1016555 165.738085,43.5882943 165.693033,42.8571572 C165.671558,42.5075418 165.825336,42.0117893 166.078979,41.8186957 C166.329769,41.6275585 166.873547,41.6025753 167.162782,41.7512709 C167.397053,41.8716722 167.543772,42.3544816 167.554885,42.6824247 C167.58492,43.5687291 167.84457,43.9246656 168.742007,44.0781773 C169.72144,44.2458361 170.771754,43.7052341 171.01909,42.9063712 C171.224828,42.2420569 170.849994,41.4583946 170.092369,41.1470067 C169.334442,40.8354682 168.541376,40.6103177 167.765879,40.3409197 C166.332021,39.8426087 165.934962,39.3131438 165.974308,37.9661538 C166.018909,36.4433779 166.668711,35.4524749 167.9141,35.0857023 C168.338791,34.960786 168.792015,34.9333946 169.232174,34.8614548 C169.251396,34.830301 169.270619,34.7989967 169.289841,34.7678428" id="Fill-44" fill="#7CACDE" sketch:type="MSShapeGroup" mask="url(#mask-6)"></path>
                </g>
                <path d="M59.3406784,181.919361 C58.3588433,181.88294 57.3911246,181.752906 56.7111385,181.011385 C56.3580803,180.626401 56.1244102,180.039144 56.0517261,179.513441 C55.9698815,178.92197 56.5560091,178.504177 57.1385326,178.57988 C57.7506402,178.659495 58.0371714,179.028375 57.8981107,179.704579 C57.7552956,180.399144 58.0778685,180.779311 58.6635456,180.948023 C59.0591029,181.062104 59.5079718,181.10906 59.9125395,181.048709 C60.7398459,180.925298 61.3816879,180.261736 61.4294431,179.602237 C61.4773485,178.940933 61.0079058,178.338174 60.1559709,178.031301 C59.3136471,177.72789 58.4590091,177.458793 57.6099275,177.174495 C56.7718086,176.89396 56.3810569,176.28503 56.337056,175.425365 C56.2705291,174.131201 56.4710109,172.903107 57.7661081,172.292672 C59.0967964,171.665381 60.4803459,171.699997 61.7700369,172.487572 C62.0332912,172.648157 62.3002999,172.923124 62.399865,173.204411 C62.5510898,173.631987 62.7147791,174.166268 62.1381124,174.453575 C61.6072487,174.718157 61.0511558,174.425732 60.8358069,173.817555 C60.4603728,172.757271 59.6501862,172.398625 58.6276541,172.862773 C58.0754657,173.113508 57.6860655,173.485849 57.6725499,174.167923 C57.6587339,174.860983 58.0673563,175.242656 58.6064796,175.484813 C59.1020525,175.707555 59.6462817,175.821334 60.1693364,175.982522 C60.525398,176.092388 60.8928728,176.173809 61.2358694,176.315281 C62.6556107,176.901033 63.2433902,177.775298 63.141122,179.107087 C63.0418572,180.400799 62.1957791,181.362656 60.8128303,181.698425 C60.3325751,181.814913 59.8320464,181.848174 59.3406784,181.919361" id="Fill-47" opacity="0.9" fill="#7CACDE" sketch:type="MSShapeGroup"></path>
                <path d="M67.8055444,182 C66.6882527,181.870418 65.6484506,181.691622 64.939481,180.792525 C64.6688681,180.449231 64.506981,179.948813 64.4737926,179.506639 C64.4321945,178.948729 64.9728195,178.542525 65.5220044,178.578495 C66.1267536,178.618227 66.4292032,178.995234 66.3826494,179.650819 C66.3201772,180.529147 66.5627076,180.918645 67.4206494,181.032726 C67.8941468,181.095635 68.4892848,181.097592 68.8593126,180.860401 C69.28956,180.584682 69.6858681,180.058829 69.820724,179.565786 C69.9994306,178.912157 69.4981511,178.422575 68.9192319,178.172441 C68.1911902,177.857742 67.4244037,177.632893 66.672935,177.373127 C64.8448716,176.741321 64.2270574,175.353846 65.0536129,173.565284 C65.2622041,173.114231 65.6401911,172.681538 66.0483629,172.394983 C67.1231555,171.640217 69.2776963,171.733077 70.303382,172.549097 C70.5751963,172.765368 70.8114194,173.11694 70.8997214,173.450151 C71.0004879,173.830167 71.0934454,174.35301 70.4873447,174.48199 C69.9440166,174.597575 69.5065609,174.453094 69.2906112,173.866137 C68.8533056,172.677023 68.0276511,172.367441 66.9205713,172.947174 C66.4126841,173.21311 66.1082822,173.604716 66.1075313,174.19107 C66.1067805,174.782993 66.4165886,175.204548 66.9387423,175.416304 C67.5121051,175.64898 68.1236121,175.785334 68.7058352,175.998445 C69.3104341,176.219833 69.9651911,176.387492 70.4838907,176.744783 C72.227106,177.945334 71.9775174,180.434783 70.0063386,181.390318 C69.3323595,181.717057 68.5424463,181.803746 67.8055444,182" id="Fill-49" opacity="0.9" fill="#7CACDE" sketch:type="MSShapeGroup"></path>
                <path d="M162.17724,171.789726 C162.813225,171.972886 163.47474,172.097803 164.075134,172.361933 C164.411072,172.509726 164.708716,172.848957 164.911751,173.172385 C165.235525,173.688455 165.074389,174.305813 164.658258,174.469408 C164.107872,174.685829 163.592926,174.418538 163.373372,173.802535 C163.003495,172.765428 162.161021,172.40302 161.152455,172.859943 C160.593509,173.113087 160.223331,173.492201 160.212518,174.171716 C160.201556,174.861465 160.589754,175.252468 161.13984,175.49011 C161.639017,175.705629 162.181745,175.819107 162.703598,175.982853 C163.106214,176.109124 163.518891,176.214023 163.905137,176.379726 C164.968216,176.835445 165.666523,177.556498 165.687247,178.810177 C165.708422,180.101482 165.087754,180.970177 163.961602,181.452385 C162.437941,182.104659 160.898511,182.115645 159.452189,181.211582 C158.829269,180.822084 158.44978,180.240846 158.567366,179.446799 C158.655068,178.854726 159.099431,178.496682 159.666337,178.587886 C160.215972,178.676231 160.475622,178.990629 160.444236,179.580896 C160.390924,180.584592 160.696978,180.939324 161.652082,181.083656 C162.669659,181.237318 163.695945,180.655478 163.926462,179.794007 C164.097059,179.156482 163.664709,178.427301 162.866236,178.107635 C162.173485,177.830261 161.456707,177.613388 160.751491,177.367167 C158.992958,176.75312 158.486573,175.77802 158.985149,173.969893 C159.373498,172.561047 160.373054,171.911331 162.17724,171.789726" id="Fill-51" opacity="0.9" fill="#7CACDE" sketch:type="MSShapeGroup"></path>
                <path d="M36.757796,154.99836 C35.8954991,154.67448 35.0327517,154.444965 34.2676172,154.033192 C33.6532569,153.702691 33.3511076,153.069982 33.4750009,152.309798 C33.5762179,151.68958 33.9896458,151.461119 34.5430356,151.50341 C35.0914696,151.545099 35.3743967,151.865065 35.3514201,152.461955 C35.3095217,153.550834 35.6837543,153.943343 36.7532908,154.00851 C37.7933932,154.071721 38.8491137,153.355634 38.8665339,152.513426 C38.8826024,151.744965 38.4088047,151.262607 37.7282179,151.001035 C37.0314123,150.733293 36.3168863,150.512356 35.6115208,150.267038 C33.9091528,149.674814 33.4056207,148.690834 33.8786675,146.905885 C34.1528845,145.871336 34.7806102,145.111754 35.8379826,144.985634 C36.7528403,144.876671 37.7211597,144.925885 38.6222014,145.114463 C39.0806814,145.210483 39.5271476,145.708493 39.8238906,146.133661 C40.0919505,146.51744 40.137303,147.070082 39.5864661,147.361754 C39.0769271,147.631604 38.5074688,147.335115 38.2883655,146.739129 C37.8579679,145.568677 36.8336337,145.243744 35.7538854,145.935149 C34.9345382,146.459798 34.8367752,147.611135 35.65402,148.12841 C36.2270825,148.491119 36.931697,148.64764 37.5816484,148.884982 C38.0712144,149.063778 38.5914158,149.174998 39.0563533,149.401955 C41.0171701,150.359597 41.2026345,152.938443 39.3404818,154.081654 C38.6076345,154.531503 37.690224,154.679145 36.757796,154.99836" id="Fill-53" opacity="0.9" fill="#7CACDE" sketch:type="MSShapeGroup"></path>
                <path d="M172.691915,180.644838 C171.878425,181.636794 170.815947,182.007179 169.572209,181.843433 C168.490058,181.700908 167.935617,180.933199 167.926907,179.609236 C167.914142,177.679804 167.923753,175.750222 167.923753,173.82064 L167.923753,172.930875 C167.578804,172.892196 167.268095,172.85743 166.902272,172.816343 C166.885603,172.614219 166.868032,172.401259 166.845807,172.132614 C167.199766,172.104018 167.513028,172.078584 167.871493,172.049386 C167.889363,171.848015 167.95589,171.644537 167.915794,171.464988 C167.591719,170.013249 168.417974,169.392881 169.707665,169.036192 L169.707665,172.053149 L171.750477,172.053149 C171.777358,172.326159 171.797932,172.535206 171.829919,172.858032 L169.723734,172.858032 C169.723734,174.285992 169.723584,175.606794 169.723734,176.927597 C169.723734,177.65437 169.709017,178.381443 169.727638,179.107614 C169.76368,180.512848 170.557798,181.011008 171.814451,180.379503 C172.240794,180.165339 172.492034,180.166844 172.691915,180.644838" id="Fill-55" opacity="0.9" fill="#7CACDE" sketch:type="MSShapeGroup"></path>
                <path d="M47.596261,153.295253 C46.8231673,154.47654 45.8504928,154.862878 44.6762853,154.773781 C43.4968218,154.684232 42.8471707,153.935938 42.8339555,152.569082 C42.8151838,150.614818 42.8291499,148.659952 42.8291499,146.705386 L42.8291499,145.834283 C42.4666308,145.798012 42.1550206,145.766858 41.8037645,145.73164 L41.8037645,145.033313 C42.1245353,145.008781 42.4376473,144.984851 42.8587341,144.952644 C42.6384294,143.500303 42.7560154,142.211858 44.6331855,141.991824 L44.6331855,144.979584 L46.676748,144.979584 C46.6889121,145.25455 46.6980727,145.463898 46.7111378,145.759483 L44.705419,145.759483 C44.6738826,146.02557 44.6325848,146.214751 44.6321343,146.403931 C44.6271786,148.233129 44.6192194,150.062627 44.6321343,151.891824 C44.6432471,153.457343 45.3763947,153.89741 46.8204641,153.269818 C47.0350622,153.176507 47.3355596,153.281858 47.596261,153.295253" id="Fill-57" opacity="0.9" fill="#7CACDE" sketch:type="MSShapeGroup"></path>
                <path d="M152.292077,180.633294 C151.592268,181.422224 150.791992,181.861388 149.777269,181.868612 C148.245499,181.879599 147.51986,181.190602 147.504692,179.639381 C147.48562,177.684967 147.500187,175.730251 147.500187,173.775686 L147.500187,172.918428 C147.141572,172.887274 146.850386,172.86199 146.469545,172.82903 C146.459934,172.613813 146.449722,172.386405 146.437558,172.112191 C146.792719,172.094732 147.086459,172.080284 147.500187,172.059967 C147.500187,171.62005 147.546741,171.174716 147.489224,170.743227 C147.403025,170.095468 147.640599,169.714849 148.245949,169.495117 C148.568522,169.378027 148.859558,169.173344 149.25917,168.957074 L149.25917,172.055602 L151.347485,172.055602 L151.347485,172.863043 L149.300018,172.863043 L149.300018,174.26602 C149.300018,175.844783 149.289205,177.423545 149.303321,179.002157 C149.316837,180.522074 150.08047,181.00398 151.436688,180.371421 C151.880901,180.164181 151.880901,180.164181 152.292077,180.633294" id="Fill-59" opacity="0.9" fill="#7CACDE" sketch:type="MSShapeGroup"></path>
                <path d="M61.1116608,145.032184 L61.1116608,146.293087 C61.4469984,145.998405 61.7842884,145.720278 62.1004038,145.420027 C62.583212,144.961448 63.1616807,144.693555 63.7999186,144.855495 C64.1522259,144.944742 64.6075523,145.23807 64.7083188,145.542084 C64.811488,145.853171 64.6520036,146.416197 64.4028656,146.641197 C64.0401964,146.968388 63.5190939,146.919776 63.1439602,146.485428 C62.7152146,145.988923 62.219041,146.093371 61.9712545,146.567 C61.5991243,147.278421 61.2394585,148.058472 61.1489038,148.841231 C61.0117953,150.027184 61.1028005,151.240679 61.1122615,152.442284 C61.117067,153.05001 61.2852615,153.553288 61.920646,153.835027 C62.0948474,153.912385 62.1444047,154.272084 62.2899229,154.585579 L57.90185,154.585579 C58.1859785,154.19894 58.3633335,153.969425 58.5277736,153.731181 C58.7543856,153.402786 59.1505436,153.074241 59.1628578,152.734408 C59.2335896,150.784809 59.2407979,148.831147 59.1940939,146.880645 C59.1862849,146.55511 58.8177589,146.231983 58.5986556,145.919692 C58.423403,145.67001 58.22187,145.438538 58.0320505,145.19909 C58.0897172,145.143405 58.1473839,145.08787 58.2050505,145.032184 L61.1116608,145.032184 Z" id="Fill-61" opacity="0.9" fill="#7CACDE" sketch:type="MSShapeGroup"></path>
                <path d="M22.7424082,172.114253 L25.6306973,172.114253 L25.6306973,173.403299 C26.0279065,173.058349 26.3845688,172.761711 26.7262138,172.448366 C27.2219369,171.993851 27.823232,171.790824 28.449456,171.950808 C28.7753327,172.033885 29.2016756,172.354303 29.272107,172.643567 C29.3527503,172.974821 29.1944673,173.583149 28.9472815,173.719052 C28.6530914,173.880841 28.0746227,173.793099 27.7606096,173.591878 C27.1396418,173.194102 26.7700645,173.120206 26.4309725,173.789637 C26.0693544,174.503768 25.7841747,175.306995 25.6951218,176.097279 C25.5727303,177.184955 25.663285,178.297162 25.6674898,179.398834 C25.6700428,180.053667 25.7813214,180.630691 26.4959977,180.930189 C26.6644924,181.000774 26.7205072,181.340607 26.8787902,181.658015 L22.7336982,181.658015 C22.6551574,181.295607 22.6562086,181.042614 23.086456,180.788115 C23.3937112,180.606309 23.7117789,180.151644 23.7237928,179.808048 C23.7924221,177.85845 23.8214056,175.903283 23.739561,173.955339 C23.7212398,173.517681 23.2076461,173.100941 22.9220159,172.67457 C22.8622468,172.712647 22.8023275,172.750724 22.7424082,172.788952 L22.7424082,172.114253 Z" id="Fill-63" opacity="0.9" fill="#7CACDE" sketch:type="MSShapeGroup"></path>
                <path d="M139.156211,172.108895 L141.921658,172.108895 L141.921658,173.639346 C142.246333,173.264296 142.428644,173.048025 142.617112,172.837323 C143.17756,172.210784 143.836221,171.821286 144.719092,171.916554 C145.226979,171.971487 145.626891,172.21244 145.64341,172.714363 C145.654824,173.062172 145.49609,173.618276 145.257764,173.721972 C144.931437,173.864045 144.33735,173.807607 144.071994,173.582607 C143.544734,173.135768 143.094964,173.173393 142.834113,173.68856 C142.449218,174.448895 142.089251,175.275149 141.977823,176.108025 C141.833055,177.190885 141.917603,178.30851 141.952143,179.40958 C141.970764,180.007674 142.052008,180.59764 142.734998,180.903159 C142.919111,180.985483 142.979931,181.344881 143.146624,181.67463 L138.883195,181.67463 C139.051389,181.345935 139.115664,180.980667 139.298275,180.906169 C139.959339,180.636018 140.097499,180.087741 140.10726,179.509212 C140.138046,177.706202 140.157418,175.900935 140.091342,174.099881 C140.077676,173.72754 139.68287,173.365433 139.451903,173.006186 C139.290916,172.755901 139.109957,172.518711 138.937858,172.275651 C139.010692,172.220115 139.083376,172.16443 139.156211,172.108895" id="Fill-65" opacity="0.9" fill="#7CACDE" sketch:type="MSShapeGroup"></path>
                <path d="M72.6369448,172.12101 L75.8255811,172.12101 C75.8255811,172.81693 75.823779,173.485609 75.8260316,174.154137 C75.8320385,175.958351 75.8356427,177.762565 75.8496089,179.566779 C75.8541141,180.150274 76.0283155,180.623 76.6209005,180.906545 C76.8096688,180.996997 76.8767964,181.342849 77.0527998,181.671244 L72.7226939,181.671244 C72.9185203,181.329605 72.9967608,180.984054 73.1969422,180.88397 C73.7228502,180.621344 73.9326427,180.204003 73.9371479,179.678452 C73.953667,177.799288 73.9772443,175.918619 73.9102668,174.041562 C73.8973519,173.679605 73.4939856,173.328184 73.2603155,172.978719 C73.0994795,172.738217 72.9206227,172.509605 72.6369448,172.12101" id="Fill-67" opacity="0.9" fill="#7CACDE" sketch:type="MSShapeGroup"></path>
                <path d="M157.327278,181.680289 L153.268686,181.680289 C153.153653,181.280557 153.202609,181.052848 153.60958,180.787664 C153.92945,180.579069 154.239408,180.090992 154.251722,179.716995 C154.315095,177.814955 154.311341,175.908701 154.250821,174.00636 C154.239708,173.660808 153.868179,173.318416 153.639314,172.991075 C153.473372,172.753584 153.268235,172.543483 153.080518,172.321192 L153.234296,172.136376 L156.168538,172.136376 C156.168538,172.384253 156.168538,172.64763 156.168388,172.911159 C156.167637,174.991393 156.159978,177.071778 156.169439,179.152012 C156.172893,179.887062 156.191515,180.61549 157.064624,180.955624 C157.209842,181.012062 157.229665,181.391477 157.327278,181.680289" id="Fill-69" opacity="0.9" fill="#7CACDE" sketch:type="MSShapeGroup"></path>
                <path d="M153.779066,167.668584 C153.777714,166.925406 154.186337,166.504303 154.922037,166.491059 C155.670803,166.477513 156.174635,166.942413 156.189202,167.660306 C156.203619,168.363751 155.667048,168.920908 154.980004,168.916242 C154.266379,168.911426 153.780417,168.406493 153.779066,167.668584" id="Fill-71" opacity="0.9" fill="#7CACDE" sketch:type="MSShapeGroup"></path>
                <path d="M73.4362138,167.632478 C73.4474768,166.900438 73.8696148,166.491826 74.6152268,166.491074 C75.3581357,166.490321 75.8499543,166.972077 75.8457494,167.696441 C75.8416947,168.404702 75.2928102,168.942595 74.6011105,168.916258 C73.8873353,168.889017 73.4248006,168.379268 73.4362138,167.632478" id="Fill-73" opacity="0.9" fill="#7CACDE" sketch:type="MSShapeGroup"></path>
            </g>
        </g>
    </g>
</svg>