<?xml version="1.0" standalone="no"?>
<!DOCTYPE svg PUBLIC "-//W3C//DTD SVG 1.1//EN" "http://www.w3.org/Graphics/SVG/1.1/DTD/svg11.dtd" >
<svg xmlns="http://www.w3.org/2000/svg">
<metadata>
Created by FontPrep 20130207 at Fri Feb 19 21:14:56 2016
 By Corey Margulis
Copyright (c) ParaType, Inc., 1998. All rights reserved.
</metadata>
<defs>
<font id="4fd464f453d2f0eb62a5c0858a8808b0" horiz-adv-x='1024' >
  <font-face 
    font-family="Academy-Regular"
    font-weight="400"
    font-stretch="normal"
    units-per-em="2048"
    panose-1="2 5 5 3 5 5 6 2 4 2"
    ascent="1638"
    descent="-410"
    x-height="788"
    cap-height="1434"
    bbox="-963 -582 2438 1987.02"
    underline-thickness="102"
    underline-position="-102"
    unicode-range="U+0020-FB04"
  />
<missing-glyph horiz-adv-x="477" 
 />
    <glyph glyph-name="IJ" unicode="IJ" horiz-adv-x="1191" 
d="M643 -240q145 0 145 357v1081q0 156 -122 166v70h419v-70q-121 -14 -120 -166v-1003q0 -256 -114 -386t-251 -131q-82 0 -130 41t-48 87t24 76q24 28 60 28q34 0 60 -18t26 -56l-4 -37q0 -39 55 -39zM524 1434v-70q-121 -8 -121 -166v-962q0 -152 121 -166v-70h-418v70
q121 14 121 166v962q0 156 -121 166v70h418z" />
    <glyph glyph-name="ij" unicode="ij" horiz-adv-x="806" 
d="M496 1155q0 43 28 71q29 28 71 28t71 -30q28 -28 28 -70t-28 -71t-70 -29q-43 0 -72 29q-28 29 -28 72zM399 788h295v-739q0 -199 -59 -301q-72 -125 -215 -125q-55 0 -89 28t-34 64q0 63 70 64q35 0 60 -32q26 -32 41 -36t28 -4q49 0 49 62v811q0 78 -26 114t-87 35h-33
v59zM96 1155q0 43 29 71t71 28t70 -30q28 -28 29 -70q0 -42 -28 -71q-29 -29 -71 -29t-71 30q-29 28 -29 71zM53 788h240v-581q0 -68 18 -106t74 -42v-59h-332v59q53 6 72 41q18 35 18 107v373q0 72 -15 104t-75 45v59z" />
    <glyph glyph-name="uniF460" unicode="&#x410;`" horiz-adv-x="1482" 
d="M1077 1732q0 -48 -51 -79q-18 -10 -76 -33l-293 -111l-22 43l248 205q89 76 159 41q36 -18 35 -66zM1018 473l-303 674h-23l-313 -674h639zM1483 0h-402v70q47 8 61 24q13 16 13 44t-18 71l-82 184h-713l-80 -174q-25 -53 -24 -72q0 -61 79 -77v-70h-317v70q55 4 97 51
t65 94l461 995q18 39 18 52q0 31 -49 30v70q35 8 78 35t65 53h41l553 -1229q63 -147 154 -151v-70z" />
    <glyph glyph-name="uniF461" unicode="&#x415;`" horiz-adv-x="1341" 
d="M965 1732q0 -48 -52 -79q-18 -10 -75 -33l-293 -111l-23 43l248 205q89 76 159 41q36 -18 36 -66zM106 1434h807q101 0 143 9t113 7v-272h-69q-29 106 -108 141t-212 35h-374v-588h256q109 0 141 46q18 26 26 69h68v-310h-68q-18 63 -37 84q-27 31 -80 31h-306v-606h419
q178 0 281 49q102 49 113 178h69l-22 -307h-1160v70q123 14 123 166v962q0 80 -25 122q-26 42 -98 44v70z" />
    <glyph glyph-name="uniF462" unicode="&#x418;`" horiz-adv-x="1636" 
d="M1063 1732q0 -48 -51 -79q-18 -10 -76 -33l-293 -111l-22 43l247 205q89 76 159 41q36 -18 36 -66zM106 1434h420v-70q-70 -6 -96 -48t-24 -118v-780h6l821 756v65q0 49 -36 85t-87 40v70h420v-70q-70 -6 -96 -48t-25 -118v-962q0 -78 25 -118t96 -48v-70h-420v70
q123 10 123 166v811h-6l-821 -758v-53q0 -154 120 -166v-70h-420v70q123 12 123 166v962q0 154 -123 166v70z" />
    <glyph glyph-name="uniF463" unicode="&#x41e;`" horiz-adv-x="1613" 
d="M1141 1732q0 -48 -51 -79q-18 -10 -76 -33l-293 -111l-23 43l248 205q89 76 159 41q36 -18 36 -66zM807 1370q-221 0 -372 -175t-151 -478t152 -478q150 -175 371 -175t372 174q151 176 150 479q0 303 -150 478q-151 175 -372 175zM807 1450q170 0 312 -66
q258 -120 367 -408q48 -128 48 -259t-48 -259q-109 -292 -367 -409q-142 -65 -312 -65t-312 66q-259 119 -367 408q-48 128 -48 259q0 270 184 494q88 107 230 173t313 66z" />
    <glyph glyph-name="uniF464" unicode="&#x423;`" horiz-adv-x="1290" 
d="M602 1552l248 205q89 76 159 41q35 -18 35 -66t-51 -79q-18 -10 -75 -33l-293 -111zM420 1364q-84 -4 -84 -71q0 -30 47 -113l346 -617h8l273 623q51 108 -9 156q-31 26 -73 22v70h362v-70q-76 -16 -119 -58t-75 -120l-293 -678q-10 -23 -36 -82t-46 -111t-46 -93
q-69 -113 -95 -136q-71 -63 -102 -74q-75 -28 -155 -28q-79 0 -162 42t-83 134q0 51 30 79q30 27 70 27t74 -30q33 -30 33 -72l-2 -47q0 -23 19 -43q20 -20 76 -20t130 62q74 64 135 232l-483 858q-33 59 -49 84q-45 70 -111 74v70h420v-70z" />
    <glyph glyph-name="uniF465" unicode="&#x42b;`" horiz-adv-x="1781" 
d="M1153 1732q0 -48 -51 -79q-18 -10 -76 -33l-293 -111l-22 43l247 205q89 76 159 41q36 -18 36 -66zM1675 1434v-70q-73 -8 -97 -53t-24 -113v-962q0 -76 25 -118t96 -48v-70h-420v70q123 10 123 166v962q0 156 -123 166v70h420zM406 80h229q260 0 327 143q31 66 31 153
t-4 123t-24 87q-65 166 -349 166h-210v-672zM106 1434h422v-70q-123 -10 -122 -166v-367h262q530 0 530 -411q0 -203 -93 -292q-46 -44 -93 -72q-94 -56 -334 -56h-572v70q70 8 97 49t26 117v962q0 76 -26 117q-27 41 -97 49v70z" />
    <glyph glyph-name="uniF466" unicode="&#x42d;`" horiz-adv-x="1435" 
d="M1010 1732q0 -48 -52 -79q-18 -10 -75 -33l-293 -111l-23 43l248 205q89 76 159 41q36 -18 36 -66zM704 1370q-305 0 -434 -301h-69v352h80q29 -41 63 -41t93 20t125 34q66 16 178 16t222 -48q237 -104 340 -359q54 -136 54 -300q0 -323 -200 -541t-529 -218
q-231 0 -372 106q-140 106 -140 238q0 57 32 97q33 40 84 40t88 -36t37 -77t-14 -77t-14 -64q0 -72 93 -110t215 -38t241 69t190 206q92 178 84 414q-41 -62 -108 -106t-153 -44t-213 73q-28 15 -30 17q-109 58 -152 58t-61 -14t-61 -66l-56 37q63 92 123 141t144 49
q84 -1 223 -69t208 -68t103 52t33 120q0 141 -105 281q-52 69 -146 113q-92 44 -196 44z" />
    <glyph glyph-name="uniF467" unicode="&#x42e;`" horiz-adv-x="2271" 
d="M1358 1732q0 -48 -51 -79q-18 -10 -76 -33l-293 -111l-23 43l248 205q89 76 159 41q36 -18 36 -66zM1464 1370q-222 0 -372 -175t-150 -478t151 -478t371 -175t372 174q151 176 151 479t-151 478t-372 175zM403 797h338q28 254 211 447q88 94 222 150t296 56
q164 0 306 -66q257 -119 367 -408q48 -128 48 -259t-48 -259q-109 -292 -366 -409q-142 -66 -313 -65q-301 0 -513 208t-214 525h-334v-481q0 -76 26 -118t97 -48v-70h-420v70q70 6 96 49t25 117v960q0 72 -23 113q-24 41 -98 55v70h420v-70q-76 -12 -100 -54t-23 -112v-401
z" />
    <glyph glyph-name="uniF468" unicode="&#x42f;`" horiz-adv-x="1421" 
d="M557 1552l248 205q89 76 159 41q36 -18 36 -66t-52 -79q-18 -10 -76 -33l-292 -111zM1016 1354h-205q-221 0 -313 -67q-42 -30 -74 -90q-33 -60 -33 -144q0 -303 385 -303h240v604zM1016 236v434h-211q-145 0 -203 -82q-41 -59 -79 -187q-37 -129 -93 -232t-162 -153
q-107 -50 -268 -30v69q123 -4 186 99q23 37 51 135q71 249 189 337q70 52 129 66v6q-141 0 -255 94t-114 257q0 164 127 274q127 111 490 111h512v-70q-123 -10 -123 -166v-962q0 -154 123 -166v-70h-422v70q123 10 123 166z" />
    <glyph glyph-name="uniF469" unicode="&#x401;`" horiz-adv-x="1341" 
d="M758 1849q41 1 61 -21q21 -22 21 -56t-26 -58q-26 -22 -71 -49l-249 -156l-27 33l215 266q35 41 76 41zM887 1667q0 55 40 95t95 40t95 -40t40 -95t-40 -95t-95 -40t-95 40t-40 95zM178 1667q0 55 40 95t95 40t95 -40t41 -95q0 -55 -40 -95q-39 -40 -95 -40t-96 40
t-40 95zM106 1434h807q101 0 143 9t113 7v-272h-69q-29 106 -108 141t-212 35h-374v-588h256q109 0 141 46q18 26 26 69h68v-310h-68q-18 63 -37 84q-27 31 -80 31h-306v-606h419q178 0 281 49q102 49 113 178h69l-22 -307h-1160v70q123 14 123 166v962q0 80 -25 122
q-26 42 -98 44v70z" />
    <glyph glyph-name="uniF46A" unicode="&#x430;`" horiz-adv-x="817" 
d="M571 1370q39 0 61 -22t22 -56q0 -35 -26 -57q-25 -22 -71 -49l-250 -156l-26 33l215 266q35 41 75 41zM518 350v72q-168 -8 -236 -73t-69 -136q0 -71 41 -107t98 -36q112 1 139 86q27 86 27 194zM374 741q-84 0 -108 -67q-2 -6 -8 -28t-11 -31q-15 -27 -52 -27t-55 19
q-17 19 -17 42q0 55 72 105t170 51q166 0 235 -79q68 -79 68 -271v-258q0 -127 84 -127q16 0 36 10l15 -23q-49 -74 -131 -73q-53 0 -87 34t-46 78h-4q-105 -112 -231 -112t-188 61t-62 147q-1 161 128 223t336 74q0 127 -30 189t-114 63z" />
    <glyph glyph-name="uniF46B" unicode="&#x435;`" horiz-adv-x="790" 
d="M623 1370q41 0 61 -22t20 -56q0 -35 -24 -57q-26 -22 -72 -49l-250 -156l-26 33l215 266q35 41 76 41zM401 741q-71 0 -119 -53t-51 -168h324q4 111 -40 166t-114 55zM53 367q-1 195 101 317t257 121q155 0 233 -108t73 -240h-490q-27 -389 219 -389q133 0 254 125
l37 -35q-139 -174 -311 -174t-283 111q-39 40 -64 111q-26 71 -26 161z" />
    <glyph glyph-name="uniF46C" unicode="&#x438;`" horiz-adv-x="942" 
d="M612 1370q40 0 61 -22t21 -56q0 -35 -25 -57t-71 -49l-250 -156l-26 33l215 266q35 41 75 41zM53 788h332v-59q-59 -12 -75 -45t-15 -104v-293h4l350 327q2 49 -17 76t-71 39v59h328v-59q-55 -12 -73 -45t-17 -104v-373q0 -70 19 -106t71 -42v-59h-332v59q53 6 73 42
q19 36 19 106v303h-4l-350 -324q-6 -115 90 -127v-59h-332v59q92 8 92 148v373q0 70 -18 106t-74 43v59z" />
    <glyph glyph-name="uniF46D" unicode="&#x43e;`" horiz-adv-x="884" 
d="M643 1370q41 0 62 -21q20 -22 20 -57q1 -35 -25 -57t-71 -49l-250 -156l-27 33l215 266q35 41 76 41zM442 741q-102 -1 -159 -73t-57 -250t18 -223q20 -45 43 -79q45 -67 156 -68t156 69t53 142q7 71 7 134q0 203 -57 276q-58 72 -160 72zM742 666q89 -118 89 -266
t-74 -253t-179 -140q-69 -23 -115 -23q-45 0 -75 3t-81 20q-105 35 -178 138t-75 251q-1 149 88 271q103 138 321 138q62 0 167 -45q62 -28 112 -94z" />
    <glyph glyph-name="uniF46E" unicode="&#x443;`" horiz-adv-x="878" 
d="M656 1370q41 0 61 -22t20 -56q0 -35 -25 -57t-71 -49l-250 -156l-26 33l215 266q35 41 76 41zM879 788v-59q-47 -12 -70 -35q-24 -24 -31 -39q-6 -14 -13 -29t-9 -20l-322 -712q-66 -141 -123 -206t-153 -65q-59 0 -101 28q-41 28 -41 76q0 49 24 71t54 22t65 -26
q34 -26 64 -25q70 0 113 98l61 135l-241 602q-51 133 -146 125v59h377v-59h-20q-59 0 -60 -51q0 -23 19 -66l157 -395h9l163 363q27 72 27 92t-19 39q-19 20 -61 18v59h277z" />
    <glyph glyph-name="uniF46F" unicode="&#x44b;`" horiz-adv-x="1249" 
d="M729 1370q41 0 62 -21q20 -22 20 -57q1 -35 -25 -57t-71 -49l-250 -156l-27 33l215 266q35 41 76 41zM866 788h330v-59q-58 -12 -74 -45t-16 -104v-414q0 -96 90 -107v-59h-330v59q90 12 90 107v414q0 72 -16 104t-74 45v59zM295 63h121q227 0 227 228q0 128 -74 167
q-52 27 -116 27t-158 -47v-375zM53 788h334v-59q-59 -10 -75 -45t-17 -104v-60q113 55 239 55q126 1 204 -81q77 -82 77 -196t-60 -198q-31 -44 -95 -72t-150 -28h-457v59q57 6 75 42q17 36 17 106v373q0 72 -16 104t-76 45v59z" />
    <glyph glyph-name="uniF470" unicode="&#x44d;`" horiz-adv-x="860" 
d="M534 1370q40 0 62 -22t20 -56q0 -35 -25 -57t-71 -49l-250 -156l-26 33l215 266q35 41 75 41zM397 47q95 1 153 63q102 109 83 306h-6q-27 -47 -69 -73t-83 -26t-103 33t-112 33t-92 -21l-16 31q96 92 170 92q74 1 129 -29t92 -30q88 0 88 106q1 68 -59 139t-159 71
t-149 -40q-50 -39 -84 -129h-59v224h31q29 -19 51 -19q21 0 85 14t120 13q194 0 296 -122t102 -282t-77 -256q-78 -96 -158 -129q-81 -32 -195 -32t-197 56t-83 126q0 36 23 62t61 26t61 -20q22 -20 21 -52l-2 -41q0 -94 137 -94z" />
    <glyph glyph-name="uniF471" unicode="&#x44e;`" horiz-adv-x="1320" 
d="M763 1370q39 0 61 -22t22 -56q0 -35 -26 -57t-70 -49l-250 -156l-27 33l215 266q35 41 75 41zM879 741q-59 1 -103 -25t-64 -61q-50 -81 -50 -247t19 -212t42 -80q45 -67 156 -68t156 69t53 141t8 135q0 348 -217 348zM295 426h194q21 291 279 362q57 16 111 17
q157 0 273 -108t116 -284q0 -177 -102 -303t-282 -126q-181 0 -283 110q-101 111 -112 268h-194v-155q0 -72 18 -107t72 -41v-59h-332v59q55 4 74 40q18 36 18 108v373q0 74 -17 106t-75 43v59h332v-59q-59 -12 -75 -45t-15 -104v-154z" />
    <glyph glyph-name="uniF472" unicode="&#x44f;`" horiz-adv-x="854" 
d="M570 1370q40 0 61 -21q20 -22 20 -57q1 -35 -25 -57t-71 -49l-250 -156l-26 33l215 266q36 41 76 41zM559 725h-106q-122 0 -153 -48q-32 -48 -32 -84q0 -165 162 -165h129v297zM799 788v-59q-90 -16 -90 -106v-416q0 -68 18 -106t74 -42v-59h-334v59q57 6 75 42
q17 36 17 106v158h-22q-41 1 -67 -7t-60 -46t-58 -103t-38 -93t-47 -65q-58 -67 -212 -67h-55v57q46 0 76 25t45 51t20 38q4 13 12 29q7 16 7 19q28 71 68 113t108 61v6q-43 2 -96 25q-143 61 -144 176q0 205 318 204h385z" />
    <glyph glyph-name="uniF473" unicode="&#x451;`" horiz-adv-x="790" 
d="M501 1370q39 0 61 -22t22 -56q0 -35 -26 -57t-71 -49l-249 -156l-27 33l215 266q35 41 75 41zM580 1155q0 41 28 70q29 29 70 29t70 -30q28 -28 28 -69t-28 -70t-70 -29q-41 0 -70 29q-28 29 -28 70zM16 1155q0 41 29 70t70 29t69 -30q28 -28 29 -69q0 -41 -29 -70
q-30 -29 -70 -29t-69 30q-29 28 -29 69zM401 741q-71 0 -119 -53t-51 -168h324q4 111 -40 166t-114 55zM53 367q-1 195 101 317t257 121q155 0 233 -108t73 -240h-490q-27 -389 219 -389q133 0 254 125l37 -35q-139 -174 -311 -174t-283 111q-39 40 -64 111q-26 71 -26 161z
" />
    <glyph glyph-name="f_f" unicode="ff" horiz-adv-x="970" 
d="M608 788v207q0 158 70 287q-41 -23 -82 12q-2 2 -19 20q-42 46 -108 47t-116 -49t-50 -161v-363h305zM977 725h-219v-516q0 -160 104 -150v-59h-354v59q63 10 82 44q18 34 18 106v516h-305v-516q0 -160 105 -150v-59h-355v59q63 10 82 44q18 34 19 106v516h-99v63h99v207
q0 276 184 398q90 57 180 57t146 -28t53 -83q74 94 182 95q51 0 82 -26t31 -58q0 -72 -66 -72q-37 0 -67 35q-20 20 -48 20q-74 0 -73 -133v-412h219v-63z" />
    <glyph glyph-name="fi" unicode="fi" horiz-adv-x="903" 
d="M55 788h99v207q0 276 184 398q84 57 183 57t147 -30t49 -68q-1 -38 -21 -58t-50 -20t-75 45q-39 43 -103 43t-115 -50q-50 -50 -50 -161v-363h455v-581q0 -68 18 -106t74 -42v-59h-332v59q53 6 72 41q18 35 18 107v373q0 88 -22 116t-74 27h-209v-514q0 -160 105 -150
v-59h-355v59q63 10 82 44q18 34 19 106v514h-99v65z" />
    <glyph glyph-name="fl" unicode="fl" horiz-adv-x="905" 
d="M55 788h99v207q0 186 66 285q66 98 140 126t160 28h240v-1227q0 -68 18 -106t74 -42v-59h-334v59q57 6 75 42q17 36 17 106v1020q0 78 -14 103q-14 26 -41 34q8 -34 -10 -60t-54 -26q-35 0 -61 28t-53 27q-74 0 -74 -133v-412h219v-63h-219v-516q0 -160 105 -150v-59
h-355v59q63 10 82 44q18 34 19 106v516h-99v63z" />
    <glyph glyph-name="f_f_i" unicode="ffi" horiz-adv-x="1357" 
d="M608 788v207q0 168 78 291q-12 -12 -43 -12t-71 44t-104 44t-115 -50q-50 -50 -50 -161v-363h305zM1212 788v-581q0 -68 18 -106t75 -42v-59h-332v59q53 6 71 41t19 107v373q0 88 -23 116t-73 27h-209v-514q0 -160 104 -150v-59h-354v59q63 10 82 44q18 34 18 106v514
h-305v-514q0 -160 105 -150v-59h-355v59q63 10 82 44q18 34 19 106v514h-99v65h99v207q0 276 184 398q90 57 180 57t152 -32t43 -95l80 70q61 57 211 57q70 0 118 -31q49 -31 49 -67t-20 -58q-20 -20 -50 -20t-75 45q-40 43 -104 43t-114 -50t-50 -161v-363h454z" />
    <glyph glyph-name="f_f_l" unicode="ffl" horiz-adv-x="1359" 
d="M608 788v207q0 178 68 285q-49 -22 -99 33q-19 20 -22 22q-31 27 -93 27t-106 -47q-53 -53 -53 -164v-363h305zM1214 1434v-1227q0 -68 18 -106t75 -42v-59h-334v59q57 6 75 42q17 36 17 106v1061q0 78 -55 96q8 -34 -10 -60t-55 -26q-36 0 -66 35q-20 20 -48 20
q-74 0 -73 -133v-412h219v-63h-219v-516q0 -160 104 -150v-59h-354v59q63 10 82 44q18 34 18 106v516h-305v-516q0 -160 105 -150v-59h-355v59q63 10 82 44q18 34 19 106v516h-99v63h99v207q0 276 184 398q86 57 180 57q202 0 199 -115q92 99 258 99h239z" />
    <glyph glyph-name=".notdef" horiz-adv-x="477" 
 />
    <glyph glyph-name=".null" horiz-adv-x="0" 
 />
    <glyph glyph-name="nonmarkingreturn" horiz-adv-x="681" 
 />
    <glyph glyph-name="space" unicode=" " horiz-adv-x="477" 
 />
    <glyph glyph-name="exclam" unicode="!" horiz-adv-x="507" 
d="M143 94q0 45 33 78t78 33t78 -33t33 -78t-33 -78q-33 -32 -78 -32t-78 32t-33 78zM213 305l-66 1129h215l-67 -1129h-82z" />
    <glyph glyph-name="quotedbl" unicode="&#x22;" horiz-adv-x="792" 
d="M657 1434l-55 -418h-74l-55 418h184zM319 1434l-55 -418h-74l-55 418h184z" />
    <glyph glyph-name="numbersign" unicode="#" 
d="M383 483h266l60 373h-267zM686 82h-100l53 321h-268l-54 -321h-100l51 321h-219l12 80h220l61 373h-223l12 80h223l49 305h103l-51 -305h268l49 305h102l-49 -305h209l-14 -80h-209l-59 -373h213l-13 -80h-213z" />
    <glyph glyph-name="dollar" unicode="$" 
d="M498 887v483q-98 -4 -160 -73t-64 -161q0 -92 56 -148q56 -54 168 -101zM850 344q0 122 -84 198t-193 109v-585q109 -16 193 70t84 208zM922 1059h-68q-96 272 -281 303v-500q217 -61 309 -151q116 -112 115 -284q1 -171 -119 -308t-305 -135v-140h-75v146
q-98 16 -164 39t-90 22q-70 0 -84 -51h-66v442h70q29 -154 180 -278q76 -63 154 -84v594q-188 47 -285 166q-78 98 -78 237q0 178 123 283q100 82 240 88v141h75v-141q84 -8 195 -72q83 -47 106 6h48v-323z" />
    <glyph glyph-name="percent" unicode="%" horiz-adv-x="1781" 
d="M1464 440q0 211 -154 211t-153 -211v-168q0 -209 154 -211q155 0 153 211v168zM1311 729q131 0 219 -84q108 -101 108 -289t-108 -288q-88 -84 -219 -84t-219 84q-109 100 -109 288t109 289q88 84 219 84zM625 1159q0 211 -154 211t-154 -211v-168q0 -209 154 -211
q154 0 154 211v168zM471 1448q131 0 219 -84q109 -100 109 -288t-109 -290q-88 -84 -219 -84t-219 84q-109 100 -109 288t109 290q88 84 219 84zM516 16l672 1434l78 -29l-672 -1437z" />
    <glyph glyph-name="ampersand" unicode="&#x26;" horiz-adv-x="1730" 
d="M804 1370q-62 0 -108 -44q-47 -44 -47 -142t72 -279q88 35 157 110q68 75 68 173t-40 140t-102 42zM352 418q0 -139 71 -221t175 -82q152 0 293 139q-113 142 -171 238t-130 251q-238 -123 -238 -325zM1083 913h412v-79q-113 -24 -179 -120q-24 -34 -103 -165t-150 -219
q55 -74 135 -131t150 -57t119 39q48 40 63 106h57q-27 -125 -99 -214t-196 -89q-178 0 -350 206q-201 -207 -446 -206q-176 0 -265 100q-88 100 -88 238q0 285 414 501q-72 169 -72 311t88 229q87 87 215 87t206 -71t77 -177q0 -221 -319 -371q98 -227 262 -438
q59 80 113 194q55 114 55 174t-99 73v79z" />
    <glyph glyph-name="quotesingle" unicode="'" horiz-adv-x="454" 
d="M319 1434l-55 -418h-74l-55 418h184z" />
    <glyph glyph-name="parenleft" unicode="(" horiz-adv-x="817" 
d="M674 1415q0 -10 -16 -25q-58 -56 -132 -176q-178 -290 -178 -678q0 -473 257 -790q38 -47 58 -67t5 -38q-14 -18 -35 -18t-74 45q-416 348 -416 868t416 869q53 45 73 45t32 -12q10 -13 10 -23z" />
    <glyph glyph-name="parenright" unicode=")" horiz-adv-x="817" 
d="M143 1415q1 11 11 23t30 12t74 -45q416 -348 416 -868t-416 -869q-54 -45 -74 -45t-35 18t5 38q66 66 137 180q178 289 178 678q0 522 -310 853q-16 15 -16 25z" />
    <glyph glyph-name="asterisk" unicode="*" horiz-adv-x="970" 
d="M486 1434q32 0 68 -23t46 -74q-42 -47 -66 -137t-22 -158q6 -2 18 -10q70 16 144 68t110 106h11q61 0 92 -37t31 -71q0 -70 -62 -113q-53 23 -147 23t-162 -29q0 -14 -4 -21q10 -20 29 -39l32 -32q36 -36 50 -46q15 -11 45 -34t87 -35q31 -62 -7 -116t-91 -54t-88 33
q6 63 -26 150t-76 141q-12 -4 -25 0q-45 -52 -77 -140t-25 -151q-35 -33 -89 -33t-91 53q-38 53 -7 117q72 16 154 87q14 13 20 19l32 32q26 25 38 48q-4 6 -4 21q-68 29 -162 29t-147 -23q-61 43 -62 113q0 36 31 72t92 36h10q37 -55 111 -106t143 -68q12 8 19 10
q2 68 -22 158q-23 90 -66 137q10 51 46 74q37 23 69 23z" />
    <glyph glyph-name="plus" unicode="+" horiz-adv-x="1437" 
d="M770 72h-102v524h-525v102h525v525h102v-525h524v-102h-524v-524z" />
    <glyph glyph-name="comma" unicode="," horiz-adv-x="530" 
d="M259 201q54 0 91 -35t37 -115q1 -80 -59 -166t-144 -137l-41 43q121 100 138 186l-5 7q-18 -2 -34 0q-98 10 -99 110q0 45 31 76t85 31z" />
    <glyph glyph-name="hyphen" unicode="-" horiz-adv-x="757" 
d="M461 518q86 0 104 55h49l-36 -190h-281q-63 0 -82 -16q-6 -4 -29 -39h-43l43 190h275z" />
    <glyph glyph-name="period" unicode="." horiz-adv-x="507" 
d="M143 92q0 47 33 79t78 32t78 -32t33 -79t-33 -79q-33 -31 -78 -31t-78 32t-33 78z" />
    <glyph glyph-name="slash" unicode="/" horiz-adv-x="1118" 
d="M260 -377h-117l711 1811h121z" />
    <glyph glyph-name="zero" unicode="0" 
d="M530 63q112 0 159 114q52 120 60 231q9 110 11 170t2 139q0 80 -4 211t-25 201q-20 71 -44 127q-49 114 -160 114t-157 -114q-52 -121 -60 -231q-13 -161 -13 -391t38 -364t99 -178q41 -29 94 -29zM530 -16q-180 0 -308 192t-128 541q0 416 193 622q102 111 243 111
q142 0 244 -111q194 -210 193 -622q0 -348 -128 -541q-129 -192 -309 -192z" />
    <glyph glyph-name="one" unicode="1" 
d="M809 0h-418v70q121 10 121 166v946h-12q-135 -145 -254 -213v88q207 139 340 377h102v-1198q0 -152 121 -166v-70z" />
    <glyph glyph-name="two" unicode="2" 
d="M90 0v78q618 688 619 1009q-1 104 -55 169t-154 65q-164 0 -289 -178l-61 39q164 268 417 268q166 0 256 -89t90 -218q0 -309 -632 -959v-8h370q98 0 157 29q58 29 93 112h70l-78 -317h-803z" />
    <glyph glyph-name="three" unicode="3" 
d="M567 1450q131 0 201 -72t70 -156t-52 -172t-174 -163v-8h15q119 0 205 -79q86 -78 86 -210q1 -254 -219 -424t-549 -182h-48v67q281 19 452 161t171 331q0 105 -63 163q-64 58 -146 58t-172 -47l-35 59q365 217 365 408q0 66 -44 110t-126 43q-155 0 -305 -209l-62 39
q162 283 430 283z" />
    <glyph glyph-name="four" unicode="4" 
d="M604 569v584h-12l-379 -561v-23h391zM780 1434v-865h19q92 0 123 131l57 -14l-72 -268h-127v-418h-176v418h-532v94l626 922h82z" />
    <glyph glyph-name="five" unicode="5" 
d="M901 568q1 -124 -65 -242t-168 -201q-178 -141 -432 -141q-90 0 -154 22v74q66 -16 137 -17q193 0 335 143t142 363q0 127 -58 214t-176 87t-229 -57l-38 31l155 590h332q47 0 145 16l-53 -195h-399l-94 -344l4 -4q104 55 219 56q240 0 342 -179q55 -92 55 -216z" />
    <glyph glyph-name="six" unicode="6" 
d="M530 801q-125 0 -188 -127q-43 -86 -43 -242t43 -242q63 -127 188 -127t189 127q43 86 43 242t-43 242q-64 127 -189 127zM569 881q211 0 326 -181q72 -117 72 -247q0 -184 -93 -310q-119 -160 -346 -159q-88 0 -190 44t-172 162q-72 126 -72 310t33 298t92 220
q59 104 121 172q193 205 434 260v-80q-127 -70 -209 -137q-201 -170 -258 -471h6q100 119 256 119z" />
    <glyph glyph-name="seven" unicode="7" 
d="M946 1434v-80l-409 -1354h-236l535 1257h-537q-59 -1 -85 -39t-28 -151h-69l28 367h801z" />
    <glyph glyph-name="eight" unicode="8" 
d="M252 418q0 -176 86 -265t200 -89t186 74q71 75 71 192q0 238 -238 360q-33 17 -176 78q-129 -123 -129 -350zM612 887q139 86 140 262q0 88 -58 155q-58 66 -160 66t-160 -62t-59 -141q0 -194 297 -280zM168 1110q0 132 101 236t267 104t264 -88q99 -88 99 -211
q0 -82 -41 -155q-41 -74 -74 -102t-63 -46v-8q258 -152 258 -402t-200 -384q-105 -71 -253 -70q-196 0 -316 120t-120 293q0 277 236 400v8q-158 117 -158 305z" />
    <glyph glyph-name="nine" unicode="9" 
d="M528 1370q-82 0 -135 -40q-110 -83 -110 -308q1 -225 73 -308t178 -83t175 90t69 298t-93 287q-75 64 -157 64zM530 1450q156 0 275 -92q178 -135 178 -395q0 -211 -40 -341t-119 -252q-79 -120 -224 -232t-324 -154v79q217 113 335 253t159 354h-8q-51 -61 -125 -90
t-136 -29q-132 0 -264 89q-69 46 -114 135t-45 177q0 357 272 466q80 32 180 32z" />
    <glyph glyph-name="colon" unicode=":" horiz-adv-x="507" 
d="M143 94q0 45 33 78t78 33t78 -33t33 -78t-33 -78q-33 -32 -78 -32t-78 32t-33 78zM143 700q0 45 33 78t78 33t78 -33t33 -78q0 -46 -33 -78t-78 -32t-78 32t-33 78z" />
    <glyph glyph-name="semicolon" unicode=";" horiz-adv-x="530" 
d="M259 201q54 0 91 -35t37 -115q1 -80 -59 -166t-144 -137l-41 43q121 100 138 186l-5 7q-18 -2 -34 0q-98 10 -99 110q0 45 31 76t85 31zM152 700q0 45 32 78q33 33 78 33t78 -33t33 -78q0 -46 -33 -78t-78 -32q-46 0 -78 32t-32 78z" />
    <glyph glyph-name="less" unicode="&#x3c;" horiz-adv-x="1488" 
d="M399 668l947 -406l-35 -94l-1168 500l1168 499l35 -94z" />
    <glyph glyph-name="equal" unicode="=" horiz-adv-x="1415" 
d="M143 770v86h1129v-86h-1129zM143 442v86h1129v-86h-1129z" />
    <glyph glyph-name="greater" unicode="&#x3e;" horiz-adv-x="1488" 
d="M1090 668l-947 405l35 94l1168 -499l-1168 -500l-35 94z" />
    <glyph glyph-name="question" unicode="?" horiz-adv-x="890" 
d="M143 94q0 45 33 78t78 33t78 -33t33 -78t-33 -78q-33 -32 -78 -32t-78 32t-33 78zM374 633q77 1 127 67t50 210t-66 298t-114 154q-25 0 -33 -29q-12 -61 -82 -61q-76 0 -76 86q0 42 39 67t92 25q156 0 318 -238q119 -174 119 -419q0 -139 -79 -225t-185 -85
q-106 0 -191 80h-14l20 -239h-74l-35 348l68 12q39 -51 116 -51z" />
    <glyph glyph-name="at" unicode="@" horiz-adv-x="2037" 
d="M1088 1063q-80 0 -166 -97q-142 -160 -144 -499q0 -66 42 -117t120 -51q131 0 215 119l131 461q-14 82 -66 133t-132 51zM1325 393q0 -55 27 -85q53 -59 176 -1q151 74 215 249q39 105 39 239q0 291 -202 487t-511 195q-197 0 -355 -74q-284 -133 -403 -456
q-51 -142 -51 -288q0 -209 99 -389t287 -293t427 -112q121 0 253 47t222 131l60 -100q-139 -103 -254 -145t-271 -42q-287 0 -507 129t-330 331q-111 202 -111 433q0 397 261 661t673 263q365 0 599 -227t235 -551q-1 -150 -49 -272q-48 -121 -124 -193q-158 -149 -333 -150
q-68 0 -130 39t-96 113q-135 -102 -266 -102t-222 94q-91 96 -91 270q0 215 147 373t365 157q143 0 227 -125l31 88h158l-160 -526q-35 -113 -35 -168z" />
    <glyph glyph-name="A" unicode="A" horiz-adv-x="1482" 
d="M1018 473l-303 674h-23l-313 -674h639zM1483 0h-402v70q47 8 61 24q13 16 13 44t-18 71l-82 184h-713l-80 -174q-25 -53 -24 -72q0 -61 79 -77v-70h-317v70q55 4 97 51t65 94l461 995q18 39 18 52q0 31 -49 30v70q35 8 78 35t65 53h41l553 -1229q63 -147 154 -151v-70z
" />
    <glyph glyph-name="B" unicode="B" horiz-adv-x="1310" 
d="M406 80h274q154 0 254 77q39 30 65 87q27 57 27 135q0 153 -98 231t-264 78h-258v-608zM406 768h231q252 0 309 193q12 41 12 97q0 129 -78 213q-78 83 -270 83h-204v-586zM1231 379q0 -111 -51 -191t-130 -118q-149 -70 -284 -70h-660v70q70 2 97 44t26 122v962
q0 162 -123 166v70h558q281 0 394 -111q54 -53 80 -123t25 -122q0 -50 -16 -103q-59 -176 -260 -227v-13q101 -14 170 -54q67 -40 99 -81t54 -103t21 -118z" />
    <glyph glyph-name="C" unicode="C" horiz-adv-x="1404" 
d="M1270 1085h-70q-55 143 -174 214t-252 71q-193 0 -341 -173t-148 -484t145 -481t383 -169q129 1 257 63t212 161l43 -47q-227 -256 -541 -256t-509 196t-195 524q0 326 190 536t488 210q122 0 272 -37t168 -37t41 25h31v-316z" />
    <glyph glyph-name="D" unicode="D" horiz-adv-x="1566" 
d="M406 80h258q76 0 146 11t161 51q89 40 155 106t111 186t45 283q0 164 -53 290t-125 189t-168 102q-96 40 -156 48t-116 8h-258v-1274zM106 1434h601q442 0 651 -297q129 -183 129 -449t-185 -477t-593 -211h-603v70q72 6 98 48t25 118v962q0 76 -25 118q-26 42 -98 48v70
z" />
    <glyph glyph-name="E" unicode="E" horiz-adv-x="1341" 
d="M106 1434h807q101 0 143 9t113 7v-272h-69q-29 106 -108 141t-212 35h-374v-588h256q109 0 141 46q18 26 26 69h68v-310h-68q-18 63 -37 84q-27 31 -80 31h-306v-606h419q178 0 281 49q102 49 113 178h69l-22 -307h-1160v70q123 14 123 166v962q0 80 -25 122
q-26 42 -98 44v70z" />
    <glyph glyph-name="F" unicode="F" horiz-adv-x="1234" 
d="M119 1434h846q69 0 139 7t117 9v-272h-70q-29 106 -108 141t-212 35h-413v-557h297q41 0 67 4t59 32q32 28 42 78h69v-309h-69q-14 74 -49 94t-107 21h-309v-481q0 -76 26 -117t95 -49v-70h-420v70q123 10 123 166v962q0 156 -123 166v70z" />
    <glyph glyph-name="G" unicode="G" horiz-adv-x="1472" 
d="M1300 1395v-316h-69q-33 81 -88 141t-105 88q-110 62 -262 62q-203 0 -347 -157t-144 -468q0 -398 215 -576q45 -38 92 -60q94 -45 254 -45t259 77q99 78 112 211q8 92 -31 130t-90 40v70h297v-498q-191 -66 -307 -88t-240 -22q-378 0 -572 196t-194 570q0 296 217 513
q193 187 477 187q172 0 311 -55q61 -25 97 -25t53 25h65z" />
    <glyph glyph-name="H" unicode="H" horiz-adv-x="1634" 
d="M524 1434v-70q-121 -10 -121 -166v-428h826v428q0 80 -28 119t-93 47v70h420v-70q-123 -10 -123 -166v-962q0 -154 123 -166v-70h-420v70q66 8 94 47t27 119v454h-826v-454q0 -76 26 -118t95 -48v-70h-418v70q70 6 96 48t25 118v962q0 76 -25 118q-26 42 -96 48v70h418z
" />
    <glyph glyph-name="I" unicode="I" horiz-adv-x="630" 
d="M524 1434v-70q-121 -8 -121 -166v-962q0 -152 121 -166v-70h-418v70q121 14 121 166v962q0 156 -121 166v70h418z" />
    <glyph glyph-name="J" unicode="J" horiz-adv-x="716" 
d="M168 -240q145 0 145 357v1081q0 156 -123 166v70h420v-70q-121 -14 -121 -166v-1003q1 -256 -113 -386t-251 -131q-82 0 -130 41t-48 87q1 46 25 76q24 28 59 28t61 -18t25 -56l-4 -37q0 -39 55 -39z" />
    <glyph glyph-name="K" unicode="K" horiz-adv-x="1517" 
d="M106 1434h420v-70q-121 -10 -120 -166v-438h12l555 452q67 60 67 94q-1 58 -63 58h-14v70h430v-70q-141 -35 -293 -158l-424 -346l602 -641q127 -133 240 -149v-70h-527v70h17q74 0 73 61q0 37 -47 88l-495 529l-133 -109v-403q0 -154 120 -166v-70h-420v70
q123 14 123 166v962q0 156 -123 166v70z" />
    <glyph glyph-name="L" unicode="L" horiz-adv-x="1261" 
d="M524 1434v-70q-121 -12 -121 -166v-1118h439q124 0 200 77t97 181h69v-338h-1102v70q121 10 121 166v962q0 154 -121 166v70h418z" />
    <glyph glyph-name="M" unicode="M" horiz-adv-x="1896" 
d="M1790 1434v-70q-121 -12 -121 -166v-962q0 -158 121 -166v-70h-418v70q121 8 121 166v1120h-6l-567 -1372h-68l-539 1370h-6v-1123q0 -154 123 -161v-70h-324v70q121 12 121 161v1010q0 59 -34 90q-35 31 -87 33v70h371l459 -1166h8l479 1166h367z" />
    <glyph glyph-name="N" unicode="N" horiz-adv-x="1581" 
d="M106 0v70q59 -6 92 42q32 48 31 107v973q0 34 -12 80q-24 92 -111 92v70h293l869 -1100h6v868q0 43 -5 70q-5 26 -34 56t-82 36v70h322v-70q-74 -16 -98 -53t-23 -109v-1202h-62l-975 1237h-8v-1018q0 -55 28 -102t93 -47v-70h-324z" />
    <glyph glyph-name="O" unicode="O" horiz-adv-x="1613" 
d="M807 1370q-221 0 -372 -175t-151 -478t152 -478q150 -175 371 -175t372 174q151 176 150 479q0 303 -150 478q-151 175 -372 175zM807 1450q170 0 312 -66q258 -120 367 -408q48 -128 48 -259t-48 -259q-109 -292 -367 -409q-142 -65 -312 -65t-312 66q-259 119 -367 408
q-48 128 -48 259q0 270 184 494q88 107 230 173t313 66z" />
    <glyph glyph-name="P" unicode="P" horiz-adv-x="1310" 
d="M403 1354v-609h234q72 -1 119 5q46 6 112 36t103 86q53 76 53 192q0 198 -163 258q-65 24 -109 28t-115 4h-234zM106 0v70q68 8 95 48t26 118v962q0 74 -25 116q-26 42 -96 50v70h564q158 0 261 -20t183 -91q115 -101 115 -249t-74 -245q-127 -164 -432 -163h-320v-430
q0 -74 26 -117t95 -49v-70h-418z" />
    <glyph glyph-name="Q" unicode="Q" horiz-adv-x="1613" 
d="M739 309q182 0 281 -200q245 114 297 449q12 77 12 155q0 410 -270 585q-111 72 -252 72t-252 -72q-270 -175 -270 -585q-1 -359 204 -535q41 63 110 97t140 34zM686 215q-39 0 -81 -24t-58 -58q109 -63 260 -70h57q-55 152 -178 152zM1212 -367q-211 0 -319 357
q-43 -6 -86 -6q-172 0 -314 68q-255 121 -365 411q-48 127 -48 256t48 257q109 291 367 408q142 66 312 66t312 -66q258 -120 367 -408q48 -128 48 -259q0 -231 -131 -425t-340 -265q100 -225 197 -226q82 0 120 136l68 -13q-35 -145 -86 -218t-150 -73z" />
    <glyph glyph-name="R" unicode="R" horiz-adv-x="1413" 
d="M403 750h211q387 0 387 307q0 223 -188 274q-85 23 -199 23h-211v-604zM106 1434h541q312 0 433 -99q54 -43 90 -111t36 -153q0 -152 -83 -245t-212 -126l295 -487q42 -64 66 -91q42 -47 114 -52v-70h-260l-405 670h-318v-434q0 -74 26 -117t95 -49v-70h-418v70
q68 8 95 48t26 118v962q0 74 -25 116q-26 42 -96 50v70z" />
    <glyph glyph-name="S" unicode="S" horiz-adv-x="1107" 
d="M530 1370q-96 0 -176 -59t-80 -161t69 -169q69 -66 212 -106t217 -72q150 -68 210 -164t60 -219q0 -166 -126 -301t-308 -135q-106 0 -220 34t-138 33q-72 0 -88 -51h-68v442h70q47 -164 182 -271t287 -108q98 0 168 66q96 86 96 211q0 170 -183 267q-17 9 -48 21t-51 19
q-20 8 -72 21l-113 34q-113 35 -204 129t-91 253q0 158 118 262t296 104q125 0 254 -74q37 -22 59 -22t51 28h52v-323h-70q-119 311 -365 311z" />
    <glyph glyph-name="T" unicode="T" horiz-adv-x="1392" 
d="M27 1174v276l465 -16h409l465 16v-276h-70q-2 66 -53 122t-170 58h-289v-1118q0 -76 26 -118t95 -48v-70h-420v70q70 8 97 49t26 117v1118h-291q-184 0 -221 -180h-69z" />
    <glyph glyph-name="U" unicode="U" horiz-adv-x="1636" 
d="M106 1434h414v-70q-70 -6 -94 -48t-25 -118v-561q-1 -178 47 -300t189 -192q90 -45 231 -45t258 70q146 87 180 242q25 118 25 272v530q0 141 -119 150v70h318v-70q-119 -8 -119 -150v-626q0 -238 -115 -410q-61 -90 -180 -142t-285 -52q-329 0 -467 166t-139 495v553
q0 80 -26 120q-27 40 -93 46v70z" />
    <glyph glyph-name="V" unicode="V" horiz-adv-x="1544" 
d="M0 1434h442v-70q-104 0 -104 -78q0 -20 35 -102l440 -944h12l449 938q31 70 31 108t-35 59q-35 22 -80 19v70h354v-70q-47 -6 -84 -37t-54 -61t-44 -84l-582 -1198h-51l-579 1263q-49 109 -150 117v70z" />
    <glyph glyph-name="W" unicode="W" horiz-adv-x="2039" 
d="M1126 1364h-45q-65 0 -95 -11t-30 -55q0 -18 12 -45q12 -28 15 -34l94 -224h10l103 242q37 92 -2 115q-20 12 -62 12zM2040 1434v-70q-88 -6 -164 -180l-522 -1200h-56l-266 653h-6l-276 -653h-64l-508 1235q-30 67 -68 105t-110 40v70h455v-70q-39 0 -69 -20t-30 -55
q0 -34 29 -103l387 -922h6l207 488l-205 491q-49 111 -143 121v70h790v-70q-100 -16 -170 -180l-131 -312l263 -612h4l379 897q32 80 32 122t-32 66q-33 24 -74 19v70h342z" />
    <glyph glyph-name="X" unicode="X" horiz-adv-x="1617" 
d="M1114 70q47 0 47 52q0 26 -41 79l-348 446l-403 -457q-35 -39 -35 -71q0 -49 63 -49h15v-70h-385v70q121 10 221 120l473 525l-348 446q-158 203 -260 203h-27v70h481v-70q-55 0 -55 -33q0 -53 20 -78l318 -409l340 391q41 47 41 71q1 24 -17 42q-18 16 -49 16v70h377
v-70q-74 -4 -124 -35t-113 -100l-404 -449l412 -530q125 -160 278 -180v-70h-497v70h20z" />
    <glyph glyph-name="Y" unicode="Y" horiz-adv-x="1386" 
d="M0 1434h471v-70q-74 -10 -74 -61q0 -31 25 -64l346 -469h12l291 451q43 65 43 89t-22 39q-23 15 -56 15v70h350v-70q-78 2 -134 -45t-109 -131l-340 -533v-419q0 -154 121 -166v-70h-418v70q121 14 121 166v430l-387 528q-117 158 -240 170v70z" />
    <glyph glyph-name="Z" unicode="Z" horiz-adv-x="1521" 
d="M182 1171v263h1172v-64l-1010 -1290h758q213 0 244 178h69v-258h-1309v76l1008 1278h-594q-236 0 -268 -183h-70z" />
    <glyph glyph-name="bracketleft" unicode="[" horiz-adv-x="724" 
d="M582 1434v-76h-263v-1659h263v-76h-439v1811h439z" />
    <glyph glyph-name="backslash" unicode="\" horiz-adv-x="1118" 
d="M858 -377l-715 1811h121l711 -1811h-117z" />
    <glyph glyph-name="bracketright" unicode="]" horiz-adv-x="724" 
d="M143 1434h439v-1811h-439v76h263v1659h-263v76z" />
    <glyph glyph-name="asciicircum" unicode="^" horiz-adv-x="1081" 
d="M541 1272l-238 -238h-160l398 400l397 -400h-160z" />
    <glyph glyph-name="underscore" unicode="_" horiz-adv-x="1112" 
d="M0 -477v100h1112v-100h-1112z" />
    <glyph glyph-name="grave" unicode="`" horiz-adv-x="643" 
d="M135 1292q1 34 21 57q20 21 61 21t76 -41l215 -266l-27 -33l-250 156q-45 28 -71 50t-25 56z" />
    <glyph glyph-name="a" unicode="a" horiz-adv-x="817" 
d="M518 350v72q-168 -8 -236 -73t-69 -136q0 -71 41 -107t98 -36q112 1 139 86q27 86 27 194zM374 741q-84 0 -108 -67q-2 -6 -8 -28t-11 -31q-15 -27 -52 -27t-55 19q-17 19 -17 42q0 55 72 105t170 51q166 0 235 -79q68 -79 68 -271v-258q0 -127 84 -127q16 0 36 10
l15 -23q-49 -74 -131 -73q-53 0 -87 34t-46 78h-4q-105 -112 -231 -112t-188 61t-62 147q-1 161 128 223t336 74q0 127 -30 189t-114 63z" />
    <glyph glyph-name="b" unicode="b" horiz-adv-x="1001" 
d="M309 303q1 -129 57 -190t146 -62q264 0 264 361q0 330 -254 329q-129 0 -213 -86v-352zM309 1434v-707q104 78 265 78q162 0 268 -109t106 -294t-122 -310t-300 -108q-125 12 -245 90l-95 -88h-26v1284q0 40 -24 70t-66 34v60h239z" />
    <glyph glyph-name="c" unicode="c" horiz-adv-x="802" 
d="M53 378q0 184 111 305q111 122 280 122q121 0 189 -46t67 -106q0 -29 -20 -51t-55 -20q-78 0 -82 80q0 35 -16 53q-22 26 -78 26q-94 0 -159 -87t-65 -275q0 -94 29 -159q29 -66 73 -94q75 -49 144 -48q69 0 142 30t114 74l35 -37q-141 -162 -328 -161q-156 0 -268 105
t-113 289z" />
    <glyph glyph-name="d" unicode="d" horiz-adv-x="991" 
d="M465 47q79 0 149 47t84 113v416q-27 61 -85 90t-111 29q-102 -1 -189 -72q-88 -71 -88 -258t66 -276t174 -89zM848 1434v-1268q0 -45 24 -75t66 -32v-59h-240v68h-12q-106 -84 -244 -84t-255 88q-60 45 -97 125t-37 186q0 203 111 313q110 110 260 109q150 0 256 -70h18
v529q0 86 -80 110v60h230z" />
    <glyph glyph-name="e" unicode="e" horiz-adv-x="790" 
d="M401 741q-71 0 -119 -53t-51 -168h324q4 111 -40 166t-114 55zM53 367q-1 195 101 317t257 121q155 0 233 -108t73 -240h-490q-27 -389 219 -389q133 0 254 125l37 -35q-139 -174 -311 -174t-283 111q-39 40 -64 111q-26 71 -26 161z" />
    <glyph glyph-name="f" unicode="f" horiz-adv-x="516" 
d="M557 1348q0 -70 -65 -70q-36 0 -62 28t-53 27q-74 0 -74 -133v-412h219v-63h-219v-516q0 -160 105 -150v-59h-355v59q63 10 82 44q18 34 19 106v516h-99v63h99v207q0 207 93 323t197 116q51 0 82 -26t31 -60z" />
    <glyph glyph-name="g" unicode="g" horiz-adv-x="890" 
d="M410 741q-84 0 -118 -51t-34 -162q0 -112 39 -156t113 -44q109 0 136 96q13 45 13 128q-1 83 -33 136t-116 53zM717 -104q0 157 -291 157q-156 1 -342 -69l-31 69l160 262q-127 72 -127 209t94 209t238 72t241 -90q25 86 107 86q45 0 72 -27q26 -26 26 -64t-18 -56
t-45 -19q-49 0 -49 47q0 16 8 28t8 19q0 16 -18 16t-32 -19q-14 -18 -16 -38q0 -20 14 -62t15 -94q0 -116 -87 -192t-230 -76q-72 0 -135 23l-95 -150l6 -8q161 66 274 66q112 0 195 -39q162 -74 162 -236q0 -98 -79 -168q-100 -92 -271 -92q-170 0 -256 60t-86 135
q1 37 21 67t63 29t63 -21t20 -47t-18 -51q-19 -24 -20 -39q0 -33 56 -51t152 -18t174 44q77 44 77 128z" />
    <glyph glyph-name="h" unicode="h" horiz-adv-x="923" 
d="M55 1434h240v-734h14q115 104 242 104t178 -64q51 -65 51 -193v-342q0 -101 37 -127q20 -14 53 -19v-59h-329v59q43 6 63 31q20 26 24 48t3 67v348q0 80 -26 123t-93 43q-66 0 -126 -42t-91 -106v-364q0 -68 18 -106t74 -42v-59h-334v59q57 6 75 42q17 36 17 106v1061
q0 94 -90 106v60z" />
    <glyph glyph-name="i" unicode="i" horiz-adv-x="438" 
d="M96 1155q0 43 29 71t71 28t70 -30q28 -28 29 -70q0 -42 -28 -71q-29 -29 -71 -29t-71 30q-29 28 -29 71zM53 788h240v-581q0 -68 18 -106t74 -42v-59h-332v59q53 6 72 41q18 35 18 107v373q0 72 -15 104t-75 45v59z" />
    <glyph glyph-name="j" unicode="j" horiz-adv-x="430" 
d="M119 1155q0 43 28 71q29 28 71 28t71 -30q29 -28 29 -70t-28 -71t-71 -29t-72 29q-28 29 -28 72zM23 788h294v-739q0 -199 -59 -301q-72 -125 -215 -125q-55 0 -89 28t-34 64q0 63 70 64q35 0 65 -38q21 -27 36 -30q15 -4 28 -4q49 0 49 62v811q0 78 -26 114t-87 35h-32
v59z" />
    <glyph glyph-name="k" unicode="k" horiz-adv-x="866" 
d="M293 1434v-967l199 170q47 39 47 57q0 35 -58 35v59h318v-59q-96 -8 -211 -106l-117 -101l272 -350q47 -63 76 -87t62 -26v-59h-371v59q32 -3 54 9t22 32t-23 47l-209 269l-61 -54v-155q0 -72 18 -107t72 -41v-59h-330v59q53 6 72 41q18 35 18 107v1020q0 73 -18 107
t-72 40v60h240z" />
    <glyph glyph-name="l" unicode="l" horiz-adv-x="440" 
d="M55 1434h240v-1227q0 -68 18 -106t74 -42v-59h-334v59q57 6 75 42q17 36 17 106v1020q0 79 -16 109t-74 38v60z" />
    <glyph glyph-name="m" unicode="m" horiz-adv-x="1411" 
d="M145 207v416q0 86 -90 106v59h240v-100h6q111 117 262 117t199 -117h4q121 117 275 117t195 -93q30 -73 30 -159v-346q0 -68 18 -106t74 -42v-59h-334v59q57 6 75 42q17 36 17 106v346q0 166 -121 166q-137 0 -215 -135v-377q0 -68 18 -106t74 -42v-59h-333v59
q57 6 74 42t18 106v346q0 45 -4 74t-33 61t-68 31q-40 0 -68 -7t-77 -40t-86 -90v-375q0 -70 19 -106t73 -42v-59h-334v59q57 6 75 42q17 36 17 106z" />
    <glyph glyph-name="n" unicode="n" horiz-adv-x="925" 
d="M145 207v416q0 86 -90 106v59h240v-100h6q115 121 268 117q114 -4 166 -64q45 -52 45 -194v-340q0 -68 18 -106t74 -42v-59h-333v59q57 6 74 42t18 106v346q0 45 -4 74t-33 61t-68 31q-40 0 -68 -7t-77 -40t-86 -90v-375q0 -70 19 -106t73 -42v-59h-334v59q57 6 75 42
q17 36 17 106z" />
    <glyph glyph-name="o" unicode="o" horiz-adv-x="884" 
d="M442 741q-102 -1 -159 -73t-57 -250t18 -223q20 -45 43 -79q45 -67 156 -68t156 69t53 142q7 71 7 134q0 203 -57 276q-58 72 -160 72zM742 666q89 -118 89 -266t-74 -253t-179 -140q-69 -23 -115 -23q-45 0 -75 3t-81 20q-105 35 -178 138t-75 251q-1 149 88 271
q103 138 321 138q62 0 167 -45q62 -28 112 -94z" />
    <glyph glyph-name="p" unicode="p" horiz-adv-x="931" 
d="M481 47q226 0 226 348t-224 346q-125 0 -184 -106q-33 -62 -33 -119v-237q0 -87 24 -129t76 -72q50 -30 115 -31zM493 -16q-148 0 -221 84h-6v-236q0 -74 22 -112t83 -37v-60h-344v60q53 4 71 41t19 106v793q0 86 -90 106v59h239v-90h6q92 107 237 107q144 0 245 -92
q125 -115 125 -319t-134 -320q-104 -90 -252 -90z" />
    <glyph glyph-name="q" unicode="q" horiz-adv-x="1003" 
d="M465 47q75 0 145 45t99 115v416q-76 119 -213 118q-95 0 -183 -71t-88 -258t66 -276t174 -89zM604 -377v60q63 12 84 47q20 35 21 100v258h-9q-104 -104 -247 -104q-197 0 -298 120t-101 265q0 144 81 276q43 70 133 115t218 45t235 -68h10l80 68h47v-973q0 -76 20 -112
t72 -37v-60h-346z" />
    <glyph glyph-name="r" unicode="r" horiz-adv-x="604" 
d="M55 788h240v-126h8q94 143 201 143q51 0 76 -26q24 -27 24 -61t-20 -56t-58 -21q-38 0 -58 28q-19 28 -44 27q-47 0 -88 -76t-41 -190v-223q0 -68 17 -106t75 -42v-59h-334v59q57 6 75 42q17 36 17 106v416q0 88 -90 106v59z" />
    <glyph glyph-name="s" unicode="s" horiz-adv-x="698" 
d="M344 47q72 0 115 40t43 87t-26 76t-48 39t-48 19l-66 22q-98 31 -144 63q-90 63 -90 172t72 175t190 65q118 0 184 -46q66 -45 66 -107t-65 -62t-81 86q0 28 -30 46q-30 19 -84 19q-54 1 -98 -31t-44 -86t20 -74q20 -18 30 -28q12 -10 39 -19t41 -15t48 -13q36 -8 50 -12
q227 -63 227 -232q0 -109 -88 -179t-223 -68q-135 0 -208 58t-73 124q0 34 22 60q23 26 61 26t58 -20t19 -46l-8 -59q0 -29 33 -55q34 -26 106 -25z" />
    <glyph glyph-name="t" unicode="t" horiz-adv-x="552" 
d="M41 788h90v179l150 82v-261h170v-63h-170v-526q0 -115 98 -115q57 0 113 43l34 -41q-92 -102 -215 -102q-86 0 -133 47t-47 162v532h-90v63z" />
    <glyph glyph-name="u" unicode="u" horiz-adv-x="921" 
d="M776 788v-579q0 -72 16 -105t76 -45v-59h-241v100h-6q-113 -117 -256 -116q-221 0 -222 227v410q0 109 -90 108v59h240v-552q0 -120 52 -150q28 -16 60 -16q31 0 59 7t77 40t86 90v416q0 96 -90 106v59h239z" />
    <glyph glyph-name="v" unicode="v" horiz-adv-x="845" 
d="M831 788v-59q-53 -6 -81 -30t-48 -74l-260 -641h-39l-266 616q-2 2 -7 16t-10 24q-44 79 -120 89v59h342v-59q-35 -2 -51 -17q-17 -16 -17 -32t17 -55l166 -377h8l147 377q14 43 15 57q0 43 -76 47v59h280z" />
    <glyph glyph-name="w" unicode="w" horiz-adv-x="1196" 
d="M686 743h-88q-37 0 -37 -18q0 -4 14 -39l54 -123h4l57 123q16 37 16 47t-20 10zM1182 788v-59q-59 -2 -99 -92l-286 -653h-60l-141 335h-8l-158 -335h-53l-279 675q-33 76 -98 70v59h285v-59q-45 6 -45 -27q0 -20 8 -36l196 -486h9l104 223l-108 254q-15 39 -31 55
t-47 17v59h465v-59q-29 -2 -51 -20q-21 -19 -29 -33t-23 -47l-69 -150l129 -307h6l200 459q33 65 3 87q-16 12 -48 11v59h228z" />
    <glyph glyph-name="x" unicode="x" horiz-adv-x="851" 
d="M803 788v-59q-47 0 -82 -28t-86 -93l-121 -159l199 -277q47 -66 73 -90t66 -23v-59h-358v59h18q25 -1 40 15t15 42t-30 56l-117 152h-2l-107 -140q-41 -53 -41 -80q0 -49 82 -45v-59h-311v59h22q70 0 181 148l133 178l-148 203q-59 82 -92 110t-76 31v59h349v-59
q-66 -3 -66 -25t55 -98l72 -98l82 117q37 51 37 71q0 35 -51 33v59h264z" />
    <glyph glyph-name="y" unicode="y" horiz-adv-x="878" 
d="M879 788v-59q-47 -12 -70 -35q-24 -24 -31 -39q-6 -14 -13 -29t-9 -20l-322 -712q-66 -141 -123 -206t-153 -65q-59 0 -101 28q-41 28 -41 76q0 49 24 71t54 22t65 -26q34 -26 64 -25q70 0 113 98l61 135l-241 602q-51 133 -146 125v59h377v-59h-20q-59 0 -60 -51
q0 -23 19 -66l157 -395h9l163 363q27 72 27 92t-19 39q-19 20 -61 18v59h277z" />
    <glyph glyph-name="z" unicode="z" horiz-adv-x="788" 
d="M92 621v167h629v-38l-465 -678v-9h248q130 0 169 53q19 26 29 64h60v-180h-709v55l455 670h-186q-158 0 -170 -104h-60z" />
    <glyph glyph-name="braceleft" unicode="{" horiz-adv-x="710" 
d="M428 1239q0 -33 6 -137t2 -158q-14 -248 -233 -354q258 -125 233 -461q-8 -156 -8 -188q0 -84 44 -128t103 -55l-10 -65q-192 35 -247 159q-26 60 -31 105q-6 45 -6 119l4 139q0 163 -41 238q-18 33 -54 61t-84 37v78q88 14 134 94q45 79 45 242l-4 139q0 74 6 119
q19 140 119 205q61 40 159 59l10 -66q-59 -10 -103 -54t-44 -128z" />
    <glyph glyph-name="bar" unicode="|" horiz-adv-x="389" 
d="M143 -459v2157h103v-2157h-103z" />
    <glyph glyph-name="braceright" unicode="}" horiz-adv-x="710" 
d="M283 -59q-1 33 -7 137t-2 158q14 248 234 354q-259 125 -234 461q8 156 9 188q0 84 -44 128t-104 54l10 66q194 -36 247 -159q26 -60 32 -105t6 -119l-4 -139q0 -167 41 -238q45 -83 137 -98v-78q-49 -8 -84 -37q-83 -68 -92 -223q-2 -33 -2 -76l4 -139q0 -74 -6 -119
t-32 -105q-53 -123 -247 -159l-10 65q59 10 103 54t45 129z" />
    <glyph glyph-name="asciitilde" unicode="~" horiz-adv-x="1484" 
d="M560 813q104 0 308 -88q102 -43 179 -43q150 0 200 156h94q-37 -145 -146 -233q-110 -87 -247 -87q-92 0 -237 57q-184 82 -263 82q-78 1 -126 -33t-86 -106h-93q35 84 121 179q104 116 296 116z" />
    <glyph glyph-name="uni00A0" unicode="&#xa0;" horiz-adv-x="477" 
 />
    <glyph glyph-name="exclamdown" unicode="&#xa1;" horiz-adv-x="522" 
d="M143 952q0 47 33 79t78 32t78 -32t33 -79t-33 -79q-33 -31 -78 -31t-78 32t-33 78zM213 752h82l84 -1129h-232z" />
    <glyph glyph-name="cent" unicode="&#xa2;" 
d="M358 397q0 -123 46 -201t120 -100v637q-166 -58 -166 -336zM590 -139h-66v125q-164 16 -260 145q-76 100 -76 256t96 278t240 136v135h66v-131q100 4 174 -41q72 -41 72 -111q0 -29 -20 -51t-58 -20q-66 0 -78 80q-4 22 -7 34t-25 28t-58 17v-661q70 -8 148 22t124 80
l35 -37q-131 -154 -307 -161v-123z" />
    <glyph glyph-name="sterling" unicode="&#xa3;" 
d="M248 256q-43 0 -72 -26t-29 -66q0 -39 23 -64q23 -24 73 -24t97 28t74 78q-90 74 -166 74zM82 725v80h250q-31 104 -31 196q0 158 66 273q100 176 282 176q119 0 190 -66t71 -140t-32 -109q-30 -35 -71 -35t-70 30t-29 65q0 36 16 66q15 30 15 46t-30 40q-31 23 -89 23
t-116 -59t-58 -204t62 -302h323v-80h-303q27 -106 27 -222t-35 -229q84 -78 159 -144t122 -67q25 -1 43 15t18 32t-14 56q-14 39 -14 84t29 71q30 25 71 25t71 -33t29 -90q0 -115 -81 -177t-195 -62t-273 147q-96 -147 -221 -147q-78 0 -137 42t-59 126t63 136t147 52
t154 -29q6 140 -80 414h-270z" />
    <glyph glyph-name="currency" unicode="&#xa4;" 
d="M168 594q0 -152 106 -257t256 -105t256 104q106 106 107 258q-1 152 -107 257t-256 105t-256 -105t-106 -257zM983 596q0 -164 -104 -289l165 -160l-67 -65l-160 164q-127 -104 -283 -104t-290 104l-160 -164l-66 65l164 160q-104 135 -104 291t104 283l-164 161l66 66
l160 -164q128 102 288 102t285 -102l160 164l67 -66l-165 -161q104 -121 104 -285z" />
    <glyph glyph-name="yen" unicode="&#xa5;" 
d="M637 621h315v-80h-315v-344q0 -53 30 -89t78 -38v-70h-393v70q47 4 78 39t31 88v344h-316v80h316v57l-55 86h-261v80h207l-231 350q-27 38 -43 62t-62 61t-92 47v70h412v-70q-68 -10 -68 -66q0 -23 23 -59l299 -469h10l283 498q14 25 14 43q0 19 -17 35t-55 18v70h310
v-70q-73 0 -116 -50q-13 -14 -21 -22t-19 -28q-12 -20 -16 -26q-3 -6 -15 -27q-12 -22 -14 -23l-197 -344h215v-80h-262l-53 -94v-49z" />
    <glyph glyph-name="brokenbar" unicode="&#xa6;" horiz-adv-x="389" 
d="M143 297h103v-756h-103v756zM143 942v756h103v-756h-103z" />
    <glyph glyph-name="section" unicode="&#xa7;" horiz-adv-x="1142" 
d="M868 410q0 45 -28 90q-28 46 -57 74q-30 28 -87 75l-278 232q-143 -80 -144 -176q0 -47 27 -93t51 -72q24 -24 72 -65l303 -260q141 88 141 195zM566 1370q-69 0 -120 -40t-51 -97q0 -106 142 -217l223 -180q117 -92 178 -172t61 -185q0 -193 -223 -321q94 -98 94 -226
t-93 -218q-93 -91 -229 -91t-231 68q-94 68 -94 178q0 61 29 102t83 41t89 -40t6 -119q-49 -150 129 -150q63 0 122 41q58 41 58 125q0 49 -29 96q-30 47 -54 69t-91 79l-266 225q-72 61 -114 126t-42 164t52 171t165 135q-96 112 -96 234t86 202t230 80t237 -74
q92 -74 92 -176q1 -47 -25 -81t-72 -34t-74 26t-27 67l16 94q0 38 -46 68t-115 30z" />
    <glyph glyph-name="dieresis" unicode="&#xa8;" horiz-adv-x="1333" 
d="M727 1155q0 41 29 70q30 29 70 29t69 -30q29 -28 29 -69t-29 -70t-70 -29t-69 30q-28 28 -29 69zM410 1155q0 41 28 70q29 29 70 29t70 -30q28 -28 28 -69t-28 -70t-70 -29q-41 0 -70 29q-28 29 -28 70z" />
    <glyph glyph-name="copyright" unicode="&#xa9;" horiz-adv-x="1753" 
d="M879 1122q61 0 136 -19t90 -19t28 12h24v-172h-49q-23 63 -85 102t-130 39q-109 0 -183 -89t-75 -261q0 -172 90 -262q66 -66 180 -66q164 0 256 113l33 -33q-29 -25 -40 -37q-97 -106 -286 -106q-242 0 -336 206q-36 78 -36 204t60 212q123 176 323 176zM229 717
q0 -170 87 -323q87 -152 237 -238t324 -86q173 0 323 86t237 235t87 323t-87 326t-237 238t-324 86t-323 -86q-150 -86 -237 -238t-87 -323zM143 717q0 303 215 518q214 215 518 215t519 -215t215 -518t-215 -518t-518 -215t-519 215q-215 215 -215 518z" />
    <glyph glyph-name="ordfeminine" unicode="&#xaa;" horiz-adv-x="606" 
d="M53 768v47h539v-47h-539zM391 1133v49q-81 0 -147 -38t-66 -114q0 -94 101 -94q68 0 90 52t22 145zM370 1366q-32 39 -91 39q-58 0 -70 -64q-7 -33 -32 -41q-26 -8 -43 4q-17 13 -19 25v12q6 49 54 79q47 30 115 30q118 0 168 -57q44 -53 44 -189v-180q0 -88 59 -88
q13 0 25 6l10 -14q-31 -53 -92 -54q-33 0 -58 23t-34 57h-5q-78 -80 -171 -80t-135 60q-30 43 -29 94q0 188 325 201q-6 119 -21 137z" />
    <glyph glyph-name="guillemotleft" unicode="&#xab;" horiz-adv-x="985" 
d="M608 375l234 -295l-51 -41l-312 336l312 336l51 -41zM272 375l234 -295l-51 -41l-312 336l312 336l51 -41z" />
    <glyph glyph-name="logicalnot" unicode="&#xac;" horiz-adv-x="1415" 
d="M143 330v100h1129v-313h-101v213h-1028z" />
    <glyph glyph-name="uni00AD" unicode="&#xad;" horiz-adv-x="753" 
d="M457 430q86 0 104 55h49l-37 -190h-276q-63 0 -82 -16q-6 -4 -29 -39h-43l43 190h271z" />
    <glyph glyph-name="registered" unicode="&#xae;" horiz-adv-x="1753" 
d="M745 748h105q199 0 199 151q0 43 -18 73q-17 30 -35 43t-57 20q-38 7 -48 7h-146v-294zM580 1096h356q49 0 94 -10t90 -56q45 -45 45 -121q0 -156 -151 -190l151 -236q29 -43 39 -52t56 -23v-46h-148l-201 332h-166v-221q0 -47 58 -65v-46h-223v46q35 10 49 28t14 58v481
q0 45 -16 63q-18 18 -47 23v35zM229 715q-1 -267 189 -457t458 -190t458 189t190 457t-190 458t-457 190q-268 0 -458 -190t-190 -457zM143 715q0 305 215 519q214 214 518 214t519 -214t215 -519t-215 -519t-518 -214t-519 214q-215 214 -215 519z" />
    <glyph glyph-name="macron" unicode="&#xaf;" horiz-adv-x="1388" 
d="M410 1139h569v-109h-569v109z" />
    <glyph glyph-name="degree" unicode="&#xb0;" horiz-adv-x="696" 
d="M219 1244q0 -48 38 -88t90 -40t91 39t39 89t-36 90t-95 40t-93 -41t-34 -89zM143 1244q1 86 61 146t144 60t144 -60t61 -146q0 -86 -60 -143q-61 -59 -145 -59t-144 58t-61 144z" />
    <glyph glyph-name="plusminus" unicode="&#xb1;" horiz-adv-x="1306" 
d="M143 106v89h1020v-89h-1020zM696 336h-86v287h-467v86h467v370h86v-370h467v-86h-467v-287z" />
    <glyph glyph-name="twosuperior" unicode="&#xb2;" horiz-adv-x="755" 
d="M70 430v55q229 268 330 431q102 162 102 258t-42 139t-104 43q-104 0 -202 -125l-43 26q111 188 292 189q103 0 173 -57t70 -155t-91 -250q-90 -151 -352 -425v-6h258q73 -1 113 21t63 79h49l-55 -223h-561z" />
    <glyph glyph-name="threesuperior" unicode="&#xb3;" horiz-adv-x="727" 
d="M382 1450q95 0 144 -50t49 -118q0 -129 -157 -227v-6q86 5 149 -51t64 -164q0 -205 -223 -328q-152 -84 -347 -84v49q203 6 320 115t117 229q0 66 -42 110t-106 44t-121 -33l-24 41q115 71 185 139t71 148q0 46 -30 76t-89 30q-107 0 -213 -145l-43 26q43 83 122 141
t174 58z" />
    <glyph glyph-name="acute" unicode="&#xb4;" horiz-adv-x="643" 
d="M426 1370q41 0 61 -22q21 -22 21 -56q0 -35 -26 -57t-70 -49l-250 -156l-27 33l215 266q35 41 76 41z" />
    <glyph glyph-name="mu" unicode="&#xb5;" horiz-adv-x="833" 
d="M698 788v-586q0 -60 16 -90t27 -37q32 -19 78 3l15 -23q-55 -70 -132 -69q-141 0 -137 194q-83 -196 -227 -196t-201 135q0 -98 36 -219t36 -167q0 -91 -43 -113q-31 -17 -73 -17q-41 1 -67 25t-26 94t32 206q32 135 34 351v509h149v-428q0 -135 41 -196q41 -62 89 -62
t75 19q55 33 92 122t37 216v329h149z" />
    <glyph glyph-name="paragraph" unicode="&#xb6;" horiz-adv-x="1239" 
d="M500 -403v1282q-117 -4 -224 42q-59 26 -96 86t-37 146q0 270 326 270h627v-80h-113v-1746h-123v1746h-237v-1746h-123z" />
    <glyph glyph-name="periodcentered" unicode="&#xb7;" horiz-adv-x="507" 
d="M143 666q0 46 33 78t78 32t78 -32t33 -78t-33 -79q-33 -32 -78 -32t-78 32t-33 79z" />
    <glyph glyph-name="cedilla" unicode="&#xb8;" horiz-adv-x="403" 
d="M383 -202q1 -66 -57 -104t-136 -38t-124 28t-46 56t14 42t36 15q49 0 49 -49v-10q1 -37 63 -37t94 30q32 29 32 69t-48 69q-31 16 -77 16t-97 -22l-39 43l98 102h76l-76 -80v-2q113 16 175 -24q62 -38 63 -104z" />
    <glyph glyph-name="onesuperior" unicode="&#xb9;" horiz-adv-x="608" 
d="M502 430h-293v49q84 2 84 117v661h-8q-76 -86 -179 -149v61q66 41 134 117t104 148h72v-838q0 -111 86 -117v-49z" />
    <glyph glyph-name="ordmasculine" unicode="&#xba;" horiz-adv-x="612" 
d="M326 1405q-111 0 -139 -112q-13 -52 -13 -132v-6q0 -236 152 -235q152 0 151 241q1 145 -39 195t-112 49zM326 1450q140 0 206 -93t66 -185t-33 -154q-33 -61 -81 -90q-85 -52 -137 -53t-92 11t-88 42q-48 29 -81 90t-33 153q0 91 66 185t207 94zM70 768v47h512v-47h-512
z" />
    <glyph glyph-name="guillemotright" unicode="&#xbb;" horiz-adv-x="985" 
d="M713 375l-234 295l51 41l312 -336l-312 -336l-51 41zM377 375l-234 295l52 41l311 -336l-311 -336l-52 41z" />
    <glyph glyph-name="onequarter" unicode="&#xbc;" horiz-adv-x="1638" 
d="M1231 23v407h-8l-265 -393v-14h273zM1356 627v-604h12q35 -1 53 21t33 69l41 -9l-51 -188h-88v-293h-125v293h-373v66l440 645h58zM508 -377h-80l711 1811h84zM539 430h-293v49q84 2 84 117v661h-8q-76 -86 -179 -149v61q65 41 133 117t105 148h72v-838q0 -111 86 -117
v-49z" />
    <glyph glyph-name="onehalf" unicode="&#xbd;" horiz-adv-x="1638" 
d="M879 -377v55q229 268 330 432t101 258q0 95 -41 138q-42 43 -104 43q-104 0 -202 -125l-43 27q111 188 292 188q104 0 173 -57q69 -58 69 -156t-90 -249t-352 -425v-6h258q74 0 114 22t62 78h49l-55 -223h-561zM446 -377h-79l710 1811h84zM539 430h-293v49q84 2 84 117
v661h-8q-76 -86 -179 -149v61q65 41 133 117t105 148h72v-838q0 -111 86 -117v-49z" />
    <glyph glyph-name="threequarters" unicode="&#xbe;" horiz-adv-x="1638" 
d="M1231 23v407h-8l-265 -393v-14h273zM1356 627v-604h12q35 -1 53 21t33 69l41 -9l-51 -188h-88v-293h-125v293h-373v66l440 645h58zM520 -377h-80l711 1811h84zM464 1450q95 0 144 -50t49 -118q0 -129 -157 -227v-6q86 5 149 -51t64 -164q0 -205 -224 -328
q-152 -84 -346 -84v49q203 6 320 115t117 229q0 66 -42 110t-106 44t-121 -33l-24 41q115 71 185 139t71 148q0 46 -30 76t-89 30q-107 0 -213 -145l-43 26q43 83 122 141t174 58z" />
    <glyph glyph-name="questiondown" unicode="&#xbf;" horiz-adv-x="890" 
d="M526 979q0 45 32 78t79 33t79 -33t32 -78t-32 -78t-79 -33t-79 33t-32 78zM517 440q-77 0 -127 -66t-50 -212q0 -144 66 -298t114 -153q25 0 33 29q12 61 82 61q76 0 76 -86q0 -40 -39 -65q-39 -26 -92 -27q-156 0 -318 238q-119 174 -119 420q0 139 79 224q78 85 184 85
t192 -80h14l-20 240h74l34 -349l-67 -12q-39 51 -116 51z" />
    <glyph glyph-name="Agrave" unicode="&#xc0;" horiz-adv-x="1482" 
d="M387 1732q0 48 36 66q70 35 159 -41l247 -205l-22 -43l-293 111q-57 23 -76 33q-51 31 -51 79zM1018 473l-303 674h-23l-313 -674h639zM1483 0h-402v70q47 8 61 24q13 16 13 44t-18 71l-82 184h-713l-80 -174q-25 -53 -24 -72q0 -61 79 -77v-70h-317v70q55 4 97 51t65 94
l461 995q18 39 18 52q0 31 -49 30v70q35 8 78 35t65 53h41l553 -1229q63 -147 154 -151v-70z" />
    <glyph glyph-name="Aacute" unicode="&#xc1;" horiz-adv-x="1482" 
d="M1077 1732q0 -48 -51 -79q-18 -10 -76 -33l-293 -111l-22 43l248 205q89 76 159 41q36 -18 35 -66zM1018 473l-303 674h-23l-313 -674h639zM1483 0h-402v70q47 8 61 24q13 16 13 44t-18 71l-82 184h-713l-80 -174q-25 -53 -24 -72q0 -61 79 -77v-70h-317v70q55 4 97 51
t65 94l461 995q18 39 18 52q0 31 -49 30v70q35 8 78 35t65 53h41l553 -1229q63 -147 154 -151v-70z" />
    <glyph glyph-name="Acircumflex" unicode="&#xc2;" horiz-adv-x="1482" 
d="M743 1671l-229 -162h-82l258 297h107l258 -297h-82zM1018 473l-303 674h-23l-313 -674h639zM1483 0h-402v70q47 8 61 24q13 16 13 44t-18 71l-82 184h-713l-80 -174q-25 -53 -24 -72q0 -61 79 -77v-70h-317v70q55 4 97 51t65 94l461 995q18 39 18 52q0 31 -49 30v70
q35 8 78 35t65 53h41l553 -1229q63 -147 154 -151v-70z" />
    <glyph glyph-name="Atilde" unicode="&#xc3;" horiz-adv-x="1482" 
d="M889 1532q-65 0 -187 31t-151 30q-82 0 -127 -61h-39q80 170 238 170q63 0 179 -30t146 -30q80 1 125 60h49q-104 -170 -233 -170zM1018 473l-303 674h-23l-313 -674h639zM1483 0h-402v70q47 8 61 24q13 16 13 44t-18 71l-82 184h-713l-80 -174q-25 -53 -24 -72
q0 -61 79 -77v-70h-317v70q55 4 97 51t65 94l461 995q18 39 18 52q0 31 -49 30v70q35 8 78 35t65 53h41l553 -1229q63 -147 154 -151v-70z" />
    <glyph glyph-name="Adieresis" unicode="&#xc4;" horiz-adv-x="1482" 
d="M834 1667q0 55 39 95t95 40t96 -40t40 -95t-40 -95t-95 -40t-96 40q-39 40 -39 95zM330 1667q0 55 40 95t95 40t95 -40t40 -95t-40 -95t-95 -40t-95 40t-40 95zM1018 473l-303 674h-23l-313 -674h639zM1483 0h-402v70q47 8 61 24q13 16 13 44t-18 71l-82 184h-713
l-80 -174q-25 -53 -24 -72q0 -61 79 -77v-70h-317v70q55 4 97 51t65 94l461 995q18 39 18 52q0 31 -49 30v70q35 8 78 35t65 53h41l553 -1229q63 -147 154 -151v-70z" />
    <glyph glyph-name="Aring" unicode="&#xc5;" horiz-adv-x="1482" 
d="M537 1729q0 86 59 145t145 59q85 0 145 -59t60 -145q0 -85 -59 -145t-145 -60t-146 60q-59 60 -59 145zM610 1729q0 -53 39 -93t92 -39q53 0 93 39q38 38 38 92t-38 93t-92 39t-93 -39t-39 -92zM1018 473l-303 674h-23l-313 -674h639zM1483 0h-402v70q47 8 61 24
q13 16 13 44t-18 71l-82 184h-713l-80 -174q-25 -53 -24 -72q0 -61 79 -77v-70h-317v70q55 4 97 51t65 94l461 995q18 39 18 52q0 31 -49 30v70q35 8 78 35t65 53h41l553 -1229q63 -147 154 -151v-70z" />
    <glyph glyph-name="AE" unicode="&#xc6;" horiz-adv-x="2273" 
d="M602 512h488v625h-11l-477 -613v-12zM1090 432h-558l-172 -215q-70 -88 -69 -102q0 -37 86 -45v-70h-377v72q97 0 165 63t144 164l680 868q74 94 74 140q-1 25 -21 41t-55 16h-14v70h823q8 0 166 16h27v-272h-70q-29 106 -107 141t-213 35h-333v-588h215q111 0 142 48
q17 26 26 67h67v-310h-67q-16 84 -58 100q-42 15 -110 15h-215v-606h438q182 0 276 48t117 179h70l-23 -307h-1177v70q123 10 123 166v196z" />
    <glyph glyph-name="Ccedilla" unicode="&#xc7;" horiz-adv-x="1404" 
d="M675 -420q81 0 126 34t45 98t-55 95q-41 27 -111 27t-135 -35l-41 58l137 135q-216 33 -380 201q-83 84 -132 218t-49 298q0 321 190 531t488 210q122 0 272 -37t168 -37t41 25h31v-316h-70q-55 143 -174 214t-252 71q-193 0 -341 -173t-148 -484t145 -481t383 -169
q129 1 257 63t212 161l43 -47q-111 -125 -254 -191t-297 -65q-39 0 -59 2l-97 -101l3 -2q47 12 92 13q109 0 170 -50t61 -126t-66 -138t-190 -62q-125 0 -192 60q-33 27 -33 59t16 52t45 20q53 0 60 -51v-33q10 -47 91 -47z" />
    <glyph glyph-name="Egrave" unicode="&#xc8;" horiz-adv-x="1341" 
d="M297 1732q0 48 36 66q70 35 159 -41l247 -205l-22 -43l-293 111q-57 23 -76 33q-51 31 -51 79zM106 1434h807q101 0 143 9t113 7v-272h-69q-29 106 -108 141t-212 35h-374v-588h256q109 0 141 46q18 26 26 69h68v-310h-68q-18 63 -37 84q-27 31 -80 31h-306v-606h419
q178 0 281 49q102 49 113 178h69l-22 -307h-1160v70q123 14 123 166v962q0 80 -25 122q-26 42 -98 44v70z" />
    <glyph glyph-name="Eacute" unicode="&#xc9;" horiz-adv-x="1341" 
d="M965 1732q0 -48 -52 -79q-18 -10 -75 -33l-293 -111l-23 43l248 205q89 76 159 41q36 -18 36 -66zM106 1434h807q101 0 143 9t113 7v-272h-69q-29 106 -108 141t-212 35h-374v-588h256q109 0 141 46q18 26 26 69h68v-310h-68q-18 63 -37 84q-27 31 -80 31h-306v-606h419
q178 0 281 49q102 49 113 178h69l-22 -307h-1160v70q123 14 123 166v962q0 80 -25 122q-26 42 -98 44v70z" />
    <glyph glyph-name="Ecircumflex" unicode="&#xca;" horiz-adv-x="1341" 
d="M643 1671l-229 -162h-82l258 297h106l258 -297h-82zM106 1434h807q101 0 143 9t113 7v-272h-69q-29 106 -108 141t-212 35h-374v-588h256q109 0 141 46q18 26 26 69h68v-310h-68q-18 63 -37 84q-27 31 -80 31h-306v-606h419q178 0 281 49q102 49 113 178h69l-22 -307
h-1160v70q123 14 123 166v962q0 80 -25 122q-26 42 -98 44v70z" />
    <glyph glyph-name="Edieresis" unicode="&#xcb;" horiz-adv-x="1341" 
d="M774 1667q0 55 40 95t95 40t95 -40t40 -95t-40 -95t-94 -40q-56 0 -96 40t-40 95zM270 1667q0 55 40 95t96 40t95 -40q40 -40 40 -95t-40 -95t-95 -40t-96 40q-40 40 -40 95zM106 1434h807q101 0 143 9t113 7v-272h-69q-29 106 -108 141t-212 35h-374v-588h256
q109 0 141 46q18 26 26 69h68v-310h-68q-18 63 -37 84q-27 31 -80 31h-306v-606h419q178 0 281 49q102 49 113 178h69l-22 -307h-1160v70q123 14 123 166v962q0 80 -25 122q-26 42 -98 44v70z" />
    <glyph glyph-name="Igrave" unicode="&#xcc;" horiz-adv-x="630" 
d="M-43 1732q0 48 36 66q70 35 159 -41l247 -205l-22 -43l-293 111q-57 23 -76 33q-51 31 -51 79zM524 1434v-70q-121 -8 -121 -166v-962q0 -152 121 -166v-70h-418v70q121 14 121 166v962q0 156 -121 166v70h418z" />
    <glyph glyph-name="Iacute" unicode="&#xcd;" horiz-adv-x="630" 
d="M635 1732q0 -48 -51 -79q-18 -10 -76 -33l-293 -111l-22 43l247 205q89 76 159 41q36 -18 36 -66zM524 1434v-70q-121 -8 -121 -166v-962q0 -152 121 -166v-70h-418v70q121 14 121 166v962q0 156 -121 166v70h418z" />
    <glyph glyph-name="Icircumflex" unicode="&#xce;" horiz-adv-x="630" 
d="M313 1671l-229 -162h-82l258 297h107l258 -297h-82zM524 1434v-70q-121 -8 -121 -166v-962q0 -152 121 -166v-70h-418v70q121 14 121 166v962q0 156 -121 166v70h418z" />
    <glyph glyph-name="Idieresis" unicode="&#xcf;" horiz-adv-x="632" 
d="M491 1749q50 0 86 -36q35 -36 35 -86t-36 -86t-85 -36q-50 0 -85 36t-35 85t35 86t85 37zM142 1749q50 0 85 -37t35 -86t-35 -85t-85 -36t-86 36t-36 86t36 86t86 36zM524 1434v-70q-121 -4 -121 -166v-962q0 -156 123 -166v-70h-422v70q123 10 123 166v962
q0 156 -123 166v70h420z" />
    <glyph glyph-name="Eth" unicode="&#xd0;" horiz-adv-x="1628" 
d="M467 80h258q77 0 147 11t160 51t156 106t110 186t45 283q0 164 -53 290t-125 189t-168 102q-96 40 -156 48t-116 8h-258v-580h215v-80h-215v-614zM168 1434h600q442 0 651 -297q129 -183 129 -449t-185 -477t-593 -211h-602v70q72 6 98 48t25 118v458h-185v80h185v424
q0 76 -26 118t-97 48v70z" />
    <glyph glyph-name="Ntilde" unicode="&#xd1;" horiz-adv-x="1581" 
d="M948 1532q-66 0 -188 31t-150 30q-82 0 -127 -61h-39q80 170 238 170q63 0 179 -30t147 -30q80 1 125 60h49q-104 -170 -234 -170zM106 0v70q59 -6 92 42q32 48 31 107v973q0 34 -12 80q-24 92 -111 92v70h293l869 -1100h6v868q0 43 -5 70q-5 26 -34 56t-82 36v70h322
v-70q-74 -16 -98 -53t-23 -109v-1202h-62l-975 1237h-8v-1018q0 -55 28 -102t93 -47v-70h-324z" />
    <glyph glyph-name="Ograve" unicode="&#xd2;" horiz-adv-x="1613" 
d="M463 1732q0 48 36 66q71 35 158 -41l248 -205l-22 -43l-293 111q-57 23 -76 33q-51 31 -51 79zM807 1370q-221 0 -372 -175t-151 -478t152 -478q150 -175 371 -175t372 174q151 176 150 479q0 303 -150 478q-151 175 -372 175zM807 1450q170 0 312 -66q258 -120 367 -408
q48 -128 48 -259t-48 -259q-109 -292 -367 -409q-142 -65 -312 -65t-312 66q-259 119 -367 408q-48 128 -48 259q0 270 184 494q88 107 230 173t313 66z" />
    <glyph glyph-name="Oacute" unicode="&#xd3;" horiz-adv-x="1613" 
d="M1141 1732q0 -48 -51 -79q-18 -10 -76 -33l-293 -111l-23 43l248 205q89 76 159 41q36 -18 36 -66zM807 1370q-221 0 -372 -175t-151 -478t152 -478q150 -175 371 -175t372 174q151 176 150 479q0 303 -150 478q-151 175 -372 175zM807 1450q170 0 312 -66
q258 -120 367 -408q48 -128 48 -259t-48 -259q-109 -292 -367 -409q-142 -65 -312 -65t-312 66q-259 119 -367 408q-48 128 -48 259q0 270 184 494q88 107 230 173t313 66z" />
    <glyph glyph-name="Ocircumflex" unicode="&#xd4;" horiz-adv-x="1613" 
d="M791 1671l-230 -162h-82l258 297h107l258 -297h-82zM807 1370q-221 0 -372 -175t-151 -478t152 -478q150 -175 371 -175t372 174q151 176 150 479q0 303 -150 478q-151 175 -372 175zM807 1450q170 0 312 -66q258 -120 367 -408q48 -128 48 -259t-48 -259
q-109 -292 -367 -409q-142 -65 -312 -65t-312 66q-259 119 -367 408q-48 128 -48 259q0 270 184 494q88 107 230 173t313 66z" />
    <glyph glyph-name="Otilde" unicode="&#xd5;" horiz-adv-x="1613" 
d="M942 1532q-66 0 -188 31t-150 30q-82 0 -127 -61h-39q80 170 238 170q63 0 179 -30t146 -30q80 1 125 60h50q-104 -170 -234 -170zM807 1370q-221 0 -372 -175t-151 -478t152 -478q150 -175 371 -175t372 174q151 176 150 479q0 303 -150 478q-151 175 -372 175z
M807 1450q170 0 312 -66q258 -120 367 -408q48 -128 48 -259t-48 -259q-109 -292 -367 -409q-142 -65 -312 -65t-312 66q-259 119 -367 408q-48 128 -48 259q0 270 184 494q88 107 230 173t313 66z" />
    <glyph glyph-name="Odieresis" unicode="&#xd6;" horiz-adv-x="1613" 
d="M920 1667q0 55 39 95t95 40t96 -40t40 -95t-40 -95t-95 -40t-96 40q-39 40 -39 95zM416 1667q0 55 40 95t95 40t95 -40t40 -95t-40 -95t-95 -40t-95 40t-40 95zM807 1370q-221 0 -372 -175t-151 -478t152 -478q150 -175 371 -175t372 174q151 176 150 479q0 303 -150 478
q-151 175 -372 175zM807 1450q170 0 312 -66q258 -120 367 -408q48 -128 48 -259t-48 -259q-109 -292 -367 -409q-142 -65 -312 -65t-312 66q-259 119 -367 408q-48 128 -48 259q0 270 184 494q88 107 230 173t313 66z" />
    <glyph glyph-name="multiply" unicode="&#xd7;" horiz-adv-x="1171" 
d="M586 573l-369 -368l-74 74l369 368l-369 369l74 74l369 -369l368 369l74 -74l-369 -369l369 -368l-74 -74z" />
    <glyph glyph-name="Oslash" unicode="&#xd8;" horiz-adv-x="1613" 
d="M803 63q117 -1 233 59t193 187q96 162 96 377t-57 352l-869 -768q154 -207 404 -207zM805 1370q-119 0 -236 -60t-190 -188q-96 -162 -96 -409q0 -182 67 -353l869 775q-59 94 -145 150q-86 57 -146 71q-62 14 -123 14zM803 1450q326 0 524 -221l176 157l70 -77
l-180 -158q137 -203 137 -434q0 -269 -183 -494q-87 -106 -229 -173q-142 -66 -302 -66q-158 0 -278 43t-239 155l-205 -184l-67 74l206 184q-155 203 -155 467t184 488q88 107 230 173t311 66z" />
    <glyph glyph-name="Ugrave" unicode="&#xd9;" horiz-adv-x="1636" 
d="M498 1732q0 48 36 66q69 35 158 -41l248 -205l-22 -43l-293 111q-57 23 -76 33q-51 31 -51 79zM106 1434h414v-70q-70 -6 -94 -48t-25 -118v-561q-1 -178 47 -300t189 -192q90 -45 231 -45t258 70q146 87 180 242q25 118 25 272v530q0 141 -119 150v70h318v-70
q-119 -8 -119 -150v-626q0 -238 -115 -410q-61 -90 -180 -142t-285 -52q-329 0 -467 166t-139 495v553q0 80 -26 120q-27 40 -93 46v70z" />
    <glyph glyph-name="Uacute" unicode="&#xda;" horiz-adv-x="1636" 
d="M1223 1732q0 -48 -52 -79q-18 -10 -75 -33l-293 -111l-23 43l248 205q89 76 159 41q36 -18 36 -66zM106 1434h414v-70q-70 -6 -94 -48t-25 -118v-561q-1 -178 47 -300t189 -192q90 -45 231 -45t258 70q146 87 180 242q25 118 25 272v530q0 141 -119 150v70h318v-70
q-119 -8 -119 -150v-626q0 -238 -115 -410q-61 -90 -180 -142t-285 -52q-329 0 -467 166t-139 495v553q0 80 -26 120q-27 40 -93 46v70z" />
    <glyph glyph-name="Ucircumflex" unicode="&#xdb;" horiz-adv-x="1636" 
d="M838 1671l-230 -162h-82l258 297h107l258 -297h-82zM106 1434h414v-70q-70 -6 -94 -48t-25 -118v-561q-1 -178 47 -300t189 -192q90 -45 231 -45t258 70q146 87 180 242q25 118 25 272v530q0 141 -119 150v70h318v-70q-119 -8 -119 -150v-626q0 -238 -115 -410
q-61 -90 -180 -142t-285 -52q-329 0 -467 166t-139 495v553q0 80 -26 120q-27 40 -93 46v70z" />
    <glyph glyph-name="Udieresis" unicode="&#xdc;" horiz-adv-x="1636" 
d="M967 1667q0 55 40 95t95 40t95 -40t40 -95t-40 -95t-95 -40t-95 40t-40 95zM463 1667q0 55 40 95t95 40t95 -40t40 -95t-40 -95t-95 -40t-95 40t-40 95zM106 1434h414v-70q-70 -6 -94 -48t-25 -118v-561q-1 -178 47 -300t189 -192q90 -45 231 -45t258 70q146 87 180 242
q25 118 25 272v530q0 141 -119 150v70h318v-70q-119 -8 -119 -150v-626q0 -238 -115 -410q-61 -90 -180 -142t-285 -52q-329 0 -467 166t-139 495v553q0 80 -26 120q-27 40 -93 46v70z" />
    <glyph glyph-name="Yacute" unicode="&#xdd;" horiz-adv-x="1386" 
d="M1108 1732q0 -48 -51 -79q-18 -10 -76 -33l-293 -111l-22 43l247 205q89 76 159 41q36 -18 36 -66zM0 1434h471v-70q-74 -10 -74 -61q0 -31 25 -64l346 -469h12l291 451q43 65 43 89t-22 39q-23 15 -56 15v70h350v-70q-78 2 -134 -45t-109 -131l-340 -533v-419
q0 -154 121 -166v-70h-418v70q121 14 121 166v430l-387 528q-117 158 -240 170v70z" />
    <glyph glyph-name="Thorn" unicode="&#xde;" horiz-adv-x="1310" 
d="M406 1087v-608h233q72 0 119 5q46 5 112 35t103 87q53 76 53 192q0 198 -163 258q-65 24 -109 28t-115 3h-233zM106 0v70q123 4 123 180v948q0 76 -25 118q-26 42 -95 48v70h417v-70q-121 -10 -120 -166v-31h266q158 0 261 -20t183 -90q115 -101 115 -249t-74 -245
q-127 -164 -432 -164h-319v-143q0 -96 26 -141t103 -45v-70h-429z" />
    <glyph glyph-name="germandbls" unicode="&#xdf;" horiz-adv-x="927" 
d="M156 1090q0 335 319 344q119 0 213 -82t94 -212t-59 -218q-59 -90 -160 -129v-11q129 -10 220 -124t91 -270t-72 -280t-204 -124q-84 0 -129 48t-45 103t28 84t58 29t54 -20t24 -54t-27 -60t-27 -39t12 -27q11 -14 38 -13q27 0 45 9q49 24 61 117t12 187t-10 152
q-26 148 -137 199q-66 30 -166 30v59q152 8 200 108q24 50 31 100t7 128q0 246 -152 246q-168 0 -168 -237v-895q0 -88 8 -118q7 -30 25 -42t49 -19v-59h-321v59q33 6 56 21t27 59q5 45 5 99v356q0 86 -36 113q-19 14 -52 22v59h88v302z" />
    <glyph glyph-name="agrave" unicode="&#xe0;" horiz-adv-x="817" 
d="M131 1292q1 34 21 57q20 21 61 21t76 -41l215 -266l-27 -33l-250 156q-45 28 -71 50t-25 56zM518 350v72q-168 -8 -236 -73t-69 -136q0 -71 41 -107t98 -36q112 1 139 86q27 86 27 194zM374 741q-84 0 -108 -67q-2 -6 -8 -28t-11 -31q-15 -27 -52 -27t-55 19
q-17 19 -17 42q0 55 72 105t170 51q166 0 235 -79q68 -79 68 -271v-258q0 -127 84 -127q16 0 36 10l15 -23q-49 -74 -131 -73q-53 0 -87 34t-46 78h-4q-105 -112 -231 -112t-188 61t-62 147q-1 161 128 223t336 74q0 127 -30 189t-114 63z" />
    <glyph glyph-name="aacute" unicode="&#xe1;" horiz-adv-x="817" 
d="M571 1370q39 0 61 -22t22 -56q0 -35 -26 -57q-25 -22 -71 -49l-250 -156l-26 33l215 266q35 41 75 41zM518 350v72q-168 -8 -236 -73t-69 -136q0 -71 41 -107t98 -36q112 1 139 86q27 86 27 194zM374 741q-84 0 -108 -67q-2 -6 -8 -28t-11 -31q-15 -27 -52 -27t-55 19
q-17 19 -17 42q0 55 72 105t170 51q166 0 235 -79q68 -79 68 -271v-258q0 -127 84 -127q16 0 36 10l15 -23q-49 -74 -131 -73q-53 0 -87 34t-46 78h-4q-105 -112 -231 -112t-188 61t-62 147q-1 161 128 223t336 74q0 127 -30 189t-114 63z" />
    <glyph glyph-name="acircumflex" unicode="&#xe2;" horiz-adv-x="817" 
d="M387 1217l-213 -187h-63l225 311h102l226 -311h-64zM518 350v72q-168 -8 -236 -73t-69 -136q0 -71 41 -107t98 -36q112 1 139 86q27 86 27 194zM374 741q-84 0 -108 -67q-2 -6 -8 -28t-11 -31q-15 -27 -52 -27t-55 19q-17 19 -17 42q0 55 72 105t170 51q166 0 235 -79
q68 -79 68 -271v-258q0 -127 84 -127q16 0 36 10l15 -23q-49 -74 -131 -73q-53 0 -87 34t-46 78h-4q-105 -112 -231 -112t-188 61t-62 147q-1 161 128 223t336 74q0 127 -30 189t-114 63z" />
    <glyph glyph-name="atilde" unicode="&#xe3;" horiz-adv-x="817" 
d="M514 1030q-50 0 -142 26t-120 27q-66 0 -113 -53h-51q72 178 209 178q45 0 144 -28t129 -27q30 -1 61 17t43 51h55q-25 -79 -78 -135t-137 -56zM518 350v72q-168 -8 -236 -73t-69 -136q0 -71 41 -107t98 -36q112 1 139 86q27 86 27 194zM374 741q-84 0 -108 -67
q-2 -6 -8 -28t-11 -31q-15 -27 -52 -27t-55 19q-17 19 -17 42q0 55 72 105t170 51q166 0 235 -79q68 -79 68 -271v-258q0 -127 84 -127q16 0 36 10l15 -23q-49 -74 -131 -73q-53 0 -87 34t-46 78h-4q-105 -112 -231 -112t-188 61t-62 147q-1 161 128 223t336 74
q0 127 -30 189t-114 63z" />
    <glyph glyph-name="adieresis" unicode="&#xe4;" horiz-adv-x="817" 
d="M469 1155q0 41 29 70q30 29 70 29t69 -30q29 -28 29 -69t-29 -70t-70 -29t-69 30q-28 28 -29 69zM152 1155q0 41 28 70q29 29 70 29q42 0 70 -30q28 -28 28 -69t-29 -70t-69 -29t-70 29q-28 29 -28 70zM518 350v72q-168 -8 -236 -73t-69 -136q0 -71 41 -107t98 -36
q112 1 139 86q27 86 27 194zM374 741q-84 0 -108 -67q-2 -6 -8 -28t-11 -31q-15 -27 -52 -27t-55 19q-17 19 -17 42q0 55 72 105t170 51q166 0 235 -79q68 -79 68 -271v-258q0 -127 84 -127q16 0 36 10l15 -23q-49 -74 -131 -73q-53 0 -87 34t-46 78h-4q-105 -112 -231 -112
t-188 61t-62 147q-1 161 128 223t336 74q0 127 -30 189t-114 63z" />
    <glyph glyph-name="aring" unicode="&#xe5;" horiz-adv-x="817" 
d="M272 1209q0 -48 36 -82q36 -33 82 -33t81 34t35 81q0 46 -34 82t-82 36t-83 -35t-35 -83zM209 1213q0 81 56 129t124 48t124 -48t56 -129t-51 -132t-129 -51t-129 51t-51 132zM518 350v72q-168 -8 -236 -73t-69 -136q0 -71 41 -107t98 -36q112 1 139 86q27 86 27 194z
M374 741q-84 0 -108 -67q-2 -6 -8 -28t-11 -31q-15 -27 -52 -27t-55 19q-17 19 -17 42q0 55 72 105t170 51q166 0 235 -79q68 -79 68 -271v-258q0 -127 84 -127q16 0 36 10l15 -23q-49 -74 -131 -73q-53 0 -87 34t-46 78h-4q-105 -112 -231 -112t-188 61t-62 147
q-1 161 128 223t336 74q0 127 -30 189t-114 63z" />
    <glyph glyph-name="ae" unicode="&#xe6;" horiz-adv-x="1226" 
d="M666 520h323q4 47 -12 107q-30 116 -139 114q-158 0 -172 -221zM516 305v117q-301 -16 -301 -217q0 -59 33 -95t86 -42q88 -12 135 51t47 186zM845 -16q-173 0 -270 112h-8q-59 -59 -141 -86t-143 -26q-113 0 -171 64t-59 153q0 145 124 210t339 78v54q0 119 -42 159
t-114 39q-72 0 -94 -67q-16 -86 -76 -86q-25 0 -45 15t-20 54q0 61 76 105q75 44 201 43q126 0 206 -88h4q86 88 232 88q146 1 228 -103q83 -104 81 -245h-487q-13 -292 96 -360q47 -30 121 -29q131 0 252 125l39 -35q-156 -174 -329 -174z" />
    <glyph glyph-name="ccedilla" unicode="&#xe7;" horiz-adv-x="802" 
d="M386 -344q-79 0 -124 28t-45 56t14 42t35 15q49 0 49 -49v-10q-1 -37 63 -37t95 30q31 29 31 69t-47 69q-31 16 -77 16t-97 -22l-39 43l86 90q-129 35 -203 136t-74 265t111 286t280 122q117 0 186 -44t68 -108q0 -33 -20 -52t-53 -19q-78 0 -82 80q0 35 -16 53
q-22 26 -78 26q-94 0 -159 -87t-65 -275q0 -94 29 -159q29 -66 73 -94q75 -49 144 -48q69 0 142 30t114 74l35 -37q-156 -180 -367 -159l-53 -58v-2q113 16 175 -24q63 -40 63 -104q0 -66 -58 -104t-136 -38z" />
    <glyph glyph-name="egrave" unicode="&#xe8;" horiz-adv-x="790" 
d="M196 1372q41 0 76 -41l215 -266l-26 -33l-250 156q-45 28 -71 50t-25 58q0 76 81 76zM401 741q-71 0 -119 -53t-51 -168h324q4 111 -40 166t-114 55zM53 367q-1 195 101 317t257 121q155 0 233 -108t73 -240h-490q-27 -389 219 -389q133 0 254 125l37 -35
q-139 -174 -311 -174t-283 111q-39 40 -64 111q-26 71 -26 161z" />
    <glyph glyph-name="eacute" unicode="&#xe9;" horiz-adv-x="790" 
d="M623 1370q41 0 61 -22t20 -56q0 -35 -24 -57q-26 -22 -72 -49l-250 -156l-26 33l215 266q35 41 76 41zM401 741q-71 0 -119 -53t-51 -168h324q4 111 -40 166t-114 55zM53 367q-1 195 101 317t257 121q155 0 233 -108t73 -240h-490q-27 -389 219 -389q133 0 254 125
l37 -35q-139 -174 -311 -174t-283 111q-39 40 -64 111q-26 71 -26 161z" />
    <glyph glyph-name="ecircumflex" unicode="&#xea;" horiz-adv-x="790" 
d="M395 1217l-213 -187h-63l225 311h102l226 -311h-64zM401 741q-71 0 -119 -53t-51 -168h324q4 111 -40 166t-114 55zM53 367q-1 195 101 317t257 121q155 0 233 -108t73 -240h-490q-27 -389 219 -389q133 0 254 125l37 -35q-139 -174 -311 -174t-283 111q-39 40 -64 111
q-26 71 -26 161z" />
    <glyph glyph-name="edieresis" unicode="&#xeb;" horiz-adv-x="790" 
d="M457 1155q0 41 28 70q29 29 70 29t70 -30q29 -28 29 -69t-30 -70q-28 -29 -69 -29t-70 29q-28 29 -28 70zM139 1155q0 41 29 70t70 29q42 0 70 -30q28 -28 28 -69t-29 -70t-69 -29t-70 30q-29 28 -29 69zM401 741q-71 0 -119 -53t-51 -168h324q4 111 -40 166t-114 55z
M53 367q-1 195 101 317t257 121q155 0 233 -108t73 -240h-490q-27 -389 219 -389q133 0 254 125l37 -35q-139 -174 -311 -174t-283 111q-39 40 -64 111q-26 71 -26 161z" />
    <glyph glyph-name="igrave" unicode="&#xec;" horiz-adv-x="440" 
d="M-123 1292q1 34 21 57q20 21 61 21t76 -41l215 -266l-27 -33l-250 156q-45 28 -71 50t-25 56zM53 788h242v-581q0 -68 18 -106t74 -42v-59h-334v59q53 6 72 41q18 35 18 107v373q0 72 -15 104t-75 45v59z" />
    <glyph glyph-name="iacute" unicode="&#xed;" horiz-adv-x="440" 
d="M378 1370q40 0 62 -22t21 -56q1 -35 -25 -57t-71 -49l-250 -156l-27 33l215 266q35 41 75 41zM53 788h242v-581q0 -68 18 -106t74 -42v-59h-334v59q53 6 72 41q18 35 18 107v373q0 72 -15 104t-75 45v59z" />
    <glyph glyph-name="icircumflex" unicode="&#xee;" horiz-adv-x="440" 
d="M221 1217l-213 -187h-63l225 311h102l226 -311h-64zM53 788h242v-581q0 -68 18 -106t74 -42v-59h-334v59q53 6 72 41q18 35 18 107v373q0 72 -15 104t-75 45v59z" />
    <glyph glyph-name="idieresis" unicode="&#xef;" horiz-adv-x="458" 
d="M252 1155q0 43 29 71t71 28t70 -30q29 -28 29 -70t-28 -71t-71 -29q-44 0 -72 30q-28 28 -28 71zM-27 1155q0 43 29 71t71 28q43 0 71 -30q28 -28 28 -70t-28 -71t-70 -29t-72 30q-29 28 -29 71zM74 788h239v-581q1 -68 19 -106t74 -42v-59h-332v59q53 6 71 41t19 107
v373q0 72 -16 104t-74 45v59z" />
    <glyph glyph-name="eth" unicode="&#xf0;" horiz-adv-x="884" 
d="M456 741q-88 -1 -134 -33q-96 -67 -97 -315v-10q0 -336 217 -336t217 336v10q0 203 -57 276q-58 72 -146 72zM831 393q0 -299 -273 -390q-60 -19 -108 -19q-103 0 -194 50q-203 111 -203 361q0 109 39 185q39 77 81 121t112 74t140 30t130 -17q-51 131 -129 246l-172 -86
l-23 45l170 82q-78 109 -122 158l32 35l60 -56q16 -14 29 -29t24 -26l47 -47l176 86l21 -47l-164 -78q127 -133 227 -316t100 -362z" />
    <glyph glyph-name="ntilde" unicode="&#xf1;" horiz-adv-x="925" 
d="M582 1030q-50 0 -142 26t-121 27q-66 0 -112 -53h-51q72 178 209 178q45 0 144 -28t129 -27q30 -1 60 17t43 51h56q-25 -79 -78 -135t-137 -56zM145 207v416q0 86 -90 106v59h240v-100h6q115 121 268 117q114 -4 166 -64q45 -52 45 -194v-340q0 -68 18 -106t74 -42v-59
h-333v59q57 6 74 42t18 106v346q0 45 -4 74t-33 61t-68 31q-40 0 -68 -7t-77 -40t-86 -90v-375q0 -70 19 -106t73 -42v-59h-334v59q57 6 75 42q17 36 17 106z" />
    <glyph glyph-name="ograve" unicode="&#xf2;" horiz-adv-x="884" 
d="M522 1063l-26 -33l-250 156q-45 28 -71 50q-25 22 -25 56t21 57q21 21 61 21t75 -41zM442 741q-102 -1 -159 -73t-57 -250t18 -223q20 -45 43 -79q45 -67 156 -68t156 69t53 142q7 71 7 134q0 203 -57 276q-58 72 -160 72zM742 666q89 -118 89 -266t-74 -253t-179 -140
q-69 -23 -115 -23q-45 0 -75 3t-81 20q-105 35 -178 138t-75 251q-1 149 88 271q103 138 321 138q62 0 167 -45q62 -28 112 -94z" />
    <glyph glyph-name="oacute" unicode="&#xf3;" horiz-adv-x="884" 
d="M643 1370q41 0 62 -21q20 -22 20 -57q1 -35 -25 -57t-71 -49l-250 -156l-27 33l215 266q35 41 76 41zM442 741q-102 -1 -159 -73t-57 -250t18 -223q20 -45 43 -79q45 -67 156 -68t156 69t53 142q7 71 7 134q0 203 -57 276q-58 72 -160 72zM742 666q89 -118 89 -266
t-74 -253t-179 -140q-69 -23 -115 -23q-45 0 -75 3t-81 20q-105 35 -178 138t-75 251q-1 149 88 271q103 138 321 138q62 0 167 -45q62 -28 112 -94z" />
    <glyph glyph-name="ocircumflex" unicode="&#xf4;" horiz-adv-x="884" 
d="M442 1217l-213 -187h-63l225 311h103l225 -311h-64zM442 741q-102 -1 -159 -73t-57 -250t18 -223q20 -45 43 -79q45 -67 156 -68t156 69t53 142q7 71 7 134q0 203 -57 276q-58 72 -160 72zM742 666q89 -118 89 -266t-74 -253t-179 -140q-69 -23 -115 -23q-45 0 -75 3
t-81 20q-105 35 -178 138t-75 251q-1 149 88 271q103 138 321 138q62 0 167 -45q62 -28 112 -94z" />
    <glyph glyph-name="otilde" unicode="&#xf5;" horiz-adv-x="884" 
d="M549 1030q-49 0 -141 26t-121 27q-66 0 -113 -53h-51q72 178 209 178q45 0 144 -28t129 -27q30 -1 61 17t43 51h55q-25 -79 -78 -135t-137 -56zM442 741q-102 -1 -159 -73t-57 -250t18 -223q20 -45 43 -79q45 -67 156 -68t156 69t53 142q7 71 7 134q0 203 -57 276
q-58 72 -160 72zM742 666q89 -118 89 -266t-74 -253t-179 -140q-69 -23 -115 -23q-45 0 -75 3t-81 20q-105 35 -178 138t-75 251q-1 149 88 271q103 138 321 138q62 0 167 -45q62 -28 112 -94z" />
    <glyph glyph-name="odieresis" unicode="&#xf6;" horiz-adv-x="884" 
d="M504 1155q0 41 28 70q29 29 70 29t70 -30q28 -28 28 -69t-28 -70t-70 -29q-41 0 -70 29q-28 29 -28 70zM186 1155q0 41 29 70t70 29t69 -30q28 -28 29 -69q0 -41 -29 -70q-30 -29 -70 -29t-69 30q-29 28 -29 69zM442 741q-102 -1 -159 -73t-57 -250t18 -223
q20 -45 43 -79q45 -67 156 -68t156 69t53 142q7 71 7 134q0 203 -57 276q-58 72 -160 72zM742 666q89 -118 89 -266t-74 -253t-179 -140q-69 -23 -115 -23q-45 0 -75 3t-81 20q-105 35 -178 138t-75 251q-1 149 88 271q103 138 321 138q62 0 167 -45q62 -28 112 -94z" />
    <glyph glyph-name="divide" unicode="&#xf7;" horiz-adv-x="1306" 
d="M535 391q0 49 34 84q35 35 84 35t84 -35t35 -84t-35 -84t-84 -35t-84 35q-34 35 -34 84zM535 961q1 49 35 83t83 35q49 0 84 -35q35 -36 35 -84t-35 -83t-84 -35t-84 35q-34 35 -34 84zM143 633v86h1020v-86h-1020z" />
    <glyph glyph-name="oslash" unicode="&#xf8;" horiz-adv-x="888" 
d="M446 47q32 0 50 2q18 1 55 19q110 52 113 325q-1 33 -5 99l-409 -291q49 -154 196 -154zM444 741q-94 1 -154 -71t-61 -277q1 -80 7 -129l415 293q-16 72 -65 128q-48 56 -142 56zM446 805q215 0 320 -166l72 51l34 -47l-77 -57q41 -84 41 -191q0 -174 -104 -293
q-104 -118 -295 -118q-192 0 -294 143l-96 -70l-33 49l99 70q-55 90 -55 236t100 270q102 123 288 123z" />
    <glyph glyph-name="ugrave" unicode="&#xf9;" horiz-adv-x="921" 
d="M166 1292q0 34 21 57q22 21 62 21t75 -41l215 -266l-27 -33l-250 156q-44 28 -70 50t-26 56zM776 788v-579q0 -72 16 -105t76 -45v-59h-241v100h-6q-113 -117 -256 -116q-221 0 -222 227v410q0 109 -90 108v59h240v-552q0 -120 52 -150q28 -16 60 -16q31 0 59 7t77 40
t86 90v416q0 96 -90 106v59h239z" />
    <glyph glyph-name="uacute" unicode="&#xfa;" horiz-adv-x="921" 
d="M651 1370q41 0 62 -21q20 -22 20 -57q1 -35 -25 -57t-71 -49l-250 -156l-27 33l215 266q35 41 76 41zM776 788v-579q0 -72 16 -105t76 -45v-59h-241v100h-6q-113 -117 -256 -116q-221 0 -222 227v410q0 109 -90 108v59h240v-552q0 -120 52 -150q28 -16 60 -16q31 0 59 7
t77 40t86 90v416q0 96 -90 106v59h239z" />
    <glyph glyph-name="ucircumflex" unicode="&#xfb;" horiz-adv-x="921" 
d="M461 1217l-213 -187h-64l226 311h102l225 -311h-63zM776 788v-579q0 -72 16 -105t76 -45v-59h-241v100h-6q-113 -117 -256 -116q-221 0 -222 227v410q0 109 -90 108v59h240v-552q0 -120 52 -150q28 -16 60 -16q31 0 59 7t77 40t86 90v416q0 96 -90 106v59h239z" />
    <glyph glyph-name="udieresis" unicode="&#xfc;" horiz-adv-x="921" 
d="M522 1155q0 41 29 70t70 29t69 -30q28 -28 29 -69q0 -41 -29 -70q-30 -29 -70 -29t-69 30q-29 28 -29 69zM205 1155q0 41 28 70q29 29 70 29t70 -30q29 -28 29 -69t-30 -70q-28 -29 -69 -29t-70 29q-28 29 -28 70zM776 788v-579q0 -72 16 -105t76 -45v-59h-241v100h-6
q-113 -117 -256 -116q-221 0 -222 227v410q0 109 -90 108v59h240v-552q0 -120 52 -150q28 -16 60 -16q31 0 59 7t77 40t86 90v416q0 96 -90 106v59h239z" />
    <glyph glyph-name="yacute" unicode="&#xfd;" horiz-adv-x="878" 
d="M657 1370q39 0 61 -22t22 -56q0 -35 -26 -57q-25 -22 -71 -49l-250 -156l-26 33l215 266q35 41 75 41zM879 788v-59q-47 -12 -70 -35q-24 -24 -31 -39q-6 -14 -13 -29t-9 -20l-322 -712q-66 -141 -123 -206t-153 -65q-59 0 -101 28q-41 28 -41 76q0 49 24 71t54 22
t65 -26q34 -26 64 -25q70 0 113 98l61 135l-241 602q-51 133 -146 125v59h377v-59h-20q-59 0 -60 -51q0 -23 19 -66l157 -395h9l163 363q27 72 27 92t-19 39q-19 20 -61 18v59h277z" />
    <glyph glyph-name="thorn" unicode="&#xfe;" horiz-adv-x="931" 
d="M266 516v-237q0 -59 24 -118q47 -114 195 -114q104 0 163 77q58 77 59 269q0 348 -220 348q-113 -1 -167 -77t-54 -148zM371 -377h-344v60q53 4 71 41t19 106v1397q-1 79 -17 109t-73 38v60h239v-715h6q80 84 226 84t247 -90q133 -121 133 -320t-133 -319
q-100 -90 -246 -90t-227 84h-6v-236q0 -74 22 -112t83 -37v-60z" />
    <glyph glyph-name="ydieresis" unicode="&#xff;" horiz-adv-x="878" 
d="M510 1155q0 41 29 70t69 29t70 -30q29 -28 29 -69t-29 -70t-70 -29q-42 0 -70 30q-28 28 -28 69zM193 1155q0 41 28 70q29 29 70 29t69 -30q28 -28 29 -69q0 -41 -29 -70q-30 -29 -70 -29t-69 29q-28 29 -28 70zM879 788v-59q-47 -12 -70 -35q-24 -24 -31 -39
q-6 -14 -13 -29t-9 -20l-322 -712q-66 -141 -123 -206t-153 -65q-59 0 -101 28q-41 28 -41 76q0 49 24 71t54 22t65 -26q34 -26 64 -25q70 0 113 98l61 135l-241 602q-51 133 -146 125v59h377v-59h-20q-59 0 -60 -51q0 -23 19 -66l157 -395h9l163 363q27 72 27 92t-19 39
q-19 20 -61 18v59h277z" />
    <glyph glyph-name="Amacron" unicode="&#x100;" horiz-adv-x="1482" 
d="M451 1548v94h561v-94h-561zM1018 473l-303 674h-23l-313 -674h639zM1483 0h-402v70q47 8 61 24q13 16 13 44t-18 71l-82 184h-713l-80 -174q-25 -53 -24 -72q0 -61 79 -77v-70h-317v70q55 4 97 51t65 94l461 995q18 39 18 52q0 31 -49 30v70q35 8 78 35t65 53h41
l553 -1229q63 -147 154 -151v-70z" />
    <glyph glyph-name="amacron" unicode="&#x101;" horiz-adv-x="817" 
d="M125 1139h569v-109h-569v109zM518 350v72q-168 -8 -236 -73t-69 -136q0 -71 41 -107t98 -36q112 1 139 86q27 86 27 194zM374 741q-84 0 -108 -67q-2 -6 -8 -28t-11 -31q-15 -27 -52 -27t-55 19q-17 19 -17 42q0 55 72 105t170 51q166 0 235 -79q68 -79 68 -271v-258
q0 -127 84 -127q16 0 36 10l15 -23q-49 -74 -131 -73q-53 0 -87 34t-46 78h-4q-105 -112 -231 -112t-188 61t-62 147q-1 161 128 223t336 74q0 127 -30 189t-114 63z" />
    <glyph glyph-name="Abreve" unicode="&#x102;" horiz-adv-x="1482" 
d="M719 1614q83 0 139 43t68 104h67q-6 -123 -96 -196q-74 -55 -178 -55t-178 55q-90 74 -97 196h68q12 -61 68 -104t139 -43zM1018 473l-303 674h-23l-313 -674h639zM1483 0h-402v70q47 8 61 24q13 16 13 44t-18 71l-82 184h-713l-80 -174q-25 -53 -24 -72q0 -61 79 -77
v-70h-317v70q55 4 97 51t65 94l461 995q18 39 18 52q0 31 -49 30v70q35 8 78 35t65 53h41l553 -1229q63 -147 154 -151v-70z" />
    <glyph glyph-name="abreve" unicode="&#x103;" horiz-adv-x="817" 
d="M408 1135q78 0 139 47t69 121h68q-6 -105 -71 -189t-197 -84q-76 0 -132 28q-94 47 -130 159q-15 43 -19 86h68q4 -68 66 -118q61 -50 139 -50zM518 350v72q-168 -8 -236 -73t-69 -136q0 -71 41 -107t98 -36q112 1 139 86q27 86 27 194zM374 741q-84 0 -108 -67
q-2 -6 -8 -28t-11 -31q-15 -27 -52 -27t-55 19q-17 19 -17 42q0 55 72 105t170 51q166 0 235 -79q68 -79 68 -271v-258q0 -127 84 -127q16 0 36 10l15 -23q-49 -74 -131 -73q-53 0 -87 34t-46 78h-4q-105 -112 -231 -112t-188 61t-62 147q-1 161 128 223t336 74
q0 127 -30 189t-114 63z" />
    <glyph glyph-name="Aogonek" unicode="&#x104;" horiz-adv-x="1482" 
d="M1018 473l-303 674h-23l-313 -674h639zM1329 -297q82 0 150 64l28 -37q-125 -121 -241 -121q-74 0 -121 41q-47 40 -47 104t45 120t217 126h-279v70q47 8 61 24q13 16 13 44t-18 71l-82 184h-713l-80 -174q-25 -53 -24 -72q0 -61 79 -77v-70h-317v70q55 4 97 51t65 94
l461 995q18 39 18 52q0 31 -49 30v70q35 8 78 35t65 53h41l553 -1229q63 -147 154 -151v-70q-90 -29 -148 -59q-115 -63 -114 -150q0 -17 4 -33t30 -36q27 -19 74 -19z" />
    <glyph glyph-name="aogonek" unicode="&#x105;" horiz-adv-x="817" 
d="M518 350v72q-168 -8 -236 -73t-69 -136q0 -71 41 -107t98 -36q112 1 139 86q27 86 27 194zM637 -307q-65 0 -101 37t-36 88q0 90 149 168q-86 16 -110 110h-4q-105 -112 -231 -112t-188 61t-62 147q-1 161 128 223t336 74q0 127 -30 189t-114 63q-84 0 -108 -67
q-2 -6 -8 -28t-11 -31q-15 -27 -52 -27t-55 19q-17 19 -17 42q0 55 72 105t170 51q166 0 235 -79q68 -79 68 -271v-258q0 -127 84 -127q16 0 36 10l15 -23q-25 -35 -95 -79t-88 -78q-18 -35 -18 -62q4 -72 80 -72t143 52l19 -27q-88 -98 -207 -98z" />
    <glyph glyph-name="Cacute" unicode="&#x106;" horiz-adv-x="1404" 
d="M688 1552l248 205q89 76 159 41q35 -18 35 -66t-51 -79q-18 -10 -75 -33l-293 -111zM1270 1085h-70q-55 143 -174 214t-252 71q-193 0 -341 -173t-148 -484t145 -481t383 -169q129 1 257 63t212 161l43 -47q-227 -256 -541 -256t-509 196t-195 524q0 326 190 536t488 210
q122 0 272 -37t168 -37t41 25h31v-316z" />
    <glyph glyph-name="cacute" unicode="&#x107;" horiz-adv-x="802" 
d="M612 1370q40 0 61 -22t21 -56q0 -35 -25 -57t-71 -49l-250 -156l-26 33l215 266q35 41 75 41zM53 378q0 184 111 305q111 122 280 122q121 0 189 -46t67 -106q0 -29 -20 -51t-55 -20q-78 0 -82 80q0 35 -16 53q-22 26 -78 26q-94 0 -159 -87t-65 -275q0 -94 29 -159
q29 -66 73 -94q75 -49 144 -48q69 0 142 30t114 74l35 -37q-141 -162 -328 -161q-156 0 -268 105t-113 289z" />
    <glyph glyph-name="Ccircumflex" unicode="&#x108;" horiz-adv-x="1404" 
d="M791 1671l-230 -162h-82l258 297h107l258 -297h-82zM1270 1085h-70q-55 143 -174 214t-252 71q-193 0 -341 -173t-148 -484t145 -481t383 -169q129 1 257 63t212 161l43 -47q-227 -256 -541 -256t-509 196t-195 524q0 326 190 536t488 210q122 0 272 -37t168 -37t41 25
h31v-316z" />
    <glyph glyph-name="ccircumflex" unicode="&#x109;" horiz-adv-x="802" 
d="M412 1217l-213 -187h-64l225 311h103l225 -311h-63zM53 378q0 184 111 305q111 122 280 122q121 0 189 -46t67 -106q0 -29 -20 -51t-55 -20q-78 0 -82 80q0 35 -16 53q-22 26 -78 26q-94 0 -159 -87t-65 -275q0 -94 29 -159q29 -66 73 -94q75 -49 144 -48q69 0 142 30
t114 74l35 -37q-141 -162 -328 -161q-156 0 -268 105t-113 289z" />
    <glyph glyph-name="Cdotaccent" unicode="&#x10a;" horiz-adv-x="1404" 
d="M629 1667q0 55 40 95t95 40t95 -40t40 -95t-40 -95t-95 -40t-95 40t-40 95zM1270 1085h-70q-55 143 -174 214t-252 71q-193 0 -341 -173t-148 -484t145 -481t383 -169q129 1 257 63t212 161l43 -47q-227 -256 -541 -256t-509 196t-195 524q0 326 190 536t488 210
q122 0 272 -37t168 -37t41 25h31v-316z" />
    <glyph glyph-name="cdotaccent" unicode="&#x10b;" horiz-adv-x="802" 
d="M297 1155q0 41 29 70q30 29 70 29t69 -30q29 -28 29 -69t-29 -70t-70 -29t-69 30q-28 28 -29 69zM53 378q0 184 111 305q111 122 280 122q121 0 189 -46t67 -106q0 -29 -20 -51t-55 -20q-78 0 -82 80q0 35 -16 53q-22 26 -78 26q-94 0 -159 -87t-65 -275q0 -94 29 -159
q29 -66 73 -94q75 -49 144 -48q69 0 142 30t114 74l35 -37q-141 -162 -328 -161q-156 0 -268 105t-113 289z" />
    <glyph glyph-name="Ccaron" unicode="&#x10c;" horiz-adv-x="1404" 
d="M772 1645l229 161h82l-258 -297h-106l-258 297h82zM1270 1085h-70q-55 143 -174 214t-252 71q-193 0 -341 -173t-148 -484t145 -481t383 -169q129 1 257 63t212 161l43 -47q-227 -256 -541 -256t-509 196t-195 524q0 326 190 536t488 210q122 0 272 -37t168 -37t41 25h31
v-316z" />
    <glyph glyph-name="ccaron" unicode="&#x10d;" horiz-adv-x="802" 
d="M408 1155l213 186h63l-225 -311h-103l-225 311h64zM53 378q0 184 111 305q111 122 280 122q121 0 189 -46t67 -106q0 -29 -20 -51t-55 -20q-78 0 -82 80q0 35 -16 53q-22 26 -78 26q-94 0 -159 -87t-65 -275q0 -94 29 -159q29 -66 73 -94q75 -49 144 -48q69 0 142 30
t114 74l35 -37q-141 -162 -328 -161q-156 0 -268 105t-113 289z" />
    <glyph glyph-name="Dcaron" unicode="&#x10e;" horiz-adv-x="1566" 
d="M604 1645l230 161h81l-258 -297h-106l-258 297h82zM406 80h258q76 0 146 11t161 51q89 40 155 106t111 186t45 283q0 164 -53 290t-125 189t-168 102q-96 40 -156 48t-116 8h-258v-1274zM106 1434h601q442 0 651 -297q129 -183 129 -449t-185 -477t-593 -211h-603v70
q72 6 98 48t25 118v962q0 76 -25 118q-26 42 -98 48v70z" />
    <glyph glyph-name="dcaron" unicode="&#x10f;" horiz-adv-x="1161" 
d="M1065 1372q115 0 117 -129q0 -81 -54 -153t-131 -123l-36 39q69 57 93 93t33 83q-49 -12 -88 12t-39 75q0 52 32 78q30 26 73 25zM465 47q79 0 149 47t84 113v416q-27 61 -85 90t-111 29q-102 -1 -189 -72q-88 -71 -88 -258t66 -276t174 -89zM848 1434v-1268
q0 -45 24 -75t66 -32v-59h-240v68h-12q-106 -84 -244 -84t-255 88q-60 45 -97 125t-37 186q0 203 111 313q110 110 260 109q150 0 256 -70h18v529q0 86 -80 110v60h230z" />
    <glyph glyph-name="Dcroat" unicode="&#x110;" horiz-adv-x="1628" 
d="M467 80h258q77 0 147 11t160 51t156 106t110 186t45 283q0 164 -53 290t-125 189t-168 102q-96 40 -156 48t-116 8h-258v-580h215v-80h-215v-614zM168 1434h600q442 0 651 -297q129 -183 129 -449t-185 -477t-593 -211h-602v70q72 6 98 48t25 118v458h-185v80h185v424
q0 76 -26 118t-97 48v70z" />
    <glyph glyph-name="dcroat" unicode="&#x111;" horiz-adv-x="1067" 
d="M465 47q79 0 149 47t84 113v416q-27 61 -85 90t-111 29q-102 -1 -189 -72q-88 -71 -88 -258t66 -276t174 -89zM848 1434v-367h166v-63h-166v-838q0 -45 24 -75t66 -32v-59h-240v68h-12q-106 -84 -244 -84t-255 88q-60 45 -97 125t-37 186q0 209 119 315t285 107
q113 0 223 -70h18v269h-327v63h327v197q0 86 -80 110v60h230z" />
    <glyph glyph-name="Emacron" unicode="&#x112;" horiz-adv-x="1341" 
d="M356 1548v94h562v-94h-562zM106 1434h807q101 0 143 9t113 7v-272h-69q-29 106 -108 141t-212 35h-374v-588h256q109 0 141 46q18 26 26 69h68v-310h-68q-18 63 -37 84q-27 31 -80 31h-306v-606h419q178 0 281 49q102 49 113 178h69l-22 -307h-1160v70q123 14 123 166
v962q0 80 -25 122q-26 42 -98 44v70z" />
    <glyph glyph-name="emacron" unicode="&#x113;" horiz-adv-x="790" 
d="M111 1139h569v-109h-569v109zM401 741q-71 0 -119 -53t-51 -168h324q4 111 -40 166t-114 55zM53 367q-1 195 101 317t257 121q155 0 233 -108t73 -240h-490q-27 -389 219 -389q133 0 254 125l37 -35q-139 -174 -311 -174t-283 111q-39 40 -64 111q-26 71 -26 161z" />
    <glyph glyph-name="Edotaccent" unicode="&#x116;" horiz-adv-x="1341" 
d="M528 1667q0 55 40 95t96 40t95 -40q40 -40 40 -95t-40 -95t-95 -40t-96 40q-40 40 -40 95zM106 1434h807q101 0 143 9t113 7v-272h-69q-29 106 -108 141t-212 35h-374v-588h256q109 0 141 46q18 26 26 69h68v-310h-68q-18 63 -37 84q-27 31 -80 31h-306v-606h419
q178 0 281 49q102 49 113 178h69l-22 -307h-1160v70q123 14 123 166v962q0 80 -25 122q-26 42 -98 44v70z" />
    <glyph glyph-name="edotaccent" unicode="&#x117;" horiz-adv-x="790" 
d="M295 1155q0 41 29 70q30 29 70 29t69 -30q29 -28 29 -69t-29 -70t-70 -29t-69 30q-28 28 -29 69zM401 741q-71 0 -119 -53t-51 -168h324q4 111 -40 166t-114 55zM53 367q-1 195 101 317t257 121q155 0 233 -108t73 -240h-490q-27 -389 219 -389q133 0 254 125l37 -35
q-139 -174 -311 -174t-283 111q-39 40 -64 111q-26 71 -26 161z" />
    <glyph glyph-name="Eogonek" unicode="&#x118;" horiz-adv-x="1341" 
d="M106 1434h807q101 0 143 9t113 7v-272h-69q-29 106 -108 141t-212 35h-374v-588h256q109 0 141 46q18 26 26 69h68v-310h-68q-18 63 -37 84q-27 31 -80 31h-306v-606h419q178 0 281 49q102 49 113 178h69l-22 -307h-70q-90 -29 -147 -59q-115 -63 -115 -150q0 -17 4 -33
t31 -36t73 -19q82 0 150 64l29 -37q-125 -121 -242 -121q-74 0 -121 41q-47 40 -47 104t45 120t217 126h-967v70q123 14 123 166v962q0 80 -25 122q-26 42 -98 44v70z" />
    <glyph glyph-name="eogonek" unicode="&#x119;" horiz-adv-x="790" 
d="M401 741q-71 0 -119 -53t-51 -168h324q4 111 -40 166t-114 55zM496 -307q-66 0 -102 37t-36 88q0 96 117 168l-2 4q-27 -6 -90 -6t-132 36t-108 76t-64 110q-26 71 -26 161q-1 195 101 317t257 121q155 0 233 -108t73 -240h-490q-2 -29 -2 -86q0 -303 221 -303
q133 0 254 125l37 -35q-10 -12 -22 -28t-25 -26q-12 -10 -16 -14t-16 -13t-18 -12q-4 -3 -22 -15t-24 -17l-64 -60q-74 -67 -68 -137t81 -70q76 0 141 52l18 -27q-88 -98 -206 -98z" />
    <glyph glyph-name="Ecaron" unicode="&#x11a;" horiz-adv-x="1341" 
d="M643 1645l229 161h82l-258 -297h-106l-258 297h82zM106 1434h807q101 0 143 9t113 7v-272h-69q-29 106 -108 141t-212 35h-374v-588h256q109 0 141 46q18 26 26 69h68v-310h-68q-18 63 -37 84q-27 31 -80 31h-306v-606h419q178 0 281 49q102 49 113 178h69l-22 -307
h-1160v70q123 14 123 166v962q0 80 -25 122q-26 42 -98 44v70z" />
    <glyph glyph-name="ecaron" unicode="&#x11b;" horiz-adv-x="790" 
d="M395 1155l213 186h64l-226 -311h-102l-225 311h63zM401 741q-71 0 -119 -53t-51 -168h324q4 111 -40 166t-114 55zM53 367q-1 195 101 317t257 121q155 0 233 -108t73 -240h-490q-27 -389 219 -389q133 0 254 125l37 -35q-139 -174 -311 -174t-283 111q-39 40 -64 111
q-26 71 -26 161z" />
    <glyph glyph-name="Gcircumflex" unicode="&#x11c;" horiz-adv-x="1472" 
d="M784 1673l-229 -162h-82l258 297h107l258 -297h-82zM1300 1395v-316h-69q-33 81 -88 141t-105 88q-110 62 -262 62q-203 0 -347 -157t-144 -468q0 -398 215 -576q45 -38 92 -60q94 -45 254 -45t259 77q99 78 112 211q8 92 -31 130t-90 40v70h297v-498q-191 -66 -307 -88
t-240 -22q-378 0 -572 196t-194 570q0 296 217 513q193 187 477 187q172 0 311 -55q61 -25 97 -25t53 25h65z" />
    <glyph glyph-name="gcircumflex" unicode="&#x11d;" horiz-adv-x="890" 
d="M422 1217l-213 -187h-64l226 311h102l225 -311h-63zM410 741q-84 0 -118 -51t-34 -162q0 -112 39 -156t113 -44q109 0 136 96q13 45 13 128q-1 83 -33 136t-116 53zM717 -104q0 157 -291 157q-156 1 -342 -69l-31 69l160 262q-127 72 -127 209t94 209t238 72t241 -90
q25 86 107 86q45 0 72 -27q26 -26 26 -64t-18 -56t-45 -19q-49 0 -49 47q0 16 8 28t8 19q0 16 -18 16t-32 -19q-14 -18 -16 -38q0 -20 14 -62t15 -94q0 -116 -87 -192t-230 -76q-72 0 -135 23l-95 -150l6 -8q161 66 274 66q112 0 195 -39q162 -74 162 -236q0 -98 -79 -168
q-100 -92 -271 -92q-170 0 -256 60t-86 135q1 37 21 67t63 29t63 -21t20 -47t-18 -51q-19 -24 -20 -39q0 -33 56 -51t152 -18t174 44q77 44 77 128z" />
    <glyph glyph-name="Gbreve" unicode="&#x11e;" horiz-adv-x="1472" 
d="M780 1614q82 0 138 43t69 104h68q-6 -123 -97 -196q-74 -55 -178 -55t-178 55q-90 74 -96 196h67q13 -61 69 -104t138 -43zM1300 1395v-316h-69q-33 81 -88 141t-105 88q-110 62 -262 62q-203 0 -347 -157t-144 -468q0 -398 215 -576q45 -38 92 -60q94 -45 254 -45
t259 77q99 78 112 211q8 92 -31 130t-90 40v70h297v-498q-191 -66 -307 -88t-240 -22q-378 0 -572 196t-194 570q0 296 217 513q193 187 477 187q172 0 311 -55q61 -25 97 -25t53 25h65z" />
    <glyph glyph-name="gbreve" unicode="&#x11f;" horiz-adv-x="890" 
d="M435 1135q77 0 138 47t70 121h68q-6 -105 -71 -189t-198 -84q-76 0 -132 28q-131 66 -148 245h67q5 -68 67 -118t139 -50zM410 741q-84 0 -118 -51t-34 -162q0 -112 39 -156t113 -44q109 0 136 96q13 45 13 128q-1 83 -33 136t-116 53zM717 -104q0 157 -291 157
q-156 1 -342 -69l-31 69l160 262q-127 72 -127 209t94 209t238 72t241 -90q25 86 107 86q45 0 72 -27q26 -26 26 -64t-18 -56t-45 -19q-49 0 -49 47q0 16 8 28t8 19q0 16 -18 16t-32 -19q-14 -18 -16 -38q0 -20 14 -62t15 -94q0 -116 -87 -192t-230 -76q-72 0 -135 23
l-95 -150l6 -8q161 66 274 66q112 0 195 -39q162 -74 162 -236q0 -98 -79 -168q-100 -92 -271 -92q-170 0 -256 60t-86 135q1 37 21 67t63 29t63 -21t20 -47t-18 -51q-19 -24 -20 -39q0 -33 56 -51t152 -18t174 44q77 44 77 128z" />
    <glyph glyph-name="Gdotaccent" unicode="&#x120;" horiz-adv-x="1472" 
d="M690 1667q0 55 40 95t95 40t95 -40t41 -95q0 -55 -40 -95q-39 -40 -95 -40t-96 40t-40 95zM1300 1395v-316h-69q-33 81 -88 141t-105 88q-110 62 -262 62q-203 0 -347 -157t-144 -468q0 -398 215 -576q45 -38 92 -60q94 -45 254 -45t259 77q99 78 112 211q8 92 -31 130
t-90 40v70h297v-498q-191 -66 -307 -88t-240 -22q-378 0 -572 196t-194 570q0 296 217 513q193 187 477 187q172 0 311 -55q61 -25 97 -25t53 25h65z" />
    <glyph glyph-name="gdotaccent" unicode="&#x121;" horiz-adv-x="890" 
d="M326 1155q0 41 28 70q29 29 70 29t70 -30q28 -28 28 -69t-28 -70t-70 -29q-41 0 -70 29q-28 29 -28 70zM410 741q-84 0 -118 -51t-34 -162q0 -112 39 -156t113 -44q109 0 136 96q13 45 13 128q-1 83 -33 136t-116 53zM717 -104q0 157 -291 157q-156 1 -342 -69l-31 69
l160 262q-127 72 -127 209t94 209t238 72t241 -90q25 86 107 86q45 0 72 -27q26 -26 26 -64t-18 -56t-45 -19q-49 0 -49 47q0 16 8 28t8 19q0 16 -18 16t-32 -19q-14 -18 -16 -38q0 -20 14 -62t15 -94q0 -116 -87 -192t-230 -76q-72 0 -135 23l-95 -150l6 -8q161 66 274 66
q112 0 195 -39q162 -74 162 -236q0 -98 -79 -168q-100 -92 -271 -92q-170 0 -256 60t-86 135q1 37 21 67t63 29t63 -21t20 -47t-18 -51q-19 -24 -20 -39q0 -33 56 -51t152 -18t174 44q77 44 77 128z" />
    <glyph glyph-name="Gcommaaccent" unicode="&#x122;" horiz-adv-x="1472" 
d="M676 -236q0 52 31 82t85 31q54 0 91 -35q37 -34 37 -114t-60 -166t-143 -137l-41 43q121 100 137 186l-4 6q-53 -4 -93 24t-40 80zM1300 1395v-316h-69q-33 81 -88 141t-105 88q-110 62 -262 62q-203 0 -347 -157t-144 -468q0 -398 215 -576q45 -38 92 -60
q94 -45 254 -45t259 77q99 78 112 211q8 92 -31 130t-90 40v70h297v-498q-191 -66 -307 -88t-240 -22q-378 0 -572 196t-194 570q0 296 217 513q193 187 477 187q172 0 311 -55q61 -25 97 -25t53 25h65z" />
    <glyph glyph-name="gcommaaccent" unicode="&#x123;" horiz-adv-x="890" 
d="M455 987q-117 0 -117 129q0 82 54 154t130 123l37 -39q-69 -58 -93 -94t-34 -82q49 12 88 -12t39 -76t-31 -78t-73 -25zM410 741q-84 0 -118 -51t-34 -162q0 -112 39 -156t113 -44q109 0 136 96q13 45 13 128q-1 83 -33 136t-116 53zM717 -104q0 157 -291 157
q-156 1 -342 -69l-31 69l160 262q-127 72 -127 209t94 209t238 72t241 -90q25 86 107 86q45 0 72 -27q26 -26 26 -64t-18 -56t-45 -19q-49 0 -49 47q0 16 8 28t8 19q0 16 -18 16t-32 -19q-14 -18 -16 -38q0 -20 14 -62t15 -94q0 -116 -87 -192t-230 -76q-72 0 -135 23
l-95 -150l6 -8q161 66 274 66q112 0 195 -39q162 -74 162 -236q0 -98 -79 -168q-100 -92 -271 -92q-170 0 -256 60t-86 135q1 37 21 67t63 29t63 -21t20 -47t-18 -51q-19 -24 -20 -39q0 -33 56 -51t152 -18t174 44q77 44 77 128z" />
    <glyph glyph-name="Hcircumflex" unicode="&#x124;" horiz-adv-x="1634" 
d="M803 1671l-230 -162h-81l258 297h106l258 -297h-82zM524 1434v-70q-121 -10 -121 -166v-428h826v428q0 80 -28 119t-93 47v70h420v-70q-123 -10 -123 -166v-962q0 -154 123 -166v-70h-420v70q66 8 94 47t27 119v454h-826v-454q0 -76 26 -118t95 -48v-70h-418v70
q70 6 96 48t25 118v962q0 76 -25 118q-26 42 -96 48v70h418z" />
    <glyph glyph-name="hcircumflex" unicode="&#x125;" horiz-adv-x="923" 
d="M215 1667l-213 -186h-63l225 311h102l226 -311h-64zM55 1434h240v-734h14q115 104 242 104t178 -64q51 -65 51 -193v-342q0 -101 37 -127q20 -14 53 -19v-59h-329v59q43 6 63 31q20 26 24 48t3 67v348q0 80 -26 123t-93 43q-66 0 -126 -42t-91 -106v-364q0 -68 18 -106
t74 -42v-59h-334v59q57 6 75 42q17 36 17 106v1061q0 94 -90 106v60z" />
    <glyph glyph-name="Hbar" unicode="&#x126;" horiz-adv-x="1634" 
d="M1229 1057h-826v-287h826v287zM524 1434v-70q-121 -10 -121 -166v-61h826v61q0 80 -28 119t-93 47v70h420v-70q-123 -10 -123 -166v-61h184v-80h-184v-821q0 -154 123 -166v-70h-420v70q66 8 94 47t27 119v454h-826v-454q0 -76 26 -118t95 -48v-70h-418v70q70 6 96 48
t25 118v821h-182v80h182v61q0 76 -25 118q-26 42 -96 48v70h418z" />
    <glyph glyph-name="hbar" unicode="&#x127;" horiz-adv-x="919" 
d="M53 1434h240v-377h315v-64h-315v-293h18q115 104 258 105q207 0 207 -258v-342q0 -102 37 -127q20 -14 53 -19v-59h-329v59q43 6 63 31q20 26 24 48t3 67v348q0 82 -28 124t-92 42q-63 0 -123 -42t-91 -106v-364q0 -68 18 -106t74 -42v-59h-334v59q57 6 75 42
q17 36 17 106v786h-118v64h118v211q0 94 -90 106v60z" />
    <glyph glyph-name="Imacron" unicode="&#x12a;" horiz-adv-x="630" 
d="M33 1548v94h561v-94h-561zM524 1434v-70q-121 -8 -121 -166v-962q0 -152 121 -166v-70h-418v70q121 14 121 166v962q0 156 -121 166v70h418z" />
    <glyph glyph-name="imacron" unicode="&#x12b;" horiz-adv-x="440" 
d="M-68 1139h570v-109h-570v109zM53 788h242v-581q0 -68 18 -106t74 -42v-59h-334v59q53 6 72 41q18 35 18 107v373q0 72 -15 104t-75 45v59z" />
    <glyph glyph-name="Iogonek" unicode="&#x12e;" horiz-adv-x="630" 
d="M524 1434v-70q-121 -8 -121 -166v-962q0 -152 121 -166v-70q-90 -29 -147 -59q-115 -63 -115 -150q0 -17 4 -33t31 -36t74 -19q82 0 149 64l29 -37q-125 -121 -242 -121q-74 0 -121 41q-47 40 -47 104t45 120t217 126h-295v70q121 14 121 166v962q0 156 -121 166v70h418z
" />
    <glyph glyph-name="iogonek" unicode="&#x12f;" horiz-adv-x="438" 
d="M96 1152q0 38 28 70t71 32t71 -30q28 -28 29 -71q0 -43 -32 -71q-31 -28 -69 -28t-68 30t-30 68zM53 788h240v-581q0 -68 18 -106t74 -42v-59q-57 -27 -104 -70t-45 -92q4 -72 81 -72t142 52l18 -27q-88 -98 -207 -98q-66 0 -102 37t-35 83q0 46 30 84q29 38 59 56t85 47
h-254v59q53 6 72 41q18 35 18 107v373q0 72 -15 104t-75 45v59z" />
    <glyph glyph-name="Idotaccent" unicode="&#x130;" horiz-adv-x="630" 
d="M182 1667q0 55 40 95t95 40t95 -40t41 -95q0 -55 -40 -95q-39 -40 -95 -40t-96 40t-40 95zM524 1434v-70q-121 -8 -121 -166v-962q0 -152 121 -166v-70h-418v70q121 14 121 166v962q0 156 -121 166v70h418z" />
    <glyph glyph-name="dotlessi" unicode="&#x131;" horiz-adv-x="440" 
d="M53 788h242v-581q0 -68 18 -106t74 -42v-59h-334v59q53 6 72 41q18 35 18 107v373q0 72 -15 104t-75 45v59z" />
    <glyph glyph-name="Jcircumflex" unicode="&#x134;" horiz-adv-x="716" 
d="M330 1671l-230 -162h-82l258 297h107l258 -297h-82zM168 -240q145 0 145 357v1081q0 156 -123 166v70h420v-70q-121 -14 -121 -166v-1003q1 -256 -113 -386t-251 -131q-82 0 -130 41t-48 87q1 46 25 76q24 28 59 28t61 -18t25 -56l-4 -37q0 -39 55 -39z" />
    <glyph glyph-name="jcircumflex" unicode="&#x135;" horiz-adv-x="430" 
d="M215 1202l-213 -186h-63l225 311h102l226 -311h-64zM23 788h294v-739q0 -199 -59 -301q-72 -125 -215 -125q-55 0 -89 28t-34 64q0 63 70 64q35 0 65 -38q21 -27 36 -30q15 -4 28 -4q49 0 49 62v811q0 78 -26 114t-87 35h-32v59z" />
    <glyph glyph-name="Kcommaaccent" unicode="&#x136;" horiz-adv-x="1517" 
d="M637 -236q0 52 31 82t85 31q54 0 91 -35q37 -34 37 -114q1 -80 -59 -166t-144 -137l-41 43q121 100 137 186l-4 6q-53 -4 -93 24t-40 80zM106 1434h420v-70q-121 -10 -120 -166v-438h12l555 452q67 60 67 94q-1 58 -63 58h-14v70h430v-70q-141 -35 -293 -158l-424 -346
l602 -641q127 -133 240 -149v-70h-527v70h17q74 0 73 61q0 37 -47 88l-495 529l-133 -109v-403q0 -154 120 -166v-70h-420v70q123 14 123 166v962q0 156 -123 166v70z" />
    <glyph glyph-name="kcommaaccent" unicode="&#x137;" horiz-adv-x="866" 
d="M315 -226q0 52 31 78t74 25q115 0 117 -129q-1 -82 -55 -154t-130 -122l-37 39q70 57 94 93t33 83q-49 -13 -88 11t-39 76zM293 1434v-967l199 170q47 39 47 57q0 35 -58 35v59h318v-59q-96 -8 -211 -106l-117 -101l272 -350q47 -63 76 -87t62 -26v-59h-371v59
q32 -3 54 9t22 32t-23 47l-209 269l-61 -54v-155q0 -72 18 -107t72 -41v-59h-330v59q53 6 72 41q18 35 18 107v1020q0 73 -18 107t-72 40v60h240z" />
    <glyph glyph-name="Lacute" unicode="&#x139;" horiz-adv-x="1261" 
d="M782 1732q0 -48 -51 -79q-18 -10 -76 -33l-293 -111l-22 43l248 205q88 76 158 41q36 -18 36 -66zM524 1434v-70q-121 -12 -121 -166v-1118h439q124 0 200 77t97 181h69v-338h-1102v70q121 10 121 166v962q0 154 -121 166v70h418z" />
    <glyph glyph-name="lacute" unicode="&#x13a;" horiz-adv-x="440" 
d="M406 1821q41 0 61 -22q20 -23 20 -57t-25 -56t-71 -50l-250 -155l-26 32l215 267q35 41 76 41zM55 1434h240v-1227q0 -68 18 -106t74 -42v-59h-334v59q57 6 75 42q17 36 17 106v1020q0 79 -16 109t-74 38v60z" />
    <glyph glyph-name="Lcommaaccent" unicode="&#x13b;" horiz-adv-x="1261" 
d="M508 -236q0 52 31 82t85 31q54 0 91 -35q37 -34 37 -114t-60 -166t-143 -137l-41 43q121 100 137 186l-4 6q-53 -4 -93 24t-40 80zM524 1434v-70q-121 -12 -121 -166v-1118h439q124 0 200 77t97 181h69v-338h-1102v70q121 10 121 166v962q0 154 -121 166v70h418z" />
    <glyph glyph-name="lcommaaccent" unicode="&#x13c;" horiz-adv-x="440" 
d="M106 -226q0 52 31 78t74 25q115 0 117 -129q0 -82 -54 -154t-131 -122l-37 39q70 57 94 93t33 83q-49 -13 -88 11t-39 76zM55 1434h240v-1227q0 -68 18 -106t74 -42v-59h-334v59q57 6 75 42q17 36 17 106v1020q0 79 -16 109t-74 38v60z" />
    <glyph glyph-name="Lcaron" unicode="&#x13d;" horiz-adv-x="1261" 
d="M735 1336q0 52 31 83t85 31t91 -35t37 -115q1 -80 -59 -166t-144 -137l-41 43q121 100 137 187l-4 6q-53 -5 -93 23t-40 80zM524 1434v-70q-121 -12 -121 -166v-1118h439q124 0 200 77t97 181h69v-338h-1102v70q121 10 121 166v962q0 154 -121 166v70h418z" />
    <glyph glyph-name="lcaron" unicode="&#x13e;" horiz-adv-x="595" 
d="M616 1243q0 -81 -54 -153t-130 -123l-37 39q69 57 93 93t34 83q-49 -12 -88 12t-39 75q0 52 31 78t74 25q116 0 116 -129zM55 1434h240v-1227q0 -68 18 -106t74 -42v-59h-334v59q57 6 75 42q17 36 17 106v1020q0 79 -16 109t-74 38v60z" />
    <glyph glyph-name="Ldot" unicode="&#x13f;" horiz-adv-x="1261" 
d="M797 709q-1 45 31 77t79 33q47 0 79 -33q32 -34 32 -78t-32 -77t-79 -33t-79 33q-31 33 -31 78zM524 1434v-70q-121 -12 -121 -166v-1118h439q118 0 198 74t99 184h69v-338h-1102v70q121 10 121 166v962q0 154 -121 166v70h418z" />
    <glyph glyph-name="ldot" unicode="&#x140;" horiz-adv-x="614" 
d="M430 707q0 41 29 69t69 29q40 0 70 -29q29 -30 29 -70t-29 -69t-70 -29q-42 0 -70 29t-28 70zM55 1434h240v-1227q0 -68 18 -106t74 -42v-59h-334v59q57 6 75 42q17 36 17 106v1020q0 79 -16 109t-74 38v60z" />
    <glyph glyph-name="Lslash" unicode="&#x141;" horiz-adv-x="1347" 
d="M610 1434v-70q-121 -12 -121 -166v-385l189 168l53 -59l-242 -215v-627h439q124 0 200 77t97 181h69v-338h-1101v70q121 10 120 166v315l-153 -137l-54 59l207 184v541q0 154 -120 166v70h417z" />
    <glyph glyph-name="lslash" unicode="&#x142;" horiz-adv-x="602" 
d="M125 1434h240v-721l172 118l34 -47l-206 -141v-436q0 -68 18 -106t74 -42v-59h-334v59q57 6 75 42q17 36 17 106v334l-149 -105l-35 47l184 127v617q0 79 -16 109t-74 38v60z" />
    <glyph glyph-name="Nacute" unicode="&#x143;" horiz-adv-x="1581" 
d="M1147 1732q0 -48 -51 -79q-18 -10 -76 -33l-293 -111l-22 43l247 205q89 76 159 41q36 -18 36 -66zM106 0v70q59 -6 92 42q32 48 31 107v973q0 34 -12 80q-24 92 -111 92v70h293l869 -1100h6v868q0 43 -5 70q-5 26 -34 56t-82 36v70h322v-70q-74 -16 -98 -53t-23 -109
v-1202h-62l-975 1237h-8v-1018q0 -55 28 -102t93 -47v-70h-324z" />
    <glyph glyph-name="nacute" unicode="&#x144;" horiz-adv-x="925" 
d="M696 1370q40 0 62 -21q20 -22 20 -57t-26 -57t-70 -49l-250 -156l-26 33l215 266q35 41 75 41zM145 207v416q0 86 -90 106v59h240v-100h6q115 121 268 117q114 -4 166 -64q45 -52 45 -194v-340q0 -68 18 -106t74 -42v-59h-333v59q57 6 74 42t18 106v346q0 45 -4 74
t-33 61t-68 31q-40 0 -68 -7t-77 -40t-86 -90v-375q0 -70 19 -106t73 -42v-59h-334v59q57 6 75 42q17 36 17 106z" />
    <glyph glyph-name="Ncommaaccent" unicode="&#x145;" horiz-adv-x="1581" 
d="M668 -236q0 52 30 82t85 31q54 0 91 -35q37 -34 37 -114t-59 -166t-143 -137l-41 43q121 100 137 186l-4 6q-53 -4 -93 24t-40 80zM106 0v70q59 -6 92 42q32 48 31 107v973q0 34 -12 80q-24 92 -111 92v70h293l869 -1100h6v868q0 43 -5 70q-5 26 -34 56t-82 36v70h322
v-70q-74 -16 -98 -53t-23 -109v-1202h-62l-975 1237h-8v-1018q0 -55 28 -102t93 -47v-70h-324z" />
    <glyph glyph-name="ncommaaccent" unicode="&#x146;" horiz-adv-x="925" 
d="M575 -252q0 -82 -54 -154t-130 -122l-37 39q70 57 94 93t33 83q-49 -13 -88 11t-39 76t31 78t74 25q116 0 116 -129zM145 207v416q0 86 -90 106v59h240v-100h6q115 121 268 117q114 -4 166 -64q45 -52 45 -194v-340q0 -68 18 -106t74 -42v-59h-333v59q57 6 74 42t18 106
v346q0 45 -4 74t-33 61t-68 31q-40 0 -68 -7t-77 -40t-86 -90v-375q0 -70 19 -106t73 -42v-59h-334v59q57 6 75 42q17 36 17 106z" />
    <glyph glyph-name="Ncaron" unicode="&#x147;" horiz-adv-x="1581" 
d="M766 1645l229 161h82l-258 -297h-106l-258 297h82zM106 0v70q59 -6 92 42q32 48 31 107v973q0 34 -12 80q-24 92 -111 92v70h293l869 -1100h6v868q0 43 -5 70q-5 26 -34 56t-82 36v70h322v-70q-74 -16 -98 -53t-23 -109v-1202h-62l-975 1237h-8v-1018q0 -55 28 -102
t93 -47v-70h-324z" />
    <glyph glyph-name="ncaron" unicode="&#x148;" horiz-adv-x="925" 
d="M463 1155l213 186h63l-225 -311h-102l-226 311h64zM145 207v416q0 86 -90 106v59h240v-100h6q115 121 268 117q114 -4 166 -64q45 -52 45 -194v-340q0 -68 18 -106t74 -42v-59h-333v59q57 6 74 42t18 106v346q0 45 -4 74t-33 61t-68 31q-40 0 -68 -7t-77 -40t-86 -90
v-375q0 -70 19 -106t73 -42v-59h-334v59q57 6 75 42q17 36 17 106z" />
    <glyph glyph-name="Omacron" unicode="&#x14c;" horiz-adv-x="1613" 
d="M526 1548v94h561v-94h-561zM807 1370q-221 0 -372 -175t-151 -478t152 -478q150 -175 371 -175t372 174q151 176 150 479q0 303 -150 478q-151 175 -372 175zM807 1450q170 0 312 -66q258 -120 367 -408q48 -128 48 -259t-48 -259q-109 -292 -367 -409q-142 -65 -312 -65
t-312 66q-259 119 -367 408q-48 128 -48 259q0 270 184 494q88 107 230 173t313 66z" />
    <glyph glyph-name="omacron" unicode="&#x14d;" horiz-adv-x="884" 
d="M158 1139h569v-109h-569v109zM442 741q-102 -1 -159 -73t-57 -250t18 -223q20 -45 43 -79q45 -67 156 -68t156 69t53 142q7 71 7 134q0 203 -57 276q-58 72 -160 72zM742 666q89 -118 89 -266t-74 -253t-179 -140q-69 -23 -115 -23q-45 0 -75 3t-81 20q-105 35 -178 138
t-75 251q-1 149 88 271q103 138 321 138q62 0 167 -45q62 -28 112 -94z" />
    <glyph glyph-name="Obreve" unicode="&#x14e;" horiz-adv-x="1613" 
d="M792 1614q82 0 139 43q56 43 68 104h68q-6 -123 -96 -196q-74 -55 -178 -55t-179 55q-90 74 -96 196h68q12 -61 68 -104t138 -43zM807 1370q-221 0 -372 -175t-151 -478t152 -478q150 -175 371 -175t372 174q151 176 150 479q0 303 -150 478q-151 175 -372 175zM807 1450
q170 0 312 -66q258 -120 367 -408q48 -128 48 -259t-48 -259q-109 -292 -367 -409q-142 -65 -312 -65t-312 66q-259 119 -367 408q-48 128 -48 259q0 270 184 494q88 107 230 173t313 66z" />
    <glyph glyph-name="obreve" unicode="&#x14f;" horiz-adv-x="884" 
d="M441 1135q77 0 139 47q61 47 69 121h68q-6 -105 -71 -189t-197 -84q-77 0 -133 28q-132 65 -148 245h68q4 -68 66 -118t139 -50zM442 741q-102 -1 -159 -73t-57 -250t18 -223q20 -45 43 -79q45 -67 156 -68t156 69t53 142q7 71 7 134q0 203 -57 276q-58 72 -160 72z
M742 666q89 -118 89 -266t-74 -253t-179 -140q-69 -23 -115 -23q-45 0 -75 3t-81 20q-105 35 -178 138t-75 251q-1 149 88 271q103 138 321 138q62 0 167 -45q62 -28 112 -94z" />
    <glyph glyph-name="Ohungarumlaut" unicode="&#x150;" horiz-adv-x="1613" 
d="M1346 1747q0 -37 -32 -57t-91 -48l-265 -118l-26 37l223 196q72 63 113 64q78 0 78 -74zM575 1561l224 196q71 63 109 63t60 -18t22 -55t-32 -57t-92 -48l-264 -118zM807 1370q-221 0 -372 -175t-151 -478t152 -478q150 -175 371 -175t372 174q151 176 150 479
q0 303 -150 478q-151 175 -372 175zM807 1450q170 0 312 -66q258 -120 367 -408q48 -128 48 -259t-48 -259q-109 -292 -367 -409q-142 -65 -312 -65t-312 66q-259 119 -367 408q-48 128 -48 259q0 270 184 494q88 107 230 173t313 66z" />
    <glyph glyph-name="ohungarumlaut" unicode="&#x151;" horiz-adv-x="884" 
d="M836 1380q22 0 36 -14q33 -33 21 -67t-94 -97l-232 -172l-30 33l221 272q2 3 8 11t10 12t12 10t18 9q8 3 30 3zM538 1380q34 0 48 -14q32 -33 20 -67t-94 -97l-231 -172l-31 33l221 272q2 2 8 11q25 34 59 34zM442 741q-102 -1 -159 -73t-57 -250t18 -223q20 -45 43 -79
q45 -67 156 -68t156 69t53 142q7 71 7 134q0 203 -57 276q-58 72 -160 72zM742 666q89 -118 89 -266t-74 -253t-179 -140q-69 -23 -115 -23q-45 0 -75 3t-81 20q-105 35 -178 138t-75 251q-1 149 88 271q103 138 321 138q62 0 167 -45q62 -28 112 -94z" />
    <glyph glyph-name="OE" unicode="&#x152;" horiz-adv-x="2205" 
d="M1032 1239q0 89 -51 113t-134 24t-125 -8q-225 -43 -341 -244q-96 -166 -96 -477q0 -88 32 -196q53 -178 181 -286t309 -108q225 0 225 142v1040zM805 -16q-311 0 -518 200t-207 518q0 190 71 342t187 248q186 158 461 158q96 0 178 -16h805q41 0 93 7t73 9h24v-272h-69
q-29 106 -105 141t-213 35h-375v-588h256q112 0 143 48q17 26 25 67h68v-310h-68q-23 80 -55 98q-33 17 -113 17h-256v-606h480q264 0 351 105q38 48 42 122h69l-24 -307h-1151q-94 -16 -172 -16z" />
    <glyph glyph-name="oe" unicode="&#x153;" horiz-adv-x="1384" 
d="M436 741q-100 -1 -155 -79t-56 -269q0 -251 99 -315q47 -31 118 -31q256 0 213 457q-10 106 -64 172q-55 65 -155 65zM1147 518q4 49 -13 109q-32 116 -139 114q-69 0 -109 -46t-49 -89t-12 -88h322zM823 288q0 -73 55 -147t162 -73q62 0 134 36t118 89l39 -35
q-139 -174 -322 -174t-280 120h-2q-105 -120 -285 -120t-284 118t-104 298q0 179 108 292t280 113t283 -117h12q109 117 264 117q155 1 235 -109t75 -241h-484q-4 -94 -4 -167z" />
    <glyph glyph-name="Racute" unicode="&#x154;" horiz-adv-x="1413" 
d="M881 1732q0 -48 -52 -79q-18 -10 -75 -33l-293 -111l-23 43l248 205q89 76 159 41q36 -18 36 -66zM403 750h211q387 0 387 307q0 223 -188 274q-85 23 -199 23h-211v-604zM106 1434h541q312 0 433 -99q54 -43 90 -111t36 -153q0 -152 -83 -245t-212 -126l295 -487
q42 -64 66 -91q42 -47 114 -52v-70h-260l-405 670h-318v-434q0 -74 26 -117t95 -49v-70h-418v70q68 8 95 48t26 118v962q0 74 -25 116q-26 42 -96 50v70z" />
    <glyph glyph-name="racute" unicode="&#x155;" horiz-adv-x="604" 
d="M497 1370q39 0 61 -22t22 -56q0 -35 -26 -57t-71 -49l-250 -156l-26 33l215 266q35 41 75 41zM55 788h240v-126h8q94 143 201 143q51 0 76 -26q24 -27 24 -61t-20 -56t-58 -21q-38 0 -58 28q-19 28 -44 27q-47 0 -88 -76t-41 -190v-223q0 -68 17 -106t75 -42v-59h-334v59
q57 6 75 42q17 36 17 106v416q0 88 -90 106v59z" />
    <glyph glyph-name="Rcommaaccent" unicode="&#x156;" horiz-adv-x="1413" 
d="M635 -236q0 52 31 82t85 31q54 0 91 -35q37 -34 37 -114q1 -80 -59 -166t-144 -137l-41 43q121 100 137 186l-4 6q-53 -4 -93 24t-40 80zM403 750h211q387 0 387 307q0 223 -188 274q-85 23 -199 23h-211v-604zM106 1434h541q312 0 433 -99q54 -43 90 -111t36 -153
q0 -152 -83 -245t-212 -126l295 -487q42 -64 66 -91q42 -47 114 -52v-70h-260l-405 670h-318v-434q0 -74 26 -117t95 -49v-70h-418v70q68 8 95 48t26 118v962q0 74 -25 116q-26 42 -96 50v70z" />
    <glyph glyph-name="rcommaaccent" unicode="&#x157;" horiz-adv-x="604" 
d="M147 -226q0 52 31 78t74 25q115 0 117 -129q-1 -82 -55 -154t-130 -122l-37 39q70 57 94 93t33 83q-49 -13 -88 11t-39 76zM55 788h240v-126h8q94 143 201 143q51 0 76 -26q24 -27 24 -61t-20 -56t-58 -21q-38 0 -58 28q-19 28 -44 27q-47 0 -88 -76t-41 -190v-223
q0 -68 17 -106t75 -42v-59h-334v59q57 6 75 42q17 36 17 106v416q0 88 -90 106v59z" />
    <glyph glyph-name="Rcaron" unicode="&#x158;" horiz-adv-x="1413" 
d="M633 1645l229 161h82l-258 -297h-106l-258 297h81zM403 750h211q387 0 387 307q0 223 -188 274q-85 23 -199 23h-211v-604zM106 1434h541q312 0 433 -99q54 -43 90 -111t36 -153q0 -152 -83 -245t-212 -126l295 -487q42 -64 66 -91q42 -47 114 -52v-70h-260l-405 670
h-318v-434q0 -74 26 -117t95 -49v-70h-418v70q68 8 95 48t26 118v962q0 74 -25 116q-26 42 -96 50v70z" />
    <glyph glyph-name="rcaron" unicode="&#x159;" horiz-adv-x="604" 
d="M303 1155l213 186h64l-226 -311h-102l-225 311h63zM55 788h240v-126h8q94 143 201 143q51 0 76 -26q24 -27 24 -61t-20 -56t-58 -21q-38 0 -58 28q-19 28 -44 27q-47 0 -88 -76t-41 -190v-223q0 -68 17 -106t75 -42v-59h-334v59q57 6 75 42q17 36 17 106v416
q0 88 -90 106v59z" />
    <glyph glyph-name="Sacute" unicode="&#x15a;" horiz-adv-x="1107" 
d="M883 1732q0 -48 -52 -79q-18 -10 -75 -33l-293 -111l-23 43l248 205q89 76 159 41q36 -18 36 -66zM530 1370q-96 0 -176 -59t-80 -161t69 -169q69 -66 212 -106t217 -72q150 -68 210 -164t60 -219q0 -166 -126 -301t-308 -135q-106 0 -220 34t-138 33q-72 0 -88 -51h-68
v442h70q47 -164 182 -271t287 -108q98 0 168 66q96 86 96 211q0 170 -183 267q-17 9 -48 21t-51 19q-20 8 -72 21l-113 34q-113 35 -204 129t-91 253q0 158 118 262t296 104q125 0 254 -74q37 -22 59 -22t51 28h52v-323h-70q-119 311 -365 311z" />
    <glyph glyph-name="sacute" unicode="&#x15b;" horiz-adv-x="698" 
d="M561 1370q41 0 62 -21q20 -22 20 -57q1 -35 -25 -57t-71 -49l-250 -156l-27 33l215 266q35 41 76 41zM344 47q72 0 115 40t43 87t-26 76t-48 39t-48 19l-66 22q-98 31 -144 63q-90 63 -90 172t72 175t190 65q118 0 184 -46q66 -45 66 -107t-65 -62t-81 86q0 28 -30 46
q-30 19 -84 19q-54 1 -98 -31t-44 -86t20 -74q20 -18 30 -28q12 -10 39 -19t41 -15t48 -13q36 -8 50 -12q227 -63 227 -232q0 -109 -88 -179t-223 -68q-135 0 -208 58t-73 124q0 34 22 60q23 26 61 26t58 -20t19 -46l-8 -59q0 -29 33 -55q34 -26 106 -25z" />
    <glyph glyph-name="Scircumflex" unicode="&#x15c;" horiz-adv-x="1107" 
d="M580 1671l-230 -162h-82l258 297h107l258 -297h-82zM530 1370q-96 0 -176 -59t-80 -161t69 -169q69 -66 212 -106t217 -72q150 -68 210 -164t60 -219q0 -166 -126 -301t-308 -135q-106 0 -220 34t-138 33q-72 0 -88 -51h-68v442h70q47 -164 182 -271t287 -108
q98 0 168 66q96 86 96 211q0 170 -183 267q-17 9 -48 21t-51 19q-20 8 -72 21l-113 34q-113 35 -204 129t-91 253q0 158 118 262t296 104q125 0 254 -74q37 -22 59 -22t51 28h52v-323h-70q-119 311 -365 311z" />
    <glyph glyph-name="scircumflex" unicode="&#x15d;" horiz-adv-x="698" 
d="M350 1217l-213 -187h-63l225 311h102l226 -311h-64zM344 47q72 0 115 40t43 87t-26 76t-48 39t-48 19l-66 22q-98 31 -144 63q-90 63 -90 172t72 175t190 65q118 0 184 -46q66 -45 66 -107t-65 -62t-81 86q0 28 -30 46q-30 19 -84 19q-54 1 -98 -31t-44 -86t20 -74
q20 -18 30 -28q12 -10 39 -19t41 -15t48 -13q36 -8 50 -12q227 -63 227 -232q0 -109 -88 -179t-223 -68q-135 0 -208 58t-73 124q0 34 22 60q23 26 61 26t58 -20t19 -46l-8 -59q0 -29 33 -55q34 -26 106 -25z" />
    <glyph glyph-name="Scedilla" unicode="&#x15e;" horiz-adv-x="1107" 
d="M526 -420q82 0 126 34t44 98t-55 95q-41 27 -111 27t-135 -35l-41 58l140 137q-68 12 -140 35t-104 22q-72 0 -88 -51h-68v442h70q47 -164 182 -271t283 -108q111 0 189 82t79 199q0 146 -124 225q-102 65 -193 89q-90 24 -123 34t-102 44t-109 74t-76 112
q-35 72 -35 159q0 161 118 265t298 104q121 0 239 -68q52 -28 73 -28t50 28h52v-323h-80q-121 311 -353 311q-114 0 -186 -64t-72 -177q0 -112 104 -177q75 -47 160 -71q84 -25 154 -47t123 -52q118 -68 172 -153q55 -85 55 -209q0 -178 -127 -307t-303 -129q-31 0 -47 2
l-96 -101l2 -2q45 12 92 13q109 0 170 -50t61 -126q0 -77 -57 -130q-74 -70 -199 -70t-192 60q-33 27 -33 59q1 32 17 52t45 20q53 0 59 -51v-33q10 -47 92 -47z" />
    <glyph glyph-name="scedilla" unicode="&#x15f;" horiz-adv-x="698" 
d="M344 47q72 0 115 40t43 84t-14 68q-26 47 -159 89q-42 12 -57 16q-193 63 -192 221q0 111 76 175t194 65q117 0 179 -48t63 -106q0 -61 -65 -61t-81 86q0 28 -30 46q-30 19 -84 19q-54 1 -98 -31t-44 -86t20 -74q20 -18 30 -28q12 -10 39 -19t41 -15t48 -13q36 -8 50 -12
q227 -63 227 -232q0 -117 -93 -183t-206 -64l-53 -56v-2q21 4 77 4t108 -34t52 -98q0 -66 -57 -104t-136 -38t-124 28t-45 56t14 42t35 15q49 0 49 -49v-10q0 -37 64 -37t94 30q31 29 31 69t-47 69q-31 16 -77 16t-98 -22l-38 43l77 82q-110 16 -164 67t-54 99t21 72
q23 26 61 26t58 -20t19 -46l-8 -59q0 -29 33 -55q34 -26 106 -25z" />
    <glyph glyph-name="Scaron" unicode="&#x160;" horiz-adv-x="1107" 
d="M561 1645l230 161h81l-258 -297h-106l-258 297h82zM530 1370q-96 0 -176 -59t-80 -161t69 -169q69 -66 212 -106t217 -72q150 -68 210 -164t60 -219q0 -166 -126 -301t-308 -135q-106 0 -220 34t-138 33q-72 0 -88 -51h-68v442h70q47 -164 182 -271t287 -108q98 0 168 66
q96 86 96 211q0 170 -183 267q-17 9 -48 21t-51 19q-20 8 -72 21l-113 34q-113 35 -204 129t-91 253q0 158 118 262t296 104q125 0 254 -74q37 -22 59 -22t51 28h52v-323h-70q-119 311 -365 311z" />
    <glyph glyph-name="scaron" unicode="&#x161;" horiz-adv-x="698" 
d="M350 1155l213 186h64l-226 -311h-102l-225 311h63zM344 47q72 0 115 40t43 87t-26 76t-48 39t-48 19l-66 22q-98 31 -144 63q-90 63 -90 172t72 175t190 65q118 0 184 -46q66 -45 66 -107t-65 -62t-81 86q0 28 -30 46q-30 19 -84 19q-54 1 -98 -31t-44 -86t20 -74
q20 -18 30 -28q12 -10 39 -19t41 -15t48 -13q36 -8 50 -12q227 -63 227 -232q0 -109 -88 -179t-223 -68q-135 0 -208 58t-73 124q0 34 22 60q23 26 61 26t58 -20t19 -46l-8 -59q0 -29 33 -55q34 -26 106 -25z" />
    <glyph glyph-name="Tcommaaccent" unicode="&#x162;" horiz-adv-x="1392" 
d="M573 -236q0 52 31 82t85 31q54 0 91 -35q37 -34 37 -114q1 -80 -59 -166t-144 -137l-41 43q121 100 138 186l-4 6q-53 -4 -94 24q-40 28 -40 80zM27 1174v276l465 -16h409l465 16v-276h-70q-2 66 -53 122t-170 58h-289v-1118q0 -76 26 -118t95 -48v-70h-420v70
q70 8 97 49t26 117v1118h-291q-184 0 -221 -180h-69z" />
    <glyph glyph-name="tcommaaccent" unicode="&#x163;" horiz-adv-x="552" 
d="M188 -226q0 52 31 78t74 25q115 0 117 -129q0 -82 -54 -154t-131 -122l-37 39q70 57 94 93t33 83q-49 -13 -88 11t-39 76zM41 788h90v179l150 82v-261h170v-63h-170v-526q0 -115 98 -115q57 0 113 43l34 -41q-92 -102 -215 -102q-86 0 -133 47t-47 162v532h-90v63z" />
    <glyph glyph-name="Tcaron" unicode="&#x164;" horiz-adv-x="1392" 
d="M694 1645l230 161h82l-258 -297h-107l-258 297h82zM27 1174v276l465 -16h409l465 16v-276h-70q-2 66 -53 122t-170 58h-289v-1118q0 -76 26 -118t95 -48v-70h-420v70q70 8 97 49t26 117v1118h-291q-184 0 -221 -180h-69z" />
    <glyph glyph-name="tcaron" unicode="&#x165;" horiz-adv-x="587" 
d="M608 1243q0 -81 -54 -153t-130 -123l-37 39q69 57 93 93t34 83q-49 -12 -88 12t-39 75q0 52 31 78t74 25q116 0 116 -129zM41 788h90v179l150 82v-261h170v-63h-170v-526q0 -115 98 -115q57 0 113 43l34 -41q-92 -102 -215 -102q-86 0 -133 47t-47 162v532h-90v63z" />
    <glyph glyph-name="Utilde" unicode="&#x168;" horiz-adv-x="1636" 
d="M1016 1532q-66 0 -188 31t-150 30q-82 0 -127 -61h-39q80 170 238 170q62 0 178 -30t147 -30q80 1 125 60h49q-104 -170 -233 -170zM106 1434h414v-70q-70 -6 -94 -48t-25 -118v-561q-1 -178 47 -300t189 -192q90 -45 231 -45t258 70q146 87 180 242q25 118 25 272v530
q0 141 -119 150v70h318v-70q-119 -8 -119 -150v-626q0 -238 -115 -410q-61 -90 -180 -142t-285 -52q-329 0 -467 166t-139 495v553q0 80 -26 120q-27 40 -93 46v70z" />
    <glyph glyph-name="utilde" unicode="&#x169;" horiz-adv-x="921" 
d="M559 1030q-49 0 -141 26t-121 27q-66 0 -113 -53h-51q72 178 209 178q45 0 144 -28t129 -27q30 -1 61 17t43 51h55q-25 -79 -78 -135t-137 -56zM776 788v-579q0 -72 16 -105t76 -45v-59h-241v100h-6q-113 -117 -256 -116q-221 0 -222 227v410q0 109 -90 108v59h240v-552
q0 -120 52 -150q28 -16 60 -16q31 0 59 7t77 40t86 90v416q0 96 -90 106v59h239z" />
    <glyph glyph-name="Umacron" unicode="&#x16a;" horiz-adv-x="1636" 
d="M580 1548v94h561v-94h-561zM106 1434h414v-70q-70 -6 -94 -48t-25 -118v-561q-1 -178 47 -300t189 -192q90 -45 231 -45t258 70q146 87 180 242q25 118 25 272v530q0 141 -119 150v70h318v-70q-119 -8 -119 -150v-626q0 -238 -115 -410q-61 -90 -180 -142t-285 -52
q-329 0 -467 166t-139 495v553q0 80 -26 120q-27 40 -93 46v70z" />
    <glyph glyph-name="umacron" unicode="&#x16b;" horiz-adv-x="921" 
d="M176 1139h569v-109h-569v109zM776 788v-579q0 -72 16 -105t76 -45v-59h-241v100h-6q-113 -117 -256 -116q-221 0 -222 227v410q0 109 -90 108v59h240v-552q0 -120 52 -150q28 -16 60 -16q31 0 59 7t77 40t86 90v416q0 96 -90 106v59h239z" />
    <glyph glyph-name="Ubreve" unicode="&#x16c;" horiz-adv-x="1636" 
d="M831 1614q83 0 139 43t68 104h68q-6 -123 -96 -196q-74 -55 -178 -55t-179 55q-90 74 -96 196h68q12 -61 68 -104t138 -43zM106 1434h414v-70q-70 -6 -94 -48t-25 -118v-561q-1 -178 47 -300t189 -192q90 -45 231 -45t258 70q146 87 180 242q25 118 25 272v530
q0 141 -119 150v70h318v-70q-119 -8 -119 -150v-626q0 -238 -115 -410q-61 -90 -180 -142t-285 -52q-329 0 -467 166t-139 495v553q0 80 -26 120q-27 40 -93 46v70z" />
    <glyph glyph-name="ubreve" unicode="&#x16d;" horiz-adv-x="921" 
d="M460 1135q77 0 138 47t70 121h67q-6 -104 -70 -189q-65 -84 -198 -84q-76 0 -132 28q-94 47 -130 159q-15 43 -19 86h68q4 -68 66 -118t140 -50zM776 788v-579q0 -72 16 -105t76 -45v-59h-241v100h-6q-113 -117 -256 -116q-221 0 -222 227v410q0 109 -90 108v59h240v-552
q0 -120 52 -150q28 -16 60 -16q31 0 59 7t77 40t86 90v416q0 96 -90 106v59h239z" />
    <glyph glyph-name="Uring" unicode="&#x16e;" horiz-adv-x="1636" 
d="M614 1729q0 86 60 145t145 59t145 -59t60 -145q0 -85 -59 -145t-145 -60t-146 60t-60 145zM688 1729q0 -53 39 -93t92 -39q53 0 92 39q39 38 39 92t-39 93t-92 39t-92 -39t-39 -92zM106 1434h414v-70q-70 -6 -94 -48t-25 -118v-561q-1 -178 47 -300t189 -192
q90 -45 231 -45t258 70q146 87 180 242q25 118 25 272v530q0 141 -119 150v70h318v-70q-119 -8 -119 -150v-626q0 -238 -115 -410q-61 -90 -180 -142t-285 -52q-329 0 -467 166t-139 495v553q0 80 -26 120q-27 40 -93 46v70z" />
    <glyph glyph-name="uring" unicode="&#x16f;" horiz-adv-x="921" 
d="M441 1327q-49 0 -83 -35t-34 -83t36 -82q36 -33 81 -33q46 0 81 34t35 81q0 46 -34 82t-82 36zM260 1213q0 81 56 129t124 48t124 -48t56 -129t-50 -132q-52 -51 -130 -51t-129 51t-51 132zM776 788v-579q0 -72 16 -105t76 -45v-59h-241v100h-6q-113 -117 -256 -116
q-221 0 -222 227v410q0 109 -90 108v59h240v-552q0 -120 52 -150q28 -16 60 -16q31 0 59 7t77 40t86 90v416q0 96 -90 106v59h239z" />
    <glyph glyph-name="Uhungarumlaut" unicode="&#x170;" horiz-adv-x="1636" 
d="M1313 1747q1 -37 -31 -57t-92 -48l-264 -118l-27 37l223 196q72 63 113 64q78 0 78 -74zM543 1561l223 196q72 63 110 63t60 -18t20 -55q0 -37 -32 -57t-90 -48l-265 -118zM106 1434h414v-70q-70 -6 -94 -48t-25 -118v-561q-1 -178 47 -300t189 -192q90 -45 231 -45
t258 70q146 87 180 242q25 118 25 272v530q0 141 -119 150v70h318v-70q-119 -8 -119 -150v-626q0 -238 -115 -410q-61 -90 -180 -142t-285 -52q-329 0 -467 166t-139 495v553q0 80 -26 120q-27 40 -93 46v70z" />
    <glyph glyph-name="uhungarumlaut" unicode="&#x171;" horiz-adv-x="921" 
d="M833 1380q34 0 48 -14q33 -33 21 -67t-95 -97l-232 -172l-30 33l221 272q2 2 8 11q25 34 59 34zM558 1380q22 0 36 -14q32 -33 20 -67t-94 -97l-231 -172l-31 33l221 272q2 3 8 11q7 8 11 12t12 10t17 9t31 3zM776 788v-579q0 -72 16 -105t76 -45v-59h-241v100h-6
q-113 -117 -256 -116q-221 0 -222 227v410q0 109 -90 108v59h240v-552q0 -120 52 -150q28 -16 60 -16q31 0 59 7t77 40t86 90v416q0 96 -90 106v59h239z" />
    <glyph glyph-name="Uogonek" unicode="&#x172;" horiz-adv-x="1636" 
d="M106 1434h414v-70q-70 -6 -94 -48t-25 -118v-561q-1 -178 47 -300t189 -192q90 -45 231 -45t258 70q146 87 180 242q25 118 25 272v530q0 141 -119 150v70h318v-70q-119 -8 -119 -150v-626q0 -172 -46 -297q-77 -210 -366 -291q-90 -29 -147 -59q-115 -63 -115 -150
q0 -17 4 -33t31 -36t74 -19q82 0 149 64l29 -37q-125 -121 -242 -121q-74 0 -120 41q-46 40 -48 104q0 64 45 119t181 111h-9q-393 0 -530 254q-76 141 -76 407v553q0 80 -26 120q-27 40 -93 46v70z" />
    <glyph glyph-name="uogonek" unicode="&#x173;" horiz-adv-x="921" 
d="M776 788v-579q0 -72 16 -105t76 -45v-59q-154 -84 -149 -162q4 -72 81 -72t142 52l19 -27q-88 -98 -207 -98q-66 0 -102 37t-36 88q0 100 175 182h-164v100h-6q-111 -117 -267 -116q-113 0 -158 54q-44 54 -52 142q-1 23 -1 62v379q0 109 -90 108v59h240v-552
q0 -120 52 -150q28 -16 60 -16q31 0 59 7t77 40t86 90v416q0 96 -90 106v59h239z" />
    <glyph glyph-name="Ydieresis" unicode="&#x178;" horiz-adv-x="1386" 
d="M821 1667q0 55 40 95t95 40q56 0 96 -40t40 -95t-40 -95t-96 -40t-95 40q-40 40 -40 95zM317 1667q0 55 40 95q39 40 95 40t96 -40t40 -95t-40 -95t-95 -40t-96 40q-40 40 -40 95zM0 1434h471v-70q-74 -10 -74 -61q0 -31 25 -64l346 -469h12l291 451q43 65 43 89t-22 39
q-23 15 -56 15v70h350v-70q-78 2 -134 -45t-109 -131l-340 -533v-419q0 -154 121 -166v-70h-418v70q121 14 121 166v430l-387 528q-117 158 -240 170v70z" />
    <glyph glyph-name="Zacute" unicode="&#x179;" horiz-adv-x="1521" 
d="M1141 1732q0 -48 -51 -79q-18 -10 -76 -33l-293 -111l-23 43l248 205q89 76 159 41q36 -18 36 -66zM182 1171v263h1172v-64l-1010 -1290h758q213 0 244 178h69v-258h-1309v76l1008 1278h-594q-236 0 -268 -183h-70z" />
    <glyph glyph-name="zacute" unicode="&#x17a;" horiz-adv-x="788" 
d="M636 1370q40 0 62 -22t21 -56q1 -35 -25 -57t-71 -49l-250 -156l-27 33l215 266q35 41 75 41zM92 621v167h629v-38l-465 -678v-9h248q130 0 169 53q19 26 29 64h60v-180h-709v55l455 670h-186q-158 0 -170 -104h-60z" />
    <glyph glyph-name="Zdotaccent" unicode="&#x17b;" horiz-adv-x="1521" 
d="M645 1667q0 55 40 95t95 40q56 0 96 -40t40 -95t-40 -95t-96 -40t-95 40q-40 40 -40 95zM182 1171v263h1172v-64l-1010 -1290h758q213 0 244 178h69v-258h-1309v76l1008 1278h-594q-236 0 -268 -183h-70z" />
    <glyph glyph-name="zdotaccent" unicode="&#x17c;" horiz-adv-x="788" 
d="M322 1155q0 41 28 70q29 29 70 29q42 0 70 -30q28 -28 28 -69t-29 -70t-69 -29t-70 29q-28 29 -28 70zM92 621v167h629v-38l-465 -678v-9h248q130 0 169 53q19 26 29 64h60v-180h-709v55l455 670h-186q-158 0 -170 -104h-60z" />
    <glyph glyph-name="Zcaron" unicode="&#x17d;" horiz-adv-x="1521" 
d="M772 1645l229 161h82l-258 -297h-106l-258 297h82zM182 1171v263h1172v-64l-1010 -1290h758q213 0 244 178h69v-258h-1309v76l1008 1278h-594q-236 0 -268 -183h-70z" />
    <glyph glyph-name="zcaron" unicode="&#x17e;" horiz-adv-x="788" 
d="M395 1155l213 186h64l-226 -311h-102l-225 311h63zM92 621v167h629v-38l-465 -678v-9h248q130 0 169 53q19 26 29 64h60v-180h-709v55l455 670h-186q-158 0 -170 -104h-60z" />
    <glyph glyph-name="uni018F" unicode="&#x18f;" horiz-adv-x="1531" 
d="M285 649q0 -203 86 -356q129 -229 379 -230q141 0 243 68q247 165 254 518h-962zM713 1370q-326 0 -453 -301h-70v352h80q29 -41 64 -41t93 20q150 50 306 50q346 0 551 -256q168 -209 168 -480t-162 -474q-208 -256 -540 -256t-519 247q-71 97 -111 225t-40 240v33h1165
q-6 231 -94 383q-61 106 -171 182t-267 76z" />
    <glyph glyph-name="florin" unicode="&#x192;" 
d="M295 -170q45 0 61 70q10 40 14 120t11 105l123 600h-180l12 63q113 6 158 35t67 87q23 58 65 212t79 205q61 86 147 86q47 -1 77 -25q29 -24 29 -61t-18 -67t-50 -29q-32 0 -51 19t-20 46l2 21v8q0 16 -18 16q-57 0 -78 -205q-9 -89 -41 -251l-18 -97h155l-14 -63h-158
l-82 -385q-90 -428 -180 -520q-57 -62 -121 -62t-96 29q-31 29 -31 70t22 63q21 22 51 21t49 -17t20 -47l-7 -31q0 -16 21 -16z" />
    <glyph glyph-name="uni01CF" unicode="&#x1cf;" horiz-adv-x="630" 
d="M309 1645l230 161h82l-259 -297h-106l-258 297h82zM524 1434v-70q-121 -8 -121 -166v-962q0 -152 121 -166v-70h-418v70q121 14 121 166v962q0 156 -121 166v70h418z" />
    <glyph glyph-name="uni01D0" unicode="&#x1d0;" horiz-adv-x="440" 
d="M190 1155l213 186h64l-225 -311h-103l-225 311h63zM53 788h242v-581q0 -68 18 -106t74 -42v-59h-334v59q53 6 72 41q18 35 18 107v373q0 72 -15 104t-75 45v59z" />
    <glyph glyph-name="uni01DD" unicode="&#x1dd;" horiz-adv-x="770" 
d="M373 47q90 0 139 119q35 86 31 172h-332q-4 -104 34 -198t128 -93zM543 401v33q0 305 -181 305q-84 0 -139 -52t-78 -114h-59v224h31q25 -25 43 -25t89 16t136 17q145 0 239 -108t93 -296q0 -131 -51 -231q-96 -186 -292 -186t-278 168q-49 106 -43 249h490z" />
    <glyph glyph-name="Gcaron" unicode="&#x1e6;" horiz-adv-x="1472" 
d="M817 1645l230 161h81l-258 -297h-106l-258 297h82zM1300 1395v-316h-69q-33 81 -88 141t-105 88q-110 62 -262 62q-203 0 -347 -157t-144 -468q0 -398 215 -576q45 -38 92 -60q94 -45 254 -45t259 77q99 78 112 211q8 92 -31 130t-90 40v70h297v-498q-191 -66 -307 -88
t-240 -22q-378 0 -572 196t-194 570q0 296 217 513q193 187 477 187q172 0 311 -55q61 -25 97 -25t53 25h65z" />
    <glyph glyph-name="gcaron" unicode="&#x1e7;" horiz-adv-x="890" 
d="M408 1155l213 186h63l-225 -311h-103l-225 311h64zM410 741q-84 0 -118 -51t-34 -162q0 -112 39 -156t113 -44q109 0 136 96q13 45 13 128q-1 83 -33 136t-116 53zM717 -104q0 157 -291 157q-156 1 -342 -69l-31 69l160 262q-127 72 -127 209t94 209t238 72t241 -90
q25 86 107 86q45 0 72 -27q26 -26 26 -64t-18 -56t-45 -19q-49 0 -49 47q0 16 8 28t8 19q0 16 -18 16t-32 -19q-14 -18 -16 -38q0 -20 14 -62t15 -94q0 -116 -87 -192t-230 -76q-72 0 -135 23l-95 -150l6 -8q161 66 274 66q112 0 195 -39q162 -74 162 -236q0 -98 -79 -168
q-100 -92 -271 -92q-170 0 -256 60t-86 135q1 37 21 67t63 29t63 -21t20 -47t-18 -51q-19 -24 -20 -39q0 -33 56 -51t152 -18t174 44q77 44 77 128z" />
    <glyph glyph-name="Scommaaccent" unicode="&#x218;" horiz-adv-x="1107" 
d="M471 -236q0 52 31 82t85 31q54 0 91 -35q37 -34 37 -114q1 -80 -59 -166t-144 -137l-41 43q121 100 137 186l-4 6q-53 -4 -93 24t-40 80zM530 1370q-96 0 -176 -59t-80 -161t69 -169q69 -66 212 -106t217 -72q150 -68 210 -164t60 -219q0 -166 -126 -301t-308 -135
q-106 0 -220 34t-138 33q-72 0 -88 -51h-68v442h70q47 -164 182 -271t287 -108q98 0 168 66q96 86 96 211q0 170 -183 267q-17 9 -48 21t-51 19q-20 8 -72 21l-113 34q-113 35 -204 129t-91 253q0 158 118 262t296 104q125 0 254 -74q37 -22 59 -22t51 28h52v-323h-70
q-119 311 -365 311z" />
    <glyph glyph-name="scommaaccent" unicode="&#x219;" horiz-adv-x="698" 
d="M231 -226q0 52 31 78t74 25q115 0 117 -129q-1 -82 -55 -154t-130 -122l-37 39q70 57 94 93t33 83q-49 -13 -88 11t-39 76zM344 47q72 0 115 40t43 87t-26 76t-48 39t-48 19l-66 22q-98 31 -144 63q-90 63 -90 172t72 175t190 65q118 0 184 -46q66 -45 66 -107t-65 -62
t-81 86q0 28 -30 46q-30 19 -84 19q-54 1 -98 -31t-44 -86t20 -74q20 -18 30 -28q12 -10 39 -19t41 -15t48 -13q36 -8 50 -12q227 -63 227 -232q0 -109 -88 -179t-223 -68q-135 0 -208 58t-73 124q0 34 22 60q23 26 61 26t58 -20t19 -46l-8 -59q0 -29 33 -55q34 -26 106 -25
z" />
    <glyph glyph-name="uni021A" unicode="&#x21a;" horiz-adv-x="1392" 
d="M573 -236q0 52 31 82t85 31q54 0 91 -35q37 -34 37 -114q1 -80 -59 -166t-144 -137l-41 43q121 100 138 186l-4 6q-53 -4 -94 24q-40 28 -40 80zM27 1174v276l465 -16h409l465 16v-276h-70q-2 66 -53 122t-170 58h-289v-1118q0 -76 26 -118t95 -48v-70h-420v70
q70 8 97 49t26 117v1118h-291q-184 0 -221 -180h-69z" />
    <glyph glyph-name="uni021B" unicode="&#x21b;" horiz-adv-x="552" 
d="M188 -226q0 52 31 78t74 25q115 0 117 -129q0 -82 -54 -154t-131 -122l-37 39q70 57 94 93t33 83q-49 -13 -88 11t-39 76zM41 788h90v179l150 82v-261h170v-63h-170v-526q0 -115 98 -115q57 0 113 43l34 -41q-92 -102 -215 -102q-86 0 -133 47t-47 162v532h-90v63z" />
    <glyph glyph-name="uni0259" unicode="&#x259;" horiz-adv-x="770" 
d="M373 47q90 0 139 119q35 86 31 172h-332q-4 -104 34 -198t128 -93zM543 401v33q0 305 -181 305q-84 0 -139 -52t-78 -114h-59v224h31q25 -25 43 -25t89 16t136 17q145 0 239 -108t93 -296q0 -131 -51 -231q-96 -186 -292 -186t-278 168q-49 106 -43 249h490z" />
    <glyph glyph-name="afii57929" unicode="&#x2bc;" horiz-adv-x="512" 
d="M147 1269q0 52 31 78t74 25q115 0 117 -129q-1 -81 -55 -153t-130 -123l-37 39q70 57 94 93t33 83q-49 -12 -88 12t-39 75z" />
    <glyph glyph-name="circumflex" unicode="&#x2c6;" horiz-adv-x="1372" 
d="M686 1217l-213 -187h-63l225 311h102l226 -311h-64z" />
    <glyph glyph-name="caron" unicode="&#x2c7;" horiz-adv-x="1372" 
d="M686 1155l213 186h64l-226 -311h-102l-225 311h63z" />
    <glyph glyph-name="uni02C9" unicode="&#x2c9;" horiz-adv-x="1388" 
d="M410 1139h569v-109h-569v109z" />
    <glyph glyph-name="breve" unicode="&#x2d8;" horiz-adv-x="1368" 
d="M683 1135q77 0 138 47t70 121h67q-6 -104 -70 -189q-65 -84 -198 -84q-76 0 -132 28q-131 66 -148 245h67q5 -68 67 -118t139 -50z" />
    <glyph glyph-name="dotaccent" unicode="&#x2d9;" horiz-adv-x="1015" 
d="M410 1155q0 41 28 70q29 29 70 29t70 -30q28 -28 28 -69t-28 -70t-70 -29q-41 0 -70 29q-28 29 -28 70z" />
    <glyph glyph-name="ring" unicode="&#x2da;" horiz-adv-x="1179" 
d="M473 1209q0 -48 36 -82q36 -33 82 -33t81 34t35 81q0 46 -34 82t-82 36t-83 -35t-35 -83zM410 1213q0 81 56 129t124 48t124 -48t56 -129t-51 -132t-129 -51t-129 51t-51 132z" />
    <glyph glyph-name="ogonek" unicode="&#x2db;" horiz-adv-x="401" 
d="M199 -307q-66 0 -102 37t-36 79q0 77 66 124q40 30 121 73h65q-49 -27 -100 -73t-49 -95q4 -72 80 -72t143 52l19 -27q-88 -98 -207 -98z" />
    <glyph glyph-name="tilde" unicode="&#x2dc;" horiz-adv-x="1460" 
d="M836 1030q-50 0 -142 26t-121 27q-66 0 -112 -53h-51q72 178 208 178q44 0 144 -28t130 -27q30 -1 60 17t43 51h56q-25 -79 -78 -135t-137 -56z" />
    <glyph glyph-name="hungarumlaut" unicode="&#x2dd;" horiz-adv-x="915" 
d="M722 1380q22 0 36 -14q32 -33 20 -67t-94 -97l-231 -172l-31 33l221 272q2 3 8 11q7 8 11 12t12 10t17 9t31 3zM435 1380q22 0 36 -14q33 -33 21 -67t-95 -97l-231 -172l-31 33l221 272q2 3 8 11t11 12q4 4 12 10t17 9t31 3z" />
    <glyph glyph-name="acutecomb" unicode="&#x301;" horiz-adv-x="4" 
d="M-364 1370q41 0 61 -22t20 -56q0 -35 -25 -57t-71 -49l-250 -156l-26 33l215 266q35 41 76 41z" />
    <glyph glyph-name="uni0313" unicode="&#x313;" horiz-adv-x="530" 
d="M259 1450q54 0 91 -35t37 -115q1 -80 -59 -166t-144 -137l-41 43q121 100 138 187l-5 6q-55 -5 -96 23t-37 80t33 83t83 31z" />
    <glyph glyph-name="uni0315" unicode="&#x315;" horiz-adv-x="530" 
d="M259 1450q54 0 91 -35t37 -115q1 -80 -59 -166t-144 -137l-41 43q121 100 138 187l-5 6q-55 -5 -96 23t-37 80t33 83t83 31z" />
    <glyph glyph-name="uni0326" unicode="&#x326;" horiz-adv-x="530" 
d="M259 -129q54 0 91 -35q37 -34 37 -114q1 -80 -59 -166t-144 -138l-41 43q121 100 138 187l-5 6q-55 -6 -96 22t-37 81q4 52 33 83t83 31z" />
    <glyph glyph-name="uni037E" unicode="&#x37e;" horiz-adv-x="530" 
d="M259 201q54 0 91 -35t37 -115q1 -80 -59 -166t-144 -137l-41 43q121 100 138 186l-5 7q-18 -2 -34 0q-98 10 -99 110q0 45 31 76t85 31zM152 700q0 45 32 78q33 33 78 33t78 -33t33 -78q0 -46 -33 -78t-78 -32q-46 0 -78 32t-32 78z" />
    <glyph glyph-name="uni0394" unicode="&#x394;" horiz-adv-x="1282" 
d="M158 78h823l-426 989zM1264 0h-1246l578 1434h27z" />
    <glyph glyph-name="uni03A9" unicode="&#x3a9;" horiz-adv-x="1552" 
d="M322 135h225v70q-203 67 -322 231t-119 365q0 252 161 444q79 93 211 149t299 56t298 -55t210 -149q161 -191 161 -445q0 -201 -118 -363t-322 -233v-70h223q96 0 139 40t74 165h69l-43 -340h-542v238q315 139 315 550q0 254 -117 418t-348 164t-348 -164t-117 -418
q0 -412 316 -550v-238h-543l-43 340h70q25 -129 75 -167t136 -38z" />
    <glyph glyph-name="uni03BC" unicode="&#x3bc;" horiz-adv-x="833" 
d="M698 788v-586q0 -60 16 -90t27 -37q32 -19 78 3l15 -23q-55 -70 -132 -69q-141 0 -137 194q-83 -196 -227 -196t-201 135q0 -98 36 -219t36 -167q0 -91 -43 -113q-31 -17 -73 -17q-41 1 -67 25t-26 94t32 206q32 135 34 351v509h149v-428q0 -135 41 -196q41 -62 89 -62
t75 19q55 33 92 122t37 216v329h149z" />
    <glyph glyph-name="pi" unicode="&#x3c0;" horiz-adv-x="974" 
d="M797 684v-479q0 -152 59 -152q35 0 57 41l9 12l32 -18q-38 -59 -68 -84q-30 -24 -100 -24t-104 45q-35 45 -35 159v500h-307v-465q0 -150 -14 -188q-25 -55 -70 -55t-63 22q-19 24 -19 58t39 98t51 145q12 82 12 266v119h-20q-63 0 -104 -40t-41 -109h-60v16
q0 123 53 176q55 61 183 61h667l-36 -104h-121z" />
    <glyph glyph-name="afii10023" unicode="&#x401;" horiz-adv-x="1341" 
d="M801 1667q0 55 40 95t93 40t94 -36t41 -99t-41 -99t-94 -36t-93 40t-40 95zM297 1667q0 55 40 95t94 40t94 -40t40 -95t-40 -95t-94 -40t-94 40t-40 95zM106 1434h807q101 0 143 9t113 7v-272h-69q-29 106 -108 141t-212 35h-374v-588h256q109 0 141 46q18 26 26 69h68
v-310h-68q-18 63 -37 84q-27 31 -80 31h-306v-606h419q178 0 281 49q102 49 113 178h69l-22 -307h-1160v70q123 14 123 166v962q0 80 -25 122q-26 42 -98 44v70z" />
    <glyph glyph-name="afii10051" unicode="&#x402;" horiz-adv-x="1564" 
d="M1280 406q0 196 -79 274t-201 78t-295 -68v-690h-297v70q68 8 94 50t26 116v1118h-209q-193 0 -223 -183h-69v279l338 -14h616l307 14v-279h-69q-15 83 -63 133t-161 50h-290v-580q164 76 296 76q217 0 351 -109t133 -305q0 -196 -114 -324t-290 -128q-143 0 -204 46
t-61 98t26 85q28 33 76 33t71 -24t23 -50l-6 -57q0 -51 82 -51t137 73t55 269z" />
    <glyph glyph-name="afii10052" unicode="&#x403;" horiz-adv-x="1110" 
d="M934 1732q0 -48 -51 -79q-18 -10 -76 -33l-293 -111l-22 43l247 205q89 76 159 41q36 -18 36 -66zM106 1434h764q58 0 100 6t115 10v-348h-69q-35 147 -144 213q-78 49 -229 49h-240v-1128q0 -162 121 -166v-70h-418v70q121 12 121 166v962q0 166 -121 166v70z" />
    <glyph glyph-name="afii10053" unicode="&#x404;" horiz-adv-x="1411" 
d="M80 709q0 321 190 531t486 210q123 0 271 -37q149 -37 165 -37t45 25h31v-316h-62q-37 93 -98 157t-151 96t-165 32q-334 0 -465 -368q-40 -112 -44 -244h10q115 141 239 141q92 0 156 -31t105 -59q100 -57 144 -57t69 17t59 62l55 -36q-115 -188 -286 -189
q-70 0 -198 68t-199 67q-70 0 -108 -44q-38 -43 -38 -109t40 -180t113 -195q133 -150 330 -150q132 0 276 59t230 165l51 -37q-236 -269 -561 -266q-289 0 -459 155q-119 109 -175 259t-56 311z" />
    <glyph glyph-name="afii10054" unicode="&#x405;" horiz-adv-x="1107" 
d="M530 1370q-96 0 -176 -59t-80 -161t69 -169q69 -66 212 -106t217 -72q150 -68 210 -164t60 -219q0 -166 -126 -301t-308 -135q-106 0 -220 34t-138 33q-72 0 -88 -51h-68v442h70q47 -164 182 -271t287 -108q98 0 168 66q96 86 96 211q0 170 -183 267q-17 9 -48 21t-51 19
q-20 8 -72 21l-113 34q-113 35 -204 129t-91 253q0 158 118 262t296 104q125 0 254 -74q37 -22 59 -22t51 28h52v-323h-70q-119 311 -365 311z" />
    <glyph glyph-name="afii10055" unicode="&#x406;" horiz-adv-x="630" 
d="M524 1434v-70q-121 -8 -121 -166v-962q0 -152 121 -166v-70h-418v70q121 14 121 166v962q0 156 -121 166v70h418z" />
    <glyph glyph-name="afii10056" unicode="&#x407;" horiz-adv-x="632" 
d="M491 1749q50 0 86 -36q35 -36 35 -86t-36 -86t-85 -36q-50 0 -85 36t-35 85t35 86t85 37zM142 1749q50 0 85 -37t35 -86t-35 -85t-85 -36t-86 36t-36 86t36 86t86 36zM524 1434v-70q-121 -4 -121 -166v-962q0 -156 123 -166v-70h-422v70q123 10 123 166v962
q0 156 -123 166v70h420z" />
    <glyph glyph-name="afii10057" unicode="&#x408;" horiz-adv-x="716" 
d="M168 -240q145 0 145 357v1081q0 156 -123 166v70h420v-70q-121 -14 -121 -166v-1003q1 -256 -113 -386t-251 -131q-82 0 -130 41t-48 87q1 46 25 76q24 28 59 28t61 -18t25 -56l-4 -37q0 -39 55 -39z" />
    <glyph glyph-name="afii10058" unicode="&#x409;" horiz-adv-x="1994" 
d="M1432 90q143 0 221 84t78 236q0 92 -31 160t-70 101q-39 34 -100 55t-172 23q-111 1 -203 -16l211 -643h66zM565 1434h357l200 -613q135 18 291 19q262 0 388 -118t126 -302q0 -142 -77 -263q-44 -71 -142 -114t-240 -43h-268l-405 1255h-7q-14 -47 -22 -89t-23 -95
q-119 -479 -199 -695t-167 -304q-88 -88 -203 -88q-63 0 -105 30t-42 90t49 89t143 -5q23 -18 66 -11t84 65q68 90 195 504t126 528q0 43 -25 63q-26 20 -100 27v70z" />
    <glyph glyph-name="afii10059" unicode="&#x40a;" horiz-adv-x="2267" 
d="M1407 80h209q86 0 117 2t87 18t89 50t59 100t27 152q0 86 -14 140q-33 137 -165 183q-79 27 -198 27h-211v-672zM1110 1434h420v-70q-72 -6 -98 -48t-25 -118v-367h262q530 0 531 -411q0 -202 -94 -292q-46 -44 -93 -72q-94 -56 -334 -56h-569v70q68 8 94 50t27 116v454
h-825v-454q0 -76 26 -118t94 -48v-70h-420v70q123 12 123 166v962q0 154 -123 166v70h420v-70q-121 -10 -120 -166v-428h825v428q0 74 -27 116t-94 50v70z" />
    <glyph glyph-name="afii10060" unicode="&#x40b;" horiz-adv-x="1599" 
d="M1288 1171h-69q-15 81 -63 131t-161 50h-290v-537h8q145 141 338 141q96 0 166 -24q71 -24 105 -59q82 -80 81 -234v-403q0 -80 16 -116t74 -50v-70h-356v70q55 4 72 44t18 122v428q0 108 -44 156t-147 48t-191 -50t-140 -118v-464q-1 -76 25 -118t95 -48v-70h-417v70
q70 10 96 50t24 116v1116h-209q-193 0 -223 -181h-69v279l434 -18h432l395 18v-279z" />
    <glyph glyph-name="afii10061" unicode="&#x40c;" horiz-adv-x="1441" 
d="M1057 1732q0 -48 -51 -79q-18 -10 -76 -33l-293 -111l-23 43l248 205q89 76 159 41q36 -18 36 -66zM106 1434h418v-70q-121 -14 -121 -166v-309q214 -16 321 113q34 42 47 68t39 82q54 118 109 191q81 107 211 107q70 0 125 -23v-317h-69q-14 121 -105 121q-47 1 -75 -27
q-34 -34 -86 -111q-53 -76 -131 -142q-77 -66 -144 -85v-12q176 -23 271 -118t159 -253q76 -228 146 -305t121 -87q51 -11 100 -5v-92q-53 -12 -140 -9t-156 31q-117 48 -206 234q-36 74 -68 158t-53 135t-62 110q-42 59 -77 89q-78 67 -242 67h-35v-573q0 -80 27 -121
t94 -45v-70h-418v70q121 12 121 166v962q0 152 -121 166v70z" />
    <glyph glyph-name="afii10062" unicode="&#x40e;" horiz-adv-x="1290" 
d="M1090 1794q0 -124 -132 -194t-285 -70t-278 73t-125 191q0 94 67 143t131 49t100 -24q36 -25 36 -67q0 -43 -26 -65t-57 -22t-67 16t-55 17q-47 0 -47 -47q0 -55 92 -95t241 -40t236 42t87 91t-47 49q-19 0 -55 -16q-36 -17 -68 -17t-57 23t-25 65t36 66q36 25 100 25
q64 1 132 -49q66 -50 66 -144zM420 1364q-84 -4 -84 -71q0 -30 47 -113l346 -617h8l273 623q51 108 -9 156q-31 26 -73 22v70h362v-70q-76 -16 -119 -58t-75 -120l-293 -678q-10 -23 -36 -82t-46 -111t-46 -93q-69 -113 -95 -136q-71 -63 -102 -74q-75 -28 -155 -28
q-79 0 -162 42t-83 134q0 51 30 79q30 27 70 27t74 -30q33 -30 33 -72l-2 -47q0 -23 19 -43q20 -20 76 -20t130 62q74 64 135 232l-483 858q-33 59 -49 84q-45 70 -111 74v70h420v-70z" />
    <glyph glyph-name="afii10145" unicode="&#x40f;" horiz-adv-x="1632" 
d="M1108 1434h418v-70q-121 -12 -121 -166v-962q0 -154 121 -166v-70h-662q35 -193 35 -303q0 -147 -82 -148q-82 0 -82 148q0 111 35 303h-664v70q121 10 121 166v962q0 156 -121 166v70h418v-70q-121 -10 -121 -166v-1118h826v1118q0 152 -121 166v70z" />
    <glyph glyph-name="afii10017" unicode="&#x410;" horiz-adv-x="1482" 
d="M1018 473l-303 674h-23l-313 -674h639zM1483 0h-402v70q47 8 61 24q13 16 13 44t-18 71l-82 184h-713l-80 -174q-25 -53 -24 -72q0 -61 79 -77v-70h-317v70q55 4 97 51t65 94l461 995q18 39 18 52q0 31 -49 30v70q35 8 78 35t65 53h41l553 -1229q63 -147 154 -151v-70z
" />
    <glyph glyph-name="afii10018" unicode="&#x411;" horiz-adv-x="1314" 
d="M406 80h217q71 0 123 10t119 42t105 109t38 193q0 168 -92 250t-242 82h-268v-686zM846 1434q25 0 229 16v-315h-69q-39 145 -149 187q-88 32 -198 32h-253v-508h282q138 0 240 -34t154 -80t91 -122t39 -172q0 -172 -118 -305t-330 -133h-658v70q70 8 97 49t26 117v962
q0 76 -26 117q-27 41 -97 49v70h740z" />
    <glyph glyph-name="afii10019" unicode="&#x412;" horiz-adv-x="1310" 
d="M406 80h274q154 0 254 77q39 30 65 87q27 57 27 135q0 153 -98 231t-264 78h-258v-608zM406 768h231q252 0 309 193q12 41 12 97q0 129 -78 213q-78 83 -270 83h-204v-586zM1231 379q0 -111 -51 -191t-130 -118q-149 -70 -284 -70h-660v70q70 2 97 44t26 122v962
q0 162 -123 166v70h558q281 0 394 -111q54 -53 80 -123t25 -122q0 -50 -16 -103q-59 -176 -260 -227v-13q101 -14 170 -54q67 -40 99 -81t54 -103t21 -118z" />
    <glyph glyph-name="afii10020" unicode="&#x413;" horiz-adv-x="1110" 
d="M106 1434h764q58 0 100 6t115 10v-348h-69q-35 147 -144 213q-78 49 -229 49h-240v-1128q0 -162 121 -166v-70h-418v70q121 12 121 166v962q0 166 -121 166v70z" />
    <glyph glyph-name="afii10021" unicode="&#x414;" horiz-adv-x="1456" 
d="M1028 80v1255h-41q-77 0 -110 -60t-60 -144q-134 -431 -348 -804q-39 -69 -69 -115t-29 -78q0 -32 25 -43q26 -11 96 -11h536zM1442 27q0 -45 -47 -121t-99 -133q-98 -113 -129 -113q-45 0 -45 25t48 95t49 136q0 84 -136 84h-733q-98 0 -118 -48q-11 -26 -11 -61t29 -90
t40 -68t11 -42t-28 -29q-27 0 -75 46t-79 89l-21 25q-64 89 -74 125q-27 100 7 129q16 14 65 17t89 19t90 79q49 61 141 237t210 444t117 371q0 121 -141 121h-24v70h731v-70q-66 -12 -85 -51t-20 -117v-1003q0 -31 5 -51t28 -38q23 -16 63 -16l72 4q70 0 70 -65z" />
    <glyph glyph-name="afii10022" unicode="&#x415;" horiz-adv-x="1341" 
d="M106 1434h807q101 0 143 9t113 7v-272h-69q-29 106 -108 141t-212 35h-374v-588h256q109 0 141 46q18 26 26 69h68v-310h-68q-18 63 -37 84q-27 31 -80 31h-306v-606h419q178 0 281 49q102 49 113 178h69l-22 -307h-1160v70q123 14 123 166v962q0 80 -25 122
q-26 42 -98 44v70z" />
    <glyph glyph-name="afii10024" unicode="&#x416;" horiz-adv-x="1937" 
d="M758 1434h422v-70q-68 -2 -96 -43t-27 -123v-213q90 -4 143 13q53 16 98 66t101 164q55 114 69 134q66 88 158 88q59 0 107 -27v-286h-70q-6 59 -29 85t-47 25q-47 0 -104 -90q-104 -164 -201 -209v-12q170 -51 291 -199q169 -208 193 -486q9 -100 38 -137t80 -44v-70
h-438v70q106 6 106 174q0 264 -134 470t-361 183v-661q1 -86 25 -121t98 -45v-70h-422v70q74 10 98 45t25 121v661q-227 23 -361 -183t-135 -470q0 -168 107 -174v-70h-439v70q76 11 101 87q13 44 16 86q25 284 195 494q121 147 290 199v12q-93 41 -198 205q-59 94 -107 94
q-26 1 -48 -25t-28 -85h-69v286q47 27 106 27q92 0 158 -88q13 -20 69 -134t101 -163t98 -67t144 -13v213q0 82 -28 123t-95 43v70z" />
    <glyph glyph-name="afii10025" unicode="&#x417;" horiz-adv-x="1390" 
d="M719 809q-107 0 -154 -32t-24 -81q6 -12 37 -26t81 -15q163 1 263 101q-96 53 -203 53zM262 1077v334h68q25 -45 71 -45q45 0 163 42t243 42q231 0 356 -109t125 -266q0 -87 -39 -151t-112 -127v-13q96 -55 155 -150t60 -214q0 -193 -166 -315q-166 -121 -406 -121
t-442 129q-106 69 -150 69t-112 -86l-43 51q70 97 124 147t130 50t233 -123q64 -51 100 -77t102 -54t126 -27q115 1 207 99t92 263t-129 271q-178 -106 -361 -106q-104 0 -155 42t-51 91q0 94 124 137q69 23 185 23t237 -43q105 96 105 237t-103 223q-86 70 -194 70
q-358 0 -486 -293h-57z" />
    <glyph glyph-name="afii10026" unicode="&#x418;" horiz-adv-x="1636" 
d="M106 1434h420v-70q-70 -6 -96 -48t-24 -118v-780h6l821 756v65q0 49 -36 85t-87 40v70h420v-70q-70 -6 -96 -48t-25 -118v-962q0 -78 25 -118t96 -48v-70h-420v70q123 10 123 166v811h-6l-821 -758v-53q0 -154 120 -166v-70h-420v70q123 12 123 166v962q0 154 -123 166
v70z" />
    <glyph glyph-name="afii10027" unicode="&#x419;" horiz-adv-x="1636" 
d="M819 1530q-157 0 -283 73t-126 191q0 94 66 143q68 49 132 49t100 -24q36 -25 36 -67q0 -43 -26 -65t-58 -22t-68 16t-53 17q-47 0 -47 -49t86 -91t242 -42t241 42q86 42 86 91t-47 49q-18 0 -54 -16q-80 -36 -125 6q-26 23 -26 65t36 66q37 25 101 25q64 1 130 -49
t67 -144q0 -120 -126 -192t-284 -72zM106 1434h420v-70q-70 -6 -96 -48t-24 -118v-780h6l821 756v65q0 49 -36 85t-87 40v70h420v-70q-70 -6 -96 -48t-25 -118v-962q0 -78 25 -118t96 -48v-70h-420v70q123 10 123 166v811h-6l-821 -758v-53q0 -154 120 -166v-70h-420v70
q123 12 123 166v962q0 154 -123 166v70z" />
    <glyph glyph-name="afii10028" unicode="&#x41a;" horiz-adv-x="1441" 
d="M106 1434h418v-70q-121 -14 -121 -166v-309q214 -16 321 113q34 42 47 68t39 82q54 118 109 191q81 107 211 107q70 0 125 -23v-317h-69q-14 121 -105 121q-47 1 -75 -27q-34 -34 -86 -111q-53 -76 -131 -142q-77 -66 -144 -85v-12q176 -23 271 -118t159 -253
q76 -228 146 -305t121 -87q51 -11 100 -5v-92q-53 -12 -140 -9t-156 31q-117 48 -206 234q-36 74 -68 158t-53 135t-62 110q-42 59 -77 89q-78 67 -242 67h-35v-573q0 -80 27 -121t94 -45v-70h-418v70q121 12 121 166v962q0 152 -121 166v70z" />
    <glyph glyph-name="afii10029" unicode="&#x41b;" horiz-adv-x="1499" 
d="M565 1450h357l397 -1221q25 -75 47 -108q37 -55 117 -51v-70h-283l-405 1255h-7q-25 -82 -77 -316t-167 -556q-65 -179 -125 -258t-96 -98q-157 -81 -254 -14q-42 30 -42 83t29 82q30 29 73 29t90 -19q23 -18 66 -11t84 65q68 90 195 504t126 528q0 51 -26 77
q-27 26 -99 29v70z" />
    <glyph glyph-name="afii10030" unicode="&#x41c;" horiz-adv-x="1896" 
d="M1790 1434v-70q-121 -12 -121 -166v-962q0 -158 121 -166v-70h-418v70q121 8 121 166v1120h-6l-567 -1372h-68l-539 1370h-6v-1123q0 -154 123 -161v-70h-324v70q121 12 121 161v1010q0 59 -34 90q-35 31 -87 33v70h371l459 -1166h8l479 1166h367z" />
    <glyph glyph-name="afii10031" unicode="&#x41d;" horiz-adv-x="1634" 
d="M524 1434v-70q-121 -10 -121 -166v-428h826v428q0 80 -28 119t-93 47v70h420v-70q-123 -10 -123 -166v-962q0 -154 123 -166v-70h-420v70q66 8 94 47t27 119v454h-826v-454q0 -76 26 -118t95 -48v-70h-418v70q70 6 96 48t25 118v962q0 76 -25 118q-26 42 -96 48v70h418z
" />
    <glyph glyph-name="afii10032" unicode="&#x41e;" horiz-adv-x="1613" 
d="M807 1370q-221 0 -372 -175t-151 -478t152 -478q150 -175 371 -175t372 174q151 176 150 479q0 303 -150 478q-151 175 -372 175zM807 1450q170 0 312 -66q258 -120 367 -408q48 -128 48 -259t-48 -259q-109 -292 -367 -409q-142 -65 -312 -65t-312 66q-259 119 -367 408
q-48 128 -48 259q0 270 184 494q88 107 230 173t313 66z" />
    <glyph glyph-name="afii10033" unicode="&#x41f;" horiz-adv-x="1632" 
d="M106 1434h1420v-70q-121 -12 -121 -166v-962q0 -76 26 -118t95 -48v-70h-420v70q123 10 123 166v1118h-826v-1118q0 -156 121 -166v-70h-418v70q121 10 121 166v962q0 156 -121 166v70z" />
    <glyph glyph-name="afii10034" unicode="&#x420;" horiz-adv-x="1339" 
d="M406 1147v-467q106 -158 307 -158q91 0 157 28t101 68q84 95 84 326q0 60 -3 104q-2 44 -22 110t-53 107t-101 73t-159 32q-180 0 -273 -133q-38 -55 -38 -90zM106 0v70q123 4 123 180v723q0 156 37 233q64 132 204 188t276 56t256 -64q71 -37 127 -91q55 -54 93 -145
t38 -206q0 -198 -142 -350t-401 -152q-182 0 -305 103h-6v-289q0 -96 26 -141t103 -45v-70h-429z" />
    <glyph glyph-name="afii10035" unicode="&#x421;" horiz-adv-x="1404" 
d="M1270 1085h-70q-55 143 -174 214t-252 71q-193 0 -341 -173t-148 -484t145 -481t383 -169q129 1 257 63t212 161l43 -47q-227 -256 -541 -256t-509 196t-195 524q0 326 190 536t488 210q122 0 272 -37t168 -37t41 25h31v-316z" />
    <glyph glyph-name="afii10036" unicode="&#x422;" horiz-adv-x="1392" 
d="M27 1174v276l465 -16h409l465 16v-276h-70q-2 66 -53 122t-170 58h-289v-1118q0 -76 26 -118t95 -48v-70h-420v70q70 8 97 49t26 117v1118h-291q-184 0 -221 -180h-69z" />
    <glyph glyph-name="afii10037" unicode="&#x423;" horiz-adv-x="1290" 
d="M420 1364q-84 -4 -84 -71q0 -30 47 -113l346 -617h8l273 623q51 108 -9 156q-31 26 -73 22v70h362v-70q-76 -16 -119 -58t-75 -120l-293 -678q-10 -23 -36 -82t-46 -111t-46 -93q-69 -113 -95 -136q-71 -63 -102 -74q-75 -28 -155 -28q-79 0 -162 42t-83 134q0 51 30 79
q30 27 70 27t74 -30q33 -30 33 -72l-2 -47q0 -23 19 -43q20 -20 76 -20t130 62q74 64 135 232l-483 858q-33 59 -49 84q-45 70 -111 74v70h420v-70z" />
    <glyph glyph-name="afii10038" unicode="&#x424;" horiz-adv-x="1880" 
d="M852 686v121q0 199 -85 292t-193 93t-190 -88q-101 -108 -100 -407q1 -300 138 -405q65 -50 143 -50q117 0 202 106t85 338zM1028 807v-121q0 -144 33 -242t85 -138q83 -64 175 -64t173 83q46 46 74 143t27 234q0 489 -286 490q-109 0 -195 -92t-86 -293zM727 1434h426
v-70q-125 -10 -125 -166v-94h8q48 84 138 134t188 50q190 0 314 -174t124 -425t-136 -397t-322 -146t-308 200h-6v-110q0 -156 125 -166v-70h-426v70q125 10 125 166v110h-6q-122 -201 -308 -201q-186 1 -322 147t-136 397t124 425t314 174q98 0 188 -50t138 -134h8v94
q0 156 -125 166v70z" />
    <glyph glyph-name="afii10039" unicode="&#x425;" horiz-adv-x="1617" 
d="M1114 70q47 0 47 52q0 26 -41 79l-348 446l-403 -457q-35 -39 -35 -71q0 -49 63 -49h15v-70h-385v70q121 10 221 120l473 525l-348 446q-158 203 -260 203h-27v70h481v-70q-55 0 -55 -33q0 -53 20 -78l318 -409l340 391q41 47 41 71q1 24 -17 42q-18 16 -49 16v70h377
v-70q-74 -4 -124 -35t-113 -100l-404 -449l412 -530q125 -160 278 -180v-70h-497v70h20z" />
    <glyph glyph-name="afii10040" unicode="&#x426;" horiz-adv-x="1646" 
d="M106 1434h420v-70q-121 -18 -120 -166v-1118h827v1118q0 74 -27 114t-94 52v70h418v-70q-121 -12 -121 -166v-1035q0 -75 64 -124q31 -29 49 -51q53 -63 53 -156q0 -94 -80 -174t-248 -80q-106 0 -311 51q-70 21 -180 63q-220 86 -340 85q-121 0 -133 -64q35 8 61 -12
t25 -54q-1 -35 -21 -55t-53 -20t-57 29t-25 80q0 86 85 144q84 58 234 58t439 -96q56 -24 183 -62t200 -38q74 0 112 46t39 99q0 168 -192 168h-1207v70q72 6 98 48t25 118v962q0 76 -25 118q-26 42 -98 48v70z" />
    <glyph glyph-name="afii10041" unicode="&#x427;" horiz-adv-x="1423" 
d="M27 1434h417v-70q-121 -12 -120 -166v-276q0 -193 146 -246q67 -25 165 -25q182 0 383 99v448q0 74 -26 117t-95 49v70h420v-70q-123 -12 -123 -166v-962q0 -156 123 -166v-70h-420v70q121 14 121 166v417q-225 -90 -396 -90q-170 0 -266 33t-138 93q-42 61 -56 117
t-15 132v260q0 76 -25 118q-26 42 -95 48v70z" />
    <glyph glyph-name="afii10042" unicode="&#x428;" horiz-adv-x="2273" 
d="M106 0v70q121 12 121 166v962q0 154 -121 166v70h418v-70q-121 -12 -121 -166v-1118h646v1118q0 76 -26 118t-97 48v70h420v-70q-72 -8 -97 -48t-24 -118v-1118h645v1118q0 156 -123 166v70h420v-70q-121 -12 -121 -166v-962q0 -76 26 -118t95 -48v-70h-2061z" />
    <glyph glyph-name="afii10043" unicode="&#x429;" horiz-adv-x="2310" 
d="M2167 1434v-70q-121 -12 -121 -166v-973q0 -98 30 -143q7 -12 39 -38t39 -34q84 -72 84 -178t-108 -180t-354 -74t-629 119q-264 80 -376 80t-124 -64q33 8 60 -12t27 -54q0 -35 -21 -55q-20 -20 -52 -20t-58 25q-25 25 -25 81t31 100q32 42 72 61q97 46 234 46
q203 0 541 -100t488 -100q47 0 92 8t90 44t45 95q0 168 -268 168h-1797v70q121 12 121 166v962q0 154 -121 166v70h418v-70q-121 -12 -121 -166v-1118h646v1118q0 76 -26 118t-97 48v70h420v-70q-72 -8 -97 -48t-24 -118v-1118h645v1118q0 156 -123 166v70h420z" />
    <glyph glyph-name="afii10044" unicode="&#x42a;" horiz-adv-x="1556" 
d="M684 80h229q203 0 275 74q32 32 58 98t26 138t-4 108q-4 35 -25 87q-20 52 -57 85q-37 34 -112 58t-179 24h-211v-672zM27 1434h778v-70q-121 -8 -121 -166v-367h262q530 0 531 -411q0 -115 -39 -198t-92 -125q-54 -41 -134 -65t-133 -28t-123 -4h-569v70q69 6 95 49
t26 117v1118h-150q-104 0 -159 -69t-99 -191h-73v340z" />
    <glyph glyph-name="afii10045" unicode="&#x42b;" horiz-adv-x="1781" 
d="M1675 1434v-70q-73 -8 -97 -53t-24 -113v-962q0 -76 25 -118t96 -48v-70h-420v70q123 10 123 166v962q0 156 -123 166v70h420zM406 80h229q260 0 327 143q31 66 31 153t-4 123t-24 87q-65 166 -349 166h-210v-672zM106 1434h422v-70q-123 -10 -122 -166v-367h262
q530 0 530 -411q0 -203 -93 -292q-46 -44 -93 -72q-94 -56 -334 -56h-572v70q70 8 97 49t26 117v962q0 76 -26 117q-27 41 -97 49v70z" />
    <glyph glyph-name="afii10046" unicode="&#x42c;" horiz-adv-x="1265" 
d="M406 80h208q86 0 118 2t87 18t88 50t60 100t27 146t-10 126q-9 46 -42 104q-70 126 -326 126h-210v-672zM106 1434h422v-70q-123 -10 -122 -166v-367h262q530 0 530 -411q0 -203 -93 -292q-46 -44 -93 -72q-94 -56 -334 -56h-572v70q70 8 97 49t26 117v962q0 76 -26 117
q-27 41 -97 49v70z" />
    <glyph glyph-name="afii10047" unicode="&#x42d;" horiz-adv-x="1435" 
d="M704 1370q-305 0 -434 -301h-69v352h80q29 -41 63 -41t93 20t125 34q66 16 178 16t222 -48q237 -104 340 -359q54 -136 54 -300q0 -323 -200 -541t-529 -218q-231 0 -372 106q-140 106 -140 238q0 57 32 97q33 40 84 40t88 -36t37 -77t-14 -77t-14 -64q0 -72 93 -110
t215 -38t241 69t190 206q92 178 84 414q-41 -62 -108 -106t-153 -44t-213 73q-28 15 -30 17q-109 58 -152 58t-61 -14t-61 -66l-56 37q63 92 123 141t144 49q84 -1 223 -69t208 -68t103 52t33 120q0 141 -105 281q-52 69 -146 113q-92 44 -196 44z" />
    <glyph glyph-name="afii10048" unicode="&#x42e;" horiz-adv-x="2271" 
d="M1464 1370q-222 0 -372 -175t-150 -478t151 -478t371 -175t372 174q151 176 151 479t-151 478t-372 175zM403 797h338q28 254 211 447q88 94 222 150t296 56q164 0 306 -66q257 -119 367 -408q48 -128 48 -259t-48 -259q-109 -292 -366 -409q-142 -66 -313 -65
q-301 0 -513 208t-214 525h-334v-481q0 -76 26 -118t97 -48v-70h-420v70q70 6 96 49t25 117v960q0 72 -23 113q-24 41 -98 55v70h420v-70q-76 -12 -100 -54t-23 -112v-401z" />
    <glyph glyph-name="afii10049" unicode="&#x42f;" horiz-adv-x="1421" 
d="M1016 1354h-205q-221 0 -313 -67q-42 -30 -74 -90q-33 -60 -33 -144q0 -303 385 -303h240v604zM1016 236v434h-211q-145 0 -203 -82q-41 -59 -79 -187q-37 -129 -93 -232t-162 -153q-107 -50 -268 -30v69q123 -4 186 99q23 37 51 135q71 249 189 337q70 52 129 66v6
q-141 0 -255 94t-114 257q0 164 127 274q127 111 490 111h512v-70q-123 -10 -123 -166v-962q0 -154 123 -166v-70h-422v70q123 10 123 166z" />
    <glyph glyph-name="afii10065" unicode="&#x430;" horiz-adv-x="817" 
d="M518 350v72q-168 -8 -236 -73t-69 -136q0 -71 41 -107t98 -36q112 1 139 86q27 86 27 194zM374 741q-84 0 -108 -67q-2 -6 -8 -28t-11 -31q-15 -27 -52 -27t-55 19q-17 19 -17 42q0 55 72 105t170 51q166 0 235 -79q68 -79 68 -271v-258q0 -127 84 -127q16 0 36 10
l15 -23q-49 -74 -131 -73q-53 0 -87 34t-46 78h-4q-105 -112 -231 -112t-188 61t-62 147q-1 161 128 223t336 74q0 127 -30 189t-114 63z" />
    <glyph glyph-name="afii10066" unicode="&#x431;" horiz-adv-x="919" 
d="M466 741q-97 -1 -169 -77t-72 -271q0 -109 26 -185q25 -76 67 -107q70 -54 143 -54q233 0 233 346q0 178 -65 263q-66 85 -163 85zM53 444q0 154 39 275q102 317 330 415q107 46 229 54q39 4 55 10t31 27h37q0 -207 -233 -207l-97 4q-112 0 -164 -71t-55 -251h11
q98 104 250 104t267 -104q113 -104 113 -288t-108 -306q-108 -123 -289 -122q-240 0 -350 188q-66 118 -66 272z" />
    <glyph glyph-name="afii10067" unicode="&#x432;" horiz-adv-x="868" 
d="M295 381v-318h139q209 0 209 162q0 86 -57 121t-168 35h-123zM295 725v-281h133q180 0 180 144q0 137 -180 137h-133zM53 788h408q169 0 236 -40q30 -18 53 -56q46 -75 -2 -180q-29 -65 -140 -90v-4q72 -6 119 -33t67 -75t21 -88q0 -40 -10 -70q-52 -153 -305 -152h-447
v59q55 4 74 42q18 38 18 106v373q0 70 -16 104t-76 45v59z" />
    <glyph glyph-name="afii10068" unicode="&#x433;" horiz-adv-x="706" 
d="M53 788h627v-251h-59q-21 104 -75 146t-159 42h-92v-518q0 -70 20 -110t80 -38v-59h-342v59q57 6 75 42q17 36 17 106v373q0 72 -16 104t-76 45v59z" />
    <glyph glyph-name="afii10069" unicode="&#x434;" horiz-adv-x="958" 
d="M600 721h-31q-68 0 -94 -70q-8 -20 -49 -139q-40 -119 -102 -257t-62 -151q0 -41 76 -41h262v658zM838 788v-59q-56 -2 -72 -31t-16 -100v-408q0 -63 17 -92t89 -30q71 0 83 -23q5 -10 5 -41t-45 -100q-74 -117 -117 -117q-34 0 -14 51t20 93t-21 56q-22 13 -71 13h-432
q-80 0 -80 -70q0 -16 15 -55q31 -88 -4 -88q-23 0 -58 33t-57 63q-66 87 -66 129t29 43h23q36 0 66 23t41 43t32 65q178 389 178 466t-94 77h-25v59h574z" />
    <glyph glyph-name="afii10070" unicode="&#x435;" horiz-adv-x="790" 
d="M401 741q-71 0 -119 -53t-51 -168h324q4 111 -40 166t-114 55zM53 367q-1 195 101 317t257 121q155 0 233 -108t73 -240h-490q-27 -389 219 -389q133 0 254 125l37 -35q-139 -174 -311 -174t-283 111q-39 40 -64 111q-26 71 -26 161z" />
    <glyph glyph-name="afii10072" unicode="&#x436;" horiz-adv-x="1374" 
d="M522 788h330v-59q-54 -12 -72 -45t-18 -104v-80q138 -7 208 102q9 14 29 48q68 115 118 137q50 21 138 18v-219h-59q-8 33 -20 48t-38 15t-45 -15t-49 -51t-49 -55q-41 -37 -67 -51v-6q55 -18 73 -25q185 -78 240 -300q18 -74 59 -85q18 -4 48 -2v-59h-361v59q39 1 59 13
t22 25q3 13 3 48t-33 109q-76 182 -276 182v-229q0 -72 18 -107t72 -41v-59h-330v59q53 6 72 41q18 35 18 107v229q-201 0 -276 -182q-33 -74 -33 -109t3 -48q2 -13 22 -25t59 -13v-59h-360v59q59 -4 73 17q14 22 20 30q5 8 13 40q56 222 240 300q18 6 73 25v6
q-50 26 -98 84q-47 58 -66 73t-45 15t-38 -15t-21 -48h-59v219q88 3 135 -17t92 -92q8 -12 28 -46t30 -48q9 -14 33 -40q62 -68 175 -62v80q0 72 -17 104t-73 45v59z" />
    <glyph glyph-name="afii10073" unicode="&#x437;" horiz-adv-x="835" 
d="M291 391q0 -47 79 -47t138 66q-66 36 -122 36q-95 0 -95 -55zM129 563v232h41q20 -25 42 -25t93 18q72 18 133 17q143 1 217 -61t74 -142q0 -111 -76 -172v-6q59 -18 95 -66t34 -108q0 -123 -94 -195t-246 -71q-104 0 -270 61q-63 25 -131 -29l-27 23q84 137 170 137
q51 0 95 -38q6 -5 21 -16t19 -16q74 -59 143 -59t115 43t46 128t-64 142q-88 -66 -199 -65q-63 0 -97 29q-34 30 -34 70t38 71t115 31t163 -33q33 55 33 119t-37 111q-37 48 -129 48q-162 0 -224 -178h-59z" />
    <glyph glyph-name="afii10074" unicode="&#x438;" horiz-adv-x="942" 
d="M53 788h332v-59q-59 -12 -75 -45t-15 -104v-293h4l350 327q2 49 -17 76t-71 39v59h328v-59q-55 -12 -73 -45t-17 -104v-373q0 -70 19 -106t71 -42v-59h-332v59q53 6 73 42q19 36 19 106v303h-4l-350 -324q-6 -115 90 -127v-59h-332v59q92 8 92 148v373q0 70 -18 106
t-74 43v59z" />
    <glyph glyph-name="afii10075" unicode="&#x439;" horiz-adv-x="942" 
d="M469 991q-135 -1 -211 57t-78 122t43 102q45 39 93 39q98 0 98 -68q0 -27 -18 -42t-36 -15q-20 0 -46 11t-44 11q-33 0 -32 -32q0 -39 64 -67t167 -28q102 0 167 28t64 67q0 33 -32 32q-16 0 -43 -11t-47 -11t-36 15q-18 15 -18 45t25 47t73 17t92 -38q46 -38 44 -102
t-78 -122t-211 -57zM53 788h332v-59q-59 -12 -75 -45t-15 -104v-293h4l350 327q2 49 -17 76t-71 39v59h328v-59q-55 -12 -73 -45t-17 -104v-373q0 -70 19 -106t71 -42v-59h-332v59q53 6 73 42q19 36 19 106v303h-4l-350 -324q-6 -115 90 -127v-59h-332v59q92 8 92 148v373
q0 70 -18 106t-74 43v59z" />
    <glyph glyph-name="afii10076" unicode="&#x43a;" horiz-adv-x="911" 
d="M791 588h-60q-29 61 -65 61t-60 -36q-26 -36 -58 -86t-73 -72v-6q113 -20 177 -105q46 -61 79 -132q33 -70 38 -84t8 -20l8 -16t11 -13t16 -13q11 -10 73 -29v-41q-37 -12 -76 -12q-121 0 -172 53t-88 143t-48 113q-34 71 -84 92q-30 12 -69 12h-55v-190q0 -72 18 -107
t72 -41v-59h-330v59q53 6 72 41q18 35 18 107v373q0 72 -15 104t-75 45v59h330v-59q-59 -12 -75 -45t-15 -104v-119q88 -6 132 24q17 12 31 23t38 62t28 59q50 106 106 146t163 30v-217z" />
    <glyph glyph-name="afii10077" unicode="&#x43b;" horiz-adv-x="890" 
d="M14 76q0 25 23 44t48 19t47 -9t38 -9t27 4q53 20 112 205q86 272 86 334q0 72 -92 65v59h272l175 -593q20 -72 48 -107t79 -29v-59h-230l-180 612h-6q-92 -313 -101 -338q-51 -143 -105 -217t-136 -73q-105 0 -105 92z" />
    <glyph glyph-name="afii10078" unicode="&#x43c;" horiz-adv-x="1116" 
d="M1063 788v-59q-59 -12 -75 -45t-15 -104v-373q0 -72 17 -109t73 -39v-59h-332v59q92 0 92 148v424h-12l-293 -649h-31l-262 675h-18v-495q0 -102 90 -103v-59h-244v59q90 12 90 103v477q0 90 -90 90v59h281l217 -563h4l256 563h252z" />
    <glyph glyph-name="afii10079" unicode="&#x43d;" horiz-adv-x="954" 
d="M53 0v59q53 6 72 41q18 35 18 107v373q0 72 -15 104t-75 45v59h332v-59q-57 -12 -75 -44t-17 -105v-154h366v154q0 70 -16 104t-76 45v59h334v-59q-59 -12 -75 -45t-17 -104v-373q0 -70 17 -106t75 -42v-59h-334v59q55 4 74 42q18 38 18 106v155h-366v-155q0 -72 18 -108
t74 -40v-59h-332z" />
    <glyph glyph-name="afii10080" unicode="&#x43e;" horiz-adv-x="884" 
d="M442 741q-102 -1 -159 -73t-57 -250t18 -223q20 -45 43 -79q45 -67 156 -68t156 69t53 142q7 71 7 134q0 203 -57 276q-58 72 -160 72zM742 666q89 -118 89 -266t-74 -253t-179 -140q-69 -23 -115 -23q-45 0 -75 3t-81 20q-105 35 -178 138t-75 251q-1 149 88 271
q103 138 321 138q62 0 167 -45q62 -28 112 -94z" />
    <glyph glyph-name="afii10081" unicode="&#x43f;" horiz-adv-x="954" 
d="M901 788v-59q-59 -12 -75 -45t-17 -104v-373q0 -70 17 -106t75 -42v-59h-334v59q55 4 74 42q18 38 18 106v518h-366v-518q0 -68 18 -106t74 -42v-59h-332v59q53 6 72 41q18 35 18 107v373q0 72 -15 104t-75 45v59h848z" />
    <glyph glyph-name="afii10082" unicode="&#x440;" horiz-adv-x="931" 
d="M266 516v-237q0 -59 24 -118q47 -114 195 -114q104 0 163 77q58 77 59 269q0 348 -220 348q-113 -1 -167 -77t-54 -148zM27 -377v60q53 4 71 41t19 106v588q1 134 29 200t115 126t227 60t260 -93q59 -47 95 -129t36 -187q0 -199 -134 -321q-100 -90 -246 -90t-227 84h-6
v-236q0 -74 22 -112t83 -37v-60h-344z" />
    <glyph glyph-name="afii10083" unicode="&#x441;" horiz-adv-x="802" 
d="M53 378q0 184 111 305q111 122 280 122q121 0 189 -46t67 -106q0 -29 -20 -51t-55 -20q-78 0 -82 80q0 35 -16 53q-22 26 -78 26q-94 0 -159 -87t-65 -275q0 -94 29 -159q29 -66 73 -94q75 -49 144 -48q69 0 142 30t114 74l35 -37q-141 -162 -328 -161q-156 0 -268 105
t-113 289z" />
    <glyph glyph-name="afii10084" unicode="&#x442;" horiz-adv-x="804" 
d="M27 788h751v-251h-59q-16 188 -209 188h-33v-518q1 -70 21 -107t73 -41v-59h-335v59q57 8 74 41t18 107v518h-31q-186 0 -211 -188h-59v251z" />
    <glyph glyph-name="afii10085" unicode="&#x443;" horiz-adv-x="878" 
d="M879 788v-59q-47 -12 -70 -35q-24 -24 -31 -39q-6 -14 -13 -29t-9 -20l-322 -712q-66 -141 -123 -206t-153 -65q-59 0 -101 28q-41 28 -41 76q0 49 24 71t54 22t65 -26q34 -26 64 -25q70 0 113 98l61 135l-241 602q-51 133 -146 125v59h377v-59h-20q-59 0 -60 -51
q0 -23 19 -66l157 -395h9l163 363q27 72 27 92t-19 39q-19 20 -61 18v59h277z" />
    <glyph glyph-name="afii10086" unicode="&#x444;" horiz-adv-x="1193" 
d="M672 547v-334q0 -170 141 -170q82 0 112 59q44 85 44 266v62q-1 171 -15 203q-14 33 -30 61q-30 52 -113 51q-139 1 -139 -198zM522 547q0 199 -139 198q-83 0 -116 -56q-32 -56 -37 -122q-5 -65 -5 -137q0 -221 27 -291q37 -94 129 -96q141 0 141 170v334zM762 987v-59
q-90 -10 -90 -109v-71h2q63 57 155 57q127 -1 219 -105t93 -296q0 -192 -91 -307q-91 -114 -221 -113q-84 0 -151 59h-6v-211q0 -68 18 -106t74 -43v-60h-334v60q57 6 75 43q17 37 17 106v211h-6q-66 -59 -151 -59q-135 0 -224 126q-88 126 -88 291t82 285t230 119
q92 0 155 -57h2v71q0 98 -90 109v59h330z" />
    <glyph glyph-name="afii10087" unicode="&#x445;" horiz-adv-x="851" 
d="M803 788v-59q-47 0 -82 -28t-86 -93l-121 -159l199 -277q47 -66 73 -90t66 -23v-59h-358v59h18q25 -1 40 15t15 42t-30 56l-117 152h-2l-107 -140q-41 -53 -41 -80q0 -49 82 -45v-59h-311v59h22q70 0 181 148l133 178l-148 203q-59 82 -92 110t-76 31v59h349v-59
q-66 -3 -66 -25t55 -98l72 -98l82 117q37 51 37 71q0 35 -51 33v59h264z" />
    <glyph glyph-name="afii10088" unicode="&#x446;" horiz-adv-x="985" 
d="M903 788v-59q-55 -4 -73 -39t-19 -106v-451q0 -41 49 -72q2 -2 28 -18q64 -39 90 -79t28 -89q0 -92 -70 -159q-133 -127 -432 -8q-145 58 -236 59q-55 0 -55 -46q0 -14 16 -14q17 0 23 7t16 7q47 0 47 -49q0 -25 -16 -42t-51 -17t-58 25t-22 61q0 61 60 115t186 53
q63 0 224 -52q162 -53 204 -53t73 33t31 87t-50 86t-120 32h-723v59q55 4 74 42q18 38 18 106v377q0 70 -18 106t-74 39v59h334v-59q-57 -2 -75 -37t-17 -108v-521h367v521q0 74 -18 108t-75 37v59h334z" />
    <glyph glyph-name="afii10089" unicode="&#x447;" horiz-adv-x="884" 
d="M27 788h327v-59q-40 -4 -64 -32t-24 -74v-72q0 -84 31 -112q31 -27 117 -27t176 34v134q0 72 -16 104t-76 45v59h333v-59q-59 -12 -75 -45t-17 -104v-373q-1 -70 17 -106t75 -42v-59h-346v59q68 4 86 38t19 110v174q-150 -53 -243 -53q-166 0 -205 71q-25 49 -25 101v125
q0 92 -90 104v59z" />
    <glyph glyph-name="afii10090" unicode="&#x448;" horiz-adv-x="1370" 
d="M983 788h334v-59q-57 -12 -75 -44t-17 -105v-373q0 -72 18 -108t74 -40v-59h-1264v59q59 8 76 43q16 35 16 105v373q0 70 -17 106t-75 43v59h334v-59q-55 -12 -73 -47t-19 -102v-517h315v517q0 72 -16 104t-76 45v59h334v-59q-60 -8 -76 -42t-16 -107v-517h315v517
q0 70 -16 104t-76 45v59z" />
    <glyph glyph-name="afii10091" unicode="&#x449;" horiz-adv-x="1413" 
d="M546 -279q13 0 28 -13q16 -13 16 -34t-18 -41t-60 -20q-41 0 -66 26t-24 60q0 66 73 117t180 51t275 -53q182 -51 211 -52q66 0 101 35q34 35 34 88t-56 84t-124 31h-1065v59q59 8 76 43q16 35 16 105v373q0 70 -17 106t-75 43v59h334v-59q-55 -12 -73 -47t-19 -102v-517
h315v517q0 72 -16 104t-76 45v59h334v-59q-60 -8 -76 -42t-16 -107v-517h315v517q0 70 -17 106t-73 43v59h332v-59q-57 -12 -75 -44t-17 -105v-414q0 -59 22 -84q4 -4 32 -28t45 -43q16 -19 30 -59t10 -89q-10 -93 -88 -153t-203 -60t-260 59t-272 60q-33 1 -49 -15t-17 -32
q0 -16 16 -15q44 14 57 14z" />
    <glyph glyph-name="afii10092" unicode="&#x44a;" horiz-adv-x="1021" 
d="M797 291q0 194 -183 194q-72 0 -165 -47v-375h120q227 0 228 228zM27 788h514v-59q-59 -10 -75 -45t-17 -104v-60q113 55 239 55q126 1 204 -81q77 -82 77 -195t-66 -206t-239 -93h-457v59q57 6 75 42q17 36 17 106v518q-109 2 -158 -47t-55 -166h-59v276z" />
    <glyph glyph-name="afii10093" unicode="&#x44b;" horiz-adv-x="1249" 
d="M866 788h330v-59q-58 -12 -74 -45t-16 -104v-414q0 -96 90 -107v-59h-330v59q90 12 90 107v414q0 72 -16 104t-74 45v59zM295 63h121q227 0 227 228q0 128 -74 167q-52 27 -116 27t-158 -47v-375zM53 788h334v-59q-59 -10 -75 -45t-17 -104v-60q113 55 239 55
q126 1 204 -81q77 -82 77 -196t-60 -198q-31 -44 -95 -72t-150 -28h-457v59q57 6 75 42q17 36 17 106v373q0 72 -16 104t-76 45v59z" />
    <glyph glyph-name="afii10094" unicode="&#x44c;" horiz-adv-x="868" 
d="M295 63h121q227 0 227 228q0 128 -74 167q-52 27 -116 27t-158 -47v-375zM53 788h334v-59q-59 -10 -75 -45t-17 -104v-60q113 55 239 55q126 1 204 -81q77 -82 77 -196t-60 -198q-31 -44 -95 -72t-150 -28h-457v59q57 6 75 42q17 36 17 106v373q0 72 -16 104t-76 45v59z
" />
    <glyph glyph-name="afii10095" unicode="&#x44d;" horiz-adv-x="860" 
d="M397 47q95 1 153 63q102 109 83 306h-6q-27 -47 -69 -73t-83 -26t-103 33t-112 33t-92 -21l-16 31q96 92 170 92q74 1 129 -29t92 -30q88 0 88 106q1 68 -59 139t-159 71t-149 -40q-50 -39 -84 -129h-59v224h31q29 -19 51 -19q21 0 85 14t120 13q194 0 296 -122t102 -282
t-77 -256q-78 -96 -158 -129q-81 -32 -195 -32t-197 56t-83 126q0 36 23 62t61 26t61 -20q22 -20 21 -52l-2 -41q0 -94 137 -94z" />
    <glyph glyph-name="afii10096" unicode="&#x44e;" horiz-adv-x="1320" 
d="M879 741q-59 1 -103 -25t-64 -61q-50 -81 -50 -247t19 -212t42 -80q45 -67 156 -68t156 69t53 141t8 135q0 348 -217 348zM295 426h194q21 291 279 362q57 16 111 17q157 0 273 -108t116 -284q0 -177 -102 -303t-282 -126q-181 0 -283 110q-101 111 -112 268h-194v-155
q0 -72 18 -107t72 -41v-59h-332v59q55 4 74 40q18 36 18 108v373q0 74 -17 106t-75 43v59h332v-59q-59 -12 -75 -45t-15 -104v-154z" />
    <glyph glyph-name="afii10097" unicode="&#x44f;" horiz-adv-x="854" 
d="M559 725h-106q-122 0 -153 -48q-32 -48 -32 -84q0 -165 162 -165h129v297zM799 788v-59q-90 -16 -90 -106v-416q0 -68 18 -106t74 -42v-59h-334v59q57 6 75 42q17 36 17 106v158h-22q-41 1 -67 -7t-60 -46t-58 -103t-38 -93t-47 -65q-58 -67 -212 -67h-55v57q46 0 76 25
t45 51t20 38q4 13 12 29q7 16 7 19q28 71 68 113t108 61v6q-43 2 -96 25q-143 61 -144 176q0 205 318 204h385z" />
    <glyph glyph-name="afii10071" unicode="&#x451;" horiz-adv-x="790" 
d="M451 1153q0 39 27 70q28 31 72 31t73 -30q29 -28 29 -72t-32 -72q-30 -28 -69 -28t-70 31q-30 31 -30 70zM137 1152q0 44 29 73t73 29q43 0 71 -32q28 -30 28 -69t-30 -70t-70 -31t-70 28q-31 28 -31 72zM401 741q-71 0 -119 -53t-51 -168h324q4 111 -40 166t-114 55z
M53 367q-1 195 101 317t257 121q155 0 233 -108t73 -240h-490l-2 -86q-3 -147 55 -225t166 -78q133 0 254 125l37 -35q-139 -174 -311 -174t-283 111q-39 40 -64 111q-26 71 -26 161z" />
    <glyph glyph-name="afii10099" unicode="&#x452;" horiz-adv-x="915" 
d="M53 1434h242v-377h315v-64h-315v-276h12q113 88 248 88q188 0 253 -149q54 -123 54 -344t-63 -430q-35 -116 -110 -188t-194 -71q-119 0 -162 62q-26 35 -26 67q-1 32 17 60t59 28t67 -22t22 -63q-4 -40 4 -53q7 -13 34 -15t61 14q78 39 99 158q20 119 20 297t-5 246
q-15 206 -87 269q-44 40 -104 40q-60 1 -115 -19t-84 -51v-434q0 -72 18 -107t72 -41v-59h-332v59q55 4 74 42q18 38 18 106v786h-120v64h120v170q0 67 -18 105t-74 42v60z" />
    <glyph glyph-name="afii10100" unicode="&#x453;" horiz-adv-x="706" 
d="M590 1370q41 0 61 -22q21 -22 21 -56q0 -35 -26 -57t-71 -49l-249 -156l-27 33l215 266q35 41 76 41zM53 788h627v-251h-59q-21 104 -75 146t-159 42h-92v-518q0 -70 20 -110t80 -38v-59h-342v59q57 6 75 42q17 36 17 106v373q0 72 -16 104t-76 45v59z" />
    <glyph glyph-name="afii10101" unicode="&#x454;" horiz-adv-x="866" 
d="M741 797v-224h-49q-63 168 -225 168q-252 0 -244 -323h6q39 38 93 62t87 24q34 0 115 -32t106 -32t60 21l17 -33q-35 -31 -51 -45q-16 -13 -50 -29t-62 -16t-99 29t-97 28q-121 0 -121 -80q0 -109 74 -179t162 -70q168 0 274 116l33 -37q-141 -162 -336 -161
q-145 0 -263 112t-118 295q0 232 173 349q95 65 233 65q51 0 117 -13q66 -14 86 -14q22 0 47 19h32z" />
    <glyph glyph-name="afii10102" unicode="&#x455;" horiz-adv-x="698" 
d="M344 47q72 0 115 40t43 87t-26 76t-48 39t-48 19l-66 22q-98 31 -144 63q-90 63 -90 172t72 175t190 65q118 0 184 -46q66 -45 66 -107t-65 -62t-81 86q0 28 -30 46q-30 19 -84 19q-54 1 -98 -31t-44 -86t20 -74q20 -18 30 -28q12 -10 39 -19t41 -15t48 -13q36 -8 50 -12
q227 -63 227 -232q0 -109 -88 -179t-223 -68q-135 0 -208 58t-73 124q0 34 22 60q23 26 61 26t58 -20t19 -46l-8 -59q0 -29 33 -55q34 -26 106 -25z" />
    <glyph glyph-name="afii10103" unicode="&#x456;" horiz-adv-x="438" 
d="M96 1155q0 43 29 71t71 28t70 -30q28 -28 29 -70q0 -42 -28 -71q-29 -29 -71 -29t-71 30q-29 28 -29 71zM53 788h240v-581q0 -68 18 -106t74 -42v-59h-332v59q53 6 72 41q18 35 18 107v373q0 72 -15 104t-75 45v59z" />
    <glyph glyph-name="afii10104" unicode="&#x457;" horiz-adv-x="458" 
d="M252 1155q0 43 29 71t71 28t70 -30q29 -28 29 -70t-28 -71t-71 -29q-44 0 -72 30q-28 28 -28 71zM-27 1155q0 43 29 71t71 28q43 0 71 -30q28 -28 28 -70t-28 -71t-70 -29t-72 30q-29 28 -29 71zM74 788h239v-581q1 -68 19 -106t74 -42v-59h-332v59q53 6 71 41t19 107
v373q0 72 -16 104t-74 45v59z" />
    <glyph glyph-name="afii10105" unicode="&#x458;" horiz-adv-x="430" 
d="M119 1155q0 37 31 68q32 31 68 31t68 -28t32 -71t-30 -72q-28 -29 -71 -29t-71 32q-27 32 -27 69zM23 788h294v-739q0 -199 -59 -301q-72 -125 -215 -125q-55 0 -89 28t-34 64q0 63 70 64q35 0 65 -38q21 -27 36 -30q15 -4 28 -4q49 0 49 62v811q0 78 -26 114t-87 35h-32
v59z" />
    <glyph glyph-name="afii10106" unicode="&#x459;" horiz-adv-x="1251" 
d="M831 76q102 0 152 61q49 61 49 149t-52 144q-52 55 -155 55q-55 1 -145 -36l111 -373h40zM179 125q15 0 24 9q8 9 24 26t49 99q33 83 75 229t42 192q0 66 -71 65h-21v60h272l84 -285q133 55 250 55q117 -1 204 -79t87 -209t-87 -209t-237 -78h-229l-180 625h-6
q-92 -322 -101 -346q-53 -152 -109 -224q-56 -71 -128 -71q-71 0 -97 41t4 88t91 26l41 -14h19z" />
    <glyph glyph-name="afii10107" unicode="&#x45a;" horiz-adv-x="1382" 
d="M811 63h123q221 0 221 228q0 195 -178 194q-76 0 -166 -47v-375zM53 788h332v-59q-57 -12 -75 -44t-17 -105v-154h369v154q0 70 -16 104t-77 45v59h334v-59q-59 -12 -75 -45t-17 -104v-60q119 55 238 55t200 -78q82 -78 80 -214q0 -90 -55 -175q-32 -48 -96 -78t-154 -30
h-455v59q55 4 74 42q18 38 19 106v155h-369v-155q0 -72 18 -108t74 -40v-59h-332v59q53 6 72 41q18 35 18 107v373q0 72 -15 104t-75 45v59z" />
    <glyph glyph-name="afii10108" unicode="&#x45b;" horiz-adv-x="919" 
d="M53 1434h240v-377h315v-64h-315v-293h18q115 104 258 105q207 0 207 -258v-342q0 -102 37 -127q20 -14 53 -19v-59h-329v59q43 6 63 31q20 26 24 48t3 67v348q0 82 -28 124t-92 42q-63 0 -123 -42t-91 -106v-364q0 -68 18 -106t74 -42v-59h-334v59q57 6 75 42
q17 36 17 106v786h-118v64h118v211q0 94 -90 106v60z" />
    <glyph glyph-name="afii10109" unicode="&#x45c;" horiz-adv-x="911" 
d="M631 1370q41 0 61 -22t20 -56q0 -35 -24 -57q-26 -22 -72 -49l-249 -156l-27 33l215 266q35 41 76 41zM791 588h-60q-29 61 -65 61t-60 -36q-26 -36 -58 -86t-73 -72v-6q113 -20 177 -105q46 -61 79 -132q33 -70 38 -84t8 -20l8 -16t11 -13t16 -13q11 -10 73 -29v-41
q-37 -12 -76 -12q-121 0 -172 53t-88 143t-48 113q-34 71 -84 92q-30 12 -69 12h-55v-190q0 -72 18 -107t72 -41v-59h-330v59q53 6 72 41q18 35 18 107v373q0 72 -15 104t-75 45v59h330v-59q-59 -12 -75 -45t-15 -104v-119q88 -6 132 24q17 12 31 23t38 62t28 59
q50 106 106 146t163 30v-217z" />
    <glyph glyph-name="afii10110" unicode="&#x45e;" horiz-adv-x="878" 
d="M485 991q-135 -1 -211 57t-78 122t44 102q45 39 93 39q99 0 97 -68q0 -27 -17 -42t-37 -15t-46 11q-27 11 -43 11q-33 0 -33 -32q0 -39 64 -67t167 -28q102 0 167 28t65 67q0 33 -33 32q-16 0 -43 -11t-47 -11t-36 15q-17 15 -17 45q0 62 97 64q48 0 93 -38t43 -102
t-78 -122t-211 -57zM879 788v-59q-47 -12 -70 -35q-24 -24 -31 -39q-6 -14 -13 -29t-9 -20l-322 -712q-66 -141 -123 -206t-153 -65q-59 0 -101 28q-41 28 -41 76q0 49 24 71t54 22t65 -26q34 -26 64 -25q70 0 113 98l61 135l-241 602q-51 133 -146 125v59h377v-59h-20
q-59 0 -60 -51q0 -23 19 -66l157 -395h9l163 363q27 72 27 92t-19 39q-19 20 -61 18v59h277z" />
    <glyph glyph-name="afii10193" unicode="&#x45f;" horiz-adv-x="956" 
d="M569 788h334v-59q-59 -10 -75 -45t-17 -104v-373q0 -68 18 -106t74 -42v-59h-391q29 -154 29 -242q1 -127 -61 -127t-62 127q0 88 28 242h-393v59q55 4 74 40q18 36 18 108v373q0 74 -17 106t-75 43v59h332v-59q-59 -12 -75 -45t-15 -104v-517h367v517q0 72 -16 104
t-77 45v59z" />
    <glyph glyph-name="afii10146" unicode="&#x462;" horiz-adv-x="1556" 
d="M684 80h229q203 0 275 74q32 32 58 98t26 138t-4 108q-4 35 -25 87q-20 52 -57 85q-37 34 -112 58t-179 24h-211v-672zM27 1280h481q2 156 -121 166v70h418v-70q-125 -8 -121 -166h584v-279h-74q-33 199 -217 199h-293v-369h262q530 0 531 -411q0 -115 -39 -198t-92 -125
q-54 -41 -134 -65t-133 -28t-123 -4h-569v70q69 6 95 49t26 117v964h-150q-186 0 -258 -260h-73v340z" />
    <glyph glyph-name="afii10194" unicode="&#x463;" horiz-adv-x="1024" 
d="M588 63q207 0 209 162q1 73 -55 123q-37 34 -171 33h-122v-318h139zM27 788h272v439q0 94 -27 121q-22 26 -63 26v60h240v-646h301v-210h-60q-6 125 -127 143q-41 4 -61 4h-53v-281h206q66 0 127 -12t86 -26q102 -53 102 -181t-112 -188q-70 -37 -203 -37h-446v59
q53 6 72 41q18 35 18 107v518q-90 6 -155 -45t-58 -168h-59v276z" />
    <glyph glyph-name="afii10147" unicode="&#x472;" horiz-adv-x="1611" 
d="M816 63q212 -1 363 177t148 505q-162 -141 -313 -141q-88 0 -266 75t-246 75t-114 -28q-44 -28 -103 -87q18 -268 168 -422q151 -154 363 -154zM596 872q86 0 272 -74t246 -75q111 0 207 111q-21 236 -167 386t-356 150t-364 -175t-151 -466q139 143 313 143zM805 1450
q170 0 312 -67q143 -67 231 -173q184 -221 184 -492t-184 -495q-88 -106 -230 -173q-142 -66 -313 -66q-170 0 -311 66q-260 123 -366 408q-48 128 -48 259t48 259q107 285 366 407q141 67 311 67z" />
    <glyph glyph-name="afii10195" unicode="&#x473;" horiz-adv-x="882" 
d="M440 47q219 0 219 330q-66 -59 -143 -60q-38 0 -112 37t-113 37t-68 -33q-3 -168 59 -240t158 -71zM440 741q-138 0 -184 -115q-37 -96 -33 -208q59 68 142 67q43 1 117 -37t112 -38t63 30q-2 301 -217 301zM440 805q88 0 158 -30q122 -52 182 -175q49 -96 49 -198
q0 -194 -103 -294q-124 -124 -286 -124q-92 0 -166 40q-73 40 -117 84t-74 118t-30 169q0 203 120 307t267 103z" />
    <glyph glyph-name="afii10148" unicode="&#x474;" horiz-adv-x="1814" 
d="M1800 1319q0 -57 -38 -98t-90 -41t-99 17t-66 17q-121 0 -209 -186l-503 -1044h-52l-579 1263q-49 109 -150 117v70h443v-70q-104 0 -105 -78q0 -20 35 -102l440 -944h13l331 692q125 260 132 270q69 125 143 186q74 62 163 62t140 -37t51 -94z" />
    <glyph glyph-name="afii10196" unicode="&#x475;" horiz-adv-x="1024" 
d="M14 729v59h351v-59q-35 -2 -51 -17q-16 -16 -17 -32q0 -16 16 -55l201 -449h6q67 237 112 356q45 118 89 168q91 105 188 105q47 0 74 -22q27 -21 27 -59t-25 -56t-55 -19l-58 15q-78 23 -137 -99q-44 -96 -75 -196q-31 -101 -63 -209t-48 -160h-123l-274 600
q-12 21 -14 26q-1 5 -17 32t-24 33q-9 7 -18 15q-28 24 -65 23z" />
    <glyph glyph-name="afii10050" unicode="&#x490;" horiz-adv-x="1112" 
d="M106 1434h537q152 0 229 49q109 66 144 213h69v-332h-682v-1128q0 -162 121 -166v-70h-418v70q121 12 121 166v962q0 166 -121 166v70z" />
    <glyph glyph-name="afii10098" unicode="&#x491;" horiz-adv-x="696" 
d="M53 788h324q113 0 160 42t73 145h60v-250h-375v-518q0 -147 92 -148h8v-59h-342v59q55 4 74 42q18 38 18 106v373q0 70 -16 104t-76 45v59z" />
    <glyph glyph-name="uni0492" unicode="&#x492;" horiz-adv-x="1112" 
d="M106 1434h764q58 0 100 6t115 10v-348h-69q-35 147 -144 213q-78 49 -229 49h-240v-594h353v-80h-353v-454q0 -162 121 -166v-70h-418v70q121 12 121 166v454h-121v80h121v428q0 166 -121 166v70z" />
    <glyph glyph-name="uni0493" unicode="&#x493;" horiz-adv-x="716" 
d="M63 788h627v-251h-59q-29 109 -77 149t-157 39h-92v-299h176v-64h-176v-155q1 -70 21 -110t80 -38v-59h-343v59q57 6 75 42q17 36 18 106v155h-123v64h123v154q0 72 -16 104t-77 45v59z" />
    <glyph glyph-name="uni0494" unicode="&#x494;" horiz-adv-x="1210" 
d="M979 406q0 196 -79 274t-201 78t-296 -68v-690h-297v70q121 12 121 166v962q0 166 -121 166v70h764q58 0 100 6t115 10v-348h-69q-35 147 -144 213q-78 49 -229 49h-240v-590q164 76 297 76q216 0 350 -109t134 -305t-114 -324t-290 -128q-143 0 -205 46q-61 46 -61 98
t27 85t75 33t72 -24q23 -24 23 -50l-6 -57q-1 -51 81 -51t138 73q55 73 55 269z" />
    <glyph glyph-name="uni0495" unicode="&#x495;" horiz-adv-x="811" 
d="M53 788h658v-231h-60q-29 98 -75 135t-158 37h-123v-360q109 53 203 53q152 0 220 -100t66 -246q0 -221 -104 -337t-252 -116q-104 0 -148 40t-44 83t20 69q20 25 58 25t64 -22t22 -63q-4 -40 5 -54q8 -14 50 -14t80 26q81 59 81 284t-70 292q-55 53 -116 53
q-27 0 -73 -16t-62 -33v-86q0 -70 20 -110t80 -38v-59h-342v59q57 6 75 42q17 36 17 106v373q0 72 -16 104t-76 45v59z" />
    <glyph glyph-name="uni0496" unicode="&#x496;" horiz-adv-x="1953" 
d="M2015 35q0 -45 -46 -124t-99 -138q-100 -113 -146 -113q-29 0 -28 25q0 15 20 43q76 107 76 171q0 65 -32 83t-97 18h-217v70q106 4 106 168q0 272 -134 477t-361 182v-661q1 -86 25 -121t98 -45v-70h-422v70q74 10 98 45t25 121v661q-227 23 -361 -183t-135 -470
q0 -168 107 -174v-70h-439v70q76 11 101 87q13 44 16 86q25 284 195 494q121 147 290 199v12q-93 41 -198 205q-61 94 -103 94q-70 0 -80 -110h-69v286q47 27 106 27q92 0 158 -88q13 -20 69 -134t101 -163t98 -67t144 -13v213q0 82 -28 123t-95 43v70h422v-70
q-68 -2 -96 -43t-27 -123v-213q90 -4 143 13q53 16 98 66t101 164q55 114 69 134q66 88 158 88q59 0 107 -27v-286h-70q-6 59 -29 85t-49 25q-43 0 -101 -90q-106 -165 -202 -209v-12q170 -51 291 -199q166 -205 196 -509q7 -73 19 -95q25 -45 76 -45l75 4q76 0 76 -57z" />
    <glyph glyph-name="uni0497" unicode="&#x497;" horiz-adv-x="1425" 
d="M522 788h330v-59q-54 -12 -72 -45t-18 -104v-80h20q92 0 152 59q18 18 72 98q33 61 69 99q53 51 127 51l53 -2v-219h-59q-8 33 -20 48t-44 15t-73 -50q-79 -94 -131 -122v-6q56 -19 88 -31t84 -56t74 -78t69 -156q13 -48 33 -66t51 -18l27 2q57 0 57 -48t-45 -116
q-74 -117 -117 -117q-33 0 -13 53t19 90q0 70 -114 70h-154v59h6q78 0 78 60q0 53 -33 135q-76 182 -276 182v-229q0 -72 18 -107t72 -41v-59h-330v59q53 6 72 41q18 35 18 107v229q-201 0 -276 -182q-33 -82 -33 -135q0 -59 78 -60h6v-59h-360v59h12q57 0 76 35q7 12 25 80
q32 125 133 210q52 44 85 56t88 31v6q-59 31 -116 105q-55 67 -87 67t-44 -15t-21 -48h-59v219l53 2q74 0 119 -44t78 -106q53 -80 71 -98q59 -59 152 -59h20v80q0 72 -17 104t-73 45v59z" />
    <glyph glyph-name="uni0498" unicode="&#x498;" horiz-adv-x="1390" 
d="M719 809q-107 0 -154 -32t-24 -81q6 -12 37 -26t81 -15q163 1 263 101q-96 53 -203 53zM262 1077v334h68q24 -41 66 -45t164 40t247 44q231 0 356 -109t125 -266q0 -87 -39 -151t-112 -127v-13q96 -55 155 -150t60 -214q0 -190 -167 -316t-380 -120q31 -207 31 -279
q0 -156 -82 -156t-82 156q0 96 35 283q-197 14 -369 125q-106 69 -150 69t-112 -86l-43 51q70 97 124 147t130 50t233 -123q64 -51 100 -77t102 -54t126 -27q115 1 207 99t92 263t-129 271q-178 -106 -361 -106q-104 0 -155 42t-51 91q0 94 124 137q69 23 185 23t237 -43
q105 96 105 237t-103 223q-86 70 -194 70q-358 0 -486 -293h-57z" />
    <glyph glyph-name="uni0499" unicode="&#x499;" horiz-adv-x="835" 
d="M291 391q0 -47 79 -47t138 66q-66 36 -122 36q-95 0 -95 -55zM129 563v232h41q20 -25 42 -25t93 18q72 18 133 17q143 1 217 -61t74 -142q0 -111 -76 -172v-6q59 -18 95 -66t34 -108q0 -135 -101 -202t-232 -64q29 -147 28 -238q0 -131 -61 -131t-62 131q0 88 29 242
q-78 8 -211 57q-63 25 -131 -29l-27 23q84 137 170 137q51 0 95 -38q6 -5 21 -16t19 -16q74 -59 143 -59t115 43t46 128t-64 142q-88 -66 -199 -65q-63 0 -97 29q-34 30 -34 70t38 71t115 31t163 -33q33 55 33 119t-37 111q-37 48 -129 48q-162 0 -224 -178h-59z" />
    <glyph glyph-name="uni049A" unicode="&#x49a;" horiz-adv-x="1536" 
d="M1516 27q0 -45 -48 -121t-98 -133q-98 -113 -136 -113t-38 25q0 15 20 44q76 106 76 187q0 63 -77 80q-104 25 -171 91q-94 93 -186 349q-45 119 -57 146q-102 227 -363 227h-35v-573q0 -80 27 -121t94 -45v-70h-418v70q121 12 121 166v962q0 152 -121 166v70h418v-70
q-121 -14 -121 -166v-309q214 -16 321 113q34 42 47 68t39 82q54 118 109 191q81 107 211 107q70 0 125 -23v-317h-69q-14 121 -105 121q-47 1 -75 -27q-34 -34 -86 -111q-53 -76 -131 -142q-77 -66 -144 -85v-12q164 -23 273 -119q90 -82 157 -252q10 -23 46 -116t62 -135
q26 -44 79 -94t106 -50l78 4q70 0 70 -65z" />
    <glyph glyph-name="uni049B" unicode="&#x49b;" horiz-adv-x="991" 
d="M53 788h330v-59q-59 -12 -75 -45t-15 -104v-119q63 -4 97 6t59 38t53 84t37 73q49 90 102 120t150 23v-217h-60q-17 35 -29 48t-38 13t-47 -22q-19 -23 -56 -85t-86 -87v-6q96 -16 170 -95q49 -52 77 -121t42 -93t41 -52q27 -20 93 -20t66 -48t-44 -116
q-74 -117 -117 -117q-33 0 -14 53q41 114 -5 142q-12 6 -45 11t-45 9q-86 31 -136 154t-54 131q-51 111 -156 110h-55v-190q0 -72 18 -107t72 -41v-59h-330v59q53 6 72 41q18 35 18 107v373q0 72 -15 104t-75 45v59z" />
    <glyph glyph-name="uni049C" unicode="&#x49c;" horiz-adv-x="1630" 
d="M106 1434h418v-70q-121 -14 -121 -166v-309h138v342h80v-338q76 12 132 56t82 85t72 149q114 267 318 267q61 0 112 -23v-317h-69q-14 121 -105 121q-57 0 -112 -70q-12 -14 -61 -85t-144 -146q-66 -49 -119 -64v-12q243 -25 369 -242q25 -46 99 -224t122 -226
q84 -92 207 -76v-92q-52 -12 -158 -7t-190 60q-100 72 -175 240q-27 59 -77 199t-94 193q-44 54 -101 86t-108 40v-399h-80v403h-138v-573q0 -80 27 -121t94 -45v-70h-418v70q121 12 121 166v962q0 152 -121 166v70z" />
    <glyph glyph-name="uni049D" unicode="&#x49d;" horiz-adv-x="972" 
d="M53 788h330v-59q-59 -12 -75 -45t-15 -104v-119h74v178h63v-178q48 4 71 34t38 54t62 114q48 89 101 119t150 23v-217h-59q-29 61 -65 61t-60 -36t-58 -86q-33 -50 -73 -72v-6q113 -20 177 -105q44 -58 77 -130q34 -72 39 -86q4 -14 8 -20t9 -16t10 -13t13 -10
q14 -13 76 -32v-41q-37 -12 -76 -12q-119 0 -171 53t-107 188q-25 55 -37 82t-47 58t-78 32v-178h-63v178h-74v-190q0 -72 18 -107t72 -41v-59h-330v59q53 6 72 41q18 35 18 107v373q0 72 -15 104t-75 45v59z" />
    <glyph glyph-name="uni04A0" unicode="&#x4a0;" horiz-adv-x="1865" 
d="M922 1434v-70q-121 0 -121 -166v-309q216 -16 320 113q34 42 47 68t39 82q54 118 109 191q81 107 212 107q70 0 125 -23v-317h-70q-14 121 -104 121q-47 1 -75 -27t-36 -40q-10 -12 -35 -47q-25 -37 -53 -73t-98 -98q-72 -62 -140 -80v-12q176 -23 272 -118t159 -253
q76 -228 139 -299q24 -26 58 -56q62 -55 169 -42v-92q-53 -12 -140 -9t-156 31q-117 48 -206 234q-35 74 -67 158t-54 135q-20 51 -62 110t-77 89q-78 67 -241 67h-35v-573q0 -154 121 -166v-70h-418v70q121 4 121 166v1128h-76q-152 0 -230 -49q-109 -66 -143 -213h-70v348
q74 -4 116 -10t100 -6h600z" />
    <glyph glyph-name="uni04A1" unicode="&#x4a1;" horiz-adv-x="1095" 
d="M567 788v-59q-59 -12 -74 -45t-16 -104v-119q88 -6 132 24q17 11 27 19t21 28l17 28q4 8 16 34q60 135 119 178t166 33v-217h-60q-29 61 -65 61t-60 -36t-57 -86t-74 -72v-6q114 -20 178 -105q44 -58 77 -130q34 -72 39 -86t9 -20t8 -16q5 -10 10 -13t13 -10
q14 -13 76 -32v-41q-37 -12 -76 -12q-121 0 -172 53t-106 188t-114 160q-30 12 -69 12h-55v-190q1 -72 19 -107t71 -41v-59h-329v59q53 6 71 41t19 107v522h-25q-84 0 -124 -47t-66 -145h-60v251h514z" />
    <glyph glyph-name="uni04A2" unicode="&#x4a2;" horiz-adv-x="1667" 
d="M524 1434v-70q-121 -10 -121 -166v-428h826v428q0 80 -28 119t-93 47v70h420v-70q-123 -10 -123 -166v-1005q0 -31 5 -51t28 -38q23 -16 63 -16l72 4q70 0 69 -65q0 -45 -47 -121t-98 -133q-98 -113 -136 -113t-38 25q1 15 21 44q76 106 75 189q0 82 -135 82h-176v70
q66 8 94 47t27 119v454h-826v-454q0 -76 26 -118t95 -48v-70h-418v70q70 6 96 48t25 118v962q0 76 -25 118q-26 42 -96 48v70h418z" />
    <glyph glyph-name="uni04A3" unicode="&#x4a3;" horiz-adv-x="1024" 
d="M53 788h332v-59q-57 -12 -75 -44t-17 -105v-154h366v154q0 70 -16 104t-76 45v59h334v-59q-59 -12 -75 -45t-17 -104v-390q0 -62 11 -80q12 -18 30 -28t86 -12t68 -50t-46 -116q-74 -117 -116 -117q-23 0 -23 23q0 8 14 44q15 36 15 77t-22 55t-70 14h-189v59q55 4 74 42
q18 38 18 106v155h-366v-155q0 -72 18 -108t74 -40v-59h-332v59q53 6 72 41q18 35 18 107v373q0 72 -15 104t-75 45v59z" />
    <glyph glyph-name="uni04A4" unicode="&#x4a4;" horiz-adv-x="2111" 
d="M1108 1434h682q57 0 99 6t116 10v-348h-70q-35 147 -143 213q-78 49 -229 49h-158v-1128q0 -162 121 -166v-70h-418v70q121 12 121 166v454h-826v-454q0 -76 26 -118t95 -48v-70h-418v70q70 6 96 48t25 118v962q0 76 -25 118q-26 42 -96 48v70h418v-70
q-121 -10 -121 -166v-428h826v428q0 166 -121 166v70z" />
    <glyph glyph-name="uni04A5" unicode="&#x4a5;" horiz-adv-x="1247" 
d="M567 788h627v-251h-59q-31 113 -75 153t-159 39h-92v-522q0 -70 20 -110t80 -38v-59h-342v59q57 6 75 42q17 36 17 106v155h-366v-155q0 -72 18 -108t74 -40v-59h-332v59q53 6 72 41q18 35 18 107v373q0 72 -15 104t-75 45v59h332v-59q-57 -12 -75 -44t-17 -105v-154h366
v154q0 72 -16 104t-76 45v59z" />
    <glyph glyph-name="uni04AA" unicode="&#x4aa;" horiz-adv-x="1404" 
d="M1270 1085h-70q-55 143 -174 214t-252 71q-193 0 -341 -173t-148 -484t145 -481t383 -169q129 1 257 63t212 161l43 -47q-213 -242 -522 -256q31 -207 31 -279q0 -156 -82 -156t-82 156q0 98 35 279q-274 16 -450 216q-175 200 -175 516t190 524q190 210 488 210
q122 0 272 -37t168 -37t41 25h31v-316z" />
    <glyph glyph-name="uni04AB" unicode="&#x4ab;" horiz-adv-x="802" 
d="M477 -267q0 -118 -61 -118t-62 131q0 86 29 240q-133 18 -231 116t-98 278t110 303q111 122 280 122q121 0 189 -46t67 -106q0 -29 -20 -51t-55 -20q-78 0 -82 80q0 35 -16 53q-22 26 -78 26q-94 0 -159 -87t-65 -275q0 -94 29 -159q29 -66 73 -94q75 -49 144 -48
q69 0 142 30t114 74l35 -37q-135 -156 -316 -161q31 -133 31 -251z" />
    <glyph glyph-name="uni04AE" unicode="&#x4ae;" horiz-adv-x="1386" 
d="M0 1434h471v-70q-74 -10 -74 -61q0 -31 25 -64l346 -469h12l291 451q43 65 43 89t-22 39q-23 15 -56 15v70h350v-70q-78 2 -134 -45t-109 -131l-340 -533v-419q0 -154 121 -166v-70h-418v70q121 14 121 166v430l-387 528q-117 158 -240 170v70z" />
    <glyph glyph-name="uni04AF" unicode="&#x4af;" horiz-adv-x="864" 
d="M0 788h379v-59q-80 0 -80 -61q0 -23 27 -86l149 -353h10l150 346q29 70 29 95t-23 45t-63 14v59h272v-59q-82 -23 -129 -131l-217 -498v-264q0 -45 5 -74q5 -30 27 -54t62 -25v-60h-338v60q57 4 76 44q18 40 18 109v264l-198 469q-41 96 -69 122t-87 38v59z" />
    <glyph glyph-name="uni04B0" unicode="&#x4b0;" horiz-adv-x="1386" 
d="M0 1434h471v-70q-74 -10 -74 -61q0 -31 25 -64l346 -469h12l291 451q43 65 43 89t-22 39q-23 15 -56 15v70h350v-70q-78 2 -134 -45t-109 -131l-340 -533v-151h303v-80h-303v-188q0 -154 121 -166v-70h-418v70q121 14 121 166v188h-303v80h303v162l-387 528
q-117 158 -240 170v70z" />
    <glyph glyph-name="uni04B1" unicode="&#x4b1;" horiz-adv-x="864" 
d="M0 788h379v-59q-80 0 -80 -61q0 -23 27 -86l149 -353h10l150 346q29 70 29 95t-23 45t-63 14v59h272v-59q-82 -23 -129 -131l-217 -498v-116h162v-64h-162v-84q0 -45 5 -74q5 -30 27 -54t62 -25v-60h-338v60q57 4 76 44q18 40 18 109v84h-161v64h161v116l-198 469
q-41 96 -69 122t-87 38v59z" />
    <glyph glyph-name="uni04B2" unicode="&#x4b2;" horiz-adv-x="1650" 
d="M1114 70q47 0 47 52q0 26 -41 79l-348 446l-403 -457q-35 -39 -35 -71q0 -49 63 -49h15v-70h-385v70q121 10 221 120l473 525l-348 446q-158 203 -260 203h-27v70h481v-70q-55 0 -55 -33q0 -53 20 -78l318 -409l340 391q41 47 41 71q1 24 -17 42q-18 16 -49 16v70h377
v-70q-74 -4 -124 -35t-113 -100l-404 -449l422 -547q43 -57 89 -101t99 -44l78 4q70 0 70 -65q0 -45 -47 -121t-99 -133q-98 -113 -136 -113t-38 25q1 12 21 43q20 30 31 47q45 74 45 141q0 84 -136 84h-206v70h20z" />
    <glyph glyph-name="uni04B3" unicode="&#x4b3;" horiz-adv-x="933" 
d="M803 788v-59q-47 0 -82 -28t-86 -93l-121 -159l199 -277q53 -72 75 -88t60 -16h29q57 0 57 -48t-45 -116q-74 -117 -117 -117q-23 0 -22 23q0 8 14 48t14 74q0 36 -18 52t-74 16h-192v59h18q25 -1 40 15t15 42t-30 56l-117 152h-2l-107 -140q-41 -53 -41 -80
q0 -49 82 -45v-59h-311v59h22q70 0 181 148l133 178l-148 203q-59 82 -92 110t-76 31v59h349v-59q-66 -3 -66 -25t55 -98l72 -98l82 117q37 51 37 71q0 35 -51 33v59h264z" />
    <glyph glyph-name="uni04B6" unicode="&#x4b6;" horiz-adv-x="1445" 
d="M1432 27q0 -45 -48 -121t-98 -133q-98 -113 -136 -113t-38 25q0 15 20 44q76 106 76 189q0 82 -135 82h-176v70q121 14 121 166v417q-225 -90 -396 -90q-170 0 -266 33t-138 93q-42 61 -56 117t-15 132v260q0 76 -25 118q-26 42 -95 48v70h417v-70q-121 -12 -120 -166
v-276q0 -193 146 -246q67 -25 165 -25q182 0 383 99v448q0 74 -26 117t-95 49v70h420v-70q-123 -12 -123 -166v-1005q0 -31 5 -51t28 -38q23 -16 63 -16l72 4q70 0 70 -65z" />
    <glyph glyph-name="uni04B7" unicode="&#x4b7;" horiz-adv-x="954" 
d="M831 788v-59q-59 -12 -75 -45t-17 -104v-390q0 -33 1 -49q2 -39 42 -61q16 -8 84 -10t68 -50t-45 -116q-74 -117 -117 -117q-23 0 -22 23q0 8 14 44t14 77q0 42 -21 56q-22 13 -71 13h-201v59q68 4 86 38t19 110v174q-150 -53 -243 -53q-166 0 -205 71q-25 49 -25 101
v125q0 92 -90 104v59h327v-59q-40 -4 -64 -32t-24 -74v-72q0 -84 31 -112q31 -27 117 -27t176 34v134q0 72 -16 104t-76 45v59h333z" />
    <glyph glyph-name="uni04B8" unicode="&#x4b8;" horiz-adv-x="1423" 
d="M27 1434h417v-70q-121 -12 -120 -166v-276q0 -276 297 -271v469h79v-465q168 18 318 95v448q0 74 -26 117t-95 49v70h420v-70q-123 -12 -123 -166v-962q0 -156 123 -166v-70h-420v70q121 14 121 166v417q-174 -70 -318 -82v-276h-79v268q-226 0 -321 57q-50 30 -82 62
q-67 69 -71 256v260q0 76 -25 118q-26 42 -95 48v70z" />
    <glyph glyph-name="uni04B9" unicode="&#x4b9;" horiz-adv-x="919" 
d="M53 788h328v-59q-39 -4 -64 -32t-24 -74v-72q0 -78 19 -98q37 -41 104 -41q8 0 24 4v223h64v-219q84 10 147 29v131q0 72 -16 104t-76 45v59h334v-59q-59 -12 -75 -45t-17 -104v-373q0 -70 17 -106t75 -42v-59h-346v59q68 4 86 38t18 110v174q-111 -33 -147 -37v-166h-64
v158q-37 -8 -91 -8q-153 0 -190 93q-16 41 -16 79v125q0 92 -90 104v59z" />
    <glyph glyph-name="uni04BA" unicode="&#x4ba;" horiz-adv-x="1220" 
d="M446 0h-417v70q69 10 95 50t26 116v962q0 156 -123 166v70h419v-70q-121 -14 -120 -166v-383h8q145 141 338 141q96 0 166 -24t104 -59q82 -80 82 -234v-403q0 -80 16 -116t74 -50v-70h-356v70q55 4 72 44t18 122v428q0 108 -44 156t-147 48t-191 -50q-87 -50 -140 -118
v-464q0 -76 26 -118t94 -48v-70z" />
    <glyph glyph-name="uni04BB" unicode="&#x4bb;" horiz-adv-x="921" 
d="M55 1434h240v-734h14q115 104 241 104t177 -64q51 -65 51 -193v-342q0 -102 37 -127q20 -14 53 -19v-59h-329v59q43 6 63 31q20 26 24 48t3 67v348q0 80 -26 123t-92 43q-65 0 -125 -42t-91 -106v-364q0 -68 18 -106t74 -42v-59h-334v59q57 6 75 42q17 36 17 106v1061
q0 94 -90 106v60z" />
    <glyph glyph-name="uni04C0" unicode="&#x4c0;" horiz-adv-x="440" 
d="M55 1434h240v-1227q0 -68 18 -106t74 -42v-59h-334v59q57 6 75 42q17 36 17 106v1020q0 79 -16 109t-74 38v60z" />
    <glyph glyph-name="uni04C1" unicode="&#x4c1;" horiz-adv-x="1937" 
d="M962 1530q-153 0 -278 73t-125 191q0 94 67 143t131 49t100 -24q36 -25 36 -67q0 -43 -26 -65q-25 -22 -57 -22t-68 16t-54 17q-47 0 -47 -47q0 -55 92 -95t241 -40q150 0 236 42t86 91t-47 49q-18 0 -54 -16q-35 -17 -67 -17t-58 23t-26 65t36 66q36 25 100 25
q64 1 132 -49q67 -50 66 -144q0 -124 -132 -194t-284 -70zM758 1434h422v-70q-68 -2 -96 -43t-27 -123v-213q90 -4 143 13q53 16 98 66t101 164q55 114 69 134q66 88 158 88q59 0 107 -27v-286h-70q-6 59 -29 85t-47 25q-47 0 -104 -90q-104 -164 -201 -209v-12
q170 -51 291 -199q169 -208 193 -486q9 -100 38 -137t80 -44v-70h-438v70q106 6 106 174q0 264 -134 470t-361 183v-661q1 -86 25 -121t98 -45v-70h-422v70q74 10 98 45t25 121v661q-227 23 -361 -183t-135 -470q0 -168 107 -174v-70h-439v70q76 11 101 87q13 44 16 86
q25 284 195 494q121 147 290 199v12q-93 41 -198 205q-59 94 -107 94q-26 1 -48 -25t-28 -85h-69v286q47 27 106 27q92 0 158 -88q13 -20 69 -134t101 -163t98 -67t144 -13v213q0 82 -28 123t-95 43v70z" />
    <glyph glyph-name="uni04C2" unicode="&#x4c2;" horiz-adv-x="1374" 
d="M684 991q-135 -1 -211 57t-78 122t43 102q46 39 94 39q98 0 97 -68q1 -27 -17 -42t-38 -15t-46 11t-43 11q-33 0 -32 -32q1 -39 65 -67t166 -28t167 28t64 67q0 33 -32 32q-16 0 -42 -11q-27 -11 -47 -11t-37 15t-17 45t24 47t72 17t94 -38t43 -102q-2 -64 -78 -122
t-211 -57zM522 788h330v-59q-54 -12 -72 -45t-18 -104v-80q138 -7 208 102q9 14 29 48q68 115 118 137q50 21 138 18v-219h-59q-8 33 -20 48t-38 15t-45 -15t-49 -51t-49 -55q-41 -37 -67 -51v-6q55 -18 73 -25q185 -78 240 -300q18 -74 59 -85q18 -4 48 -2v-59h-361v59
q39 1 59 13t22 25q3 13 3 48t-33 109q-76 182 -276 182v-229q0 -72 18 -107t72 -41v-59h-330v59q53 6 72 41q18 35 18 107v229q-201 0 -276 -182q-33 -74 -33 -109t3 -48q2 -13 22 -25t59 -13v-59h-360v59q59 -4 73 17q14 22 20 30q5 8 13 40q56 222 240 300q18 6 73 25v6
q-50 26 -98 84q-47 58 -66 73t-45 15t-38 -15t-21 -48h-59v219q88 3 135 -17t92 -92q8 -12 28 -46t30 -48q9 -14 33 -40q62 -68 175 -62v80q0 72 -17 104t-73 45v59z" />
    <glyph glyph-name="uni04C3" unicode="&#x4c3;" horiz-adv-x="1392" 
d="M851 -297q87 0 155 96t67 342q0 381 -227 549q-160 119 -381 119h-62v-573q0 -80 27 -121t94 -45v-70h-418v70q121 12 121 166v962q0 152 -121 166v70h418v-70q-121 -14 -121 -166v-309q137 -10 233 40t167 207q70 157 129 220q88 94 198 94q70 0 125 -23v-317h-69
q-16 121 -105 121q-54 0 -96 -46q-12 -13 -64 -90t-131 -143q-78 -67 -145 -86v-12q231 0 399 -113q233 -160 234 -505q0 -446 -276 -572q-88 -41 -192 -41t-161 33q-76 43 -76 129q0 43 28 72t76 29t71 -24t22 -50l-6 -58q0 -51 87 -51z" />
    <glyph glyph-name="uni04C4" unicode="&#x4c4;" horiz-adv-x="901" 
d="M383 788v-59q-59 -12 -75 -45t-15 -104v-119q96 -5 135 25t74 103t52 101t51 65q34 36 78 46t108 4v-217h-60q-20 61 -69 61q-18 0 -28 -8t-16 -12q-6 -3 -13 -15t-11 -19t-14 -23t-15 -23q-41 -68 -90 -94v-6q154 -9 245 -103t91 -269t-74 -296q-96 -158 -276 -158
q-133 0 -178 68q-21 27 -21 65t23 61t61 23t62 -24t20 -62q-4 -39 3 -53t42 -14q106 0 143 114q27 79 27 253t-80 258t-215 85h-55v-190q0 -72 18 -107t72 -41v-59h-330v59q53 6 72 41q18 35 18 107v373q0 72 -15 104t-75 45v59h330z" />
    <glyph glyph-name="uni04C7" unicode="&#x4c7;" horiz-adv-x="1632" 
d="M1083 -240q145 0 146 357v573h-826v-454q0 -76 26 -118t95 -48v-70h-418v70q70 6 96 48t25 118v962q0 76 -25 118q-26 42 -96 48v70h418v-70q-121 -10 -121 -166v-428h826v428q0 156 -123 166v70h420v-70q-121 -14 -121 -166v-1003q0 -256 -114 -386t-251 -131
q-82 0 -130 41t-48 87t25 76q25 28 59 28t60 -18q27 -18 26 -56l-4 -37q0 -39 55 -39z" />
    <glyph glyph-name="uni04C8" unicode="&#x4c8;" horiz-adv-x="954" 
d="M385 788v-59q-57 -12 -75 -44t-17 -105v-154h366v154q0 70 -16 104t-76 45v59h334v-59q-59 -12 -75 -45t-17 -104v-531q0 -199 -59 -301q-72 -125 -215 -125q-55 0 -90 28q-34 28 -33 64q0 63 69 64q36 0 61 -32q26 -32 41 -36t27 -4q49 0 49 62v593h-366v-155
q0 -72 18 -108t74 -40v-59h-332v59q53 6 72 41q18 35 18 107v373q0 72 -15 104t-75 45v59h332z" />
    <glyph glyph-name="uni04D0" unicode="&#x4d0;" horiz-adv-x="1482" 
d="M1151 1794q0 -124 -132 -194t-285 -70q-154 0 -278 73t-124 191q0 94 66 143q68 49 132 49t100 -24q36 -25 36 -67q0 -43 -26 -65t-58 -22t-67 16q-36 16 -54 17q-47 0 -47 -47q0 -55 92 -95t240 -40t236 42q87 42 87 91t-47 49q-18 0 -54 -16q-80 -36 -125 6
q-26 23 -26 65t36 66q37 25 101 25q64 1 130 -49t67 -144zM1018 473l-303 674h-23l-313 -674h639zM1483 0h-402v70q47 8 61 24q13 16 13 44t-18 71l-82 184h-713l-80 -174q-25 -53 -24 -72q0 -61 79 -77v-70h-317v70q55 4 97 51t65 94l461 995q18 39 18 52q0 31 -49 30v70
q35 8 78 35t65 53h41l553 -1229q63 -147 154 -151v-70z" />
    <glyph glyph-name="uni04D1" unicode="&#x4d1;" horiz-adv-x="817" 
d="M408 991q-135 -1 -211 57t-78 122t43 102q45 39 93 39q99 0 97 -68q0 -27 -17 -42t-37 -15t-46 11t-43 11q-33 0 -33 -32q0 -39 65 -67t167 -28t166 28t65 67q0 33 -33 32q-16 0 -43 -11t-47 -11t-36 15q-17 15 -17 45q0 62 97 64q48 0 93 -38t43 -102t-78 -122t-210 -57
zM518 350v72q-168 -8 -236 -73t-69 -136q0 -71 41 -107t98 -36q112 1 139 86q27 86 27 194zM374 741q-84 0 -108 -67q-2 -6 -8 -28t-11 -31q-15 -27 -52 -27t-55 19q-17 19 -17 42q0 55 72 105t170 51q166 0 235 -79q68 -79 68 -271v-258q0 -127 84 -127q16 0 36 10l15 -23
q-49 -74 -131 -73q-53 0 -87 34t-46 78h-4q-105 -112 -231 -112t-188 61t-62 147q-1 161 128 223t336 74q0 127 -30 189t-114 63z" />
    <glyph glyph-name="uni04D2" unicode="&#x4d2;" horiz-adv-x="1482" 
d="M854 1667q0 55 40 95t95 40t95 -40t40 -95t-40 -95t-95 -40t-95 40t-40 95zM350 1667q0 55 40 95t95 40t95 -40t41 -95q0 -55 -40 -95q-39 -40 -95 -40t-96 40t-40 95zM1018 473l-303 674h-23l-313 -674h639zM1483 0h-402v70q47 8 61 24q13 16 13 44t-18 71l-82 184h-713
l-80 -174q-25 -53 -24 -72q0 -61 79 -77v-70h-317v70q55 4 97 51t65 94l461 995q18 39 18 52q0 31 -49 30v70q35 8 78 35t65 53h41l553 -1229q63 -147 154 -151v-70z" />
    <glyph glyph-name="uni04D3" unicode="&#x4d3;" horiz-adv-x="817" 
d="M469 1155q0 41 29 70q30 29 70 29t69 -30q29 -28 29 -69t-29 -70t-70 -29t-69 30q-28 28 -29 69zM152 1155q0 41 28 70q29 29 70 29q42 0 70 -30q28 -28 28 -69t-29 -70t-69 -29t-70 29q-28 29 -28 70zM518 350v72q-168 -8 -236 -73t-69 -136q0 -71 41 -107t98 -36
q112 1 139 86q27 86 27 194zM374 741q-84 0 -108 -67q-2 -6 -8 -28t-11 -31q-15 -27 -52 -27t-55 19q-17 19 -17 42q0 55 72 105t170 51q166 0 235 -79q68 -79 68 -271v-258q0 -127 84 -127q16 0 36 10l15 -23q-49 -74 -131 -73q-53 0 -87 34t-46 78h-4q-105 -112 -231 -112
t-188 61t-62 147q-1 161 128 223t336 74q0 127 -30 189t-114 63z" />
    <glyph glyph-name="uni04D4" unicode="&#x4d4;" horiz-adv-x="2273" 
d="M602 512h488v625h-11l-477 -613v-12zM1090 432h-558l-172 -215q-70 -88 -69 -102q0 -37 86 -45v-70h-377v72q97 0 165 63t144 164l680 868q74 94 74 140q-1 25 -21 41t-55 16h-14v70h823q8 0 166 16h27v-272h-70q-29 106 -107 141t-213 35h-333v-588h215q111 0 142 48
q17 26 26 67h67v-310h-67q-16 84 -58 100q-42 15 -110 15h-215v-606h438q182 0 276 48t117 179h70l-23 -307h-1177v70q123 10 123 166v196z" />
    <glyph glyph-name="uni04D5" unicode="&#x4d5;" horiz-adv-x="1226" 
d="M666 520h323q4 47 -12 107q-30 116 -139 114q-158 0 -172 -221zM516 305v117q-301 -16 -301 -217q0 -59 33 -95t86 -42q88 -12 135 51t47 186zM845 -16q-173 0 -270 112h-8q-59 -59 -141 -86t-143 -26q-113 0 -171 64t-59 153q0 145 124 210t339 78v54q0 119 -42 159
t-114 39q-72 0 -94 -67q-16 -86 -76 -86q-25 0 -45 15t-20 54q0 61 76 105q75 44 201 43q126 0 206 -88h4q86 88 232 88q146 1 228 -103q83 -104 81 -245h-487q-13 -292 96 -360q47 -30 121 -29q131 0 252 125l39 -35q-156 -174 -329 -174z" />
    <glyph glyph-name="uni04D6" unicode="&#x4d6;" horiz-adv-x="1341" 
d="M663 1530q-153 0 -278 73t-125 191q0 94 67 143t131 49t100 -24q36 -25 36 -67q0 -43 -26 -65t-58 -22t-67 16q-36 16 -54 17q-47 0 -47 -47q0 -55 92 -95t241 -40t235 42t87 91q0 49 -47 49q-18 0 -54 -16q-36 -17 -68 -17t-57 23q-26 23 -26 65t36 66q37 25 101 25
q64 1 131 -49t66 -144q1 -124 -131 -194t-285 -70zM106 1434h807q101 0 143 9t113 7v-272h-69q-29 106 -108 141t-212 35h-374v-588h256q109 0 141 46q18 26 26 69h68v-310h-68q-18 63 -37 84q-27 31 -80 31h-306v-606h419q178 0 281 49q102 49 113 178h69l-22 -307h-1160
v70q123 14 123 166v962q0 80 -25 122q-26 42 -98 44v70z" />
    <glyph glyph-name="uni04D7" unicode="&#x4d7;" horiz-adv-x="790" 
d="M412 991q-135 -1 -211 57t-78 122t43 102q45 39 93 39q99 0 97 -68q0 -27 -17 -42t-37 -15t-46 11t-43 11q-33 0 -33 -32q0 -39 65 -67t167 -28t167 28t64 67q0 33 -33 32q-16 0 -42 -11t-47 -11q-20 0 -37 15t-17 45t25 47q24 17 72 17t93 -38t43 -102t-78 -122
t-210 -57zM401 741q-71 0 -119 -53t-51 -168h324q4 111 -40 166t-114 55zM53 367q-1 195 101 317t257 121q155 0 233 -108t73 -240h-490q-27 -389 219 -389q133 0 254 125l37 -35q-139 -174 -311 -174t-283 111q-39 40 -64 111q-26 71 -26 161z" />
    <glyph glyph-name="uni04D8" unicode="&#x4d8;" horiz-adv-x="1531" 
d="M285 649q0 -203 86 -356q129 -229 379 -230q141 0 243 68q247 165 254 518h-962zM713 1370q-326 0 -453 -301h-70v352h80q29 -41 64 -41t93 20q150 50 306 50q346 0 551 -256q168 -209 168 -480t-162 -474q-208 -256 -540 -256t-519 247q-71 97 -111 225t-40 240v33h1165
q-6 231 -94 383q-61 106 -171 182t-267 76z" />
    <glyph glyph-name="afii10846" unicode="&#x4d9;" horiz-adv-x="770" 
d="M373 47q90 0 139 119q35 86 31 172h-332q-4 -104 34 -198t128 -93zM543 401v33q0 305 -181 305q-84 0 -139 -52t-78 -114h-59v224h31q25 -25 43 -25t89 16t136 17q145 0 239 -108t93 -296q0 -131 -51 -231q-96 -186 -292 -186t-278 168q-49 106 -43 249h490z" />
    <glyph glyph-name="uni04DA" unicode="&#x4da;" horiz-adv-x="1531" 
d="M879 1667q0 55 40 95t95 40t95 -40t40 -95t-40 -95t-95 -40t-95 40t-40 95zM375 1667q0 55 40 95t95 40t95 -40t40 -95t-40 -95t-95 -40t-95 40t-40 95zM285 649q0 -203 86 -356q129 -229 379 -230q141 0 243 68q247 165 254 518h-962zM713 1370q-326 0 -453 -301h-70
v352h80q29 -41 64 -41t93 20q150 50 306 50q346 0 551 -256q168 -209 168 -480t-162 -474q-208 -256 -540 -256t-519 247q-71 97 -111 225t-40 240v33h1165q-6 231 -94 383q-61 106 -171 182t-267 76z" />
    </font>
</defs>
</svg>
