<?xml version="1.0" encoding="UTF-8" standalone="no"?>
<svg width="269px" height="50px" viewBox="0 0 269 50" version="1.1" xmlns="http://www.w3.org/2000/svg" xmlns:xlink="http://www.w3.org/1999/xlink" xmlns:sketch="http://www.bohemiancoding.com/sketch/ns">
    <!-- Generator: Sketch 3.5.2 (25235) - http://www.bohemiancoding.com/sketch -->
    <title>ELPA-logo-horizontal</title>
    <desc>Created with Sketch.</desc>
    <defs>
        <path id="path-1" d="M20.2522124,45.5752655 L31.330531,45.5752655 L31.330531,40.3593363 C31.3712389,40.3367699 31.4119469,40.3137611 31.4526549,40.2907522 C31.5973451,40.4562389 31.7327434,40.6305752 31.8880531,40.785885 C32.9380531,41.8372124 33.9969027,42.8805752 35.040708,43.9385398 C35.1668142,44.0664159 35.2915929,44.2668584 35.2933628,44.435 C35.3119469,46.0624336 35.3044248,47.6903097 35.3022124,49.3181858 C35.3017699,49.3863274 35.2800885,49.4540265 35.2632743,49.5509292 L34.8345133,49.5509292 C31.4371681,49.5513717 28.039823,49.5473894 24.6429204,49.5575664 C24.3504425,49.5584513 24.1446903,49.4770354 23.9393805,49.2686283 C22.7477876,48.0602212 21.5429204,46.8650885 20.2522124,45.5752655"></path>
        <path id="path-3" d="M0,0.13409699 L172.865294,0.13409699 L172.865294,45 L0,45 L0,0.13409699 Z"></path>
        <path id="path-5" d="M0,0.13409699 L172.865294,0.13409699 L172.865294,45 L0,45"></path>
    </defs>
    <g id="v1" stroke="none" stroke-width="1" fill="none" fill-rule="evenodd" sketch:type="MSPage">
        <g id="v1-mobile" sketch:type="MSArtboardGroup" transform="translate(-35.000000, -28.000000)">
            <g id="ELPA-logo-horizontal" sketch:type="MSLayerGroup" transform="translate(35.000000, 28.000000)">
                <g id="ELPA">
                    <path d="M48.5287168,29.2381416 L48.5287168,49.5146903 C48.4096903,49.5288496 48.3154425,49.549646 48.2211947,49.549646 C46.5366814,49.5514159 44.8517257,49.5549558 43.1672124,49.5443363 C43.0163274,49.5434513 42.824292,49.4881416 42.7211947,49.3868142 C41.4999558,48.1859292 40.2919912,46.9717699 39.0813717,45.759823 C39.045531,45.7239823 39.0225221,45.6753097 38.954823,45.5753097 L44.5530531,45.5753097 L44.5530531,25.3589381 C45.1897788,25.3284071 45.7782743,25.3062832 46.3654425,25.2713274 C49.3278319,25.0947788 51.1074779,23.4169027 52.0866814,20.7399115 C52.5180973,19.559823 52.6835841,18.3284071 52.6857965,17.0775221 C52.6911062,13.7930088 52.6942035,10.5084956 52.6782743,7.22442478 C52.6707522,5.63814159 52.284469,4.15053097 51.3857965,2.81955752 C51.3627876,2.78548673 51.3490708,2.74522124 51.335354,2.70584071 C51.3322566,2.69787611 51.3495133,2.68327434 51.3800442,2.63858407 C52.1110177,3.37044248 52.8419912,4.09256637 53.5619027,4.82575221 C54.0968584,5.37044248 54.6561504,5.89787611 55.1375664,6.48769912 C56.1884513,7.77663717 56.6300442,9.31424779 56.6499558,10.940354 C56.6937611,14.450531 56.7096903,17.9629204 56.6459735,21.4726549 C56.6079204,23.5757522 56.0269469,25.5443363 54.6282743,27.1956637 C53.5216372,28.5023009 52.0822566,29.1288496 50.4021681,29.2323894 C49.7986283,29.2695575 49.1911062,29.2381416 48.5287168,29.2381416" id="Fill-1" fill="#7CACDE" sketch:type="MSShapeGroup"></path>
                    <path d="M80.0765044,49.5511504 L77.7092478,49.5511504 C76.7747345,49.5511504 75.8402212,49.559115 74.905708,49.5436283 C74.7406637,49.540531 74.5318142,49.4834513 74.4207522,49.3732743 C73.2136726,48.1776991 72.0220796,46.9666372 70.8269469,45.7586726 C70.7915487,45.7228319 70.7685398,45.6737168 70.6995133,45.5706195 L76.1052655,45.5706195 C74.8672124,30.4281416 73.6335841,15.3347788 72.394646,0.176814159 C72.515885,0.273274336 72.6034956,0.33079646 72.6765044,0.402920354 C73.8291593,1.55336283 74.9857965,2.69982301 76.124292,3.8639823 C76.265,4.00778761 76.365,4.24451327 76.3826991,4.44716814 C76.6437611,7.40513274 76.8924336,10.3644248 77.134469,13.3241593 C77.3464159,15.9175221 77.5419912,18.5126549 77.7539381,21.1060177 C77.994646,24.0520354 78.2495133,26.9967257 78.4906637,29.9423009 C78.7017257,32.5215044 78.8986283,35.1024779 79.1092478,37.6816814 C79.3220796,40.2892035 79.5468584,42.8958407 79.7614602,45.5029204 C79.8711947,46.8374336 79.9694248,48.1732743 80.0765044,49.5511504" id="Fill-3" fill="#7CACDE" sketch:type="MSShapeGroup"></path>
                    <path d="M30.0163717,40.195354 L26.0982301,40.195354 L26.0982301,0.161725664 C26.2314159,0.281637168 26.3243363,0.357743363 26.4088496,0.442256637 C27.5314159,1.5630531 28.659292,2.67809735 29.7659292,3.81393805 C29.9132743,3.96570796 30.0261062,4.225 30.0261062,4.43473451 C30.0384956,16.2165929 30.0371681,27.9988938 30.0362832,39.7807522 C30.0362832,39.9064159 30.0247788,40.0320796 30.0163717,40.195354" id="Fill-5" fill="#7CACDE" sketch:type="MSShapeGroup"></path>
                    <path d="M5.67849558,25.3560619 L10.7054867,25.3560619 L10.7054867,20.0516372 C10.849292,20.1688938 10.9253982,20.2215487 10.9904425,20.285708 C12.1475221,21.4299558 13.3059292,22.5728761 14.4559292,23.7242035 C14.5669912,23.835708 14.6975221,23.9980973 14.6988496,24.1383628 C14.7152212,25.8494248 14.709469,27.5609292 14.709469,29.3290708 L9.6280531,29.3290708 L9.6280531,40.1834956 L5.67849558,40.1834956 L5.67849558,25.3560619 Z" id="Fill-7" fill="#7CACDE" sketch:type="MSShapeGroup"></path>
                    <path d="M9.62637168,20 L5.68920354,20 L5.68920354,5.46681416 L10.6984956,5.46681416 L10.6984956,0.12699115 C10.8418584,0.236725664 10.929469,0.289380531 10.999823,0.359292035 C12.1639823,1.51637168 13.3290265,2.67256637 14.4847788,3.83849558 C14.5927434,3.94734513 14.6993805,4.11902655 14.700708,4.26238938 C14.7144248,5.93230088 14.7077876,7.60221239 14.7051327,9.27212389 C14.7046903,9.31106195 14.6838938,9.35044248 14.6613274,9.42787611 L9.62637168,9.42787611 L9.62637168,20 Z" id="Fill-9" fill="#7CACDE" sketch:type="MSShapeGroup"></path>
                    <path d="M60.0159735,45.5679646 L65.4469469,45.5679646 C65.7562389,41.9675221 66.0637611,38.3852212 66.3743805,34.7723894 C66.4863274,34.7564602 66.5920796,34.7281416 66.6978319,34.7276991 C67.6177434,34.7241593 68.5372124,34.7281416 69.4571239,34.7237168 C69.675708,34.7228319 69.8226106,34.7383186 69.8411947,35.0299115 C69.9389823,36.5392035 70.1336726,38.0458407 70.1518142,39.5546903 C70.1681858,40.9352212 70.0217257,42.319292 69.9119912,43.6989381 C69.7580088,45.6285841 69.5708407,47.5555752 69.3947345,49.5246018 C69.2779204,49.5334513 69.1566814,49.549823 69.035,49.549823 C67.435885,49.5515929 65.8367699,49.5551327 64.2376549,49.5445133 C64.0854425,49.5436283 63.8907522,49.4949558 63.7885398,49.3940708 C62.5575664,48.1838938 61.3403097,46.9595575 60.1203982,45.7378761 C60.0929646,45.71 60.0779204,45.6697345 60.0159735,45.5679646" id="Fill-11" fill="#7CACDE" sketch:type="MSShapeGroup"></path>
                    <g id="Group-15">
                        <path d="M0,0.12699115 L80.0765487,0.12699115 L80.0765487,49.5575221 L0,49.5575221" id="Clip-14" sketch:type="MSShapeGroup"></path>
                        <mask id="mask-2" sketch:name="Mask" fill="white">
                            <use xlink:href="#path-1"></use>
                        </mask>
                        <use id="Mask" fill="#7CACDE" sketch:type="MSShapeGroup" xlink:href="#path-1"></use>
                    </g>
                    <path d="M14.6869469,49.5511504 L14.2564159,49.5511504 C10.9435841,49.5511504 7.63075221,49.5555752 4.31836283,49.540531 C4.1090708,49.5392035 3.84933628,49.4365487 3.70022124,49.2909735 C2.55376106,48.1754867 1.4289823,47.0378761 0.298893805,45.9060177 C0.213938053,45.8206195 0.138716814,45.7263717 0.000221238938,45.5697345 L10.7068584,45.5697345 L10.7068584,40.2626549 C10.9595133,40.4856637 11.1506637,40.6392035 11.324115,40.8104425 C12.3811947,41.8551327 13.4387168,42.899823 14.4838496,43.9564602 C14.5988938,44.0723894 14.6993363,44.2644248 14.7006637,44.4223894 C14.7161504,46.0502655 14.7103982,47.6781416 14.7090708,49.3064602 C14.7090708,49.3737168 14.6971239,49.4414159 14.6869469,49.5511504" id="Fill-16" fill="#7CACDE" sketch:type="MSShapeGroup"></path>
                    <path d="M44.584646,19.8626549 L44.584646,5.53876106 C45.9505752,5.36530973 46.865177,6.05336283 46.9784513,7.38300885 C47.0501327,8.22637168 47.0629646,9.0759292 47.0669469,9.92283186 C47.0780088,12.2847788 47.0797788,14.6467257 47.0634071,17.0082301 C47.0603097,17.469292 47.0085398,17.9423009 46.8943805,18.3883186 C46.6266814,19.4361062 45.714292,20.0024779 44.584646,19.8626549" id="Fill-18" fill="#7CACDE" sketch:type="MSShapeGroup"></path>
                    <path d="M69.3653097,29.5220796 L66.8445133,29.5220796 C67.280354,24.5503982 67.7139823,19.605708 68.1476106,14.6610177 C68.1670796,14.6619027 68.1869912,14.6632301 68.2069027,14.6645575 C68.5918584,19.605708 68.9772566,24.5468584 69.3653097,29.5220796" id="Fill-20" fill="#7CACDE" sketch:type="MSShapeGroup"></path>
                </g>
                <g id="Group" transform="translate(96.000000, 3.000000)">
                    <g id="Group-3">
                        <mask id="mask-4" sketch:name="Clip 2" fill="white">
                            <use xlink:href="#path-3"></use>
                        </mask>
                        <g id="Clip-2"></g>
                        <path d="M12.8192099,3.29928261 L12.0067707,3.29928261 C11.5559495,1.67040301 10.2886344,1.25291137 8.82669427,1.21769398 C7.1289816,1.17705853 5.42946684,1.20821237 3.67739132,1.20821237 L3.67739132,8.25439967 C4.93794861,8.25439967 6.16126285,8.32137291 7.36986007,8.21722575 C7.7777316,8.18200836 8.30123681,7.79431605 8.49811441,7.42227592 C8.7588158,6.92953344 9.03017951,6.84254348 9.53581406,6.96625585 L9.53581406,10.6494833 L8.70340174,10.6494833 C8.49946597,9.49679097 7.77818212,9.12595485 6.6497776,9.24229264 C5.83253281,9.32657358 4.99846858,9.23371405 4.17506667,9.27931605 C3.98509705,9.28970067 3.65051024,9.54224247 3.64945903,9.68521906 C3.6330901,11.9388311 3.66012135,14.1927441 3.67934358,16.4466572 C3.67949375,16.4669749 3.70712569,16.4869916 3.82230885,16.6442659 C6.09143212,16.5682625 8.46432535,16.5708211 10.8213002,16.3768244 C12.0593314,16.2749348 13.090874,15.6422258 13.4020337,14.2335301 C13.4470858,14.0300518 13.8468479,13.905286 14.0823201,13.7440987 C14.1480962,13.8035468 14.213722,13.862995 14.2793479,13.9225936 C14.1984043,15.1327776 14.1174608,16.3429615 14.0345649,17.5844498 L0.00444513889,17.5844498 L0.00444513889,16.7685803 C1.21334271,16.4749515 1.48650851,15.574801 1.48020122,14.4409214 C1.45902674,10.6291656 1.47674722,6.8171087 1.46953889,3.00520234 C1.46698594,1.7054699 1.16453628,1.30483445 -6.00694444e-05,0.995553512 L-6.00694444e-05,0.13408194 L12.8192099,0.13408194 L12.8192099,3.29928261 Z" id="Fill-1" fill="#7CACDE" sketch:type="MSShapeGroup" mask="url(#mask-4)"></path>
                    </g>
                    <path d="M3.58719705,28.9440611 C3.58719705,31.3510344 3.57713542,33.6040444 3.60867188,35.8564524 C3.61092448,36.0140277 3.91878038,36.2989274 4.08772569,36.3014859 C5.21072396,36.3177401 6.33747656,36.3154825 7.45762153,36.2405327 C10.6494115,36.0271213 11.4741649,33.4899641 10.9383455,31.1513187 C10.7435703,30.3011347 10.2519019,29.7630912 9.4342066,29.4389106 C7.54907726,28.6913688 5.60207639,29.0591949 3.58719705,28.9440611 L3.58719705,28.9440611 Z M0.00105121528,45.3430243 L0.00105121528,44.5342284 C1.26055729,44.2807835 1.45803559,43.3378906 1.45277951,42.2204157 C1.43505903,38.4354491 1.44857465,34.6501815 1.44467014,30.8650645 C1.44331858,29.606118 1.14702604,29.1832083 0,28.7827233 L0,28.0025227 C2.85374913,28.0025227 5.67385938,27.9927401 8.49396962,28.0117033 C8.98789063,28.0150143 9.48601649,28.1129909 9.97332986,28.2112685 C12.1397344,28.6481748 13.5677352,30.192322 13.5817014,32.2856498 C13.5947665,34.245332 12.9164323,36.0584257 10.4280556,36.8304993 C9.60735677,37.0849976 8.72538715,37.2085595 7.86444184,37.2505494 C6.47353385,37.3181247 5.0767691,37.2687601 3.62158681,37.2687601 C3.62158681,39.2683254 3.57908767,41.1900812 3.64186024,43.108526 C3.66799045,43.9105494 4.22723698,44.4035929 5.05048872,44.5099976 L5.05048872,45.3430243 L0.00105121528,45.3430243 Z" id="Fill-4" opacity="0.9" fill="#7CACDE" sketch:type="MSShapeGroup"></path>
                    <path d="M116.632472,38.7898346 L124.251981,38.7898346 C123.009595,36.0239149 121.806704,33.3460386 120.5062,30.450537 C119.163949,33.3401691 117.918409,36.0213564 116.632472,38.7898346 M115.724973,44.5991992 L112.075304,44.5991992 C111.880078,44.0697343 112.077707,43.8471423 112.514862,43.5282293 C113.094082,43.1057711 113.640263,42.5069249 113.947668,41.8626273 C115.851419,37.8722259 117.68609,33.8487142 119.53713,29.8331791 C119.690157,29.5011724 119.906707,29.1688647 119.323583,28.9381457 C118.980737,28.8025437 119.070391,28.1686306 119.411134,27.9595838 C119.811948,27.7138146 120.22943,27.4913731 120.60922,27.216557 C121.08542,26.8719082 121.380061,26.9217243 121.631902,27.4883631 C123.172983,30.9566741 124.732536,34.4170085 126.288335,37.878848 C126.93318,39.3138815 127.528769,40.7754032 128.258913,42.1655871 C128.564667,42.7480286 129.179778,43.1614567 129.617834,43.682343 C129.805251,43.905236 129.89986,44.2066908 130.097188,44.5901691 L125.15047,44.5901691 C125.015914,44.1282794 125.014562,43.7983798 125.556389,43.5188982 C125.777895,43.4046674 125.938731,42.8095838 125.848627,42.5204701 C125.590178,41.6910554 125.206634,40.8979116 124.828948,40.1113898 C124.759117,39.9661557 124.487753,39.8385303 124.308596,39.8373263 C121.732969,39.8198681 119.157191,39.8182126 116.581864,39.8400353 C116.386788,39.8416908 116.102509,40.0031791 116.015409,40.1712895 C115.648835,40.8793998 115.34218,41.6185136 115.011799,42.3455871 C114.777978,42.8603029 114.918691,43.2246674 115.371164,43.5715738 C115.627961,43.76843 115.75741,44.1318915 115.944226,44.4202527 C115.871092,44.4798514 115.797957,44.5396005 115.724973,44.5991992" id="Fill-6" opacity="0.9" fill="#7CACDE" sketch:type="MSShapeGroup"></path>
                    <path d="M75,1 L80.1284288,1 C80.1470503,1.25780936 80.1643203,1.49650502 80.1859453,1.79254181 C78.9217839,2.06645485 78.6825573,2.96540134 78.6903663,4.10153846 C78.7188993,8.21309365 78.7016293,12.3251003 78.7016293,16.4369565 L78.7016293,17.3715719 L80.7289731,17.3715719 C81.7546589,17.3715719 82.7803446,17.3721739 83.8060304,17.3714214 C85.5964002,17.3703679 86.8266224,16.4887291 87.4150026,14.7876087 C87.4717682,14.6234114 87.5369436,14.4619231 87.5988151,14.2980268 L88.4372344,14.2980268 L88.4372344,16.3409365 L88.4372344,18.3534448 L75.1387604,18.3534448 C74.9902387,17.8793645 75.0379939,17.557592 75.6101554,17.3491472 C76.352013,17.0788462 76.4981319,16.3856355 76.5032378,15.6787291 C76.5143507,14.1494816 76.5074427,12.6199331 76.5075929,11.0905351 C76.5077431,8.75881271 76.5003845,6.4270903 76.5108967,4.09551839 C76.5154019,3.11770903 76.4087786,2.24404682 75.2979444,1.84807692 C75.133204,1.78938127 75.1091762,1.33351171 75,1" id="Fill-8" opacity="0.9" fill="#7CACDE" sketch:type="MSShapeGroup"></path>
                    <path d="M115.031401,11.2515382 C115.011428,10.9682941 115.006322,10.7180098 114.974485,10.4711871 C114.836475,9.40698975 114.256205,8.83824393 113.296745,8.81566868 C112.278118,8.79173891 111.645286,9.3219563 111.511482,10.420769 C111.437296,11.0301503 111.428285,11.6652673 111.510881,12.2720901 C111.65715,13.348478 112.260848,13.7974245 113.366877,13.7780098 C114.356821,13.7607021 114.778809,13.3632272 114.94445,12.2626085 C114.99626,11.9182606 115.005421,11.5674413 115.031401,11.2515382 M116.255166,8.99175563 C116.535239,8.35137102 116.960831,8.0258359 117.618592,8.05714025 C118.429679,8.09581918 118.992831,8.8272573 118.673411,9.56305998 C118.563034,9.81770881 118.116567,10.0615215 117.818923,10.0672406 C117.371556,10.0758192 117.320047,9.66705664 117.408349,9.28192286 C117.439134,9.14797637 117.477879,9.0158359 117.532092,8.80964861 C116.866072,8.89046801 116.737673,9.23737436 116.834686,9.74802654 C116.927643,10.236856 117.077216,10.7244814 117.094636,11.2164714 C117.156958,12.9725249 116.036813,14.3079262 114.292246,14.5108025 C113.581174,14.5935784 112.849378,14.4805516 112.128545,14.5044814 C111.885864,14.512458 111.567346,14.600953 111.424381,14.7713209 C111.108866,15.147274 110.883005,15.598779 110.576651,16.089866 C111.434743,15.8814212 112.206335,15.6646988 112.990241,15.5107356 C114.174961,15.27806 115.329946,15.4326252 116.420357,15.9486954 C117.585253,16.4998326 118.246167,17.4257188 118.224993,18.7347824 C118.204419,20.0110366 117.528037,20.9638627 116.396629,21.4373409 C114.593795,22.1916553 112.742455,22.1871402 110.975962,21.26607 C110.225245,20.8746152 109.707596,20.2267055 109.880146,19.3197824 C109.942317,18.9933443 110.263088,18.5552339 110.550971,18.4750165 C110.890664,18.380351 111.445405,18.5030098 111.675621,18.748779 C111.85643,18.9420232 111.814382,19.5417724 111.645737,19.8268225 C111.278112,20.4477924 111.532506,20.6991302 112.070428,20.8716051 C113.381744,21.2919563 114.677291,21.2793142 115.916824,20.6285449 C116.582995,20.2789295 116.979002,19.7401336 116.923738,18.9338961 C116.871778,18.1770232 116.417353,17.7547155 115.761845,17.527759 C113.989046,16.9137122 112.222253,17.1489463 110.465522,17.621371 C110.085733,17.7234112 109.714654,17.8579596 109.351384,17.9738459 C108.886897,17.4798994 108.904317,17.030351 109.277799,16.4908025 C109.815721,15.7136118 110.2736,14.8805851 110.796505,14.0209195 C109.593314,13.2205516 109.137087,12.1248994 109.378265,10.7189128 C109.527838,9.84645463 109.933908,9.14707336 110.691383,8.72341115 C112.554137,7.68133757 114.398419,7.76020045 116.255166,8.99175563" id="Fill-10" opacity="0.9" fill="#7CACDE" sketch:type="MSShapeGroup"></path>
                    <path d="M90.3104696,44.7871871 L85.8632283,44.7871871 C86.0673142,44.4383242 86.1503602,44.0861503 86.3559479,43.9857656 C86.8899653,43.7250968 87.0754297,43.3073041 87.0793342,42.7787422 C87.0923993,41.0499295 87.1081675,39.3206653 87.0787335,37.5923041 C87.0593611,36.457672 86.2401641,35.8640934 85.1575625,36.1321369 C83.8603628,36.453157 83.0618898,37.4806319 83.0618898,38.8288258 C83.0618898,39.9822707 83.0488247,41.136167 83.0668455,42.2894613 C83.0779583,43.0056988 83.161605,43.6874713 83.9635321,44.0346787 C84.1245182,44.1045115 84.162362,44.4599964 84.2957161,44.7755984 L80,44.7755984 C80.1952257,44.4378727 80.2769201,44.0808827 80.4805556,43.9857656 C81.0270373,43.7305148 81.1998872,43.2902974 81.2064948,42.7760332 C81.2311233,40.8955148 81.2504957,39.0139429 81.1991363,37.134779 C81.1901259,36.8027723 80.8472795,36.4700131 80.6311797,36.1565182 C80.4521727,35.8970533 80.2329193,35.6654312 80.0313863,35.421468 C80.0852986,35.3605148 80.1392109,35.2997121 80.1929731,35.2389095 L83.0219436,35.2389095 C83.0504766,35.5846118 83.0763064,35.8994613 83.1108464,36.319662 C83.3979783,36.1097121 83.607921,35.9539429 83.8202665,35.8016352 C85.0302153,34.9342941 86.3799757,34.8042606 87.7387465,35.2504981 C88.1433142,35.3832406 88.5971389,35.9271536 88.6845399,36.3535248 C88.8782639,37.2988258 88.8737587,38.2882238 88.9137049,39.2610667 C88.9641632,40.4863008 88.932026,41.7171034 89.0372977,42.936769 C89.067783,43.2902974 89.4405139,43.6180901 89.6692283,43.9488927 C89.8303646,44.1821703 90.0129757,44.4003978 90.3104696,44.7871871" id="Fill-12" opacity="0.9" fill="#7CACDE" sketch:type="MSShapeGroup"></path>
                    <path d="M67.054724,17.7749334 L63.1398481,17.7749334 L63.1398481,17.0746492 C63.9444783,16.8731274 64.1924149,16.3120572 64.1852066,15.5490137 C64.1695885,13.8954518 64.2027769,12.2411374 64.1703394,10.5881776 C64.1467622,9.39033477 63.2493247,8.79329464 62.1201693,9.16518427 C60.7885799,9.60374614 60.1533455,10.4790639 60.1533455,11.8757194 C60.1533455,13.0291642 60.1372769,14.1830605 60.159803,15.3362043 C60.1733186,16.0265555 60.2752865,16.6794318 61.0444757,17.0123415 C61.2102674,17.0841308 61.2554696,17.4358532 61.3994861,17.7540137 L57.1105278,17.7540137 C57.2883333,17.4296826 57.3625191,17.0666726 57.5608984,16.9754686 C58.1416198,16.7086291 58.2973498,16.2383114 58.3033568,15.6971073 C58.3243811,13.8417227 58.3482587,11.9848331 58.2887899,10.1312545 C58.2776771,9.78329464 57.8962361,9.44180634 57.6700747,9.10814414 C57.5035321,8.86282641 57.3114601,8.63496688 57,8.22876287 L60.1109965,8.22876287 C60.138178,8.56152206 60.1640078,8.87652206 60.1974965,9.28573611 C60.4379245,9.12168929 60.6178325,9.01287658 60.7824227,8.88434815 C61.9838116,7.94551872 63.3338724,7.83264246 64.7560165,8.18135484 C65.3385399,8.32418093 65.7576745,8.70735818 65.8033273,9.31734146 C65.9040938,10.6626759 65.9485451,12.0123749 66.0087648,13.3604184 C66.0479601,14.2351341 66.0194271,15.1176759 66.1341597,15.9815555 C66.1789115,16.3188298 66.5259627,16.6202846 66.7486701,16.928211 C66.9159635,17.1596826 67.1047318,17.375502 67.2840391,17.5982445 C67.2076007,17.6570906 67.1311623,17.7160873 67.054724,17.7749334" id="Fill-14" opacity="0.9" fill="#7CACDE" sketch:type="MSShapeGroup"></path>
                    <path d="M122.115352,8.000301 C122.115352,10.0743645 122.1143,12.099214 122.116403,14.1240635 C122.116703,14.4995652 122.11385,14.8764214 122.140581,15.2505686 C122.221374,16.3802341 123.025404,16.9217391 124.109507,16.5889799 C125.47849,16.1686288 126.104113,15.3294314 126.104113,13.9130602 C126.104113,12.6599833 126.087444,11.4066054 126.11072,10.1539799 C126.122734,9.51314381 125.922403,9.05637124 125.328917,8.7472408 C125.136394,8.64700669 125.052747,8.33712375 124.842354,8 L127.972122,8 L127.972122,8.7917893 C127.972122,10.8718729 127.975276,12.9519565 127.97032,15.0318896 C127.968518,15.7544482 127.97888,16.4384783 128.82661,16.7661204 C128.987296,16.8281271 129.026792,17.2054348 129.158794,17.5260033 L126.165234,17.5260033 C126.128141,17.1953512 126.090747,16.8621405 126.041941,16.4268896 C125.060256,17.312592 124.01715,17.7993144 122.743828,17.7434783 C121.252003,17.6778595 120.391809,16.950786 120.326934,15.4564548 C120.249895,13.6811371 120.258155,11.9017559 120.252898,10.1240301 C120.250946,9.46799331 120.109933,8.95568562 119.419885,8.6926087 C119.253043,8.62894649 119.18141,8.31394649 119,8.000301 L122.115352,8.000301 Z" id="Fill-16" opacity="0.9" fill="#7CACDE" sketch:type="MSShapeGroup"></path>
                    <path d="M97.7443109,39.7143367 C95.9061859,39.5448718 94.431481,40.3706745 94.0401286,41.6564103 C93.7522458,42.6021628 94.2168829,43.4938852 95.1547171,43.796544 C96.0521546,44.0859588 97.1056225,43.6169955 97.3128621,42.7154905 C97.5337675,41.7542363 97.6013456,40.7574638 97.7443109,39.7143367 M101.061346,43.7696042 C100.977399,44.5243701 100.470863,44.7477146 99.9611737,44.8858751 C99.0719958,45.1268283 98.4959298,44.7812765 97.8435756,43.6845708 C97.5860279,43.8769119 97.3340366,44.0694036 97.0778404,44.2560256 C95.9441798,45.0821293 94.7085513,45.1265273 93.4546017,44.6387514 C92.4634558,44.2531661 92.0084298,43.4276644 92.0001702,42.3908584 C91.9908595,41.2151394 92.3617883,40.1566611 93.5245826,39.6974805 C94.4855435,39.3179153 95.5257961,39.1361093 96.5361642,38.888233 C96.870751,38.8062096 97.2217067,38.7913099 97.7247883,38.7243367 C97.5747649,37.9751394 97.503132,37.2564939 97.2763699,36.5909755 C97.0613213,35.9597715 96.4866069,35.7127982 95.8297475,35.7430491 C95.1903083,35.7725474 94.7813855,36.1150892 94.5394558,36.7128818 C94.4181156,37.0123802 94.2496208,37.4355909 94.0123465,37.5085842 C93.7220609,37.5979822 93.2006581,37.4837514 93.0320131,37.2634169 C92.8657709,37.0460925 92.8717779,36.4275307 93.0533378,36.2625808 C93.5891572,35.7755574 94.2077223,35.2016945 94.8710392,35.0782832 C95.7403942,34.9166444 96.7187753,35.02034 97.5858777,35.2519621 C98.6166694,35.5273802 99.2795357,36.3169119 99.3286425,37.449136 C99.4011763,39.1237681 99.4231017,40.8005072 99.4716077,42.4761929 C99.5025435,43.5468618 99.951863,43.9419287 101.061346,43.7696042" id="Fill-18" opacity="0.9" fill="#7CACDE" sketch:type="MSShapeGroup"></path>
                    <path d="M104.678926,12.7821841 C103.076874,12.6229533 101.71525,13.272368 101.149996,14.3654617 C100.65097,15.3304784 101.019946,16.3888062 101.998027,16.7977192 C102.958387,17.1992577 104.068921,16.731047 104.301089,15.7088396 C104.51779,14.7545085 104.559838,13.7602944 104.678926,12.7821841 M108.059935,16.8567159 C107.928533,17.5779199 107.445274,17.8312142 106.920267,17.9501105 C105.904944,18.1799266 105.258146,17.6527192 104.826397,16.7137393 C104.620208,16.8803446 104.451263,17.0142911 104.285171,17.1515486 C103.13364,18.1024182 101.83674,18.222067 100.48713,17.726465 C99.5323263,17.3756456 99.0468151,16.6265988 99.0049166,15.5911473 C98.9541579,14.3424349 99.2854409,13.2497928 100.512359,12.7538898 C101.44674,12.3764316 102.463565,12.1995921 103.449755,11.9581874 C103.786144,11.875863 104.140854,11.8689399 104.671417,11.8054282 C104.539115,11.0753446 104.469284,10.3679868 104.272857,9.69795331 C104.080334,9.04131451 103.515081,8.79509378 102.862727,8.80668241 C102.196406,8.81857204 101.751141,9.13297003 101.529786,9.79954194 C101.430671,10.0976858 101.226285,10.5075018 100.987509,10.5752276 C100.689865,10.659659 100.130918,10.5457292 100.005974,10.3303613 C99.8493428,10.0600603 99.8721692,9.4272008 100.074753,9.25502689 C100.644662,8.77086301 101.304976,8.29467572 102.008389,8.09691652 C102.646176,7.91766903 103.406505,8.01654863 104.079283,8.15591318 C105.550083,8.46067906 106.304856,9.38144829 106.368079,10.8875185 C106.424694,12.2381205 106.404721,13.5920336 106.42124,14.9444416 C106.424244,15.1942744 106.419138,15.4469667 106.453978,15.6933379 C106.599346,16.7196088 106.924773,16.9763647 108.059935,16.8567159" id="Fill-20" opacity="0.9" fill="#7CACDE" sketch:type="MSShapeGroup"></path>
                    <path d="M20.7255833,12.6624279 C19.1921606,12.7515249 17.9686961,13.0021102 17.2412552,14.2598527 C16.8782856,14.8874447 16.8535069,15.5559731 17.2685868,16.1715249 C17.6678984,16.7635985 18.2703949,16.9822774 18.9647977,16.8843008 C19.6953923,16.7812072 20.2432257,16.3945684 20.3681701,15.636642 C20.5245008,14.689234 20.6015399,13.7284313 20.7255833,12.6624279 M24.0782092,16.8609731 C23.9591215,17.5836821 23.4593437,17.8141002 22.9292309,17.9299865 C21.9057977,18.1536319 21.2822769,17.5883477 20.8478246,16.670739 C19.9448307,17.5234814 18.9795147,18.0485818 17.7288689,17.9667089 C16.3375104,17.8756554 15.2739809,17.1368426 15.0655399,15.9867089 C14.7920737,14.4770266 15.380454,13.1425283 16.7169991,12.665739 C17.9479722,12.2267256 19.2486258,11.9839664 20.6706198,11.6152373 C20.5845703,11.0841169 20.5282552,10.4185985 20.3599106,9.78302994 C20.1783507,9.09689282 19.6399783,8.78324733 18.946026,8.78083931 C18.2447152,8.77843128 17.7854843,9.1041169 17.5557187,9.80154165 C17.4593073,10.0947189 17.2358489,10.4950534 16.9976736,10.554351 C16.6997291,10.6283978 16.1466397,10.4973109 16.0320573,10.2805885 C15.8842864,10.0012574 15.919427,9.3835985 16.1272673,9.2035985 C16.6752508,8.72966874 17.320697,8.21931757 17.9987309,8.08491957 C18.7979548,7.92644131 19.7188194,7.99642459 20.503026,8.23948479 C21.7261901,8.618448 22.352414,9.4102373 22.4087291,10.8919263 C22.4590373,12.217846 22.4441701,13.5463243 22.4579861,14.8735985 C22.4600885,15.0740667 22.4479244,15.2755885 22.4647439,15.4747022 C22.5610052,16.6194179 22.8910868,16.9207222 24.0782092,16.8609731" id="Fill-22" opacity="0.9" fill="#7CACDE" sketch:type="MSShapeGroup"></path>
                    <path d="M23.0264765,39.7284739 C23.1128263,40.6257649 23.1029148,41.3150625 23.2602968,41.9635742 C23.4745945,42.8474705 23.8384652,43.6901294 24.813993,44.0191261 C26.3657369,44.5422699 27.758447,43.7983401 28.1292256,42.1494438 C28.4786796,40.5950625 28.4708706,39.0123869 28.0226023,37.4665843 C27.708289,36.3828217 26.8449409,35.7728384 25.7339565,35.7684739 C24.6303306,35.7642598 23.7156232,36.3632565 23.4199313,37.4337749 C23.1961726,38.2436244 23.1297959,39.0972699 23.0264765,39.7284739 M25.7042221,44.9447113 C22.9082898,44.9439588 20.990723,42.8721528 21.0000338,39.8622699 C21.008894,36.9762498 22.9419287,34.9942933 25.742216,35.0000123 C28.5307898,35.0055809 30.4441518,36.9994271 30.4449027,39.9003468 C30.4456535,42.8980391 28.5214791,44.9456144 25.7042221,44.9447113" id="Fill-24" opacity="0.9" fill="#7CACDE" sketch:type="MSShapeGroup"></path>
                    <path d="M72.0287475,39.7417955 C72.1175001,40.6819794 72.1015817,41.3979159 72.2691755,42.0677988 C72.4830227,42.9223473 72.8659654,43.7255748 73.8071034,44.0458423 C75.3586972,44.5736517 76.7671755,43.791946 77.1281928,42.0869125 C77.4518169,40.5588691 77.4540696,39.0014778 77.0067024,37.4818624 C76.700198,36.4405413 75.8529185,35.8210764 74.7856347,35.7914276 C73.6835105,35.7608758 72.7266043,36.3500898 72.4333152,37.3957754 C72.2002458,38.2266952 72.1332683,39.1045714 72.0287475,39.7417955 M70.0035062,39.9549059 C69.8674489,35.9783507 73.7171494,33.9166283 77.0226208,35.5778657 C78.6363864,36.3889192 79.3367961,37.856461 79.4244975,39.6274142 C79.5479402,42.1194209 78.2876833,44.1979995 76.0161572,44.8087353 C72.7716564,45.681043 70.0147692,43.4471467 70.0035062,39.9549059" id="Fill-26" opacity="0.9" fill="#7CACDE" sketch:type="MSShapeGroup"></path>
                    <path d="M148.025091,12.727861 C148.114294,13.6663894 148.097925,14.3827774 148.267021,15.0520583 C148.48282,15.9055533 148.865613,16.7081787 149.809905,17.0257372 C151.362549,17.5478275 152.769826,16.7640148 153.127089,15.0586804 C153.447109,13.5304864 153.451464,11.9729446 153.001394,10.4537807 C152.694139,9.4165232 151.842054,8.79660681 150.775821,8.76936601 C149.672796,8.7412222 148.721747,9.33028574 148.428157,10.3798844 C148.195688,11.2111051 148.129462,12.0891319 148.025091,12.727861 M150.707492,8.00000146 C153.494714,8.00180748 155.404923,9.97699143 155.435859,12.8887473 C155.467395,15.8456536 153.501022,17.9450015 150.699383,17.945754 C147.893689,17.946657 146.000451,15.9034463 146,12.8739981 C145.9997,9.95908173 147.893689,7.99804494 150.707492,8.00000146" id="Fill-28" opacity="0.9" fill="#7CACDE" sketch:type="MSShapeGroup"></path>
                    <path d="M35.1072602,35.8387464 L37.6624642,35.8387464 L37.6624642,36.6260206 C36.962505,36.6260206 36.293031,36.6395658 35.6244581,36.6207531 C35.2323548,36.6099169 35.0183574,36.7045825 35.0269173,37.158345 C35.0659624,39.2119404 35.0823314,41.2658367 35.1090623,43.3195825 C35.1194242,44.1208534 35.4832949,44.6432447 36.3149564,44.7773417 L36.3149564,45.4327765 L32.06234,45.4327765 C31.9136682,44.9754019 32.0249468,44.756422 32.4606005,44.5378935 C32.7795692,44.3779103 33.1446413,43.9292648 33.156505,43.5972581 C33.2344451,41.4191979 33.2306907,39.2376761 33.2191274,37.0575089 C33.2183765,36.9131778 32.9557229,36.7155691 32.7746135,36.6419738 C32.5819407,36.5635624 32.3413626,36.6031444 32.0850163,36.5891477 L32.0850163,35.8790808 C32.4625527,35.8574086 32.8026959,35.8378434 33.3179416,35.8081945 C33.3179416,34.5946996 33.2565206,33.3979103 33.3332593,32.2100006 C33.4311725,30.6947497 34.0566456,29.4049504 35.3262133,28.5061544 C36.0129572,28.020034 36.7692315,27.8054186 37.5770154,28.2195992 C38.140617,28.5085624 38.3504095,29.1560206 38.0134199,29.6100842 C37.6385866,30.1153183 37.1778539,30.0543651 36.7040562,29.725519 C35.702248,29.0300507 35.1740874,29.2576093 35.12438,30.5233283 C35.056051,32.2670407 35.1072602,34.0152681 35.1072602,35.8387464" id="Fill-30" opacity="0.9" fill="#7CACDE" sketch:type="MSShapeGroup"></path>
                    <path d="M160.211012,8.58421298 C160.211012,10.9392632 160.172267,13.1897147 160.246753,15.4364036 C160.260269,15.8411026 160.656878,16.3874237 161.027056,16.5853334 C161.461658,16.817708 161.466614,17.0202832 161.375158,17.408126 L157,17.408126 C157.22451,17.0443635 157.31972,16.6771394 157.534017,16.5832264 C158.138466,16.3184939 158.351713,15.8418551 158.35787,15.2723568 C158.381297,13.0941461 158.367331,10.9153334 158.367331,8.65133673 C157.991446,8.61792536 157.632681,8.58616951 157.223909,8.55004911 C157.211444,8.33001566 157.199431,8.11810931 157.184864,7.85999894 C157.58808,7.8297481 157.949247,7.8026578 158.391359,7.76954743 C158.391359,6.71513272 158.351412,5.69202235 158.400819,4.67327653 C158.474254,3.15501566 158.869511,1.71938021 160.13127,0.758878537 C160.652222,0.36230663 161.365397,0.187875192 162.017901,0.0126912457 C162.252172,-0.0502184533 162.59622,0.133243085 162.835897,0.288259808 C163.348139,0.619363487 163.381477,1.16809258 163.109513,1.611019 C162.808415,2.10150395 162.317798,1.97643707 161.846853,1.73367787 C161.505509,1.55744041 160.97044,1.26215613 160.783474,1.39369459 C160.47757,1.60876148 160.239996,2.1231762 160.22663,2.5198986 C160.168363,4.24464777 160.201701,5.97255747 160.201701,7.7758685 L162.792346,7.7758685 C162.823282,8.0545976 162.846409,8.26379492 162.882,8.58421298 L160.211012,8.58421298 Z" id="Fill-32" opacity="0.9" fill="#7CACDE" sketch:type="MSShapeGroup"></path>
                    <path d="M102.094609,44.6748328 C103.080499,44.5268896 103.201239,43.7477425 103.205143,42.9788294 C103.226468,38.7417559 103.225116,34.5045318 103.203641,30.2676087 C103.200488,29.6511538 103.135162,29.0097157 102.360717,28.7491973 C102.19898,28.6948662 102.144918,28.318612 102,28 L105.042367,28 L105.042367,28.805786 C105.042367,33.444097 105.042067,38.082408 105.042668,42.7207191 C105.042818,43.5055853 105.007977,44.292408 105.942508,44.6706187 C106.075411,44.7243478 106.083671,45.0879599 106.16942,45.3745151 L102.094609,45.3745151 L102.094609,44.6748328 Z" id="Fill-34" opacity="0.9" fill="#7CACDE" sketch:type="MSShapeGroup"></path>
                    <path d="M46.0773831,11.5075967 C46.0890966,10.5330984 45.9543909,9.70112512 45.1327911,9.14592445 C44.4757815,8.70194452 43.8045055,8.75070706 43.1803839,9.20356659 C42.4087919,9.76358331 42.1323223,10.5394194 42.2496079,11.5075967 L46.0773831,11.5075967 Z M48.0871565,12.3172957 L42.1270662,12.3172957 C42.0012207,13.6263592 42.0630923,14.8574629 42.7426279,15.9665097 C43.3021747,16.8796034 44.4817884,17.2812923 45.5935237,16.8622957 C46.393949,16.5603893 47.1168848,16.0516937 47.972574,15.5812255 C48.2712694,15.7201385 48.2996522,15.9514596 47.9692702,16.3430649 C46.0335324,18.6373124 42.431318,18.6230148 40.6696313,16.2283826 C40.2961496,15.720891 40.143423,14.9843358 40.0701383,14.3329646 C39.8340654,12.2304562 40.1314091,10.2456402 41.9327416,8.85229569 C43.2575732,7.8275298 44.7897945,7.73903482 46.2274065,8.52119201 C47.6315298,9.284988 48.0236331,10.6923291 48.0871565,12.3172957 L48.0871565,12.3172957 Z" id="Fill-36" opacity="0.9" fill="#7CACDE" sketch:type="MSShapeGroup"></path>
                    <path d="M44.0154358,38.4569405 C44.1366259,37.5232282 43.9651277,36.7215058 43.2153108,36.15577 C42.6293334,35.7137466 41.9804332,35.6789807 41.3219219,36.0662215 C40.4090166,36.6030609 40.2252041,37.4603185 40.1762475,38.4569405 L44.0154358,38.4569405 Z M45.9777544,39.2797332 L40.1254888,39.2797332 C40.1211337,40.9192984 39.8751494,42.6490141 41.4827579,43.5884456 C43.1400738,44.5570743 44.5321832,43.6208034 45.7993482,42.4550175 C45.8933568,42.5144656 45.9987787,42.5681947 46.0879818,42.6416395 C46.1618673,42.7022917 46.2166806,42.7861211 46.287112,42.8681446 C46.2426607,42.9468569 46.2177318,43.0177432 46.1714784,43.0690643 C44.0211424,45.4524088 41.4007631,45.7139807 39.149961,43.6677599 C38.6579923,43.2206195 38.2733976,42.4806027 38.1613681,41.8205024 C37.8081598,39.7398168 37.9326537,37.7152683 39.5818603,36.1070074 C40.7365452,34.9809539 42.632487,34.674081 44.1037379,35.3710543 C45.306178,35.9407031 46.1237232,37.5891479 45.9777544,39.2797332 L45.9777544,39.2797332 Z" id="Fill-38" opacity="0.9" fill="#7CACDE" sketch:type="MSShapeGroup"></path>
                    <path d="M96.0008662,11.4593439 C96.1568966,9.92377532 95.4464253,8.87267164 94.2680129,8.81819004 C93.0424461,8.76175191 92.1489131,9.90150107 92.2348124,11.4593439 L96.0008662,11.4593439 Z M97.9917178,12.2717519 L92.2202456,12.2717519 C91.8496171,14.1360161 92.3539001,16.0421198 93.4482152,16.6048456 C95.1974374,17.5045446 96.5500511,16.6075546 97.8332846,15.4401131 C97.9926188,15.5811332 98.1364852,15.7084576 98.2880103,15.8427051 C98.2485147,15.9298456 98.2328966,16.0059994 98.1884452,16.056568 C96.0687447,18.4688088 93.3809374,18.7275211 91.1130155,16.644277 C90.6401188,16.2099292 90.2788011,15.4926382 90.1678228,14.8531566 C89.8164166,12.8284576 89.9155312,10.8446951 91.4605173,9.24094923 C92.6610051,7.99479539 94.5414791,7.65481211 96.0812091,8.36849104 C97.2877039,8.92760475 98.0956379,10.523073 97.9917178,12.2717519 L97.9917178,12.2717519 Z" id="Fill-40" opacity="0.9" fill="#7CACDE" sketch:type="MSShapeGroup"></path>
                    <path d="M136.974182,11.4454579 C137.140875,10.4036853 136.814097,9.54401975 136.115039,9.0985348 C135.446616,8.67261507 134.798467,8.72604316 134.156474,9.15918697 C133.446754,9.63793279 133.092044,10.5350733 133.267146,11.4454579 L136.974182,11.4454579 Z M138.972993,12.264488 L133.174489,12.264488 C132.834947,14.0951903 133.381128,16.0772973 134.409367,16.5939696 C136.173006,17.4804244 137.519312,16.6057087 138.785426,15.4671636 C139.327102,15.7061602 139.252165,15.9811268 138.907517,16.361896 C136.915164,18.5628325 133.671564,18.56208 131.729669,16.320207 C131.026406,15.508401 131.032713,14.4735515 131.00403,13.4734679 C130.955974,11.7883007 131.328555,10.2470131 132.614642,9.04600972 C133.767825,7.96917025 135.655808,7.68667861 137.089215,8.37221373 C138.294058,8.94848463 139.115958,10.597682 138.972993,12.264488 L138.972993,12.264488 Z" id="Fill-42" opacity="0.9" fill="#7CACDE" sketch:type="MSShapeGroup"></path>
                    <g id="Group-46">
                        <mask id="mask-6" sketch:name="Clip 45" fill="white">
                            <use xlink:href="#path-5"></use>
                        </mask>
                        <g id="Clip-45"></g>
                        <path d="M169.289841,34.7678428 C169.989049,34.9899833 170.717391,35.1501171 171.375001,35.460903 C171.693219,35.6114047 171.95302,36.0115886 172.104845,36.3580435 C172.288958,36.7783946 172.321245,37.3057525 171.73692,37.4658863 C171.232787,37.6040468 170.76004,37.5232274 170.52577,36.902107 C170.054224,35.6524916 169.157087,35.3392977 168.04355,35.9917224 C167.075531,36.5589632 167.048349,37.8245318 168.044301,38.3541472 C168.606251,38.6530435 169.259205,38.7794649 169.869811,38.9870067 C170.339554,39.146689 170.829571,39.2660368 171.272132,39.4823077 C173.210874,40.4306187 173.433731,42.9283445 171.645464,44.1313043 C170.140724,45.1435786 168.497074,45.1443311 166.872496,44.3939298 C166.239364,44.1016555 165.738085,43.5882943 165.693033,42.8571572 C165.671558,42.5075418 165.825336,42.0117893 166.078979,41.8186957 C166.329769,41.6275585 166.873547,41.6025753 167.162782,41.7512709 C167.397053,41.8716722 167.543772,42.3544816 167.554885,42.6824247 C167.58492,43.5687291 167.84457,43.9246656 168.742007,44.0781773 C169.72144,44.2458361 170.771754,43.7052341 171.01909,42.9063712 C171.224828,42.2420569 170.849994,41.4583946 170.092369,41.1470067 C169.334442,40.8354682 168.541376,40.6103177 167.765879,40.3409197 C166.332021,39.8426087 165.934962,39.3131438 165.974308,37.9661538 C166.018909,36.4433779 166.668711,35.4524749 167.9141,35.0857023 C168.338791,34.960786 168.792015,34.9333946 169.232174,34.8614548 C169.251396,34.830301 169.270619,34.7989967 169.289841,34.7678428" id="Fill-44" fill="#7CACDE" sketch:type="MSShapeGroup" mask="url(#mask-6)"></path>
                    </g>
                    <path d="M51.2966354,45.0633105 C50.3148003,45.0268891 49.3470816,44.8968556 48.6670955,44.1553339 C48.3140373,43.7703506 48.0803672,43.1830931 48.0076832,42.6573908 C47.9258385,42.0659192 48.5119661,41.6481265 49.0944896,41.7238289 C49.7065972,41.8034443 49.9931285,42.1723239 49.8540677,42.8485279 C49.7112526,43.5430931 50.0338255,43.9232603 50.6195026,44.0919727 C51.0150599,44.206053 51.4639288,44.2530095 51.8684965,44.1926583 C52.6958029,44.0692469 53.337645,43.4056851 53.3854002,42.7461867 C53.4333056,42.0848824 52.9638628,41.4821232 52.1119279,41.1752503 C51.2696042,40.8718389 50.4149661,40.6027419 49.5658845,40.3184443 C48.7277656,40.0379091 48.3370139,39.4289794 48.293013,38.5693138 C48.2264861,37.2751499 48.4269679,36.0470563 49.7220651,35.4366215 C51.0527535,34.8093306 52.4363029,34.8439459 53.7259939,35.6315212 C53.9892483,35.7921065 54.2562569,36.067073 54.355822,36.3483607 C54.5070469,36.7759359 54.6707361,37.3102168 54.0940694,37.5975245 C53.5632057,37.8621065 53.0071128,37.5696817 52.7917639,36.9615045 C52.4163299,35.9012202 51.6061432,35.5425747 50.5836111,36.0067219 C50.0314227,36.2574576 49.6420226,36.6297988 49.6285069,37.3118724 C49.614691,38.0049326 50.0233134,38.3866048 50.5624366,38.628762 C51.0580095,38.8515045 51.6022387,38.9652837 52.1252934,39.126471 C52.481355,39.2363372 52.8488299,39.3177586 53.1918264,39.4592302 C54.6115677,40.0449827 55.1993472,40.9192469 55.097079,42.2510362 C54.9978142,43.5447486 54.1517361,44.5066048 52.7687873,44.842374 C52.2885321,44.9588623 51.7880035,44.9921232 51.2966354,45.0633105" id="Fill-47" opacity="0.9" fill="#7CACDE" sketch:type="MSShapeGroup"></path>
                    <path d="M59.3340076,45.1206375 C58.216716,44.9910556 57.1769139,44.8122596 56.4679443,43.9131626 C56.1973314,43.5698683 56.0354443,43.0694502 56.0022559,42.6272763 C55.9606578,42.0693666 56.5012828,41.6631626 57.0504677,41.6991325 C57.6552169,41.7388649 57.9576665,42.1158716 57.9111127,42.7714569 C57.8486405,43.6497847 58.0911708,44.039283 58.9491127,44.1533633 C59.4226101,44.216273 60.0177481,44.2182295 60.3877759,43.9810389 C60.8180233,43.7053198 61.2143314,43.1794669 61.3491873,42.6864235 C61.5278939,42.0327947 61.0266144,41.5432128 60.4476951,41.293079 C59.7196535,40.97838 58.952867,40.7535305 58.2013983,40.4937646 C56.3733349,39.8619586 55.7555207,38.4744837 56.5820762,36.6859218 C56.7906674,36.2348683 57.1686544,35.802176 57.5768262,35.5156208 C58.6516188,34.7608549 60.8061596,34.8537144 61.8318453,35.6697345 C62.1036596,35.8860054 62.3398826,36.2375773 62.4281847,36.570788 C62.5289512,36.9508047 62.6219087,37.4736475 62.015808,37.6026275 C61.4724799,37.7182128 61.0350241,37.5737312 60.8190745,36.9867746 C60.3817689,35.7976609 59.5561144,35.488079 58.4490346,36.0678114 C57.9411474,36.3337479 57.6367455,36.7253532 57.6359946,37.3117078 C57.6352438,37.9036308 57.9450519,38.325186 58.4672056,38.5369419 C59.0405684,38.7696174 59.6520754,38.905972 60.2342984,39.1190823 C60.8388974,39.3404703 61.4936544,39.5081292 62.012354,39.8654201 C63.7555693,41.065972 63.5059807,43.5554201 61.5348019,44.5109552 C60.8608228,44.8376944 60.0709096,44.9243833 59.3340076,45.1206375" id="Fill-49" opacity="0.9" fill="#7CACDE" sketch:type="MSShapeGroup"></path>
                    <path d="M153.631175,35 C154.26716,35.1831605 154.928675,35.3080769 155.529069,35.5722074 C155.865007,35.72 156.162651,36.0592308 156.365686,36.3826589 C156.689461,36.8987291 156.528324,37.516087 156.112193,37.6796823 C155.561807,37.8961037 155.046862,37.6288127 154.827308,37.0128094 C154.45743,35.9757023 153.614956,35.6132943 152.60639,36.0702174 C152.047444,36.3233612 151.677266,36.7024749 151.666454,37.38199 C151.655491,38.0717391 152.04369,38.4627425 152.593776,38.7003846 C153.092953,38.915903 153.63568,39.0293813 154.157533,39.1931271 C154.560149,39.319398 154.972826,39.4242977 155.359072,39.59 C156.422151,40.0457191 157.120459,40.7667726 157.141183,42.0204515 C157.162357,43.3117559 156.54169,44.1804515 155.415538,44.6626589 C153.891876,45.3149331 152.352447,45.3259197 150.906125,44.4218562 C150.283204,44.0323579 149.903716,43.4511204 150.021302,42.6570736 C150.109003,42.065 150.553367,41.7069565 151.120272,41.7981605 C151.669908,41.886505 151.929558,42.200903 151.898171,42.7911706 C151.84486,43.7948662 152.150914,44.1495987 153.106018,44.2939298 C154.123594,44.447592 155.149881,43.8657525 155.380397,43.0042809 C155.550994,42.3667559 155.118645,41.6375753 154.320171,41.3179097 C153.627421,41.0405351 152.910642,40.8236622 152.205427,40.5774415 C150.446894,39.9633946 149.940508,38.9882943 150.439085,37.1801672 C150.827434,35.7713211 151.826989,35.1216054 153.631175,35" id="Fill-51" opacity="0.9" fill="#7CACDE" sketch:type="MSShapeGroup"></path>
                    <path d="M28.3101768,18.069815 C27.4478799,17.7459354 26.5851325,17.5164204 25.819998,17.1046478 C25.2056377,16.7741461 24.9034884,16.1414371 25.0273816,15.3812532 C25.1285987,14.7610358 25.5420266,14.5325742 26.0954164,14.5748652 C26.6438504,14.6165542 26.9267775,14.9365207 26.9038009,15.5334104 C26.8619025,16.62229 27.2361351,17.0147983 28.3056716,17.0799655 C29.345774,17.1431762 30.4014945,16.4270893 30.4189146,15.5848819 C30.4349832,14.8164204 29.9611855,14.3340625 29.2805987,14.0724906 C28.5837931,13.8047481 27.8692671,13.5838117 27.1639016,13.338494 C25.4615336,12.7462699 24.9580014,11.76229 25.4310483,9.97734012 C25.7052653,8.94279163 26.332991,8.18320969 27.3903634,8.05708929 C28.3052211,7.94812608 29.2735405,7.99734012 30.1745822,8.18591872 C30.6330622,8.28193878 31.0795283,8.77994882 31.3762714,9.20511604 C31.6443313,9.58889531 31.6896837,10.1415374 31.1388469,10.4332097 C30.6293079,10.7030592 30.0598495,10.4065709 29.8407462,9.81058427 C29.4103487,8.64013276 28.3860145,8.31519965 27.3062662,9.00660434 C26.486919,9.53125317 26.389156,10.682591 27.2064007,11.1998652 C27.7794632,11.5625742 28.4840778,11.719096 29.1340292,11.9564371 C29.6235952,12.1352331 30.1437966,12.2464538 30.6087341,12.4734104 C32.5695509,13.4310525 32.7550153,16.0098987 30.8928625,17.1531094 C30.1600153,17.6029589 29.2426047,17.750601 28.3101768,18.069815" id="Fill-53" opacity="0.9" fill="#7CACDE" sketch:type="MSShapeGroup"></path>
                    <path d="M164.846109,43.6086455 C164.032618,44.600602 162.97014,44.9709866 161.726402,44.8072408 C160.644251,44.6647157 160.08981,43.8970067 160.0811,42.5730435 C160.068335,40.643612 160.077946,38.7140301 160.077946,36.7844482 L160.077946,35.8946823 C159.732997,35.8560033 159.422288,35.8212375 159.056465,35.7801505 C159.039796,35.5780268 159.022226,35.3650669 159,35.0964214 C159.353959,35.0678261 159.667221,35.0423913 160.025686,35.013194 C160.043556,34.8118227 160.110083,34.6083445 160.069987,34.428796 C159.745912,32.9770569 160.572168,32.356689 161.861859,32 L161.861859,35.0169565 L163.90467,35.0169565 C163.931551,35.2899666 163.952125,35.4990134 163.984112,35.8218395 L161.877927,35.8218395 C161.877927,37.2497993 161.877777,38.570602 161.877927,39.8914047 C161.877927,40.6181773 161.86321,41.3452508 161.881832,42.0714214 C161.917873,43.4766555 162.711991,43.9748161 163.968644,43.343311 C164.394987,43.1291472 164.646227,43.1306522 164.846109,43.6086455" id="Fill-55" opacity="0.9" fill="#7CACDE" sketch:type="MSShapeGroup"></path>
                    <path d="M38.7924965,16.3034281 C38.0194028,17.4847157 37.0467283,17.8710535 35.8725208,17.7819565 C34.6930573,17.692408 34.0434063,16.9441137 34.030191,15.5772575 C34.0114193,13.6229933 34.0253854,11.6681271 34.0253854,9.71356187 L34.0253854,8.84245819 C33.6628663,8.80618729 33.3512561,8.77503344 33,8.73981605 L33,8.04148829 C33.3207708,8.01695652 33.6338828,7.99302676 34.0549696,7.9608194 C33.8346649,6.50847826 33.9522509,5.22003344 35.829421,5 L35.829421,7.9877592 L37.8729835,7.9877592 C37.8851476,8.26272575 37.8943082,8.47207358 37.9073733,8.76765886 L35.9016545,8.76765886 C35.8701181,9.03374582 35.8288203,9.22292642 35.8283698,9.41210702 C35.8234141,11.2413043 35.8154549,13.0708027 35.8283698,14.9 C35.8394826,16.4655184 36.5726302,16.9055853 38.0166997,16.2779933 C38.2312977,16.1846823 38.5317951,16.2900334 38.7924965,16.3034281" id="Fill-57" opacity="0.9" fill="#7CACDE" sketch:type="MSShapeGroup"></path>
                    <path d="M143.854518,43.6762207 C143.154709,44.4651505 142.354434,44.9043144 141.339711,44.9115385 C139.80794,44.9225251 139.082301,44.2335284 139.067134,42.6823077 C139.048062,40.727893 139.062628,38.7731773 139.062628,36.818612 L139.062628,35.9613545 C138.704014,35.9302007 138.412827,35.9049164 138.031987,35.8719565 C138.022376,35.6567391 138.012164,35.4293311 138,35.1551171 C138.355161,35.1376589 138.6489,35.1232107 139.062628,35.102893 C139.062628,34.6629766 139.109182,34.2176421 139.051666,33.7861538 C138.965466,33.1383946 139.203041,32.7577759 139.808391,32.5380435 C140.130964,32.4209532 140.422,32.2162709 140.821612,32 L140.821612,35.0985284 L142.909926,35.0985284 L142.909926,35.9059699 L140.862459,35.9059699 L140.862459,37.3089465 C140.862459,38.887709 140.851647,40.4664716 140.865763,42.0450836 C140.879279,43.565 141.642911,44.0469064 142.999129,43.4143478 C143.443343,43.207107 143.443343,43.207107 143.854518,43.6762207" id="Fill-59" opacity="0.9" fill="#7CACDE" sketch:type="MSShapeGroup"></path>
                    <path d="M53.2098108,8.22418645 L53.2098108,9.48508946 C53.5451484,9.19040718 53.8824384,8.91228009 54.1985538,8.61202925 C54.681362,8.15345066 55.2598307,7.88555768 55.8980686,8.04749748 C56.2503759,8.13674497 56.7057023,8.43007273 56.8064688,8.73408611 C56.909638,9.04517307 56.7501536,9.60819982 56.5010156,9.83319982 C56.1383464,10.1603905 55.6172439,10.1117784 55.2421102,9.67743059 C54.8133646,9.18092558 54.317191,9.28537374 54.0694045,9.7590025 C53.6972743,10.4704239 53.3376085,11.2504741 53.2470538,12.0332333 C53.1099453,13.2191864 53.2009505,14.4326814 53.2104115,15.6342868 C53.215217,16.2420125 53.3834115,16.7452901 54.018796,17.0270293 C54.1929974,17.1043871 54.2425547,17.4640861 54.3880729,17.7775811 L50,17.7775811 C50.2841285,17.3909423 50.4614835,17.1614272 50.6259236,16.9231831 C50.8525356,16.5947885 51.2486936,16.2662433 51.2610078,15.9264105 C51.3317396,13.9768119 51.3389479,12.0231497 51.2922439,10.072648 C51.2844349,9.74711287 50.9159089,9.42398578 50.6968056,9.11169481 C50.521553,8.86201253 50.32002,8.63054096 50.1302005,8.3910928 C50.1878672,8.33540718 50.2455339,8.27987206 50.3032005,8.22418645 L53.2098108,8.22418645 Z" id="Fill-61" opacity="0.9" fill="#7CACDE" sketch:type="MSShapeGroup"></path>
                    <path d="M14.0484695,35.2175832 L16.9367586,35.2175832 L16.9367586,36.50663 C17.3339678,36.1616802 17.6906301,35.8650414 18.0322751,35.5516969 C18.5279982,35.0971818 19.1292933,34.8941551 19.7555173,35.0541384 C20.081394,35.1372153 20.5077369,35.4576333 20.5781683,35.7468976 C20.6588115,36.0781517 20.5005285,36.6864795 20.2533428,36.8223825 C19.9591527,36.9841718 19.3806839,36.8964293 19.0666709,36.6952086 C18.445703,36.2974327 18.0761258,36.2235363 17.7370337,36.8929678 C17.3754157,37.6070982 17.090236,38.4103256 17.001183,39.2006099 C16.8787916,40.2882855 16.9693462,41.4004929 16.9735511,42.5021651 C16.9761041,43.1569979 17.0873827,43.7340213 17.8020589,44.0335196 C17.9705537,44.1041049 18.0265685,44.4439377 18.1848515,44.7613457 L14.0397594,44.7613457 C13.9612186,44.3989377 13.9622699,44.1459444 14.3925173,43.891446 C14.6997725,43.70964 15.0178402,43.2549745 15.0298541,42.9113792 C15.0984834,40.9617805 15.1274669,39.0066133 15.0456223,37.0586701 C15.0273011,36.6210113 14.5137074,36.2042721 14.2280771,35.7779009 C14.168308,35.8159778 14.1083888,35.8540547 14.0484695,35.8922822 L14.0484695,35.2175832 Z" id="Fill-63" opacity="0.9" fill="#7CACDE" sketch:type="MSShapeGroup"></path>
                    <path d="M131.273016,35.2066272 L134.038463,35.2066272 L134.038463,36.7370787 C134.363138,36.3620285 134.545449,36.1457576 134.733917,35.9350553 C135.294365,35.3085168 135.953026,34.9190185 136.835897,35.014286 C137.343784,35.0692191 137.743696,35.3101723 137.760215,35.8120954 C137.771628,36.1599048 137.612895,36.7160084 137.374569,36.8197041 C137.048242,36.9617777 136.454155,36.9053396 136.188799,36.6803396 C135.661539,36.2335001 135.211769,36.2711255 134.950918,36.7862927 C134.566023,37.5466272 134.206056,38.3728814 134.094628,39.2057576 C133.94986,40.2886171 134.034408,41.4062426 134.068948,42.5073128 C134.087569,43.1054064 134.168813,43.695373 134.851803,44.0008914 C135.035916,44.0832158 135.096736,44.4426138 135.263429,44.772363 L131,44.772363 C131.168194,44.4436673 131.232469,44.0783998 131.41508,44.0039014 C132.076144,43.7337509 132.214304,43.1854733 132.224065,42.6069449 C132.254851,40.8039349 132.274223,38.9986673 132.208147,37.1976138 C132.194481,36.8252727 131.799674,36.4631656 131.568707,36.1039181 C131.407721,35.8536339 131.226762,35.6164432 131.054663,35.373383 C131.127497,35.3178479 131.200181,35.2621623 131.273016,35.2066272" id="Fill-65" opacity="0.9" fill="#7CACDE" sketch:type="MSShapeGroup"></path>
                    <path d="M64,35 L67.1886363,35 C67.1886363,35.6959197 67.1868342,36.3645987 67.1890868,37.0331271 C67.1950937,38.8373411 67.1986979,40.6415552 67.2126641,42.4457692 C67.2171693,43.0292642 67.3913707,43.50199 67.9839557,43.7855351 C68.172724,43.8759866 68.2398516,44.2218395 68.415855,44.5502341 L64.0857491,44.5502341 C64.2815755,44.2085953 64.359816,43.8630435 64.5599974,43.7629599 C65.0859054,43.5003344 65.2956979,43.0829933 65.3002031,42.5574415 C65.3167222,40.6782776 65.3402995,38.7976087 65.273322,36.9205518 C65.2604071,36.5585953 64.8570408,36.2071739 64.6233707,35.857709 C64.4625347,35.6172074 64.283678,35.3885953 64,35" id="Fill-67" opacity="0.9" fill="#7CACDE" sketch:type="MSShapeGroup"></path>
                    <path d="M149.24676,44.543913 L145.188168,44.543913 C145.073135,44.1441806 145.122091,43.9164716 145.529062,43.6512876 C145.848931,43.4426923 146.15889,42.9546154 146.171204,42.5806187 C146.234577,40.6785786 146.230823,38.7723244 146.170303,36.8699833 C146.15919,36.5244314 145.787661,36.1820401 145.558796,35.854699 C145.392854,35.6172074 145.187717,35.407107 145,35.1848161 L145.153778,35 L148.08802,35 C148.08802,35.2478763 148.08802,35.5112542 148.08787,35.7747826 C148.087119,37.8550167 148.07946,39.9354013 148.088921,42.0156355 C148.092375,42.7506856 148.110997,43.4791137 148.984106,43.8192475 C149.129324,43.8756856 149.149147,44.2551003 149.24676,44.543913" id="Fill-69" opacity="0.9" fill="#7CACDE" sketch:type="MSShapeGroup"></path>
                    <path d="M145.000003,31.1778133 C144.998652,30.4346361 145.407274,30.0135324 146.142975,30.0002882 C146.89174,29.9867431 147.395573,30.4516428 147.41014,31.1695357 C147.424556,31.8729806 146.887986,32.4301377 146.200942,32.4254722 C145.487317,32.4206561 145.001355,31.915723 145.000003,31.1778133" id="Fill-71" opacity="0.9" fill="#7CACDE" sketch:type="MSShapeGroup"></path>
                    <path d="M65.0002065,31.1414056 C65.0114695,30.4093654 65.4336076,30.0007534 66.1792195,30.0000009 C66.9221284,29.9992484 67.413947,30.4810042 67.4097421,31.2053688 C67.4056874,31.9136296 66.8568029,32.4515226 66.1651032,32.4251848 C65.4513281,32.397944 64.9887933,31.8881949 65.0002065,31.1414056" id="Fill-73" opacity="0.9" fill="#7CACDE" sketch:type="MSShapeGroup"></path>
                </g>
            </g>
        </g>
    </g>
</svg>